<?xml version="1.0" encoding="UTF-8"?>
<svg width="133px" height="33px" viewBox="0 0 133 33" version="1.1" xmlns="http://www.w3.org/2000/svg" xmlns:xlink="http://www.w3.org/1999/xlink">
    <!-- Generator: Sketch 57.1 (83088) - https://sketch.com -->
    <title>microsoft</title>
    <desc>Created with Sketch.</desc>
    <g id="页面-1" stroke="none" stroke-width="1" fill="none" fill-rule="evenodd">
        <g id="首页" transform="translate(-424.000000, -2023.000000)">
            <g id="microsoft" transform="translate(424.000000, 2023.000000)">
                <rect id="矩形" fill="#9BA5B2" x="0" y="0" width="16" height="16"></rect>
                <rect id="矩形备份-17" fill="#BEC6CD" x="0" y="17" width="16" height="16"></rect>
                <rect id="矩形备份-15" fill="#BEC6CD" x="17" y="0" width="16" height="16"></rect>
                <rect id="矩形备份-18" fill="#BEC6CD" x="17" y="17" width="16" height="16"></rect>
                <path d="M43.4,9.72 L45.98,9.72 L50.96,21.16 L51.02,21.16 L55.98,9.72 L58.56,9.72 L58.56,24 L56.38,24 L56.38,13.8 L56.3,13.8 L51.92,24 L50.04,24 L45.66,13.8 L45.58,13.8 L45.58,24 L43.4,24 L43.4,9.72 Z M62.66,9.52 C63.08,9.52 63.44,9.64 63.72,9.92 C64,10.18 64.14,10.52 64.14,10.94 C64.14,11.36 63.98,11.7 63.7,11.98 C63.42,12.24 63.06,12.38 62.66,12.38 C62.24,12.38 61.9,12.24 61.62,11.98 C61.34,11.7 61.2,11.34 61.2,10.94 C61.2,10.52 61.34,10.18 61.62,9.92 C61.9,9.64 62.24,9.52 62.66,9.52 Z M61.6,13.66 L63.72,13.66 L63.72,24 L61.6,24 L61.6,13.66 Z M71.18,13.38 C72.5,13.38 73.56,13.68 74.36,14.28 C75.16,14.92 75.68,15.88 75.88,17.16 L73.78,17.16 C73.64,16.46 73.36,15.94 72.92,15.62 C72.48,15.28 71.9,15.12 71.18,15.12 C70.3,15.12 69.62,15.44 69.12,16.1 C68.6,16.74 68.36,17.66 68.36,18.82 C68.36,19.98 68.6,20.9 69.1,21.56 C69.56,22.2 70.24,22.54 71.16,22.54 C72.74,22.54 73.62,21.74 73.82,20.18 L75.92,20.18 C75.68,21.56 75.14,22.6 74.34,23.28 C73.54,23.94 72.46,24.28 71.14,24.28 C69.56,24.28 68.34,23.76 67.46,22.72 C66.6,21.72 66.18,20.44 66.18,18.84 C66.18,17.28 66.6,16 67.44,15 C68.34,13.92 69.58,13.38 71.18,13.38 Z M82.54,13.38 C83.06,13.38 83.52,13.46 83.88,13.64 L83.88,15.76 C83.36,15.6 82.86,15.54 82.38,15.54 C81.74,15.54 81.16,15.8 80.66,16.32 C80.12,16.88 79.86,17.62 79.86,18.52 L79.86,24 L77.74,24 L77.74,13.66 L79.86,13.66 L79.86,15.22 C80.12,14.66 80.46,14.24 80.86,13.96 C81.34,13.56 81.9,13.38 82.54,13.38 Z M89.94,13.38 C91.5,13.38 92.76,13.9 93.7,14.94 C94.62,15.96 95.1,17.26 95.1,18.84 C95.1,20.4 94.64,21.7 93.72,22.7 C92.76,23.74 91.5,24.28 89.94,24.28 C88.38,24.28 87.12,23.74 86.16,22.7 C85.24,21.7 84.78,20.4 84.78,18.84 C84.78,17.26 85.24,15.96 86.18,14.94 C87.12,13.9 88.38,13.38 89.94,13.38 Z M89.94,15.12 C88.96,15.12 88.2,15.5 87.66,16.28 C87.18,16.94 86.96,17.8 86.96,18.84 C86.96,19.88 87.18,20.72 87.66,21.38 C88.2,22.14 88.96,22.54 89.94,22.54 C90.92,22.54 91.68,22.14 92.24,21.38 C92.72,20.7 92.96,19.86 92.96,18.84 C92.96,17.8 92.72,16.94 92.24,16.28 C91.68,15.5 90.92,15.12 89.94,15.12 Z M100.98,13.38 C103.66,13.38 105.14,14.46 105.38,16.64 L103.32,16.64 C103.16,16.08 102.92,15.7 102.58,15.48 C102.22,15.24 101.66,15.12 100.94,15.12 C100.3,15.12 99.82,15.2 99.5,15.4 C99.12,15.6 98.94,15.92 98.94,16.32 C98.94,16.68 99.22,16.98 99.78,17.24 C100.14,17.4 100.82,17.6 101.86,17.86 C103.04,18.14 103.92,18.48 104.48,18.84 C105.3,19.36 105.72,20.08 105.72,21 C105.72,23.18 104.18,24.28 101.12,24.28 C98.28,24.28 96.76,23.06 96.52,20.66 L98.6,20.66 C98.72,21.36 98.98,21.86 99.34,22.14 C99.7,22.4 100.26,22.54 101.06,22.54 C102.7,22.54 103.54,22.06 103.54,21.14 C103.54,20.64 103.22,20.24 102.62,19.96 C102.3,19.8 101.6,19.6 100.54,19.36 C99.32,19.08 98.46,18.78 97.98,18.46 C97.18,17.96 96.78,17.26 96.78,16.38 C96.78,15.44 97.16,14.7 97.94,14.18 C98.72,13.64 99.74,13.38 100.98,13.38 Z M112.28,13.38 C113.84,13.38 115.1,13.9 116.04,14.94 C116.96,15.96 117.44,17.26 117.44,18.84 C117.44,20.4 116.98,21.7 116.06,22.7 C115.1,23.74 113.84,24.28 112.28,24.28 C110.72,24.28 109.46,23.74 108.5,22.7 C107.58,21.7 107.12,20.4 107.12,18.84 C107.12,17.26 107.58,15.96 108.52,14.94 C109.46,13.9 110.72,13.38 112.28,13.38 Z M112.28,15.12 C111.3,15.12 110.54,15.5 110,16.28 C109.52,16.94 109.3,17.8 109.3,18.84 C109.3,19.88 109.52,20.72 110,21.38 C110.54,22.14 111.3,22.54 112.28,22.54 C113.26,22.54 114.02,22.14 114.58,21.38 C115.06,20.7 115.3,19.86 115.3,18.84 C115.3,17.8 115.06,16.94 114.58,16.28 C114.02,15.5 113.26,15.12 112.28,15.12 Z M123.54,9.72 L125.7,9.72 L125.7,11.52 L123.84,11.52 C123.5,11.52 123.24,11.6 123.08,11.78 C122.92,11.94 122.84,12.22 122.84,12.6 L122.84,13.66 L125.56,13.66 L125.56,15.4 L122.84,15.4 L122.84,24 L120.74,24 L120.74,15.4 L118.36,15.4 L118.36,13.66 L120.74,13.66 L120.74,12.54 C120.74,11.66 120.98,10.96 121.46,10.48 C121.94,9.96 122.62,9.72 123.54,9.72 Z M130.14,10.32 L130.14,13.66 L132.5,13.66 L132.5,15.42 L130.14,15.42 L130.14,21.42 C130.14,21.7 130.2,21.9 130.32,22.04 C130.44,22.16 130.62,22.24 130.88,22.24 L132.24,22.24 L132.24,24 L130.54,24 C129.66,24 129,23.76 128.6,23.3 C128.2,22.86 128.02,22.24 128.02,21.42 L128.02,15.42 L126.1,15.42 L126.1,13.66 L128.02,13.66 L128.02,11.2 L130.14,10.32 Z" id="Microsoft" fill="#BCC4CC" fill-rule="nonzero"></path>
            </g>
        </g>
    </g>
</svg>