<?xml version="1.0" encoding="UTF-8"?>
<svg width="157px" height="47px" viewBox="0 0 157 47" version="1.1" xmlns="http://www.w3.org/2000/svg" xmlns:xlink="http://www.w3.org/1999/xlink">
    <!-- Generator: Sketch 57.1 (83088) - https://sketch.com -->
    <title>上汽集团</title>
    <desc>Created with Sketch.</desc>
    <defs>
        <polygon id="path-1" points="0.241185471 0.149337626 19.7907692 0.149337626 19.7907692 20.8251839 0.241185471 20.8251839"></polygon>
        <polygon id="path-3" points="9.71246786e-05 0.041910828 46.9408478 0.041910828 46.9408478 46.9997751 9.71246786e-05 46.9997751"></polygon>
        <linearGradient x1="50%" y1="0%" x2="50%" y2="100%" id="linearGradient-5">
            <stop stop-color="#7EB0E4" offset="0%"></stop>
            <stop stop-color="#01235A" offset="100%"></stop>
        </linearGradient>
    </defs>
    <g id="页面-1" stroke="none" stroke-width="1" fill="none" fill-rule="evenodd">
        <g id="首页" transform="translate(-656.000000, -3846.000000)">
            <g id="上汽集团" transform="translate(656.000000, 3846.000000)">
                <g id="编组" transform="translate(137.000000, 6.000000)">
                    <mask id="mask-2" fill="white">
                        <use xlink:href="#path-1"></use>
                    </mask>
                    <g id="Clip-2"></g>
                    <path d="M3.70076923,12.8383191 C3.60507692,12.8905103 3.50969231,12.9427015 3.414,12.9952015 C3.414,14.0899809 3.44446154,15.1859956 3.40292308,16.2795397 C3.37707692,16.9546279 3.61707692,17.1677162 4.29092308,17.1612309 C7.59307692,17.1297309 10.8958462,17.1414662 14.1983077,17.1408485 C16.5103077,17.1402309 16.5103077,17.1423926 16.5121538,14.8428926 C16.5149231,11.3019221 16.5121538,7.76126029 16.5254178,4.22059853 C16.5275385,3.62703971 16.4266154,3.25676029 15.69,3.26134968 C11.85,3.28609853 8.01,3.27714265 4.17,3.26324559 C3.614,3.26108382 3.39523077,3.46305441 3.39887718,4.03098088 C3.41553846,6.57136324 3.39953846,9.11174559 3.41092308,11.6515103 C3.41184615,11.8593485 3.53215385,12.0662603 3.59707692,12.2737897 C3.80415385,12.2046132 4.05338462,12.1882456 4.21123077,12.0588485 C5.45523077,11.0375691 6.68569231,9.99961324 7.90876923,8.95301029 C8.06323077,8.820525 8.14846154,8.60743676 8.40507692,8.22356912 C7.50876923,8.22356912 6.83369231,8.22665735 6.158,8.22295147 C4.35707692,8.21245147 4.39184615,8.21028971 4.34323077,6.43208382 C4.32261538,5.68009853 4.60138462,5.53711324 5.28415385,5.56181912 C6.89492308,5.61987794 8.50876923,5.59084853 10.1210769,5.60628971 C10.5223077,5.60999559 10.9032308,5.54020147 10.8312308,5.04701029 C10.6952308,4.11467206 11.158,3.94481912 11.9355385,4.03592206 C12.2884615,4.07761324 12.6518462,4.05043676 13.0090769,4.03036324 C13.4223077,4.006275 13.6109231,4.15976029 13.6330769,4.59705441 C13.6844615,5.61308382 13.7235385,5.63161324 14.778,5.58745147 C15.8887692,5.54081912 15.89,5.54174559 15.8773846,6.65906912 C15.8764615,6.76159853 15.8709231,6.86412794 15.8703077,6.96665735 C15.8650769,8.23468676 15.8653846,8.23468676 14.6364615,8.21770147 C13.6666154,8.20411324 13.6189231,8.25753971 13.6090769,9.26862794 C13.5927692,10.8843926 13.6078462,12.5017015 13.5361538,14.1153044 C13.4869231,15.2230544 12.8884615,16.0059221 11.79,16.2838632 C11.0490769,16.4716279 10.2832308,16.5599515 9.52753846,16.6896574 C9.08569231,16.7650103 8.84353846,16.5719956 8.79676923,16.1272897 C8.74107692,15.5920985 8.70815385,15.0525838 8.62292308,14.5217162 C8.52261538,13.8978926 8.73553846,13.6517603 9.36815385,13.7786868 C9.59184615,13.8234662 9.83,13.8515691 10.0543077,13.8262456 C10.5004615,13.7755985 10.8373846,13.5801132 10.8367692,13.0551132 C10.8352308,12.0236426 10.8361538,10.9918632 10.8361538,9.96070147 C10.5761538,10.0252456 10.4810769,10.1055397 10.4247692,10.2074515 C9.52353846,11.8306279 8.19738462,13.0665397 6.79553846,14.2366721 C5.734,15.1223779 5.74230769,15.1254662 4.84753846,14.0989368 C4.47430769,13.6709074 4.08353846,13.2580103 3.70076923,12.8383191 L3.70076923,12.8383191 Z M0.257384615,10.4103485 C0.257384615,7.25293676 0.276153846,4.095525 0.241384615,0.939039706 C0.234615385,0.319848529 0.398615385,0.146289706 1.01,0.149337626 C6.49061538,0.177480882 11.9721538,0.177789706 17.4527692,0.183348529 C18.0161538,0.183966176 18.5798462,0.179642647 19.1429231,0.154627941 C19.5789231,0.135172059 19.7856923,0.253451471 19.7844615,0.756525 C19.7718462,7.17356912 19.7730769,13.5909221 19.7909308,20.0079662 C19.7924615,20.6268485 19.5638462,20.8278926 18.9715385,20.780025 C18.4370769,20.7367897 17.8915385,20.8099809 17.3607692,20.748525 C17.0472308,20.7120838 16.7555385,20.5054809 16.4484615,20.3902897 C16.2204615,20.3053632 15.9838462,20.1824515 15.7506154,20.181525 C11.8832308,20.1673191 8.01523077,20.1682456 4.14784615,20.1741132 C3.95215385,20.1744221 3.68476923,20.181525 3.57276923,20.3007309 C2.67461538,21.2556132 1.558,20.5913338 0.553076923,20.7071426 C0.482923077,20.7154809 0.269384615,20.2207456 0.267538462,19.9591721 C0.247538462,16.7761279 0.254615385,13.5930838 0.254615385,10.4103485 L0.257384615,10.4103485 Z" id="Fill-1" fill="#264372" mask="url(#mask-2)"></path>
                </g>
                <path d="M119.252441,12.6312212 L119.252441,12.6398047 C118.726911,12.6398047 118.198661,12.6082297 117.677667,12.6563586 C117.485961,12.6741387 117.31149,12.8804491 117.129158,13.0009247 C117.292441,13.1204805 117.453002,13.33844 117.619914,13.3433449 C118.694557,13.375533 119.771317,13.3764527 120.846263,13.3448777 C121.006523,13.3402794 121.160432,13.1109774 121.317365,12.9859035 C121.154687,12.8675739 120.998963,12.6621831 120.827516,12.6474685 C120.305918,12.6024051 119.77797,12.6312212 119.252441,12.6312212 M119.200432,15.1474121 L119.200432,15.1520104 C118.6746,15.1520104 118.14635,15.123501 117.624449,15.1685643 C117.458747,15.1829723 117.309374,15.3941877 117.152743,15.5149697 C117.298488,15.625329 117.44121,15.8261215 117.589978,15.8307198 C118.665529,15.8638276 119.742289,15.8727177 120.817538,15.8460475 C120.977797,15.8423689 121.132311,15.6121472 121.289849,15.4864603 C121.119006,15.373342 120.954816,15.1780675 120.776112,15.1630463 C120.254212,15.1189026 119.725961,15.1474121 119.200432,15.1474121 M119.233693,10.116563 C119.233693,10.1190154 119.233693,10.1211613 119.233693,10.1233072 C118.680043,10.1233072 118.125184,10.1000091 117.574557,10.1383283 C117.419136,10.1490577 117.276112,10.340347 117.127343,10.4491735 C117.277927,10.5812981 117.425184,10.8237819 117.579395,10.8283802 C118.660086,10.8614879 119.742592,10.8605683 120.823283,10.8286867 C120.988078,10.8237819 121.14622,10.6042896 121.307387,10.4835075 C121.144406,10.3614992 120.989287,10.1487511 120.816933,10.13373 C120.292613,10.0868273 119.761944,10.116563 119.233693,10.116563 M123.245616,22.7254141 C123.245616,23.9418183 123.23987,24.9715314 123.247127,26.0012446 C123.25378,26.9622897 123.226868,26.9972368 122.293737,26.9972368 C121.815378,26.9972368 121.336415,26.9773109 120.859266,26.9981565 C120.348553,27.0205349 120.135076,26.8424273 120.16622,26.2854197 C120.216112,25.3967211 120.199179,24.5031177 120.18527,23.6116602 C120.181944,23.4022842 120.137192,23.0948111 120.004147,23.0138809 C119.878056,22.9372426 119.590799,23.0617033 119.408769,23.1616397 C117.485659,24.2140378 115.567689,25.2762456 113.652441,26.3433583 C113.194341,26.5987173 112.897106,26.5699013 112.647948,26.0248492 C112.315637,25.298624 111.887171,24.6171556 111.456285,23.8375901 C113.373045,23.3406669 115.139827,22.7462597 116.713391,21.5399718 C116.489633,21.5090099 116.266177,21.4513779 116.042419,21.4513779 C114.859827,21.4510713 113.677538,21.4550565 112.495248,21.4792742 C111.989071,21.4893905 111.751102,21.3189468 111.804924,20.7653112 C111.868121,20.113885 111.651317,19.2763809 111.97879,18.8606944 C112.226436,18.5461705 113.137192,18.7534007 113.753132,18.7521745 C115.640864,18.7475762 117.528596,18.7675021 119.416026,18.7414451 C119.663369,18.738073 119.907991,18.5225659 120.153823,18.4051559 C119.904968,18.259543 119.658834,17.9946808 119.40635,17.9885498 C117.922894,17.9511502 116.437019,17.9474716 114.953866,17.9919218 C114.386307,18.0090888 114.262333,17.7966473 114.282894,17.2813309 C114.326436,16.1875481 114.330972,15.0919259 114.338531,13.9969169 C114.340043,13.7807967 114.284104,13.5640634 114.259309,13.3801313 C114.130194,13.3442646 114.070626,13.3053323 114.037365,13.3218862 C113.041339,13.8074669 113.052829,13.7991899 112.285097,12.8638953 C111.903499,12.3985471 111.472613,11.9745836 111,11.4626393 C111.232829,11.2633795 111.426652,11.0794475 111.638315,10.9194265 C113.14324,9.78395246 114.330972,8.39679797 114.943888,6.57341788 C115.13378,6.00874638 115.400475,5.86834488 115.949287,6.12033184 C116.380173,6.31805883 116.853089,6.43761469 117.318445,6.53847079 C117.83581,6.65066936 118.25581,6.77390386 118.088898,7.4734589 C118.065616,7.5709429 118.338661,7.85266555 118.484708,7.86094249 C119.212225,7.90263377 119.943672,7.89895512 120.6727,7.87535051 C121.161641,7.86002283 121.184622,7.54733828 121.003197,7.18407241 C120.75676,6.69144097 120.94514,6.48819602 121.438618,6.42014114 C122.111102,6.32786855 122.780864,6.21413721 123.449417,6.09611412 C124.081685,5.9842221 124.134903,6.4869698 124.127041,6.8566733 C124.107387,7.77112232 124.544924,7.93635465 125.345616,7.89496993 C126.80216,7.81925122 128.264147,7.86216871 129.722808,7.82292986 C130.290065,7.80790874 130.45365,8.02740103 130.453045,8.58962011 C130.450324,10.4556111 130.473305,10.1303579 128.986523,10.1245334 C127.652441,10.1199351 126.318056,10.1024615 124.984881,10.1352627 C124.74419,10.1410873 124.508337,10.3633385 124.270065,10.4853468 C124.511361,10.6061289 124.749935,10.8247015 124.99365,10.830526 C126.301425,10.8614879 127.612527,10.8798811 128.91879,10.8194901 C129.694384,10.7836234 129.620302,11.2397749 129.61486,11.7422161 C129.609417,12.2339279 129.707084,12.7109251 128.926652,12.6808828 C127.594687,12.6296884 126.259093,12.6520668 124.925918,12.6833353 C124.708812,12.6885467 124.496242,12.897003 124.281857,13.0113475 C124.49594,13.1287575 124.709114,13.3445711 124.925011,13.3476366 C126.257883,13.3657233 127.592873,13.3580595 128.92514,13.3114633 C129.437063,13.2933767 129.642678,13.409867 129.63149,13.9748451 C129.607905,15.1553825 129.63784,15.1575284 128.490929,15.1556891 C127.308035,15.1538497 126.124536,15.1311648 124.942549,15.1609005 C124.717279,15.166725 124.496847,15.3742617 124.274298,15.4889127 C124.50743,15.6182783 124.740259,15.8583096 124.973996,15.8592293 C126.709935,15.8659735 128.446782,15.8478868 130.181512,15.7847368 C130.720043,15.7654239 130.907819,15.9282038 130.8927,16.4603807 C130.841901,18.236245 131.147905,17.9637189 129.438877,17.9765942 C127.652138,17.989776 125.8654,17.9609599 124.078661,17.9520699 C123.953175,17.9514568 123.798661,17.921108 123.709158,17.9821121 C123.542549,18.0955369 123.414039,18.2665938 123.269806,18.4134329 C123.436415,18.5290035 123.593045,18.7205995 123.771749,18.7445106 C124.142462,18.7944789 124.524968,18.7561597 124.902333,18.7530941 C126.914946,18.7347009 128.927862,18.7267305 130.940173,18.6908638 C131.415205,18.6822803 131.658013,18.8278932 131.632613,19.3355457 C131.613564,19.7168983 131.614471,20.099477 131.612052,20.4814426 C131.604795,21.4510713 131.56095,21.4893905 130.569762,21.4774349 C129.462462,21.46364 128.355162,21.4526041 127.247862,21.4547499 C126.961512,21.4550565 126.675162,21.509623 126.37581,21.6340837 C127.988683,22.9157838 129.895767,23.3360686 132,23.6435418 C131.485659,24.5233503 131.064147,25.3188565 130.554644,26.0515194 C130.456371,26.1928405 129.991317,26.1634114 129.732786,26.0855468 C127.597106,25.4417845 125.581771,24.5445025 123.838877,23.0997159 C123.725486,23.0059105 123.589417,22.9406147 123.245616,22.7254141" id="Fill-3" fill="#1E4276"></path>
                <path d="M68.9844581,26.9879339 C65.9183659,26.9879339 62.8519766,26.9741683 59.7858845,27 C59.1919201,27.0049913 58.9839286,26.8086822 59.0317667,26.22574 C59.0882215,25.5386582 58.8407116,24.6028983 59.1966742,24.229133 C59.534809,23.873622 60.4811704,24.0845944 61.1604113,24.0798064 C62.866536,24.0684348 64.5729579,24.0582603 66.2787855,24.0863899 C66.8614589,24.0956667 67.1262024,23.9511282 67.1241225,23.3014528 C67.1068889,18.1288881 67.1282823,12.9566225 67.1051061,7.784357 C67.1027291,7.20470656 67.2153416,6.95722544 67.8277281,7.00600346 C68.3928707,7.05059196 68.9663331,7.04490617 69.5323671,7.0051057 C70.0844361,6.96590374 70.2760854,7.17029262 70.2647944,7.72570368 C70.2303273,9.39044061 70.2564748,11.0566738 70.2157679,12.7211115 C70.2018027,13.2926821 70.4207881,13.4689414 70.9526521,13.4581683 C72.731871,13.4219588 74.5128727,13.442308 76.2903088,13.3707868 C76.9344882,13.3447519 77.1023671,13.5518341 77.1035556,14.1608112 C77.1074183,16.3929292 77.1234634,16.3908345 74.8774521,16.3881412 C73.5917674,16.3863457 72.3054884,16.4105851 71.0203979,16.3857472 C70.4674376,16.3749741 70.1949687,16.5371685 70.1988314,17.1386643 C70.2124994,19.2516803 70.2006142,21.3652947 70.1943744,23.4786098 C70.1925917,23.9894324 70.4938822,24.0872877 70.9241276,24.0833974 C73.2729461,24.0630483 75.6220617,24.0669386 77.9705831,24.0343201 C78.9980613,24.0199561 79.0120264,24.003198 78.997467,25.0278356 C78.9692396,26.9858392 78.9692396,26.9852407 76.9959943,26.9846422 C74.3256803,26.9840437 71.6550692,26.9846422 68.9844581,26.9846422 L68.9844581,26.9879339 Z" id="Fill-5" fill="#1E4276"></path>
                <path d="M89,12.1957785 C89.9110638,11.2197169 90.864339,10.4101279 91.5564309,9.38916042 C92.103421,8.58277894 92.3722258,7.53294339 92.6800177,6.55944785 C92.8315685,6.0799171 92.9409079,5.86950093 93.4310297,6.08376618 C93.9270143,6.30059747 94.4479153,6.4686738 94.9717476,6.58671214 C95.6292496,6.73490158 95.7309675,7.10569592 95.5160995,7.74175578 C95.1508532,8.82334621 95.1725452,8.83745949 96.2363323,8.82879906 C98.3099698,8.81211973 100.3839,8.81211973 102.457245,8.7675346 C102.891964,8.75823267 103.008339,8.89647866 102.999545,9.34938663 C102.95235,11.8237012 103.227604,11.3566799 101.220215,11.3669441 C98.9750933,11.3781706 96.7302649,11.3852272 94.4854366,11.3733592 C93.9064948,11.3704724 93.5113487,11.5719074 93.3219835,12.333383 C93.6344655,12.3587228 93.8868547,12.3968928 94.1389509,12.396572 C96.3837793,12.3917607 98.6289008,12.397855 100.873143,12.3580812 C101.388474,12.3487793 101.554682,12.5354595 101.582237,13.0746509 C101.681609,14.9963023 101.694214,14.9937362 99.9345244,14.9943777 C97.78731,14.9946985 95.6400956,15.0011136 93.4928812,14.9998306 C92.5094131,14.9991891 92.5117581,14.9937362 92.4428714,13.9304289 C92.4346636,13.8066169 92.383365,13.6866541 92.3109606,13.4069545 C91.9284193,13.7312392 91.6358705,14.0398068 91.29173,14.2470154 C91.1096931,14.3563933 90.7280312,14.4025823 90.6257271,14.2832609 C90.0297835,13.5891441 89.4898287,12.8372912 89,12.1957785" id="Fill-7" fill="#1E4276"></path>
                <path d="M103.767299,21.3699959 C104.523156,21.7285024 105.138255,21.9888324 105.717879,22.3157927 C105.871797,22.4027659 106.038875,22.7344434 105.991956,22.8859831 C105.684978,23.8821949 105.442658,24.9311803 104.947145,25.8274466 C104.187283,27.2010336 102.825767,27.353163 101.60644,26.360784 C100.517857,25.4748365 99.9551128,24.2687098 99.7940425,22.8945331 C99.6607233,21.7562159 99.647277,20.5993248 99.6421273,19.4500992 C99.6392664,18.8398126 99.4287021,18.637563 98.8442146,18.6452284 C96.8206807,18.6714678 94.7960023,18.6343199 92.7727544,18.6705833 C92.1633769,18.6817867 91.9980153,18.4639114 92,17.8674816 C92.0057398,16.0534268 91.9862855,16.0324943 93.7666406,16.0189324 C96.4095654,15.9982947 99.0527762,16.0230599 101.695415,16 C102.222684,15.9956412 102.338551,16.2217716 102.333116,16.7038095 C102.315092,18.394038 102.310228,20.085151 102.333974,21.7753795 C102.339982,22.2072973 102.431532,22.6501236 102.559701,23.062583 C102.620067,23.2571671 102.860385,23.3924915 103.019166,23.554645 C103.176803,23.3635987 103.41283,23.1964333 103.475484,22.9767891 C103.612522,22.4965201 103.661158,21.9903065 103.767299,21.3699959" id="Fill-9" fill="#1E4276"></path>
                <path d="M110.091518,34.7523415 C109.568794,36.0601173 109.04187,37.3657477 108.524548,38.6759754 C108.170465,39.5721405 107.804379,40.4649342 107.492305,41.3764236 C107.312863,41.9008212 106.95998,41.9532303 106.502372,41.9756038 C106.012956,41.9995097 105.702083,41.8582196 105.515439,41.3721328 C104.734655,39.3355333 103.936467,37.3056764 103.137379,35.2764326 C103.051859,35.0594405 102.918927,34.8614505 102.807901,34.6548789 L102.611955,34.6950286 C102.596951,34.9549287 102.567545,35.2145224 102.569645,35.4738096 C102.583448,37.3577791 102.595451,39.2417486 102.627259,41.1254116 C102.635961,41.6507286 102.584048,42.0139145 101.91369,41.9792816 C101.351058,41.949859 100.988572,41.9228882 101.000275,41.1624964 C101.042885,38.3624402 101.029982,35.5614645 101.008077,32.7611019 C101.003876,32.2036038 101.164114,31.9893701 101.728547,32.0004036 C103.781931,32.0402468 103.261008,31.7429553 104.001282,33.5628693 C104.746058,35.3944297 105.437721,37.2483636 106.161791,39.0881991 C106.222106,39.2417486 106.352336,39.3667949 106.556985,39.6567306 C106.932973,38.7535163 107.267552,37.9774938 107.579626,37.1928896 C108.188169,35.661992 108.800313,34.1323203 109.374649,32.5879373 C109.534586,32.1573244 109.760239,31.9902896 110.199543,32.0010166 C112.30694,32.0528127 111.982563,31.7423424 111.981363,33.7286782 C111.980163,36.1474658 111.96726,38.5662534 111.993666,40.985041 C112.000867,41.6537935 111.893742,42.0194313 111.103656,41.9992032 C110.31387,41.9789751 110.381386,41.5284407 110.387687,40.9868799 C110.408992,39.1032169 110.407192,37.2192474 110.406292,35.3352779 C110.405992,35.1470955 110.351079,34.9589131 110.321672,34.7704242 C110.245154,34.7642944 110.168336,34.7584712 110.091518,34.7523415" id="Fill-11" fill="#1E4276"></path>
                <path d="M149.726167,33.2038883 C149.72502,33.2220965 149.723586,33.2396876 149.722439,33.2578958 C149.221989,33.2578958 148.720106,33.2832022 148.221377,33.2501805 C147.782587,33.2211707 147.607645,33.4202271 147.610799,33.8683356 C147.615675,34.508711 147.569215,35.1540242 147.636611,35.786067 C147.65898,35.9968508 147.964412,36.3381785 148.140215,36.3378701 C149.448267,36.3366355 150.761195,36.3221306 152.062364,36.1937469 C152.891476,36.1122726 153.40856,35.4521459 153.409709,34.7534424 C153.410854,34.1075119 152.890616,33.5254647 152.070968,33.3983155 C151.29692,33.2782644 150.508532,33.2643767 149.726167,33.2038883 M152.505743,37.4143178 C153.690475,38.8891872 154.827026,40.3044939 156,41.7648584 C154.880656,42.2422852 154.052691,41.9703957 153.448423,41.1513325 C152.752956,40.2085147 152.009308,39.3055083 151.26652,38.4049708 C150.324126,37.2618622 149.067983,37.6612095 147.903039,37.693614 C147.800655,37.6963916 147.632596,38.1340071 147.625139,38.3741093 C147.5956,39.3221735 147.58929,40.2733238 147.630301,41.2207708 C147.662135,41.9534219 147.278122,41.9571253 146.769069,41.9703957 C146.228182,41.9849006 145.994734,41.8358397 146.00009,41.2025625 C146.023987,38.3805902 146.018825,35.558618 146.003625,32.7366457 C146.000757,32.2209506 146.13985,31.9833174 146.652345,32.0009084 C148.679095,32.0700381 150.709859,32.0570763 152.732594,32.1879289 C154.474847,32.3005732 155.510448,34.1596678 154.833622,35.7947082 C154.505247,36.5872306 153.860542,36.958494 153.144425,37.2223595 C152.903808,37.3109319 152.653727,37.3701859 152.505743,37.4143178" id="Fill-13" fill="#1E4276"></path>
                <path d="M143.23683,37.0658365 C143.245001,34.6828521 141.806597,33.2334917 139.43241,33.2328894 C137.224689,33.2322875 135.717706,34.7000132 135.710936,36.8571936 C135.703345,39.1917055 137.19714,40.7873868 139.399293,40.7976805 C141.744759,40.8081607 143.228589,39.3651229 143.23683,37.0658365 M139.459959,32 C141.457547,32.0216772 143.289548,32.5753485 144.353111,34.5564019 C146.131187,37.8690964 144.073226,41.583722 140.263566,41.9525352 C138.325179,42.140103 136.504901,41.8152464 135.146799,40.19006 C133.900065,38.6982486 133.732134,36.9731063 134.343192,35.1934701 C134.999969,33.2813622 136.475007,32.3552649 138.37295,32.0722573 C138.709691,32.0219783 139.053759,32.0255911 139.459959,32" id="Fill-15" fill="#1E4276"></path>
                <path d="M118.489265,40.7877056 C120.839585,40.7610651 122.330791,39.2859572 122.29618,37.0224091 C122.260982,34.731023 120.752178,33.2568132 118.456414,33.2705824 C116.171209,33.2843517 114.688216,34.7693375 114.717547,37.0140278 C114.746585,39.2186076 116.339277,40.8122508 118.489265,40.7877056 M118.896384,42 C116.531691,41.9488142 114.785889,41.3836755 113.683324,39.5101569 C112.202091,36.9936732 113.216955,33.6722859 115.877895,32.5635604 C117.792352,31.7658407 119.74406,31.7900866 121.60484,32.7961413 C123.215131,33.6668979 124.158427,35.5431106 123.978039,37.331619 C123.762747,39.4676517 122.73439,40.9696994 120.695275,41.633917 C120.007748,41.8581167 119.271238,41.9266637 118.896384,42" id="Fill-17" fill="#1E4276"></path>
                <path d="M63.6037796,42 C62.3790944,41.8211662 61.2444039,41.6476619 60.231745,40.9669683 C59.5479018,40.5074483 59.1098693,39.8776809 59.0012349,39.0584208 C58.9805565,38.9023853 59.2243286,38.5749181 59.3754847,38.5544884 C59.9177829,38.4822443 60.425423,38.4369437 60.6948246,39.1913618 C61.0559684,40.2027795 62.0625111,40.4500083 62.9610019,40.5329114 C63.7785266,40.6084124 64.6391556,40.4304669 65.4528941,40.2403819 C65.9809213,40.1169156 66.403809,39.7080257 66.3912855,39.069968 C66.3790532,38.4396084 65.9777176,38.0893429 65.4205659,37.9330113 C64.6292533,37.7109495 63.8242521,37.5383334 63.0323569,37.3183442 C62.2649264,37.105757 61.4605077,36.9571236 60.7530736,36.6101149 C58.9188126,35.7109125 58.8448364,33.7795666 60.5521145,32.6654083 C62.113479,31.6462925 65.3477547,31.8221655 66.7550505,33.0260368 C67.0061037,33.2406965 67.2562831,33.5231592 67.3631701,33.8266437 C67.4817068,34.1629934 67.9433301,34.5789893 67.4033619,34.9203723 C67.001735,35.1744111 66.2418768,34.8031237 65.9369433,34.4374618 C65.6104577,34.0463369 65.2003847,33.644553 64.7437125,33.4639427 C63.7919239,33.0873258 62.767324,33.0956161 61.8420386,33.5533596 C61.4648764,33.7398916 61.0676182,34.1825348 60.9697599,34.5819501 C60.8311272,35.1456911 61.3582807,35.4539129 61.8405824,35.5791558 C63.012261,35.8844168 64.2005406,36.122171 65.3751317,36.4161809 C65.7712249,36.5153685 66.1547946,36.6814708 66.5293356,36.8502378 C67.4176329,37.2508374 68.0114814,37.9105091 67.9998316,38.9364348 C67.9875993,40.0260182 67.3995757,40.8411333 66.4422534,41.2287052 C65.5388114,41.594367 64.5532383,41.7512907 63.6037796,42" id="Fill-19" fill="#1E4276"></path>
                <path d="M74.6428456,33.7692038 C74.5540497,33.7798763 74.4649568,33.7908537 74.3761609,33.8015262 C74.0720572,34.4787707 73.7694384,35.1569301 73.4635529,35.8335649 C72.5830184,37.7814435 72.5827214,37.7802238 74.6648218,37.7607084 C75.1803726,37.7558296 75.6959233,37.7600986 76.39946,37.7600986 C75.7386879,36.2586342 75.1907667,35.013919 74.6428456,33.7692038 M80,41.8098444 C78.6258909,42.1864302 78.1415227,42.0711675 77.7970302,40.8453578 C77.3453294,39.2383884 76.4538067,38.6867741 74.8937905,38.9294966 C74.1700594,39.04171 73.4154428,38.9612091 72.675378,38.9426085 C72.2489201,38.9316311 71.9923326,39.0792161 71.8450324,39.5161776 C71.6926836,39.9671658 71.4583693,40.3897957 71.2549406,40.8224882 C70.6704914,42.0653739 70.4967603,42.1470945 69,41.840947 C69.0567225,41.655246 69.0893898,41.4671056 69.1686825,41.3027495 C70.5582343,38.4260608 71.9828294,35.567058 73.3263499,32.6678047 C73.6637149,31.940247 74.1798596,32.0771596 74.725108,32.0094656 C75.2890659,31.9393322 75.5138769,32.2677394 75.7232451,32.7025664 C77.0961663,35.5545559 78.4785907,38.4019715 79.8512149,41.2545709 C79.9328834,41.4244157 79.9521868,41.6259729 80,41.8098444" id="Fill-21" fill="#1E4276"></path>
                <path d="M95,38.7956502 C94.4385182,40.6654407 93.2484084,41.6885164 91.5593322,41.9302188 C90.5579266,42.0736068 89.4940054,41.9789223 88.4888373,41.8010487 C86.6469455,41.4746446 85.5844714,40.1463401 85.182462,38.3421935 C84.7778478,36.5256441 84.9830492,34.7199849 86.4420335,33.4373589 C87.1106021,32.8495894 88.002895,32.3955277 88.85901,32.2113015 C90.8852647,31.7759951 92.8620279,31.8855023 94.3097247,33.7761657 C94.5207145,34.0517488 94.6471926,34.3978159 94.8217151,34.7284551 C93.7962872,35.1141504 93.3835692,34.9982906 92.7888037,34.2734858 C91.8308116,33.1055096 90.5509804,33.0589237 89.2691233,33.3323892 C87.96527,33.6106949 87.0845539,34.4897777 86.8119169,35.8816085 C86.6984629,36.4612103 86.6816763,37.087398 86.7505591,37.6757724 C87.0781866,40.4724417 90.1067152,41.8285768 92.3167538,40.1844559 C92.547135,40.0129349 92.8070374,39.7993656 92.9103616,39.5431429 C93.329447,38.4994967 94.1244936,38.7185111 95,38.7956502" id="Fill-23" fill="#1E4276"></path>
                <path d="M129.046032,32.0071918 C130.420223,32.0071918 131.794096,32.0142467 133.167969,32.0028975 C133.650587,31.9992166 133.984609,32.0820356 133.999532,32.6565536 C134.014455,33.2442613 133.67059,33.3283071 133.191465,33.3212522 C132.37292,33.3092895 131.552787,33.3344419 130.735195,33.2979402 C130.12462,33.2706406 129.898869,33.4687926 129.908077,34.0862538 C129.943956,36.4309498 129.908394,38.776566 129.944908,41.121262 C129.954116,41.72492 129.835367,42.0261356 129.131443,41.9982225 C128.498642,41.9733768 128.025232,42.0040505 128.049363,41.1277035 C128.113183,38.8100003 128.052538,36.488923 128.085877,34.1699929 C128.095085,33.5028404 127.872827,33.2488623 127.173666,33.2964065 C126.46371,33.3445642 125.747403,33.314504 125.033955,33.3046884 C124.546257,33.2982469 123.981721,33.419408 124.000454,32.6310944 C124.018235,31.9007541 124.534509,32.0056581 125.003156,32.0047379 C126.350676,32.002284 127.698195,32.0038177 129.046032,32.0038177 L129.046032,32.0071918 Z" id="Fill-25" fill="#1E4276"></path>
                <path d="M88.070867,17 C88.4725626,17.2764945 88.7879565,17.4970136 89.1059655,17.711689 C90.1426332,18.4116907 90.1873532,18.4341424 89.6993558,19.6985129 C88.9480071,21.6447393 88.1247402,23.5522133 87.341486,25.4812164 C87.1021946,26.0704973 86.847212,26.1929054 86.4321788,25.6657511 C86.0056387,25.1238341 85.5095341,24.6554235 85.0981622,24.0993588 C84.9838777,23.9449647 84.9634791,23.500236 85.0683489,23.3464571 C86.2611444,21.592762 87.0679354,19.5960962 87.8007162,17.5477606 C87.8674039,17.361073 87.9738428,17.194069 88.070867,17" id="Fill-27" fill="#1E4276"></path>
                <path d="M83.9822,37.0007949 C83.9822,38.3999397 83.9422124,39.8009235 83.9969853,41.1982294 C84.0305883,42.0441526 83.4700903,41.9574148 82.8591878,41.9954201 C82.165958,42.0386357 82.009368,41.7762769 82.0140724,41.1973099 C82.0365864,38.3990202 82.0476754,35.5995046 82.0002952,32.8015215 C81.98719,32.0319152 82.4115959,32.0202684 83.0369477,32.0015723 C83.7012789,31.9819567 84.016475,32.1401075 83.9993375,32.8027474 C83.9630463,34.2012793 83.9882485,35.6013436 83.9882485,37.0007949 L83.9822,37.0007949 Z" id="Fill-29" fill="#1E4276"></path>
                <path d="M88.3920619,12 C87.59406,11.1896859 86.8276476,10.4112207 86,9.57103066 C86.5209855,9.04425604 87.0028484,8.52340023 87.5223759,8.0594778 C87.6322105,7.96139456 87.9301247,7.99183418 88.0564832,8.09809102 C88.6916772,8.63303925 89.3084034,9.1989908 89.9052039,9.789745 C89.9982718,9.88190942 90.0339923,10.2528219 89.9610932,10.3370946 C89.4646505,10.9084012 88.9317582,11.4377125 88.3920619,12" id="Fill-31" fill="#1E4276"></path>
                <path d="M87.6508959,16 C87.4808355,15.8731812 87.3565312,15.7878507 87.2388361,15.6919274 C86.5870648,15.1599358 85.9510539,14.5996968 85.2802175,14.1027202 C84.9637373,13.8685026 84.900187,13.6837179 85.1676064,13.3765281 C85.2720831,13.2567711 85.3760513,13.1364257 85.4762064,13.0119608 C86.5049579,11.7325916 86.5113129,11.7208219 87.8001119,12.6700503 C88.2401338,12.9937177 88.8184411,13.3079694 88.9887557,13.789057 C89.0878941,14.0691764 88.5065364,14.6759058 88.2243734,15.1296288 C88.0451617,15.4173986 87.8529857,15.6942814 87.6508959,16" id="Fill-33" fill="#1E4276"></path>
                <g id="编组">
                    <mask id="mask-4" fill="white">
                        <use xlink:href="#path-3"></use>
                    </mask>
                    <g id="Clip-36"></g>
                    <path d="M23.8036739,46.8788178 C10.5266229,47.051251 0.0647821656,36.2460408 0.134234395,23.5392764 C0.0441261146,10.9178306 10.3697567,0.0602318471 23.6746484,0.162614013 C36.4284127,0.260805096 46.6226229,10.6103847 46.8142153,23.1294484 C47.0141898,36.1816777 36.5571389,46.7132701 23.8036739,46.8788178 M23.6054955,0.0419074437 C10.3101834,-0.0298764331 -0.0175426752,10.673251 9.71246782e-05,23.5311936 C0.0073044586,36.4900217 10.483814,46.9856904 23.4136038,46.9997751 C36.4460752,47.0141299 47.0860369,36.4310471 46.939349,23.2432064 C46.7992471,10.6504994 36.7047248,0.113219108 23.6054955,0.0419074437" id="Fill-35" fill="#B1C4D1" mask="url(#mask-4)"></path>
                </g>
                <path d="M2.01806981,25.1524525 C2.00177736,25.0287057 1.9899283,24.9251867 1.98193019,24.8475475 C1.99081698,24.9460095 1.99940755,25.0444715 2.00977547,25.143231 C2.01214528,25.1456108 2.01510755,25.1488829 2.01806981,25.1524525" id="Fill-37" fill="#231F20"></path>
                <path d="M1.88373113,26 C1.9394217,26.3432719 2.0179217,26.6779129 2.11626887,27 C2.02621604,26.6630051 1.9494934,26.3264025 1.88373113,26" id="Fill-39" fill="#231F20"></path>
                <path d="M20.4671586,21.7791681 C20.5148716,21.7823188 20.5625845,21.7857847 20.6099876,21.7886203 C21.0638801,22.8923265 21.5174628,23.9960326 21.9958315,25.159918 L19.0766674,25.159918 C19.5537968,24.0001286 20.0104777,22.8894908 20.4671586,21.7791681 M18.2937416,27.0024739 C18.398772,26.7453731 18.5378831,26.6325764 18.8328357,26.6410834 C19.7186233,26.6662894 20.6118466,26.7182767 21.4908179,26.6363573 C22.322696,26.5585339 22.8354552,26.7841272 23.0095764,27.6559385 C23.0352918,27.7851191 23.2056951,27.9779447 23.3138238,27.9814105 C24.1927952,28.0078768 25.0730059,27.9959039 26,27.9959039 C25.9498085,27.8493943 25.9299797,27.7614885 25.8921812,27.6830349 C24.6888238,25.2046585 23.487945,22.7250219 22.2675473,20.2554676 C22.2043432,20.1275473 21.9747634,20.0194768 21.8198513,20.0153808 C20.9638069,19.9926954 20.1065232,20.0166411 19.2504788,20.0002572 C18.9710174,19.9945859 18.8272589,20.0818615 18.7030194,20.345894 C18.1004112,21.6279323 17.4717778,22.8967375 16.8536785,24.170899 C16.2507605,25.4141831 15.6490818,26.6584125 15,28 L16.8406658,28 C17.880436,28 17.8850834,28.0022054 18.2937416,27.0024739" id="Fill-41" fill="#073A76"></path>
                <path d="M7.86326037,27.5517463 C9.30020528,28.0889083 10.8004119,28.0688899 12.2912695,27.8759847 C12.8450433,27.8041002 13.4184501,27.6111951 13.8999248,27.3360929 C14.7061223,26.8756683 15.0414406,26.1037442 14.995942,25.1989704 C14.9557412,24.3951989 14.4290795,23.9214286 13.729461,23.6202418 C13.3040804,23.4373458 12.8556389,23.2899372 12.4028345,23.1868118 C11.3149198,22.9390075 10.2154747,22.7388229 9.12755998,22.4919285 C8.84615437,22.4282334 8.50834299,22.3299609 8.53888314,21.9341414 C8.56724184,21.5683495 8.83929842,21.3490563 9.16557934,21.3390471 C9.82063425,21.3178154 10.4844149,21.3329809 11.1323022,21.4206375 C11.5492687,21.4770532 11.9310205,21.6954364 12.0463251,22.1731497 C12.0637766,22.2456408 12.1962211,22.3405768 12.277246,22.34179 C13.0416845,22.3548324 13.8067462,22.3496761 14.6550143,22.3496761 C14.3268636,21.3678616 13.8136022,20.6754048 12.8839976,20.3572326 C11.6408891,19.9322952 10.3647474,19.9153099 9.0839312,20.1549248 C8.22880719,20.3150725 7.41762359,20.5889614 6.78500634,21.2137801 C6.22281839,21.7688374 6.17108713,22.7003025 6.69587898,23.2580896 C6.90685527,23.4816291 7.1574091,23.7245804 7.43943798,23.8195165 C8.30391101,24.111604 9.1898868,24.3442428 10.072123,24.5847677 C10.6377389,24.7394558 11.2323368,24.8167998 11.7717754,25.0297235 C12.0351063,25.1331522 12.3205631,25.4407085 12.3844481,25.7042849 C12.4741987,26.0743232 12.0996145,26.2705648 11.7879804,26.4425415 C11.1874615,26.7737561 10.53116,26.7413019 9.88483088,26.706118 C9.1487511,26.666081 8.59466564,26.3375963 8.33507442,25.6214813 C8.29518526,25.5116831 8.18455515,25.3466824 8.10197211,25.3442559 C7.41606542,25.3215077 6.72922383,25.3315169 6,25.3315169 C6.19851093,26.4822752 6.85481238,27.1747319 7.86326037,27.5517463" id="Fill-43" fill="#073A76"></path>
                <path d="M32.5053145,27.6229272 C33.7557774,28.0605097 35.0510552,28.06982 36.3494452,27.8902219 C37.3359975,27.7535712 38.251904,27.4349198 38.9969533,26.7609766 C39.5151267,26.2921596 39.8400354,25.7227317 40,24.9646957 C39.269889,24.9646957 38.6116688,24.9806132 37.9546934,24.9583887 C37.6341417,24.9472765 37.4729322,25.0427818 37.3546704,25.3425123 C37.0515468,26.1092579 36.4421873,26.5333256 35.5959931,26.5702663 C35.1655824,26.5888868 34.7149427,26.5606557 34.300404,26.4549391 C32.6067707,26.0233632 31.9152504,23.7177205 33.0804403,22.4395109 C33.8435401,21.6024879 34.8553008,21.6030885 35.8810663,21.7076038 C36.4838902,21.7691717 36.9519579,22.0652983 37.2809124,22.5695544 C37.349691,22.6746703 37.4968958,22.7975057 37.6108006,22.8002087 C38.3623854,22.8209316 39.1149038,22.8110206 39.9523841,22.8110206 C39.6685558,22.0631959 39.2151152,21.5526329 38.6493258,21.1291659 C37.0232262,19.9119235 35.189546,19.7974974 33.270904,20.228773 C31.5162725,20.6228075 30.4257742,21.6382273 30.0775244,23.3921615 C29.7106016,25.2416011 30.6669661,26.9796177 32.5053145,27.6229272" id="Fill-45" fill="#073A76"></path>
                <path d="M27.2999036,27.9927139 C27.7505176,27.9732011 28.2024615,27.9691097 28.6526322,27.9983789 C28.9181687,28.0153739 29.002174,27.901759 28.9999575,27.5143352 C28.9873234,25.2728793 28.9930863,23.0311086 28.9924214,20.7893379 L28.9924214,20.0019014 C28.3636009,20.0019014 27.7848733,20.0053634 27.2059241,20 C27.0248362,19.9984395 27.0020062,20.1388059 27.0024495,20.3537615 C27.0059959,22.7629648 27.0084341,25.1724827 27,27.5813712 C26.9989031,27.910886 27.0784754,28.0018409 27.2999036,27.9927139" id="Fill-47" fill="#073A76"></path>
                <path d="M23.5,2.38188171 C33.509213,2.38188171 41.9080679,9.38278403 44.0715978,18.742686 C42.7760266,18.74239 41.5758094,18.7346914 40.3779613,18.7489041 C40.0655436,18.7527533 39.9269545,18.6393484 39.8310082,18.3447325 C38.4098776,13.9639869 35.6745196,10.6385287 31.6498092,8.42609669 C27.691432,6.24978845 23.4697947,5.64515969 19.1080877,6.89439023 C13.7940247,8.41691771 9.96683338,11.7494822 7.71061464,16.8198363 C7.32475651,17.6871025 7.0697881,18.6129958 6.71620821,19.6206118 C9.04912477,18.9834124 11.2401948,18.3855938 13.4315609,17.786887 L16.8734864,17.0629314 C17.1856081,17.0229584 17.4980258,16.9850581 17.8083706,16.9335373 C20.1202619,16.5477237 22.4505133,16.2353421 24.7887602,16.4482354 C26.8575283,16.6365526 28.9295538,16.9276154 30.9613056,17.3572512 C33.8248881,17.9627682 36.6561924,18.7237359 39.4937155,19.4482837 C40.6462556,19.7423074 41.8041261,20.0443256 42.8311069,20.690704 C43.7547381,21.2719412 44.3775007,21.9861256 44.6043367,22.949327 C44.6090748,23.1320185 44.6182548,23.3135256 44.6182548,23.4974014 C44.6182548,33.0841132 38.1934062,41.1938964 29.424388,43.761644 C28.5146749,44.0002977 27.5833443,44.1717375 26.6070018,44.2463538 C23.5704791,44.4784933 20.5976244,44.1986823 17.6182548,43.7728957 C17.6155896,43.7725996 17.6129245,43.7717113 17.6102593,43.7714152 C11.2535207,41.9219974 6.12720453,37.1616562 3.7771124,31.0336459 C5.18343643,31.0333498 6.50802843,31.0262435 7.83084364,31.046082 C7.956403,31.0478586 8.13112003,31.1962028 8.19538036,31.3214516 C9.12256515,33.1308964 10.3103448,34.7508396 11.8428205,36.0814967 C17.2389116,40.765445 23.3258752,41.9835854 29.9979929,39.3465512 C34.3283101,37.6351143 37.3654251,34.4556316 39.2876086,30.2167161 C39.3574954,30.0621538 39.4638063,29.924469 39.5242169,29.826165 C38.6198342,29.8759092 37.6778429,29.9709561 36.7361477,29.9733249 C26.707094,29.9973087 16.6777441,29.9934594 6.64869044,30.0310637 C5.19646618,30.0360973 3.82034746,28.9982796 3.13095551,27.5773131 C3.08949724,27.5068422 3.0474467,27.4159406 3.00510003,27.2963177 C3.00361937,27.2924684 3.00243485,27.2886192 3.00125033,27.2847699 C2.90263885,27.0416748 2.82446038,26.7894007 2.76878784,26.5306125 C2.60088181,25.9008155 2.50671229,25.3281652 2.4563701,24.9476814 C2.45370492,24.9444243 2.45044749,24.9408711 2.44807844,24.9385024 C2.43771387,24.8401984 2.42912609,24.7424866 2.42024217,24.6444787 C2.4137273,24.5814102 2.40958147,24.5364035 2.40721242,24.5088666 C2.3915175,24.1733894 2.3817452,23.8367278 2.3817452,23.4974014 C2.3817452,11.8543003 11.855258,2.38188171 23.5,2.38188171 M23.5,1 C11.093314,1 1,11.0921483 1,23.4974014 C1,31.3845201 5.0833443,38.3321251 11.2440445,42.3498566 C11.290537,42.3809467 11.3379179,42.4099642 11.3844104,42.4398699 C11.583114,42.5677835 11.7821137,42.6942167 11.9849631,42.8159123 C15.8296262,45.1485594 20.1910371,46.1979249 24.5189853,45.9693385 C24.6019018,45.9651931 24.6845222,45.9619361 24.7671427,45.9571985 C24.9006976,45.9486117 25.0345486,45.9376562 25.1681034,45.9264045 C36.7977428,45.0695017 46,35.3412558 46,23.4974014 C46,11.0921483 35.906686,1 23.5,1" id="Fill-49" fill="url(#linearGradient-5)"></path>
            </g>
        </g>
    </g>
</svg>