<?xml version="1.0" encoding="UTF-8"?>
<svg width="208px" height="46px" viewBox="0 0 208 46" version="1.1" xmlns="http://www.w3.org/2000/svg" xmlns:xlink="http://www.w3.org/1999/xlink">
    <!-- Generator: Sketch 57.1 (83088) - https://sketch.com -->
    <title>杭州互联网法院</title>
    <desc>Created with Sketch.</desc>
    <g id="页面-1" stroke="none" stroke-width="1" fill="none" fill-rule="evenodd">
        <g id="首页" transform="translate(-1304.000000, -3977.000000)">
            <g id="杭州互联网法院" transform="translate(1304.000000, 3974.000000)">
                <g id="编组-28" transform="translate(0.000000, 3.000000)">
                    <g id="编组-27">
                        <circle id="椭圆形" fill="#E31B12" cx="20" cy="20" r="20"></circle>
                        <path d="M32.4444777,14.7014058 C32.484192,14.6765487 32.5239063,14.6518344 32.5636206,14.6271201 C32.517192,14.4875487 32.482192,14.3428344 32.4224777,14.209263 C31.7480491,12.6976915 30.824192,11.3505487 29.7017634,10.1399772 C29.3390491,9.74869153 28.9429063,9.38783439 28.5523348,9.02326296 C28.503192,8.97726296 28.3950491,8.99440582 28.314192,8.98226296 C28.3356206,9.05340582 28.3493348,9.12826296 28.3814777,9.19426296 C28.4007634,9.23412011 28.4484777,9.26012011 28.4837634,9.29197725 C30.1004777,10.7526915 31.3804777,12.459263 32.2596206,14.4599772 C32.299192,14.5499772 32.3819063,14.621263 32.4444777,14.7014058 L32.4444777,14.7014058 Z M10.6820491,9.14869153 C10.6464777,9.10197725 10.6103348,9.03254868 10.5943348,9.03697725 C10.511192,9.05983439 10.4117634,9.08112011 10.3567634,9.13954868 C9.65004913,9.88983439 8.91404913,10.6165487 8.25762056,11.4089772 C7.49819199,12.3255487 6.91562056,13.3636915 6.45162056,14.4626915 C6.41404913,14.5518344 6.43862056,14.667263 6.4344777,14.7704058 C6.51790627,14.6974058 6.62733484,14.6391201 6.6794777,14.548263 C6.79104913,14.3534058 6.86704913,14.1386915 6.96790627,13.9371201 C7.84462056,12.1866915 9.02219199,10.667263 10.4800491,9.36283439 C10.5490491,9.30112011 10.6077634,9.22797725 10.6820491,9.14869153 L10.6820491,9.14869153 Z M27.5407634,24.0364058 C26.5673348,24.0364058 25.5939063,24.032263 24.6204777,24.0424058 C24.5144777,24.0435487 24.4093348,24.1269772 24.3037634,24.1724058 C24.4136206,24.2269772 24.5233348,24.3286915 24.6334777,24.3291201 C26.5566206,24.3378344 28.4797634,24.3368344 30.4027634,24.3274058 C30.522192,24.3268344 30.6410491,24.2398344 30.760192,24.1928344 C30.6367634,24.1409772 30.5137634,24.0456915 30.3896206,24.0439772 C29.440192,24.0315487 28.4903348,24.037263 27.5407634,24.0364058 L27.5407634,24.0364058 Z M11.6023348,24.0345487 C10.6287634,24.0345487 9.65504913,24.0305487 8.6814777,24.040263 C8.57119199,24.0414058 8.46162056,24.1206915 8.35176341,24.1635487 C8.46233484,24.2199772 8.5724777,24.3248344 8.68333484,24.3254058 C10.6187634,24.3354058 12.554192,24.3346915 14.4894777,24.3258344 C14.5923348,24.325263 14.6946206,24.2321201 14.7973348,24.1821201 C14.6940491,24.1329772 14.5913348,24.0425487 14.4876206,24.0414058 C13.5259063,24.0305487 12.5640491,24.0349772 11.6023348,24.0345487 L11.6023348,24.0345487 Z M6.7234777,6.93154868 C6.6804777,6.88469153 6.63819199,6.81840582 6.62204913,6.82426296 C6.5384777,6.85469153 6.44133484,6.88554868 6.38533484,6.94854868 C5.79476341,7.61312011 5.17519199,8.25597725 4.63319199,8.95840582 C3.53990627,10.375263 2.65833484,11.9166915 2.10633484,13.6301201 C2.07633484,13.7234058 2.1164777,13.8394058 2.12404913,13.9448344 C2.19362056,13.8691201 2.29076341,13.8049772 2.32819199,13.7156915 C2.48333484,13.3438344 2.60376341,12.9569772 2.76733484,12.5891201 C3.67904913,10.5384058 4.94462056,8.73169153 6.53990627,7.15454868 C6.60504913,7.09026296 6.65719199,7.01297725 6.7234777,6.93154868 L6.7234777,6.93154868 Z M32.2884777,6.71840582 L32.228192,6.83440582 C32.2433348,6.86540582 32.253192,6.90083439 32.2747634,6.92654868 C32.3280491,6.98997725 32.3850491,7.05040582 32.4436206,7.10926296 C34.3027634,8.97769153 35.7330491,11.1199772 36.6127634,13.6169772 C36.6449063,13.708263 36.7476206,13.7748344 36.8174777,13.8528344 C36.8274777,13.7511201 36.8754777,13.6336915 36.8413348,13.5498344 C36.5599063,12.8586915 36.2969063,12.1566915 35.9643348,11.4898344 C35.1043348,9.76512011 33.9500491,8.24940582 32.5836206,6.89440582 C32.5047634,6.81612011 32.3877634,6.77612011 32.2884777,6.71840582 L32.2884777,6.71840582 Z M10.5294777,6.65454868 C10.5059063,6.60383439 10.494192,6.54897725 10.477192,6.54740582 C10.414192,6.54140582 10.3340491,6.53040582 10.2879063,6.56169153 C10.0823348,6.70140582 9.88176341,6.84969153 9.68733484,7.00483439 C7.66419199,8.61897725 6.05290627,10.5691201 4.90819199,12.8954058 C4.85490627,13.0038344 4.8774777,13.1496915 4.86462056,13.2781201 C4.95319199,13.1905487 5.06304913,13.1159772 5.12662056,13.0131201 C5.64933484,12.1669772 6.1164777,11.2819772 6.69076341,10.4731201 C7.68519199,9.07226296 8.9034777,7.87697725 10.2914777,6.85897725 C10.3750491,6.79769153 10.4493348,6.72383439 10.5294777,6.65454868 L10.5294777,6.65454868 Z M28.4076206,6.50140582 C30.7826206,8.28526296 32.629192,10.501263 33.9509063,13.151263 C33.9643348,13.1784058 34.0317634,13.1785487 34.0757634,13.1918344 C34.2869063,12.0695487 29.7267634,6.60512011 28.4076206,6.50140582 L28.4076206,6.50140582 Z M11.5674777,24.492263 L11.5674777,24.4951201 C10.8189063,24.4951201 10.0700491,24.4846915 9.32204913,24.5031201 C9.16304913,24.507263 8.87090627,24.6175487 8.87176153,24.6751201 C8.8764777,24.9746915 9.1414777,24.8418344 9.30662056,24.864263 C9.44662056,24.8829772 9.59119199,24.8664058 9.73376341,24.8664058 L13.8689063,24.8664058 C13.9044777,24.8664058 13.9474777,24.8791201 13.9744777,24.8638344 C14.0799063,24.8044058 14.1803348,24.7359772 14.2826206,24.6708344 C14.1856206,24.6114058 14.0894777,24.5018344 13.9914777,24.5001201 C13.1836206,24.4861201 12.3756206,24.492263 11.5674777,24.492263 L11.5674777,24.492263 Z M27.5206206,24.8656915 C28.3274777,24.8656915 29.1346206,24.8724058 29.941192,24.8579772 C30.0503348,24.8559772 30.1576206,24.7475487 30.2657634,24.6884058 C30.1649063,24.6219772 30.0644777,24.498263 29.963192,24.4975487 C28.3494777,24.4866915 26.7356206,24.4878344 25.1219063,24.5009772 C25.0187634,24.5018344 24.9164777,24.6219772 24.8137634,24.6868344 C24.9210491,24.746263 25.0273348,24.8554058 25.1356206,24.8574058 C25.9304777,24.8719772 26.7256206,24.865263 27.5206206,24.8656915 L27.5206206,24.8656915 Z M10.6456206,7.97240582 C10.624192,7.92869153 10.6026206,7.88483439 10.581192,7.84097725 C10.4900491,7.85297725 10.3774777,7.83469153 10.3113348,7.88183439 C9.95390627,8.13640582 9.59376341,8.39054868 9.2604777,8.67497725 C7.37276341,10.2861201 6.22976341,12.3941201 5.31304913,14.648263 C5.2444777,14.8169772 5.2404777,15.0118344 5.2064777,15.1945487 C5.31890627,15.0386915 5.46633484,14.8975487 5.53876341,14.7248344 C6.6314777,12.1144058 7.99876341,9.70954868 10.4374777,8.09526296 C10.5044777,8.05069153 10.576192,8.01326296 10.6456206,7.97240582 L10.6456206,7.97240582 Z M28.4710491,7.69440582 C28.4323348,7.72140582 28.3626206,7.75440582 28.3663348,7.76969153 C28.3834777,7.83983439 28.4029063,7.92812011 28.454192,7.96797725 C28.7537634,8.20083439 29.0717634,8.41040582 29.3664777,8.64883439 C30.9654777,9.94240582 32.0166206,11.6394058 32.8824777,13.4681201 C33.1107634,13.950263 33.2984777,14.4514058 33.5159063,14.9388344 C33.5463348,15.0069772 33.6406206,15.046263 33.7053348,15.0989772 C33.7226206,15.0168344 33.7583348,14.933263 33.7520491,14.8531201 C33.7459063,14.7736915 33.7027634,14.6949772 33.6664777,14.6205487 C33.1943348,13.650263 32.7593348,12.659263 32.2379063,11.7161201 C31.3939063,10.1895487 30.2577634,8.90697725 28.8146206,7.91083439 C28.7076206,7.83697725 28.5944777,7.77183439 28.4710491,7.69440582 L28.4710491,7.69440582 Z M2.98833484,14.6256915 C3.03004913,14.6568344 3.07176341,14.6879772 3.1134777,14.7191201 C3.17133484,14.6264058 3.25562056,14.5408344 3.2834777,14.4396915 C3.61319199,13.238263 4.1414777,12.1256915 4.80462056,11.0778344 C5.8084777,9.49126296 7.03604913,8.09726296 8.46676341,6.88097725 C8.54990627,6.81026296 8.58219199,6.67954868 8.63804913,6.57669153 C8.5304777,6.61197725 8.39862056,6.61897725 8.31862056,6.68683439 C6.6664777,8.09026296 5.26919199,9.70997725 4.19919199,11.601263 C3.65962056,12.5549772 3.23704913,13.5566915 2.98833484,14.6256915 L2.98833484,14.6256915 Z M35.8283348,14.6438344 C35.8756206,14.6185487 35.9227634,14.593263 35.9699063,14.5679772 C35.8489063,14.1644058 35.7536206,13.7508344 35.6027634,13.3586915 C34.586192,10.7148344 32.8723348,8.57354868 30.7723348,6.71712011 C30.645192,6.60469153 30.467192,6.54969153 30.3129063,6.46797725 C30.4157634,6.61812011 30.4937634,6.79569153 30.625192,6.91426296 C32.926192,8.99254868 34.8006206,11.355263 35.6664777,14.4004058 C35.6919063,14.4896915 35.773192,14.5629772 35.8283348,14.6438344 L35.8283348,14.6438344 Z M9.6844777,33.0358344 C9.5854777,32.8396915 9.50119199,32.6724058 9.36933484,32.4109772 C9.61976341,32.550263 9.76719199,32.6324058 9.9314777,32.7236915 C9.92890627,31.5878344 9.04362056,31.2274058 8.00604913,31.2185487 C7.83290627,32.3684058 8.63519199,33.2648344 9.6844777,33.0358344 L9.6844777,33.0358344 Z M35.3183348,16.3535487 C34.7670491,17.1391201 34.5029063,18.2854058 35.4624777,18.8809772 C35.5039063,18.6766915 35.5430491,18.4835487 35.5933348,18.2349772 C35.6897634,18.4516915 35.7599063,18.6094058 35.8317634,18.771263 C36.8489063,18.1254058 36.1866206,16.9321201 35.3183348,16.3535487 L35.3183348,16.3535487 Z M31.1137634,31.2016915 C29.805192,31.285263 29.1890491,31.691263 29.1907598,32.7096915 C29.3497634,32.6288344 29.4999063,32.5525487 29.7283348,32.4365487 C29.6017634,32.6836915 29.5156206,32.8521201 29.4274777,33.0244058 C30.6194777,33.431263 31.1984777,32.2111201 31.1137634,31.2016915 L31.1137634,31.2016915 Z M35.1240491,24.3018344 C34.0887634,24.7639772 33.6773348,25.6518344 34.0766206,26.6165487 C34.201192,26.4481201 34.3106206,26.2998344 34.4819063,26.0679772 C34.4617634,26.3581201 34.4494777,26.5368344 34.4360491,26.7279772 C35.7023348,26.454263 35.598192,25.4426915 35.1240491,24.3018344 L35.1240491,24.3018344 Z M7.47304913,30.6994058 C7.6654777,30.7899772 7.8114777,30.8588344 7.9574777,30.9274058 C7.9874777,30.905263 8.0174777,30.8829772 8.04762056,30.8608344 C7.9534777,30.5305487 7.95176341,30.1171201 7.7454777,29.8881201 C7.36390627,29.4644058 6.85990627,29.1539772 6.18662056,29.1228344 C6.20804913,29.4549772 6.2094777,29.7604058 6.25062056,30.0604058 C6.3654777,30.897263 6.77990627,31.2306915 7.66090627,31.194263 C7.60219199,31.0394058 7.54633484,30.8926915 7.47304913,30.6994058 L7.47304913,30.6994058 Z M3.2494777,18.796263 C3.33890627,18.628263 3.41576341,18.4841201 3.51676341,18.2945487 C3.5694777,18.5366915 3.60719199,18.7094058 3.65162056,18.9129772 C4.4144777,18.1878344 4.45190627,17.0994058 3.78490627,16.3525487 C2.96633484,16.9031201 2.26733484,18.0191201 3.2494777,18.796263 L3.2494777,18.796263 Z M31.4407634,31.1794058 C31.4600491,31.2138344 31.4794777,31.2481201 31.4989063,31.2825487 C31.8203348,31.1759772 32.2409063,31.1618344 32.4430491,30.944263 C32.897192,30.4551201 32.9810491,29.8061201 32.890192,29.1438344 C31.9530491,29.2146915 30.9096206,29.863263 31.1780491,30.9254058 C31.3199063,30.8509772 31.4567634,30.7789772 31.6410491,30.6821201 C31.5594777,30.8846915 31.5000491,31.0319772 31.4407634,31.1794058 L31.4407634,31.1794058 Z M5.90219199,28.5584058 C6.0724777,28.6886915 6.19504913,28.7824058 6.3354777,28.8896915 C6.53304913,27.8991201 5.87019199,26.9806915 4.81790627,26.8091201 C4.81790627,27.2514058 4.7774777,27.6876915 4.82690627,28.1136915 C4.91076341,28.8356915 5.18704913,29.0494058 5.98176341,29.0844058 C5.95690627,28.9206915 5.93304913,28.7626915 5.90219199,28.5584058 L5.90219199,28.5584058 Z M3.92990627,24.2615487 C3.82819199,24.7148344 3.68762056,25.1221201 3.65433484,25.5381201 C3.60133484,26.2004058 3.99790627,26.6299772 4.67290627,26.7051201 C4.65990627,26.5159772 4.64733484,26.3319772 4.62876341,26.0611201 C4.78804913,26.283263 4.89862056,26.4376915 5.01876341,26.605263 C5.46219199,25.7408344 5.05990627,24.8458344 3.92990627,24.2615487 L3.92990627,24.2615487 Z M35.6794777,18.9868344 C34.8453348,19.7978344 34.755192,20.7915487 35.4634777,21.5069772 C35.524192,21.3016915 35.5797634,21.1138344 35.6494777,20.878263 C35.7264777,21.1379772 35.7836206,21.3311201 35.8449063,21.5379772 C36.9536206,20.876263 36.444192,19.6969772 35.6794777,18.9868344 L35.6794777,18.9868344 Z M34.3306206,26.7549772 C33.027192,27.2319772 32.4486206,27.963263 32.8020491,28.8716915 C32.9287634,28.7781201 33.0507634,28.6878344 33.2069063,28.5724058 C33.1783348,28.784263 33.157192,28.941263 33.1287634,29.153263 C33.3414777,29.0784058 33.4916206,28.9991201 33.650192,28.9749772 C34.030192,28.917263 34.2137634,28.6798344 34.2450491,28.3294058 C34.2899063,27.8294058 34.3013348,27.326263 34.3306206,26.7549772 L34.3306206,26.7549772 Z M3.5384777,16.1428344 C3.57819199,16.1444058 3.61776341,16.1458344 3.65733484,16.1474058 C3.76662056,16.0099772 3.87590627,15.8726915 4.01276341,15.7005487 C4.02362056,15.9189772 4.03176341,16.084263 4.04133484,16.2748344 C4.9394777,15.7619772 5.1594777,14.7206915 4.5984777,13.7941201 C3.95190627,14.0544058 3.5044777,14.529263 3.34833484,15.1894058 C3.28062056,15.476263 3.46733484,15.823263 3.5384777,16.1428344 L3.5384777,16.1428344 Z M3.42519199,19.0011201 C2.54619199,19.7611201 2.2294777,21.0749772 3.2884777,21.5071201 C3.33833484,21.3118344 3.38690627,21.1215487 3.45462056,20.8566915 C3.53433484,21.1275487 3.58990627,21.3158344 3.6554777,21.5384058 C4.56162056,20.5056915 4.01362056,19.6261201 3.42519199,19.0011201 L3.42519199,19.0011201 Z M35.0903348,16.3054058 L35.0903348,15.7069772 C35.2483348,15.8881201 35.3563348,16.0118344 35.4747634,16.1475487 C35.8663348,15.503263 35.882192,15.3876915 35.6906206,14.9538344 C35.4456206,14.399263 35.0540491,14.0074058 34.4813348,13.7948344 C33.972192,14.8871201 34.1587634,15.7165487 35.0903348,16.3054058 L35.0903348,16.3054058 Z M35.6283348,21.6879772 C34.7967634,22.2404058 34.254192,23.2808344 34.9809063,24.0895487 C35.063192,23.9496915 35.1413348,23.8169772 35.2560491,23.6219772 C35.2904777,23.862263 35.314192,24.0274058 35.339192,24.2018344 C36.5829063,23.6931201 36.2319063,22.5025487 35.6283348,21.6879772 L35.6283348,21.6879772 Z M3.83719199,23.6504058 C3.85876341,23.6499772 3.88033484,23.6494058 3.90176341,23.6489772 C3.93519199,23.723263 3.96490627,23.7995487 4.00290627,23.8714058 C4.04219199,23.9459772 4.08962056,24.0164058 4.14390627,24.1056915 C4.69919199,23.2385487 4.36776341,22.1101201 3.41519199,21.6755487 C3.26604913,22.0298344 3.06976341,22.3724058 2.9774777,22.7409772 C2.80219199,23.4421201 3.0604777,23.8881201 3.77804913,24.2061201 C3.79862056,24.012263 3.81790627,23.831263 3.83719199,23.6504058 L3.83719199,23.6504058 Z M15.4070491,36.5755487 C14.8549063,35.6311201 13.191192,35.0019772 12.3367634,35.4025487 C12.7140491,36.7736915 13.5747634,37.3584058 14.4759063,36.735263 C14.2843348,36.6109772 14.1086206,36.4969772 13.9330491,36.3829772 C13.9649063,36.3369772 13.9969063,36.2911201 14.0287634,36.245263 C14.2400491,36.3486915 14.4744777,36.4221201 14.6570491,36.5628344 C14.922192,36.7674058 15.1520491,36.6974058 15.4070491,36.5755487 L15.4070491,36.5755487 Z M7.9364777,23.4419772 C7.8254777,23.8245487 7.96162056,23.8934058 8.23933484,23.8924058 C10.140192,23.886263 12.0410491,23.8928344 13.9419063,23.8941201 C14.310192,23.894263 14.6794777,23.9024058 15.0459063,23.8754058 C15.133192,23.8688344 15.2110491,23.7351201 15.2933348,23.6599772 C15.2150491,23.597263 15.1409063,23.527263 15.056192,23.4749772 C15.0213348,23.4535487 14.963192,23.469263 14.9157634,23.4689772 C13.0864777,23.4599772 11.257192,23.4504058 9.42790627,23.442263 C8.93133484,23.4399772 8.43476341,23.4419772 7.9364777,23.4419772 L7.9364777,23.4419772 Z M27.5046206,23.4665487 C26.3883348,23.4665487 25.2719063,23.4609772 24.1557634,23.475263 C24.0417634,23.4766915 23.8456206,23.5828344 23.8314777,23.6651201 C23.7887634,23.9148344 24.0029063,23.8905487 24.1684777,23.8905487 C26.3896206,23.8916915 28.6109063,23.8934058 30.8320491,23.8905487 C30.9963348,23.890263 31.221192,23.951263 31.2209065,23.6636915 C31.2204777,23.3808344 30.9964777,23.4714058 30.8534777,23.4704058 C29.737192,23.4636915 28.6209063,23.4666915 27.5046206,23.4665487 L27.5046206,23.4665487 Z M9.9454777,32.9375487 C10.1897634,34.2529772 11.3939063,35.419263 12.4279063,35.0226915 C12.3419063,34.8914058 12.2704777,34.755263 12.1730491,34.641263 C12.0679063,34.5181201 11.9383348,34.4158344 11.8174777,34.3025487 C12.0526206,34.095263 11.9696206,33.3389772 11.7030491,33.2081201 C11.158192,32.9406915 10.5780491,32.8676915 9.9454777,32.9375487 L9.9454777,32.9375487 Z M29.1614777,32.939263 C28.5239063,32.8664058 27.934192,32.9404058 27.3869063,33.2238344 C27.1209063,33.3615487 27.069192,34.1096915 27.276192,34.2871201 C27.0654777,34.5286915 26.8543348,34.7709772 26.6240491,35.035263 C27.6553348,35.3749772 28.9806206,34.2636915 29.1614777,32.939263 L29.1614777,32.939263 Z M26.7799063,35.3819772 C25.5243348,35.0271201 23.9479063,35.886263 23.733192,36.6009772 C23.9940491,36.7208344 24.2277634,36.7451201 24.482192,36.5434058 C24.6483348,36.4116915 24.8733348,36.3539772 25.0720491,36.263263 C25.1053348,36.3121201 25.1387634,36.3609772 25.172192,36.4099772 C25.0046206,36.5299772 24.837192,36.6499772 24.6649063,36.7731201 C25.358192,37.3208344 26.4086206,36.8888344 26.7799063,35.3819772 L26.7799063,35.3819772 Z M5.36962056,25.2991201 C6.4104777,24.1156915 6.18662056,22.8279772 5.76876341,22.1004058 C5.67290627,22.1698344 5.57604913,22.2321201 5.48804913,22.3051201 C4.98890627,22.7191201 4.64819199,23.2304058 4.48619199,23.8666915 C4.36676341,24.3366915 4.39362056,24.4214058 4.86719199,24.6066915 C4.9714777,24.4419772 5.07762056,24.2745487 5.21276341,24.061263 C5.34862056,24.5151201 4.86276341,24.9508344 5.36962056,25.2991201 L5.36962056,25.2991201 Z M34.246192,24.6509772 C34.7629063,24.326263 34.744192,24.3279772 34.6037634,23.8016915 C34.4067634,23.063263 33.9577634,22.5335487 33.345192,22.104263 C32.8010491,23.0626915 32.837192,24.3278344 33.7486206,25.2909772 C34.2533348,24.960263 33.7306206,24.5005487 33.9074777,24.0699772 C33.9803348,24.1879772 34.0339063,24.2709772 34.0834777,24.356263 C34.136192,24.4471201 34.185192,24.5401201 34.246192,24.6509772 L34.246192,24.6509772 Z M5.84704913,17.518263 C5.7374777,17.5449772 5.62533484,17.5625487 5.52004913,17.5995487 C4.89390627,17.8195487 4.40390627,18.2128344 4.03619199,18.765263 C3.77976341,19.1505487 3.79419199,19.2626915 4.18204913,19.5844058 C4.32362056,19.4571201 4.46662056,19.3286915 4.60962056,19.2001201 C4.63933484,19.2224058 4.66904913,19.2448344 4.69890627,19.267263 C4.59619199,19.4428344 4.50919199,19.6304058 4.38690627,19.7911201 C4.22390627,20.0056915 4.27090627,20.1924058 4.38762056,20.3996915 C5.55533484,19.6091201 6.08404913,18.5775487 5.84704913,17.518263 L5.84704913,17.518263 Z M34.4669063,19.1909772 C34.6533348,19.3428344 34.8104777,19.4708344 35.0337634,19.6526915 C35.1129063,19.3981201 35.2804777,19.1504058 35.2146206,19.0225487 C34.8059063,18.2279772 34.1469063,17.7229772 33.2714777,17.5008344 C32.9950491,18.5448344 33.6243348,19.7796915 34.713192,20.3658344 C35.0916206,19.8904058 34.4157634,19.658263 34.4669063,19.1909772 L34.4669063,19.1909772 Z M8.45804913,28.3586915 C8.10962056,29.0655487 8.02776341,29.749263 8.12433484,30.4581201 C8.2004777,31.0176915 8.22476341,31.0316915 8.86719199,31.0438344 L8.86719199,30.3826915 C9.23704913,30.6825487 8.9744777,31.3881201 9.6094777,31.4298344 C9.95419199,30.1435487 9.47190627,29.1815487 8.45804913,28.3586915 L8.45804913,28.3586915 Z M4.53762056,17.9499772 C4.98404913,17.5308344 5.63204913,17.4809772 5.94204913,16.9144058 C6.2224777,16.4019772 6.43390627,15.8805487 6.4764777,15.2546915 C5.7044777,15.4065487 5.03962056,15.6315487 4.49633484,16.1354058 C4.10362056,16.4996915 4.09290627,16.5789772 4.40162056,17.0654058 C4.58719199,16.9511201 4.77333484,16.8365487 5.01204913,16.6896915 C4.87676341,17.1635487 4.30862056,17.3556915 4.53762056,17.9499772 L4.53762056,17.9499772 Z M5.63276341,19.773263 C4.94833484,20.126263 4.44404913,20.606263 4.07719199,21.2369772 C3.81519199,21.6875487 3.8444777,21.8245487 4.29462056,22.1351201 C4.4264777,21.9708344 4.5584777,21.8061201 4.72062056,21.6041201 C4.82433484,22.0754058 4.23304913,22.4646915 4.70704913,22.8769772 C5.87476341,21.7571201 5.91033484,21.1621201 5.63276341,19.773263 L5.63276341,19.773263 Z M34.8887634,22.2411201 C35.0073348,21.9721201 35.2147634,21.7316915 35.1627634,21.5808344 C34.8753348,20.748263 34.2664777,20.1886915 33.4899063,19.7845487 C33.0669063,20.8528344 33.4236206,22.0185487 34.5014777,22.9464058 C34.5180491,22.6859772 34.5620491,22.4889772 34.5339063,22.3028344 C34.5017634,22.0905487 34.4053348,21.8881201 34.3369063,21.681263 C34.3670491,21.6661201 34.397192,21.6508344 34.4273348,21.6355487 C34.5516206,21.7986915 34.6759063,21.9616915 34.8887634,22.2411201 L34.8887634,22.2411201 Z M34.7986206,17.1294058 C34.8257634,16.8294058 34.9466206,16.5308344 34.848192,16.4085487 C34.2999063,15.7274058 33.5437634,15.402263 32.6847634,15.2758344 C32.5790491,16.3538344 33.4109063,17.4808344 34.5809063,17.8706915 C34.8229063,17.3411201 34.1859063,17.1558344 34.1189063,16.6788344 C34.3359063,16.8226915 34.5063348,16.9355487 34.7986206,17.1294058 L34.7986206,17.1294058 Z M31.2564777,29.6244058 C31.8243348,29.4935487 31.5053348,28.8824058 31.8126206,28.5596915 C31.8520491,28.7879772 31.8833348,28.969263 31.9146206,29.1505487 C32.5353348,29.0339772 32.6150491,28.9959772 32.5449063,28.4516915 C32.4746206,27.907263 32.296192,27.3751201 32.1410491,26.8445487 C32.0990491,26.7011201 31.9696206,26.583263 31.8760491,26.4475487 C31.0264777,27.2566915 30.7930491,28.5098344 31.2564777,29.6244058 L31.2564777,29.6244058 Z M7.83919199,29.635263 C8.3574777,28.6529772 8.05490627,27.0859772 7.23562056,26.4809772 C6.83419199,26.887263 6.55462056,27.684263 6.54762056,28.4418344 C6.54233484,29.0106915 6.59133484,29.0648344 7.20033484,29.1426915 C7.23176341,28.945263 7.2634777,28.7464058 7.30304913,28.4988344 C7.58276341,28.8786915 7.29919199,29.4476915 7.83919199,29.635263 L7.83919199,29.635263 Z M30.2460491,31.0421201 C30.8756206,31.0465487 30.918192,31.0149772 30.9896206,30.4471201 C31.0147634,30.247263 31.0400491,30.0434058 31.0266206,29.8438344 C30.9923348,29.340263 30.9423348,28.8361201 30.6329063,28.3744058 C29.6314777,29.1864058 29.1527634,30.1509772 29.5047634,31.447263 C29.7194777,31.3858344 29.9099063,31.3148344 29.9510491,31.0129772 C29.980192,30.7984058 30.0890491,30.5946915 30.162192,30.3861201 C30.190192,30.396263 30.218192,30.4065487 30.2460491,30.4165487 L30.2460491,31.0421201 Z M5.83790627,26.9958344 C5.90890627,26.7895487 5.9724777,26.6054058 6.03604913,26.4214058 C6.25404913,27.4514058 6.25404913,27.4514058 6.44676341,27.5591201 C7.08690627,26.4555487 7.0234777,24.9595487 6.29662056,24.3451201 C5.7514777,24.8608344 5.44362056,25.499263 5.32976341,26.2329772 C5.24862056,26.7565487 5.28990627,26.8054058 5.83790627,26.9958344 L5.83790627,26.9958344 Z M32.8063348,24.313263 C32.1223348,25.249263 31.8800491,26.324263 32.6840491,27.5646915 C32.7503348,27.5206915 32.8636206,27.4864058 32.8747634,27.431263 C32.9430491,27.0964058 32.9880491,26.7566915 33.0553348,26.324263 C33.1487634,26.597263 33.2144777,26.789263 33.3253348,27.1134058 C33.5246206,26.8735487 33.791192,26.7005487 33.7901948,26.5291201 C33.7857634,25.6738344 33.4113348,24.9576915 32.8063348,24.313263 L32.8063348,24.313263 Z M35.6176206,29.167263 C35.1636206,28.9344058 34.1603348,28.9631201 33.477192,29.2284058 C33.0884777,29.3794058 33.0133348,29.5706915 33.1766206,29.9934058 C33.383192,29.9569772 33.5899063,29.9206915 33.7964777,29.8844058 C33.8130491,29.9171201 33.8294777,29.9495487 33.8459063,29.9821201 C33.3994777,30.282263 32.7597634,30.3974058 32.7003348,31.0795487 C33.6794777,31.1685487 35.4589063,29.9961201 35.6176206,29.167263 L35.6176206,29.167263 Z M5.9684777,30.0075487 C6.06833484,29.457263 6.0274777,29.3765487 5.57262056,29.2096915 C4.97990627,28.992263 4.37233484,28.9721201 3.7524777,29.0596915 C3.46162056,29.1006915 3.39662056,29.2194058 3.57790627,29.4506915 C4.2174777,30.2656915 5.00204913,30.8666915 6.03790627,31.0819772 C6.16462056,31.1084058 6.3014777,31.0855487 6.42019199,31.0855487 C6.32219199,30.3788344 5.67790627,30.2684058 5.2294777,29.9555487 C5.2444777,29.9268344 5.25933484,29.898263 5.27433484,29.8695487 C5.49733484,29.9138344 5.72019199,29.9581201 5.9684777,30.0075487 L5.9684777,30.0075487 Z M27.2869063,32.9561201 C28.0016206,33.0106915 27.9419063,32.2556915 28.4007634,31.933263 C28.3566206,32.2316915 28.3234777,32.4561201 28.2727634,32.7991201 C28.5504777,32.7029772 28.866192,32.6911201 28.9374777,32.5531201 C29.3389063,31.7744058 29.343192,30.947263 29.1197634,30.1029772 C28.1310491,30.472263 27.1557634,32.006263 27.2869063,32.9561201 L27.2869063,32.9561201 Z M10.7269063,32.0318344 C10.7623348,32.0168344 10.7977634,32.0016915 10.8330491,31.9865487 C10.9293348,32.156263 11.0556206,32.3158344 11.1153348,32.497263 C11.2333348,32.8556915 11.504192,32.9305487 11.8219063,32.965263 C11.9697634,32.0379772 11.0110491,30.5338344 9.99004913,30.0999772 C9.76819199,30.8304058 9.78933484,31.550263 10.028192,32.2635487 C10.1920491,32.7525487 10.234192,32.7655487 10.8199063,32.6769772 C10.7890491,32.4625487 10.7579063,32.2471201 10.7269063,32.0318344 L10.7269063,32.0318344 Z M28.352192,34.8061201 C28.373192,34.8449772 28.394192,34.8838344 28.415192,34.9228344 C29.6376206,34.9598344 30.8180491,34.8538344 31.8017634,33.8965487 C31.178192,33.455263 30.5289063,33.256263 29.8116206,33.2571173 C29.2850491,33.2576915 29.2296206,33.3011201 29.1213348,33.8561201 C29.3446206,33.8916915 29.5684777,33.9274058 29.7924777,33.9631201 C29.7949063,34.0019772 29.797192,34.0409772 29.7996206,34.0799772 C29.5306206,34.1281201 29.233192,34.1206915 29.0003348,34.2395487 C28.7524777,34.3659772 28.5657634,34.612263 28.352192,34.8061201 L28.352192,34.8061201 Z M36.5704777,17.8255487 C37.3123348,17.3695487 37.7164777,15.1076915 37.1524777,14.3079772 C36.499192,14.6886915 36.0803348,15.2594058 35.8050491,15.9489772 C35.6384777,16.3665487 35.6986206,16.5048344 36.1430491,16.7259772 C36.2517634,16.5611201 36.3619063,16.3939772 36.4720491,16.2268344 C36.5067634,16.2426915 36.5414777,16.2585487 36.576192,16.2744058 C36.5097634,16.5198344 36.3916206,16.765263 36.3907634,17.0109772 C36.3897634,17.2705487 36.5003348,17.5306915 36.5704777,17.8255487 L36.5704777,17.8255487 Z M9.29362056,34.064263 C9.29933484,34.0316915 9.30519199,33.9989772 9.31090627,33.9664058 C9.42619199,33.9466915 9.54119199,33.9249772 9.65690627,33.9075487 C9.76833484,33.8908344 9.8804777,33.8784058 9.99562056,33.8638344 C9.8684777,33.2886915 9.8264777,33.249263 9.31404913,33.2589772 C9.10119199,33.2631201 8.88533484,33.2705487 8.67690627,33.3095487 C8.18833484,33.4009772 7.73390627,33.5784058 7.32790627,33.8808344 C8.03076341,34.7751201 9.86990627,35.0844058 10.7110491,34.8598344 C10.4843348,34.1936915 9.84476341,34.2031201 9.29362056,34.064263 L9.29362056,34.064263 Z M1.94076341,14.2999772 C1.41104913,15.2185487 1.78590627,17.4216915 2.4754777,17.7651201 C2.96704913,17.3074058 2.57733484,16.7618344 2.65576341,16.2414058 C2.76604913,16.4139772 2.87633484,16.5865487 3.04590627,16.8519772 C3.18762056,16.5965487 3.40704913,16.3854058 3.3714777,16.2341201 C3.1744777,15.3971201 2.69119199,14.7471201 1.94076341,14.2999772 L1.94076341,14.2999772 Z M33.9270491,31.6764058 C33.8587634,31.6369772 33.7936206,31.5881201 33.7206206,31.5588344 C33.098192,31.308263 32.4590491,31.2635487 31.8014777,31.393263 C31.346192,31.4831201 31.2570491,31.6086915 31.3444777,32.1219772 L31.9459063,32.1219772 C31.5154777,32.4598344 30.8219063,32.4204058 30.6923348,33.1151201 C31.5877634,33.3991201 33.4299063,32.5878344 33.9270491,31.6764058 L33.9270491,31.6764058 Z M8.4324777,33.1205487 C8.26690627,32.4408344 7.59762056,32.4451201 7.17062056,32.1108344 L7.78676341,32.1108344 C7.82176341,31.566263 7.74276341,31.4618344 7.25604913,31.3875487 C7.1624777,31.3731201 7.0694777,31.3541201 6.9754777,31.3438344 C6.33962056,31.2744058 5.73590627,31.3699772 5.15719199,31.6648344 C5.74762056,32.6196915 7.48376341,33.3829772 8.4324777,33.1205487 L8.4324777,33.1205487 Z M36.7456206,20.6578344 C37.5504777,20.3326915 38.2650491,18.1261201 37.8327634,17.3036915 C37.1539063,17.5401201 36.6969063,18.0474058 36.2723348,18.5906915 C35.9474777,19.0061201 35.9826206,19.1878344 36.4903348,19.5581201 C36.6019063,19.4169772 36.721192,19.2659772 36.8403348,19.1151201 C36.699192,19.6275487 36.4774777,20.1124058 36.7456206,20.6578344 L36.7456206,20.6578344 Z M2.3694777,20.6544058 C2.65776341,20.125263 2.41176341,19.6311201 2.24119199,19.1264058 C2.34490627,19.1859772 2.41419199,19.2498344 2.4684777,19.3245487 C2.52990627,19.4088344 2.57776341,19.5029772 2.62904913,19.5885487 C3.13904913,19.1209772 3.15176341,19.0189772 2.8224777,18.5759772 C2.78019199,18.5189772 2.7414777,18.4585487 2.69404913,18.4061201 C2.28362056,17.951263 1.88233484,17.4831201 1.25733484,17.3055487 C0.880906271,18.2425487 1.6054777,20.3919772 2.3694777,20.6544058 L2.3694777,20.6544058 Z M3.55319199,25.0996915 C3.55919199,24.7976915 3.66104913,24.4825487 3.55176341,24.3671201 C2.97104913,23.7531201 2.2244777,23.4529772 1.37876341,23.3884058 C1.3174777,24.4328344 2.63162056,26.1555487 3.50904913,26.2084058 C3.67962056,25.594263 3.18119199,25.247263 2.95190627,24.7828344 C3.11504913,24.8688344 3.27819199,24.9548344 3.55319199,25.0996915 L3.55319199,25.0996915 Z M35.6439063,25.0434058 C35.8297634,24.9546915 35.995192,24.8758344 36.1607634,24.7969772 C35.9147634,25.2558344 35.438192,25.6011201 35.577192,26.208263 C36.4424777,26.1966915 37.8200491,24.4024058 37.7286206,23.3654058 C37.0283348,23.4748344 36.3706206,23.6608344 35.8089063,24.1225487 C35.3799063,24.475263 35.3686206,24.4794058 35.6439063,25.0434058 L35.6439063,25.0434058 Z M2.17304913,26.3318344 C2.25233484,27.3726915 3.95562056,28.9268344 4.76033484,28.7755487 C4.8354777,28.112263 4.22990627,27.8931201 3.86762056,27.510263 C3.8874777,27.4891201 3.90733484,27.4679772 3.92719199,27.4468344 C4.13390627,27.5115487 4.34062056,27.576263 4.65090627,27.6734058 C4.59062056,27.3711201 4.62490627,27.0401201 4.4864777,26.933263 C3.81162056,26.4125487 3.00333484,26.3349772 2.17304913,26.3318344 L2.17304913,26.3318344 Z M36.965192,26.3364058 C36.232192,26.3161201 35.551192,26.4191201 34.9096206,26.730263 C34.4313348,26.9621201 34.3799063,27.1129772 34.5856206,27.6358344 C34.7850491,27.5739772 34.9853348,27.5118344 35.1854777,27.4496915 C35.2036206,27.4774058 35.2219063,27.5051201 35.240192,27.5328344 C34.8324777,27.874263 34.3226206,28.1444058 34.3280491,28.7688344 C35.1360491,28.9208344 36.7687634,27.4545487 36.965192,26.3364058 L36.965192,26.3364058 Z M36.3907634,23.4611201 C37.2527634,23.3575487 38.372192,21.2258344 38.0094777,20.335263 C37.3790491,20.4981201 36.8394777,20.8219772 36.3644777,21.2635487 C35.8949063,21.700263 35.8864777,21.793263 36.2657634,22.3359772 C36.425192,22.2038344 36.584192,22.0721201 36.743192,21.940263 C36.6116206,22.452263 36.1300491,22.8484058 36.3907634,23.4611201 L36.3907634,23.4611201 Z M1.10119199,20.2899772 C1.03704913,20.3858344 1.01590627,20.4038344 1.01290627,20.4244058 C1.0044777,20.4828344 0.997906271,20.5425487 1.00062056,20.601263 C1.05033484,21.707263 1.56862056,22.5894058 2.33376341,23.3451201 C2.42004913,23.430263 2.57976341,23.4408344 2.78419199,23.514263 C2.75719199,23.1808344 2.78076341,22.9126915 2.70376341,22.6774058 C2.62790627,22.4451201 2.4504777,22.2461201 2.3174777,22.0326915 C2.45704913,22.0355487 2.53276341,22.0859772 2.60604913,22.1398344 C2.68776341,22.1998344 2.76733484,22.2626915 2.84919199,22.3254058 C3.21504913,21.7886915 3.21319199,21.712263 2.78576341,21.3108344 C2.60504913,21.1409772 2.41876341,20.966263 2.20619199,20.8436915 C1.84576341,20.636263 1.4624777,20.4684058 1.10119199,20.2899772 L1.10119199,20.2899772 Z M25.8979063,35.0229772 C26.1507634,35.0861201 26.3734777,35.1401201 26.5416206,34.8829772 C27.0987634,34.0299772 27.0977634,33.110263 26.9107634,32.152263 C25.8336206,32.4768344 24.9106206,34.1918344 25.1009063,35.2234058 C25.6977634,35.2681201 25.5790491,34.6076915 25.9563348,34.3421201 C25.9340491,34.603263 25.9164777,34.8074058 25.8979063,35.0229772 L25.8979063,35.0229772 Z M14.0369063,35.2256915 C14.1826206,34.0951201 13.2353348,32.4991201 12.192192,32.1411201 C12.0174777,33.1041201 12.0159063,34.0271201 12.5689063,34.8815487 C12.7429063,35.1504058 12.972192,35.0945487 13.2109063,35.0151201 C13.1947634,34.7938344 13.1804777,34.5974058 13.1624777,34.3505487 C13.5219063,34.638263 13.4284777,35.254263 14.0369063,35.2256915 L14.0369063,35.2256915 Z M30.4309063,36.0719772 C30.1886206,35.9338344 30.0340491,35.8259772 29.8646206,35.7524058 C29.0824777,35.4126915 28.2616206,35.3685487 27.4246206,35.4441201 C26.9559063,35.4865487 26.8459063,35.6009772 26.8340491,36.1175487 C27.0490491,36.1515487 27.2657634,36.1861201 27.4824777,36.2204058 C27.4887634,36.2491201 27.4949063,36.2776915 27.5010491,36.3064058 C26.9599063,36.4495487 26.3247634,36.4194058 26.0310491,37.086263 C27.5699063,37.1796915 29.0804777,37.2379772 30.4309063,36.0719772 L30.4309063,36.0719772 Z M8.72862056,35.9978344 C9.41719199,37.0908344 12.0149063,37.3246915 13.0279063,37.026263 C12.7726206,36.3908344 12.1319063,36.4558344 11.6124777,36.2278344 C11.8430491,36.1848344 12.0736206,36.1418344 12.4340491,36.0745487 C12.221192,35.8229772 12.0906206,35.5151201 11.9114777,35.4836915 C11.1603348,35.3514058 10.3957634,35.3708344 9.65804913,35.5999772 C9.34833484,35.696263 9.05776341,35.8546915 8.72862056,35.9978344 L8.72862056,35.9978344 Z M21.2104777,37.6426915 C21.3700491,37.743263 21.5027634,37.8384058 21.6454777,37.9149772 C22.2729063,38.2524058 22.9506206,38.4015487 23.656192,38.4628344 C24.3299063,38.5214058 24.9844777,38.4649772 25.6084777,38.1959772 C25.7516206,38.134263 25.8716206,38.0185487 26.0139063,37.9194058 C25.254192,37.216263 24.8936206,37.0739772 23.3756206,36.7778344 C23.0084777,36.7061201 22.7499063,36.8409772 22.4753348,37.0711201 C22.7537634,37.2205487 23.0037634,37.3546915 23.2537634,37.4889772 C23.2380491,37.5298344 23.222192,37.5706915 23.2064777,37.6115487 C22.8894777,37.5434058 22.5490491,37.5261201 22.2607634,37.3945487 C21.8357634,37.2004058 21.5430491,37.357263 21.2104777,37.6426915 L21.2104777,37.6426915 Z M13.1124777,37.9178344 C14.1237634,38.8911201 17.0874777,38.4694058 17.858192,37.6015487 C17.5500491,37.3601201 17.2626206,37.1859772 16.8360491,37.3966915 C16.5586206,37.5338344 16.2183348,37.5435487 15.906192,37.6101201 C15.8927634,37.5699772 15.8793348,37.5298344 15.8659063,37.4896915 C16.1167634,37.3515487 16.3674777,37.2134058 16.6207634,37.0739772 C16.2939063,36.7165487 15.9116206,36.7315487 15.4966206,36.8158344 C14.6199063,36.9939772 13.7577634,37.1914058 13.1124777,37.9178344 L13.1124777,37.9178344 Z M17.5484777,16.0209772 C17.561192,15.8998344 17.5767634,15.820263 17.5769063,15.7405487 C17.5783348,14.8738344 17.5674777,14.0068344 17.5823348,13.140263 C17.5873348,12.8456915 17.4897634,12.753263 17.1953348,12.7565487 C15.8897634,12.7711201 14.5837634,12.7578344 13.278192,12.776263 C13.1334777,12.778263 12.9504777,12.8856915 12.8540491,13.0016915 C12.4996206,13.4275487 12.0976206,13.7551201 11.5254777,13.8125487 C11.0934777,13.8561201 10.9496206,13.7496915 10.8513348,13.3325487 C10.7729063,13.000263 10.5486206,12.8276915 10.2196206,12.8028344 C9.89790627,12.7785487 9.6244777,12.9991201 9.5424777,13.321263 C9.38162056,13.9526915 9.81662056,14.4801201 10.4964777,14.4448344 C11.1833348,14.4091201 11.870192,14.3565487 12.554192,14.2839772 C13.8999063,14.1414058 15.1554777,14.3915487 16.299192,15.1221201 C16.716192,15.3884058 17.1044777,15.6995487 17.5484777,16.0209772 L17.5484777,16.0209772 Z M21.5277634,16.094263 C21.7273348,15.9251201 21.8347634,15.8344058 21.9419063,15.743263 C23.3067634,14.5845487 24.864192,14.0718344 26.6584777,14.2988344 C27.3047634,14.3805487 27.9587634,14.4224058 28.610192,14.4356915 C28.8404777,14.440263 29.1036206,14.3514058 29.2984777,14.2236915 C29.595192,14.0296915 29.6804777,13.5098344 29.5246206,13.1881201 C29.3910491,12.9124058 29.1557634,12.7839772 28.8609063,12.7986915 C28.5093348,12.816263 28.3224777,13.0666915 28.217192,13.530263 C28.1946206,13.6298344 28.0486206,13.7529772 27.9416206,13.7736915 C27.2234777,13.9126915 26.7199063,13.5558344 26.2847634,13.0326915 C26.1846206,12.912263 26.016192,12.7736915 25.8773348,12.7716915 C24.5363348,12.7525487 23.1947634,12.7649772 21.8536206,12.757813 C21.6126206,12.7564058 21.5077634,12.8259772 21.5233348,13.0821201 C21.5419063,13.3896915 21.5277634,13.6991201 21.5277634,14.0079772 L21.5277634,16.094263 Z M11.623192,14.6974058 C11.5947634,14.693263 11.5663348,14.689263 11.5379063,14.685263 C11.2899063,15.477263 11.0420491,16.2694058 10.7939063,17.0614058 C10.1833348,19.0109772 9.57076341,20.960263 8.9634777,22.9109772 C8.84390627,23.2946915 8.91462056,23.3909772 9.30862056,23.3919772 C10.7820491,23.3958344 12.2554777,23.3994058 13.7289063,23.3918344 C14.2889063,23.3889772 14.3307634,23.3196915 14.1637634,22.7831201 C13.3973348,20.3216915 12.6297634,17.8604058 11.861192,15.3996915 C11.7874777,15.1638344 11.7027634,14.9314058 11.623192,14.6974058 L11.623192,14.6974058 Z M27.5269063,14.6126915 C27.4553348,14.7819772 27.4074777,14.8729772 27.3773348,14.9695487 C26.549192,17.6228344 25.7214777,20.2764058 24.8973348,22.9309772 C24.7807634,23.3061201 24.851192,23.395263 25.2640491,23.3965487 C26.761192,23.401347 28.2583348,23.4024058 29.7554777,23.4004058 C30.2124777,23.3996915 30.2744777,23.3026915 30.1354777,22.8576915 C29.3210491,20.250263 28.5074777,17.6424058 27.6920491,15.0351201 C27.6549063,14.9161201 27.6016206,14.8021201 27.5269063,14.6126915 L27.5269063,14.6126915 Z M23.5120491,28.0766915 C23.4264777,28.0361201 23.3347634,28.0079772 23.261192,27.9548344 C22.9294777,27.7155487 22.8826206,27.5114058 23.0599063,27.1286915 C23.2879063,26.6366915 23.2740491,26.5906915 22.8024777,26.3116915 C22.6287634,26.2091201 22.4447634,26.1215487 22.2793348,26.0071201 C22.0167634,25.8254058 21.8164777,25.882263 21.6459063,26.1329772 C21.5924777,26.2114058 21.5300491,26.2838344 21.4767634,26.3624058 C21.3136206,26.6028344 21.0956206,26.6066915 20.8463348,26.5256915 C20.6007634,26.4458344 20.4406206,26.3265487 20.4213348,26.0321201 C20.3803348,25.4016915 20.3467634,25.3844058 19.7123348,25.384263 C19.6173348,25.384263 19.5223348,25.384263 19.4273348,25.3849772 C18.7479063,25.390263 18.738192,25.3894058 18.6769063,26.069263 C18.6516206,26.3494058 18.4836206,26.4498344 18.2540491,26.5248344 C18.0200491,26.6011201 17.8267634,26.5991201 17.648192,26.387263 C17.1684777,25.8176915 17.1623348,25.8229772 16.5163348,26.1854058 C16.485192,26.2028344 16.4534777,26.219263 16.4226206,26.2368344 C15.8444777,26.5649772 15.7530491,26.6496915 16.0909063,27.2184058 C16.229192,27.4511201 16.1637634,27.6435487 15.9867634,27.827263 C15.8074777,28.0136915 15.6319063,28.1038344 15.3579063,27.996263 C14.6754777,27.728263 14.6709063,27.7398344 14.2969063,28.3946915 C14.279192,28.4254058 14.2607634,28.4559772 14.2430491,28.4869772 C13.8963348,29.089263 13.8974777,29.1164058 14.452192,29.5094058 C14.6569063,29.6545487 14.7127634,29.8325487 14.6574777,30.0651201 C14.5997634,30.3068344 14.5246206,30.5355487 14.221192,30.5458344 C13.3977634,30.5741201 13.5024777,30.827263 13.483192,31.417263 C13.4813348,31.4766915 13.482192,31.5361201 13.482192,31.5955487 C13.4836206,32.2078344 13.5223348,32.2669772 14.1379063,32.3056915 C14.4474777,32.325263 14.5713348,32.489263 14.653192,32.7509772 C14.7356206,33.014263 14.6647634,33.2001201 14.4484777,33.3701201 C13.9197634,33.7854058 13.9249063,33.7919772 14.240192,34.373263 C14.2799063,34.4464058 14.318192,34.5201201 14.3587634,34.5928344 C14.661192,35.1335487 14.7247634,35.1678344 15.2710491,34.9039772 C15.5646206,34.762263 15.7637634,34.8609772 15.9740491,35.0486915 C16.1849063,35.2369772 16.2124777,35.4455487 16.0864777,35.6874058 C15.7877634,36.2605487 15.8224777,36.3164058 16.406192,36.6484058 C16.4887634,36.695263 16.5693348,36.7455487 16.6516206,36.7928344 C17.1969063,37.1061201 17.2366206,37.1086915 17.5876206,36.5805487 C17.7580491,36.3244058 17.9546206,36.2925487 18.227192,36.3506915 C18.5076206,36.4104058 18.6186206,36.582263 18.6583348,36.8429772 C18.7629063,37.5314058 18.7657634,37.5311201 19.4510491,37.5418344 C19.5460491,37.5434058 19.6410491,37.5444058 19.7360491,37.5429772 C20.3273348,37.5334058 20.3903348,37.4878344 20.4396206,36.903263 C20.4683348,36.5641201 20.6277634,36.4028344 20.9577634,36.333263 C21.3097634,36.2589772 21.4603348,36.4678344 21.6029063,36.7094058 C21.7846206,37.0175487 22.0134777,37.0801201 22.3129063,36.8759772 C22.4009063,36.8158344 22.4980491,36.7691201 22.5899063,36.7145487 C23.2376206,36.3299772 23.2467634,36.3266915 22.997192,35.6278344 C22.8990491,35.3529772 22.9974777,35.1709772 23.1890491,35.0008344 C23.3707634,34.8394058 23.5516206,34.767263 23.8014777,34.8889772 C24.3816206,35.1719772 24.4314777,35.1479772 24.7499063,34.5976915 C24.7974777,34.5154058 24.8406206,34.4306915 24.8857634,34.347263 C25.189192,33.7845487 25.1986206,33.7719772 24.6884777,33.3948344 C24.3907634,33.1745487 24.375192,32.9294058 24.4950491,32.617263 C24.6029063,32.3368344 24.8246206,32.3179772 25.0729063,32.3058344 C25.5203348,32.284263 25.6096206,32.1874058 25.6217634,31.7441201 C25.6283348,31.5065487 25.6317634,31.2686915 25.6253348,31.031263 C25.6184777,30.7694058 25.4909063,30.6085487 25.2163348,30.5855487 C25.1099063,30.5766915 25.004192,30.5566915 24.8977634,30.5491201 C24.6469063,30.5309772 24.5197634,30.3905487 24.4654777,30.1518344 C24.4094777,29.9045487 24.3860491,29.6691201 24.645192,29.5251201 C25.2567634,29.1848344 25.1589063,28.9986915 24.8587634,28.4654058 C24.8006206,28.3618344 24.7386206,28.2605487 24.6766206,28.159263 C24.4399063,27.7726915 24.3316206,27.7394058 23.9220491,27.9166915 C23.7926206,27.9726915 23.6589063,28.0196915 23.5120491,28.0766915 L23.5120491,28.0766915 Z M17.7900491,5.76040582 L17.7900491,7.27469153 C17.5049063,7.29497725 17.2587634,7.32240582 17.0123348,7.32483439 C16.9313348,7.32569153 16.8226206,7.28426296 16.7729063,7.22397725 C16.4029063,6.77569153 15.9449063,6.72069153 15.419192,6.87483439 C15.328192,6.90154868 15.1809063,6.87769153 15.112192,6.81740582 C14.5460491,6.31897725 13.8756206,6.23554868 13.2046206,6.56554868 C12.559192,6.88283439 12.9074777,7.58069153 12.6166206,8.02997725 C12.6074777,8.04412011 12.6324777,8.07712011 12.6277634,8.09826296 C12.6016206,8.21397725 12.5999063,8.34854868 12.5370491,8.44054868 C12.2184777,8.90697725 12.392192,9.32597725 12.9547634,9.43654868 C13.063192,9.45783439 13.185192,9.50312011 13.2616206,9.57783439 C13.504192,9.81469153 13.7894777,9.87454868 14.1130491,9.85397725 C14.2366206,9.84612011 14.3940491,9.83812011 14.483192,9.90297725 C15.0304777,10.3014058 15.6429063,10.334263 16.2863348,10.3045487 C16.6606206,10.287263 17.0409063,10.3338344 17.4144777,10.3825487 C17.715192,10.4215487 17.8214777,10.6029772 17.8207634,10.9285487 C17.8100491,15.5755487 17.8154777,20.2225487 17.8169063,24.8696915 C17.8170491,25.2619772 17.8053348,25.6546915 17.825192,26.0459772 C17.8309063,26.1596915 17.9567634,26.370263 17.9769063,26.3643885 C18.1426206,26.3154058 18.3136206,26.2471201 18.4460491,26.1394058 C18.507192,26.0895487 18.4927634,25.9389772 18.5010491,25.8331201 C18.5373348,25.3658344 18.6999063,25.2029772 19.1687634,25.1865487 C19.3823348,25.1791201 19.5966206,25.1814058 19.8103348,25.1889772 C20.4524777,25.2115487 20.5229063,25.2861201 20.610192,25.9284058 C20.6277634,26.0578344 20.683192,26.2224058 20.7783348,26.2896915 C20.8769063,26.3591201 21.0796206,26.385263 21.1727634,26.3274058 C21.2566206,26.275263 21.2844777,26.0835487 21.2846206,25.9534058 C21.2906206,21.0565487 21.2904777,16.1598344 21.291192,11.2631201 L21.291192,10.7919772 C21.5830491,10.7578344 21.8380491,10.7825487 22.0439063,10.6935487 C22.6527634,10.4304058 23.2406206,10.1184058 23.8403348,9.83297725 C24.1740491,9.67426296 24.4256206,9.44812011 24.5939063,9.10954868 C24.6797634,8.93669153 24.841192,8.80012011 24.9737634,8.65197725 C25.1383348,8.46826296 25.3883348,8.31469153 25.4557634,8.10197725 C25.5359063,7.84897725 25.689192,7.74026296 25.8800491,7.62069153 C26.3970491,7.29640582 26.7877634,6.86997725 26.7942081,6.22712011 C26.7959063,6.04726296 26.6606206,5.83326296 26.5250491,5.69869153 C26.4557634,5.62997725 26.2187634,5.65740582 26.1096206,5.72512011 C26.0264777,5.77654868 26.0234777,5.95983439 25.9880491,6.08526296 C25.9534777,6.20754868 25.9609063,6.39754868 25.8837634,6.44154868 C25.6350491,6.58312011 25.360192,6.68383439 25.0869063,6.77497725 C24.9096206,6.83412011 24.6776206,6.79369153 24.5400491,6.89412011 C24.176192,7.15926296 23.8267634,7.38940582 23.3740491,7.52826296 C23.0874777,7.61612011 22.8797634,7.74440582 22.5567634,7.64326296 C22.2347634,7.54254868 21.8756206,7.56640582 21.537192,7.50883439 C21.445192,7.49326296 21.3004777,7.38412011 21.2974777,7.31312011 C21.2767634,6.80640582 21.2864777,6.29854868 21.2864777,5.76654868 C21.4163348,5.75754868 21.524192,5.76526296 21.6226206,5.73869153 C21.7117634,5.71454868 21.8604777,5.65197725 21.8600491,5.60754868 C21.859192,5.50454868 21.8016206,5.38740582 21.7326206,5.30483439 C21.6879063,5.25126296 21.5824777,5.22826296 21.5037634,5.22726296 C21.2749063,5.22383439 21.2774777,5.07512011 21.2729063,4.91069153 C21.2680491,4.72683439 21.3469063,4.65026296 21.5277634,4.65897725 C21.610192,4.66297725 21.6967634,4.66212011 21.7757634,4.64154868 C22.0489063,4.57069153 22.1017634,4.36369153 22.087192,4.11640582 C22.073192,3.87626296 21.9204777,3.83283439 21.719192,3.83754868 C21.4699063,3.84326296 21.2187634,3.82140582 20.9710491,3.84240582 C20.6227634,3.87212011 20.5174777,3.74140582 20.6046206,3.40583439 C20.6357634,3.28597725 20.6044777,3.14783439 20.5927634,3.01897725 C20.5413348,2.45212011 20.2894777,1.88397725 20.6187634,1.31712011 C20.640192,1.28026296 20.5307634,1.12369153 20.4514777,1.08269153 C20.3533348,1.03212011 20.2193348,1.05754868 20.107192,1.02697725 C19.7276206,0.923691535 19.297192,1.12426296 19.188192,1.50412011 C19.0453348,2.00154868 18.9160491,2.50512011 18.8234777,3.01383439 C18.6987634,3.69883439 18.5600491,3.84026296 17.882192,3.84112011 C17.7159063,3.84126296 17.5494777,3.83783439 17.383192,3.84183439 C17.0550491,3.84983439 16.9464777,4.00597725 17.0330491,4.32040582 C17.1017634,4.56940582 17.268192,4.67012011 17.5107634,4.64683439 C17.8064777,4.61840582 17.8713348,4.79140582 17.811192,5.01640582 C17.7884777,5.10183439 17.6357634,5.14840582 17.5503348,5.22212011 C17.4267634,5.32883439 17.3106206,5.44397725 17.1914777,5.55554868 C17.3124777,5.61354868 17.4310491,5.67797725 17.5556206,5.72669153 C17.6190491,5.75140582 17.6933348,5.74754868 17.7900491,5.76040582 L17.7900491,5.76040582 Z" id="Fill-1" fill="#FFBE00"></path>
                        <path d="M3.62123484,33.5923058 C3.7553777,33.7104487 3.82652056,33.7687344 3.89294913,33.832163 C4.82809199,34.723163 5.76623484,35.611163 6.6913777,36.5124487 C6.78252056,36.6014487 6.84909199,36.7827344 6.83066341,36.9068772 C6.66694913,38.0095915 6.47752056,39.1084487 6.30594913,40.2100201 C6.2713777,40.432163 6.18552056,40.5133058 5.95409199,40.479163 C4.9103777,40.3253058 3.86580627,40.1768772 2.8193777,40.0424487 C2.55480627,40.0085915 2.51909199,39.8850201 2.55909199,39.6577344 C2.85366341,37.9873058 3.14152056,36.3155915 3.43223484,34.6444487 C3.48880627,34.3194487 3.54880627,33.9948772 3.62123484,33.5923058" id="Fill-3备份" stroke="#FFBD00" stroke-width="0.1" fill="#E31B12"></path>
                        <path d="M35.4944206,33.6610772 C35.6324206,34.4185058 35.773992,35.1750772 35.9078491,35.9330772 C36.1204206,37.1372201 36.3272777,38.3425058 36.537992,39.5467915 C36.6154206,39.9887915 36.6182777,39.994363 36.166992,40.0579344 C35.1681348,40.1989344 34.1672777,40.325363 33.169992,40.4755058 C32.9211348,40.5130772 32.8311348,40.4405058 32.7945634,40.1999344 C32.6322777,39.1316487 32.4612777,38.0645058 32.2821348,36.9987915 C32.2401348,36.7486487 32.3155634,36.5960772 32.5055634,36.4206487 C33.3948491,35.6000772 34.2628491,34.756363 35.1341348,33.9162201 C35.2257063,33.8279344 35.2888491,33.7097915 35.3651348,33.6055058 C35.4082777,33.6240772 35.4512777,33.6425058 35.4944206,33.6610772" id="Fill-5备份" stroke="#FFBD00" stroke-width="0.1" fill="#E31B12"></path>
                        <path d="M27.7117634,39.2814772 C27.7613348,39.7999058 27.8093348,40.2814772 27.853192,40.7636201 C27.953192,41.8640487 28.0579063,42.9643344 28.145192,44.0659058 C28.1643348,44.307763 28.2600491,44.372763 28.4826206,44.341763 C28.8236206,44.2941915 29.1680491,44.2704772 29.5083348,44.2189058 C29.7767634,44.1779058 29.9134777,44.2946201 29.9644777,44.5424772 C29.9857634,44.646763 30.0076206,44.7526201 30.0120491,44.8584772 C30.0357634,45.4360487 29.9983348,45.4669058 29.4159063,45.5210487 C28.3160491,45.6233344 27.2169063,45.733763 26.1179063,45.8446201 C25.698192,45.8869058 25.6754777,45.873763 25.6750491,45.4411915 C25.6733348,43.7420487 25.6767634,42.042763 25.6701824,40.3434772 C25.6693348,40.1130487 25.7259063,39.9756201 25.9674777,39.8969058 C26.4523348,39.7384772 26.925192,39.5430487 27.4040491,39.3659058 C27.4890491,39.3344772 27.579192,39.3173344 27.7117634,39.2814772" id="Fill-7备份" stroke="#FFBD00" stroke-width="0.1" fill="#E31B12"></path>
                        <path d="M11.4405634,39.2752058 C12.0851348,39.5124915 12.6875634,39.7257772 13.2804206,39.9626344 C13.3577063,39.9934915 13.4308491,40.1457772 13.4312777,40.242063 C13.4385634,42.0246344 13.4325634,43.8074915 13.4354219,45.590063 C13.4358491,45.8169201 13.3332777,45.8782058 13.1271348,45.8577772 C11.8864206,45.735063 10.6444206,45.6224915 9.4052777,45.4853487 C9.29684913,45.4733487 9.18956341,45.3204915 9.1122777,45.2116344 C9.07184913,45.1543487 9.09499199,45.050063 9.09442056,44.9669201 C9.08970627,44.2979201 9.23799199,44.162063 9.88184913,44.2426344 C10.9432777,44.3756344 10.9347063,44.3749201 11.024992,43.317063 C11.131992,42.0626344 11.2547063,40.8093487 11.3731348,39.5557772 C11.3807063,39.4766344 11.409992,39.3996344 11.4405634,39.2752058" id="Fill-9备份" stroke="#FFBD00" stroke-width="0.1" fill="#E31B12"></path>
                        <path d="M9.28076341,38.2400487 C9.87776341,38.5353344 10.4530491,38.8109058 11.0160491,39.1096201 C11.0873348,39.1474772 11.1336206,39.3086201 11.1260491,39.4080487 C11.0203348,40.8171915 10.899192,42.2251915 10.7920491,43.6344772 C10.7694777,43.9311915 10.6746206,44.042763 10.3497634,43.9980487 C9.2564777,43.8476201 8.1594777,43.7219058 7.06219199,43.6041915 C6.83090627,43.5793344 6.75919199,43.4870487 6.75819199,43.2701915 C6.75362056,42.2611915 6.63362056,42.4640487 7.52690627,42.4303344 C7.87776341,42.4171915 8.33062056,42.5123344 8.54833484,42.3311915 C8.75004913,42.1634772 8.70590627,41.693763 8.75962056,41.3553344 C8.90676341,40.4291915 9.04762056,39.5020487 9.19390627,38.575763 C9.20990627,38.4733344 9.2454777,38.3740487 9.28076341,38.2400487" id="Fill-11备份" stroke="#FFBD00" stroke-width="0.1" fill="#E31B12"></path>
                        <path d="M29.8540063,38.2287487 C29.9310063,38.7093201 30.001292,39.1377487 30.0678634,39.5666058 C30.1988634,40.410463 30.334292,41.2540344 30.4531491,42.0996058 C30.4874348,42.3428915 30.5725777,42.4503201 30.8367206,42.4358915 C31.2390063,42.4140344 31.6434348,42.4383201 32.0467206,42.429463 C32.2704348,42.424463 32.3594348,42.5020344 32.3645777,42.7376058 C32.3831491,43.5688915 32.3908634,43.5683201 31.5581491,43.6650344 C30.6390063,43.7717487 29.718292,43.8676058 28.8014348,43.9921772 C28.4684348,44.0373201 28.3324348,43.9516058 28.3075777,43.6031772 C28.2097206,42.2303201 28.0948634,40.858463 27.9734348,39.487463 C27.952292,39.248463 28.0194348,39.1246058 28.2424348,39.0233201 C28.7678634,38.7851772 29.2790063,38.5150344 29.8540063,38.2287487" id="Fill-13备份" stroke="#FFBD00" stroke-width="0.1" fill="#E31B12"></path>
                        <path d="M7.17522056,36.8512344 C7.77493484,37.2530915 8.32064913,37.6078058 8.8500777,37.9853772 C8.92950627,38.0422344 8.97922056,38.2133772 8.96336341,38.3199487 C8.78050627,39.5520915 8.58764913,40.7828058 8.37750627,42.010663 C8.36264913,42.097663 8.1880777,42.2238058 8.09193484,42.2200915 C6.9540777,42.1763772 5.81636341,42.1170915 4.6800777,42.0408058 C4.59364913,42.0350915 4.45964913,41.8760915 4.44822056,41.7768058 C4.41293484,41.471663 4.42636341,41.1609487 4.42122056,40.8523772 C4.41779199,40.6469487 4.49650627,40.5489487 4.72279199,40.5788058 C5.13422056,40.6330915 5.54822056,40.6680915 5.9610777,40.7109487 C6.50422056,40.7669487 6.50179199,40.7663772 6.58779199,40.239663 C6.75422056,39.2209487 6.92336341,38.2028058 7.09322056,37.1845201 C7.1080777,37.0955201 7.1360777,37.008663 7.17522056,36.8512344" id="Fill-15备份" stroke="#FFBD00" stroke-width="0.1" fill="#E31B12"></path>
                        <path d="M31.9482348,36.8357487 C32.0638063,37.495463 32.1659491,38.0627487 32.2619491,38.6308915 C32.3648063,39.2388915 32.4735206,39.8461772 32.5555206,40.4570344 C32.5875206,40.6946058 32.6925206,40.7516058 32.9072348,40.7283201 C33.4706634,40.6668915 34.035092,40.6153201 34.6596634,40.5538915 C34.6596634,41.0266058 34.6685206,41.4577487 34.6492348,41.887463 C34.6468063,41.9451772 34.5052348,42.0390344 34.4238063,42.0440344 C33.2875206,42.1140344 32.1505206,42.1690344 31.0139491,42.2343201 C30.8189491,42.2456058 30.7423777,42.169463 30.713092,41.9806058 C30.5256634,40.773463 30.3255206,39.568463 30.142092,38.3607487 C30.1252348,38.2491772 30.1559491,38.069463 30.2319491,38.0143201 C30.767092,37.6260344 31.320092,37.2623201 31.9482348,36.8357487" id="Fill-17备份" stroke="#FFBD00" stroke-width="0.1" fill="#E31B12"></path>
                        <path d="M20.9443348,42.7241344 C20.9443348,43.2471344 20.9393348,43.7702772 20.9467634,44.2931344 C20.9499063,44.5047058 20.8713348,44.5974201 20.6540491,44.5869915 C20.4169063,44.5754201 20.1784777,44.5761344 19.9413348,44.5859915 C19.717192,44.5954201 19.656192,44.485563 19.6576206,44.2812772 C19.6644777,43.2709915 19.6694777,42.260563 19.661192,41.2504201 C19.659192,41.0057058 19.7469063,40.9277058 19.9869063,40.9057058 C20.9559063,40.816563 20.9547634,40.8084201 20.9506206,41.7614201 C20.9493348,42.0822772 20.9503348,42.4032772 20.9503348,42.7241344 L20.9443348,42.7241344 Z" id="Fill-19备份" stroke="#FFBD00" stroke-width="0.1" fill="#E31B12"></path>
                        <path d="M18.155692,42.701963 C18.155692,42.190963 18.1644063,41.6798201 18.1518348,41.1692487 C18.1459777,40.9321058 18.2364063,40.8668201 18.4655491,40.8672466 C19.445692,40.8692487 19.4455491,40.8628201 19.4455491,41.8393915 C19.4455491,42.6355344 19.439692,43.4316772 19.450692,44.2276772 C19.4541206,44.4788201 19.3854063,44.5868201 19.1114063,44.5913915 C18.1689777,44.6063915 18.1688348,44.6156772 18.1645491,43.6643915 C18.1631206,43.3435344 18.1644063,43.0228201 18.1644063,42.701963 L18.155692,42.701963 Z" id="Fill-21备份" stroke="#FFBD00" stroke-width="0.1" fill="#E31B12"></path>
                        <path d="M21.2074491,40.9742772 C21.6264491,41.2569915 21.9913063,41.4911344 22.3387348,41.7488487 C22.403592,41.7968487 22.4204491,41.939563 22.421592,42.0389915 C22.4307348,42.7848487 22.4254491,43.5308487 22.4354491,44.276563 C22.4384491,44.505563 22.3511634,44.593563 22.1214491,44.5878487 C20.9953063,44.5602772 21.1968777,44.749563 21.1847348,43.698563 C21.1758777,42.9291344 21.1793063,42.1594201 21.1798777,41.3897058 C21.1800206,41.2772772 21.1943063,41.1647058 21.2074491,40.9742772" id="Fill-23备份" stroke="#FFBD00" stroke-width="0.1" fill="#E31B12"></path>
                        <path d="M17.8851777,40.9749772 L17.8851777,44.5351201 C17.8394634,44.5548344 17.8290348,44.562263 17.817892,44.5636915 C16.6817491,44.7021201 16.6807491,44.7021201 16.6754634,43.5806915 C16.6731777,43.0821201 16.6714634,42.5834058 16.6804634,42.0848344 C16.6826063,41.9724058 16.6924634,41.8118344 16.7631777,41.7575487 C17.1070348,41.4934058 17.4727491,41.2579772 17.8851777,40.9749772" id="Fill-25备份" stroke="#FFBD00" stroke-width="0.1" fill="#E31B12"></path>
                        <path d="M22.7088348,42.0006487 C23.1519777,42.295363 23.555692,42.558363 23.9509777,42.8336487 C24.0082634,42.8735058 24.0399777,42.9696487 24.0552634,43.0455058 C24.073692,43.1370772 24.062692,43.2346487 24.0629777,43.3296487 C24.0651206,44.2757915 24.0649777,44.2757915 23.1789777,44.5579344 C22.8021206,44.6780772 22.6579777,44.5716487 22.6602634,44.171363 C22.6639777,43.5659344 22.6685491,42.960363 22.6759777,42.3547915 C22.6771206,42.253363 22.6942634,42.1519344 22.7088348,42.0006487" id="Fill-27备份" stroke="#FFBD00" stroke-width="0.1" fill="#E31B12"></path>
                        <path d="M16.4444063,41.969263 C16.4444063,42.5991201 16.4444063,43.1281201 16.4444063,43.657263 C16.4444063,43.8234058 16.4435491,43.9894058 16.4451206,44.1554058 C16.4494063,44.5738344 16.2984063,44.6898344 15.9112634,44.5488344 C15.6781206,44.4638344 15.446692,44.3701201 15.2255491,44.2579772 C15.146692,44.2181201 15.0532634,44.1161201 15.0482634,44.0374058 C15.0275491,43.7184058 15.0282634,43.3971201 15.0448348,43.0779772 C15.0495491,42.9864058 15.1122634,42.8678344 15.1862634,42.815263 C15.5609777,42.5486915 15.9482634,42.2996915 16.4444063,41.969263" id="Fill-29备份" stroke="#FFBD00" stroke-width="0.1" fill="#E31B12"></path>
                        <path d="M13.7172063,43.5053915 C13.6166348,43.1233915 13.6357777,42.8842487 13.9490634,42.680963 C14.8532063,42.0941058 15.725492,41.4575344 16.6389206,40.8863915 C16.8550634,40.7512487 17.1837777,40.795963 17.4607777,40.7581058 C17.4799206,40.8105344 17.4990634,40.8631058 17.5182063,40.9155344 C16.2627777,41.7708201 15.0073491,42.6263915 13.7172063,43.5053915" id="Fill-31备份" stroke="#FFBD00" stroke-width="0.1" fill="#E31B12"></path>
                        <path d="M25.3914634,43.5044201 C24.0956063,42.6227058 22.843892,41.7711344 21.5921777,40.9194201 C21.9613206,40.7649915 22.264892,40.7088487 22.5890348,40.939563 C23.4187491,41.5298487 24.2636063,42.1001344 25.1204634,42.6502772 C25.438892,42.854563 25.5037491,43.095563 25.3914634,43.5044201" id="Fill-33备份" stroke="#FFBD00" stroke-width="0.1" fill="#E31B12"></path>
                        <path d="M13.7247491,42.6383487 C13.6104634,42.2842058 13.6534634,42.0804915 13.9234634,41.9029201 C14.4284634,41.5706344 14.9266063,41.223063 15.3957491,40.8423487 C15.7110348,40.5864915 16.0147491,40.5306344 16.4701777,40.7359201 C15.5356063,41.3834915 14.6457491,42.000063 13.7247491,42.6383487" id="Fill-35备份" stroke="#FFBD00" stroke-width="0.1" fill="#E31B12"></path>
                        <path d="M25.3814063,42.632763 C24.468692,42.0041915 23.5799777,41.3919058 22.6269777,40.735763 C23.0284063,40.5944772 23.3069777,40.5199058 23.6212634,40.7734772 C24.1192634,41.1753344 24.6554063,41.5296201 25.1755491,41.9039058 C25.4785491,42.1221915 25.4882634,42.1500487 25.3814063,42.632763" id="Fill-37备份" stroke="#FFBD00" stroke-width="0.1" fill="#E31B12"></path>
                        <path d="M13.7255063,41.8399344 C13.616792,41.4702201 13.6370777,41.2366487 13.9320777,41.0639344 C14.1336491,40.9457915 14.3222206,40.792363 14.4852206,40.624363 C14.7789348,40.3215058 15.0802206,40.3706487 15.4783634,40.5736487 C14.8820777,41.004363 14.3262206,41.4059344 13.7255063,41.8399344" id="Fill-39备份" stroke="#FFBD00" stroke-width="0.1" fill="#E31B12"></path>
                        <path d="M25.381692,41.8418915 C24.7818348,41.4070344 24.2258348,41.0038915 23.6339777,40.5747487 C24.0329777,40.3550344 24.3325491,40.3233201 24.6234063,40.6301772 C24.7759777,40.7911772 24.9618348,40.9287487 25.152692,41.043463 C25.4464063,41.2200344 25.5081206,41.4550344 25.381692,41.8418915" id="Fill-41备份" stroke="#FFBD00" stroke-width="0.1" fill="#E31B12"></path>
                        <path d="M13.6997063,41.0691487 C13.6588491,40.6971487 13.564992,40.3890058 13.8741348,40.247863 C14.0297063,40.1770058 14.2528491,40.2542915 14.4452777,40.2645772 C14.4545634,40.3041487 14.463992,40.3437201 14.4732777,40.3832915 C14.2364206,40.5932915 13.9997063,40.8032915 13.6997063,41.0691487" id="Fill-43备份" stroke="#FFBD00" stroke-width="0.1" fill="#E31B12"></path>
                        <path d="M25.4178206,41.0832344 C25.1205348,40.8190915 24.8862491,40.6109487 24.6518206,40.4029487 C24.6548206,40.3645201 24.6578206,40.3260915 24.6608206,40.287663 C24.850392,40.2649487 25.0751063,40.1668058 25.2221063,40.2352344 C25.5438206,40.3849487 25.4475348,40.7092344 25.4178206,41.0832344" id="Fill-45备份" stroke="#FFBD00" stroke-width="0.1" fill="#E31B12"></path>
                        <circle id="椭圆形" stroke="#FF0000" stroke-width="0.3" cx="19.5" cy="31.5" r="3.5"></circle>
                        <path d="M19.5075348,33.7506487 C18.2126777,33.7346487 17.204392,32.688363 17.2245348,31.3819344 C17.2439634,30.1162201 18.3051063,29.0879344 19.572392,29.1069344 C20.841392,29.1259344 21.871392,30.1790772 21.860392,31.4466487 C21.8492491,32.7395058 20.8001063,33.7667915 19.5075348,33.7506487" id="Fill-49备份" fill="#F70000"></path>
                    </g>
                    <g id="编组-26" transform="translate(1.000000, 1.000000)"></g>
                </g>
                <text id="杭州互联网法院备份" font-family="STSongti-SC-Black, Songti SC" font-size="20" font-weight="700" letter-spacing="3" fill="#D03036">
                    <tspan x="50" y="21">杭州互联网法院</tspan>
                </text>
                <text id="杭州富连网法院诉讼平台备份" font-family="STSongti-SC-Black, Songti SC" font-size="12" font-weight="700" letter-spacing="1.8" fill="#D03036">
                    <tspan x="52" y="46">杭州富连网法院诉讼平台</tspan>
                </text>
            </g>
        </g>
    </g>
</svg>