<?xml version="1.0" encoding="UTF-8"?>
<svg width="186px" height="42px" viewBox="0 0 186 42" version="1.1" xmlns="http://www.w3.org/2000/svg" xmlns:xlink="http://www.w3.org/1999/xlink">
    <!-- Generator: Sketch 57.1 (83088) - https://sketch.com -->
    <title>京东金融</title>
    <desc>Created with Sketch.</desc>
    <defs>
        <polygon id="path-1" points="8.41956485e-06 0.0213471074 51.8630459 0.0213471074 51.8630459 25.7848987 8.41956485e-06 25.7848987"></polygon>
        <polygon id="path-3" points="0.246628571 0.0863642321 13.5783307 0.0863642321 13.5783307 13.2647059 0.246628571 13.2647059"></polygon>
        <polygon id="path-5" points="8.41956485e-06 0.0213471074 51.8630459 0.0213471074 51.8630459 25.7848987 8.41956485e-06 25.7848987"></polygon>
        <linearGradient x1="50%" y1="100%" x2="50%" y2="3.061617e-15%" id="linearGradient-7">
            <stop stop-color="#D7D8D8" offset="0%"></stop>
            <stop stop-color="#F8F7F7" offset="100%"></stop>
        </linearGradient>
        <polygon id="path-8" points="0.246628571 0.0863642321 13.5783307 0.0863642321 13.5783307 13.2647059 0.246628571 13.2647059"></polygon>
        <linearGradient x1="50%" y1="0%" x2="50%" y2="100%" id="linearGradient-10">
            <stop stop-color="#F0F0F0" offset="0%"></stop>
            <stop stop-color="#DCDCDC" offset="100%"></stop>
        </linearGradient>
        <filter x="-39.9%" y="-26.1%" width="179.9%" height="152.2%" filterUnits="objectBoundingBox" id="filter-11">
            <feGaussianBlur stdDeviation="1" in="SourceGraphic"></feGaussianBlur>
        </filter>
    </defs>
    <g id="页面-1" stroke="none" stroke-width="1" fill="none" fill-rule="evenodd">
        <g id="首页" transform="translate(-641.000000, -3706.000000)">
            <g id="京东金融" transform="translate(642.000000, 3706.000000)">
                <g id="编组-25备份" transform="translate(0.000000, 1.000000)">
                    <g id="编组">
                        <mask id="mask-2" fill="white">
                            <use xlink:href="#path-1"></use>
                        </mask>
                        <g id="Clip-2"></g>
                        <path d="M28.8308641,7.0953832 C29.4429557,6.75501543 30.0121771,6.5474741 30.4178565,6.16757466 C30.6306198,5.9687303 30.7123908,5.37891763 30.5690931,5.12591488 C30.4206351,4.86421515 29.9149252,4.65272066 29.5874443,4.67999752 C29.1535817,4.71557603 28.6693069,4.92272204 28.3410321,5.20932672 C28.0377649,5.47300303 27.7047267,5.98098512 27.769826,6.30395895 C27.8301618,6.60202782 28.4025588,6.79770964 28.8308641,7.0953832 M46.1119328,1.9906573 C46.0869252,2.07169725 46.0615206,2.15234187 46.036513,2.2329865 C45.5768489,2.2329865 45.1096427,2.18080468 44.6583145,2.24326474 C43.3833221,2.4187854 42.1321466,2.67218347 41.2751389,3.78025647 C40.9095511,4.25305537 40.8492153,4.73810909 41.4311389,4.99901818 C41.9535206,5.23304573 42.5846656,5.45560909 43.1249099,5.37891763 C44.9254595,5.12433361 46.712513,4.76064215 48.4896427,4.36927851 C48.8202992,4.29654022 49.1946198,3.95142865 49.3272,3.63873306 C49.3998412,3.46677025 49.0719634,2.94969587 48.8199023,2.84968072 C47.9422534,2.50180193 47.0181618,2.26777438 46.1119328,1.9906573 M9.31736794,13.9062964 C10.2366962,18.9568639 7.84112366,21.3568322 3.9712916,22.5589906 C3.5032916,22.7044672 3.0352916,22.9203102 2.55776489,22.9491683 C0.651230534,23.0638102 -0.525319084,21.290419 0.232848855,19.4091063 C0.833429008,17.9191573 1.58921527,16.4908777 2.17629924,14.9957895 C2.79394809,13.421638 3.37666565,11.8237675 3.82362748,10.1954576 C4.37697099,8.17736529 5.75636031,7.4978157 7.58588702,8.4975719 C8.30753588,8.89170275 8.99742901,9.35461873 9.74845191,9.68035978 C10.0175817,9.79737355 10.5641771,9.73135565 10.7463756,9.53251129 C14.3395359,5.60780606 19.0973374,3.81346309 24.018284,2.36502231 C26.3412153,1.68151956 28.705826,1.02529366 31.0982229,0.714969972 C34.5322076,0.269843251 37.9717496,-0.233395041 41.4879023,0.167456198 C43.5012153,0.397135262 45.5502534,0.375392837 47.5008489,0.982994766 C50.3453679,1.86850441 51.608055,2.7057854 51.7791389,4.84049614 C51.8648794,5.91575785 51.9339481,7.03608567 51.7279328,8.08051267 C51.4457038,9.50839697 51.1221924,11.014554 50.4049099,12.2503143 C49.304574,14.1450678 47.2837191,14.7886435 45.1866504,14.9028901 C43.1483298,15.0135788 41.0758718,15.1278253 39.060574,14.887868 C35.4054901,14.4518336 31.8313832,13.6434107 28.9888489,11.0082289 C28.7669557,10.8026642 28.1397802,10.6994865 27.9504366,10.8532647 C27.4443298,11.2651848 27.9409099,11.5585099 28.2481466,11.850649 C30.2447878,13.7509369 32.7483298,14.5415705 35.3344366,15.2899052 C38.400055,16.1773915 41.4982229,16.0390306 44.5979786,15.9568047 C46.2603908,15.9125292 47.7493374,15.1539163 49.0933985,14.1699727 C49.2724214,14.0391229 49.4419176,13.8956229 49.8162382,13.859649 C49.7031084,14.1181862 49.6384061,14.4146738 49.468116,14.6281449 C47.9613069,16.5201311 46.5850931,18.5461298 44.8806046,20.2452014 C42.2897344,22.8278061 39.1812458,24.6778887 35.5626809,25.5550967 C35.3713527,25.6017441 35.1748641,25.6582744 34.9803603,25.6610416 C32.9797496,25.6895044 30.9529405,25.9172069 28.9852763,25.6732964 C26.7572153,25.39697 24.4970015,24.9198226 22.4046962,24.1268171 C18.825429,22.7704851 15.4541618,20.9698171 12.7311084,18.1678116 C12.1347953,17.5542451 11.5237058,16.9542203 10.9784911,16.3003742 C10.2984473,15.4848349 9.72088789,14.5855633 9.4023145,13.4718433 C9.37174962,13.6169245 9.29236031,13.7710981 9.31736794,13.9062964 Z" id="Fill-1" fill="#B9C4CE" mask="url(#mask-2)"></path>
                    </g>
                    <g id="编组" transform="translate(22.285714, 27.333333)">
                        <mask id="mask-4" fill="white">
                            <use xlink:href="#path-3"></use>
                        </mask>
                        <g id="Clip-4"></g>
                        <path d="M5.41939048,7.99777353 C4.72234286,8.61277353 4.02281905,9.22616569 3.32783492,9.84357745 C2.64605714,10.4485284 2.00018413,11.0964892 1.27218413,11.64195 C1.03900952,11.8168029 0.594533333,11.7247539 0.246628571,11.754901 C0.296977778,11.4550382 0.2652,11.1081461 0.411295238,10.86295 C1.13186667,9.65586176 1.88050159,8.46364608 2.65967619,7.29193039 C3.01088254,6.76415588 3.05875556,6.42007745 2.5016127,5.94656765 C1.58418413,5.16796961 0.754660317,4.27441078 1.28951746,2.62838137 C1.62504127,3.13002843 1.83593016,3.43752843 2.03856508,3.75065588 C2.81113651,4.94447941 4.11980317,4.9404598 4.81354921,3.7474402 C5.43754921,2.67581275 6.04875556,1.59534216 6.72846984,0.557077451 C6.88612063,0.316302941 7.29386667,0.102459804 7.59142222,0.0968323529 C9.26739048,0.0622637255 10.9462476,0.127783333 12.6218032,0.0883911765 C13.2957397,0.0723127451 13.5891683,0.297410784 13.5780254,0.927283333 C13.5099302,4.59236176 13.4538032,8.25824412 13.3440254,11.9225186 C13.334946,12.2292147 12.9622794,12.5258618 12.7584063,12.8269304 C12.4802476,12.5970088 12.0489778,12.4169304 11.9503429,12.1291265 C11.5430095,10.9381167 11.3106603,9.68801863 10.8719619,8.50987157 C10.3746603,7.17576373 9.51459683,7.0479402 8.82332698,8.26748922 C8.08831111,9.56421471 7.60421587,11.0028324 7.08173968,12.4044696 C6.88323175,12.9370676 6.65294603,13.4310775 6.05577143,13.2116069 C5.76193016,13.1034794 5.54567619,12.5379206 5.48789841,12.1516363 C5.42681905,11.7452539 5.62326349,11.3079206 5.65999365,10.8806363 C5.73716825,9.97300882 5.78297778,9.06256765 5.84116825,8.15373431 C5.70085079,8.10188137 5.56012063,8.04962647 5.41939048,7.99777353" id="Fill-3" fill="#B7C4CF" mask="url(#mask-4)"></path>
                    </g>
                </g>
                <path d="M132.845563,7.61127908 C132.852187,7.67829648 132.859076,7.74531388 132.8657,7.81259723 L146.571597,7.81259723 C146.324128,7.60941748 146.242257,7.50862543 146.136539,7.46048992 C143.94297,6.45522886 141.846905,5.29226415 140.042557,3.66177327 C139.667909,3.323229 139.381757,3.41019206 139.004195,3.6942182 C137.877603,4.54097778 136.744122,5.38428011 135.560565,6.14700199 C134.698664,6.70255499 133.753566,7.12806232 132.845563,7.61127908 L132.845563,7.61127908 Z M139.470252,23.9058162 C135.41113,23.9058162 131.351742,23.9052843 127.29262,23.9058162 C126.478146,23.9058162 126.458274,23.8733712 126.446616,23.0415044 C126.423035,21.3636758 126.491659,21.6780194 127.779609,21.6777534 C130.73572,21.6777534 133.691832,21.6649882 136.647678,21.6971672 C137.315632,21.7043476 137.533425,21.4873389 137.521767,20.8222178 C137.487853,18.9196681 137.498981,17.0165866 137.517793,15.1137711 C137.523622,14.5236456 137.398298,14.2627564 136.702789,14.2757876 C134.100658,14.3236571 131.496938,14.2776492 128.894013,14.296531 C128.326477,14.3005202 128.107094,14.1183499 128.112393,13.5356708 C128.128291,11.753061 127.995283,12.0437357 129.578658,12.033364 C131.961141,12.0176734 134.343623,12.028577 136.726105,12.0293748 C137.511169,12.0296408 137.482819,12.0299067 137.523887,10.8600275 C137.547203,10.1951723 137.147915,10.2278832 136.708883,10.228681 C135.120738,10.2318723 133.532328,10.2302767 131.943919,10.228947 C131.09553,10.2281491 131.029821,10.1629933 131.029026,9.3361794 C131.027966,8.45750677 130.950334,8.42958285 130.131621,8.71068363 C128.884474,9.13831849 127.623285,9.52872146 126.355471,9.88960486 C126.221669,9.92763458 125.869543,9.68562729 125.842782,9.53377436 C125.624988,8.28491036 125.891004,7.9059429 127.042767,7.44878847 C130.325834,6.14460851 133.386868,4.4715669 135.92064,1.94724469 C135.952169,1.91612946 135.996947,1.8929925 136.016024,1.85602655 C137.178915,-0.400491981 139.258817,0.00214432592 141.212601,0.0718211505 C141.399925,0.0787356445 141.630966,0.233247992 141.75682,0.388558166 C144.523224,3.81070083 148.17034,5.92174905 152.197137,7.47192543 C152.300205,7.5115508 152.406188,7.54240008 152.509255,7.58202545 C153.62101,8.00966031 153.792966,8.32400385 153.602728,9.51170117 C153.530925,9.95928169 153.238943,9.97444038 152.917022,9.87577587 C151.615559,9.47686276 150.311182,9.08433225 149.023762,8.64340028 C148.106485,8.32905674 147.997853,8.37400096 147.972948,9.3343178 C147.950426,10.1837368 147.90141,10.2324042 147.054876,10.2313404 C145.444475,10.2292129 143.833809,10.214852 142.223672,10.2339999 C141.962691,10.2371912 141.507762,10.343568 141.479412,10.4757412 C141.384822,10.9132159 141.399925,11.3919117 141.478617,11.8360349 C141.496369,11.9378907 141.936725,12.0158118 142.183134,12.0171415 C144.609599,12.0312364 147.036594,12.0168755 149.463324,12.0307045 C151.223955,12.0405444 150.873948,11.9456031 150.948401,13.4681215 C150.98152,14.1454759 150.663573,14.3082325 150.078286,14.3042434 C147.872529,14.2901484 145.666508,14.2941376 143.460486,14.2912122 C143.019335,14.2904144 142.577653,14.3042434 142.137297,14.2842977 C141.567642,14.2582354 141.363096,14.5106144 141.37078,15.0789326 C141.395686,17.0035555 141.39754,18.9292421 141.378993,20.8538649 C141.372899,21.4926577 141.632821,21.6939759 142.254672,21.6894549 C145.430962,21.6668498 148.607517,21.6772215 151.784071,21.6790831 C152.62875,21.679615 152.672733,21.730144 152.675118,22.5867435 C152.675383,22.7194486 152.676177,22.8521537 152.676442,22.9848587 C152.678032,23.8270973 152.626631,23.8970401 151.780362,23.8983698 C147.677257,23.9052843 143.573622,23.9015611 139.470252,23.9015611 L139.470252,23.9058162 Z" id="Fill-1" fill="#E6413B"></path>
                <path d="M113.229775,3.87380889 C110.361364,3.87380889 107.492687,3.88205309 104.624276,3.86662845 C104.051972,3.86343715 103.726606,4.01768355 103.481522,4.60807497 C102.822577,6.19601512 102.055795,7.739277 101.33644,9.30275048 C101.075724,9.86947305 101.172433,10.0311658 101.771763,10.0324955 C103.293933,10.0356868 104.816369,10.0343571 106.33854,10.0295702 C107.080681,10.0277086 107.172621,9.91255566 107.160698,9.18068306 C107.143211,8.14111548 107.165202,7.10048413 107.138972,6.06118248 C107.126784,5.58488022 107.343782,5.43515483 107.774335,5.4394099 C108.701151,5.44818599 109.627966,5.44845193 110.554516,5.43994179 C110.996992,5.43568671 111.188291,5.61439979 111.176103,6.07740495 C111.149872,7.07256021 111.170803,8.06904517 111.155436,9.06473232 C111.141128,9.98382814 111.172923,10.0285064 112.116696,10.0293042 C115.073337,10.0322296 118.030243,10.0324955 120.986885,10.0338253 C121.819111,10.0343571 121.88217,10.099247 121.880845,10.9484001 C121.879256,12.3028431 121.879256,12.3004496 120.555537,12.3001836 C117.687391,12.2996518 114.818979,12.3142786 111.951098,12.2935351 C111.336931,12.28928 111.145898,12.5129373 111.157291,13.1150302 C111.189085,14.796316 111.186966,16.4786656 111.163385,18.1604833 C111.147752,19.3013748 110.910087,20.3981199 110.330629,21.4004556 C109.711957,22.4708725 108.699826,22.99664 107.577208,23.3069944 C106.816255,23.5170886 106.019798,23.6019242 105.236854,23.726385 C104.859292,23.786488 104.645738,23.6107002 104.639114,23.2144465 C104.635404,22.9931827 104.656336,22.7687276 104.626661,22.5509211 C104.535781,21.8770238 104.784045,21.554968 105.489092,21.4469955 C106.619393,21.2738672 107.099493,20.6874649 107.11592,19.5452437 C107.147185,17.3323397 107.137912,15.1194356 107.160168,12.9067975 C107.165467,12.3743815 106.863682,12.2900778 106.435249,12.2916735 C103.677589,12.3004496 100.919665,12.3028431 98.1620051,12.3057684 C97.6326235,12.3063003 97.1032419,12.2951307 96.5735953,12.298322 C96.1054185,12.3007155 95.9777098,12.1124285 96.1809309,11.6784111 C97.2399591,9.41949905 98.2920984,7.15712979 99.3468873,4.89609024 C99.402793,4.77615036 99.4632029,4.65807208 99.5156642,4.53653655 C99.708287,4.09028574 99.5808433,3.8682241 99.0755726,3.87221323 C97.9725618,3.88152121 96.8679612,3.84561903 95.766805,3.8902973 C95.1370051,3.91556179 94.9716727,3.66291682 94.9732512,3.07678048 C94.9769719,1.61968383 94.9560404,1.61729035 96.3769981,1.6106418 C97.6787258,1.60505702 98.9809834,1.59016426 100.282181,1.61117368 C100.753273,1.618886 101.03545,1.4526722 101.164484,0.999506903 C101.366115,0.292366916 101.78978,-0.0443157552 102.571664,0.0285523743 C103.31566,0.0979632568 104.070519,0.0431791886 104.820079,0.0575400609 C105.386289,0.0684436861 105.509229,0.294494453 105.262025,0.828506146 C104.917052,1.57234614 104.93348,1.60319542 105.717219,1.60346136 C111.10112,1.60532296 116.484756,1.60585484 121.868658,1.60665267 C122.824883,1.60665267 122.824883,1.6055889 122.808456,2.56324632 C122.785934,3.89215889 122.785934,3.88710599 121.438104,3.8852444 C118.701906,3.88152121 115.965708,3.88418063 113.229775,3.88418063 L113.229775,3.87380889 Z" id="Fill-3" fill="#E6413B"></path>
                <path d="M77.8976316,10.0333466 L77.8976316,10.0354741 C80.4102072,10.0354741 82.9230477,10.0370697 85.4356232,10.0349422 C87.0057511,10.0338784 87.0057511,10.031485 87.0205886,8.46136293 C87.0293322,7.5308316 87.0028366,7.50184391 86.0532351,7.50157797 C80.8296322,7.50104608 75.6060292,7.50131203 70.3824262,7.50131203 C68.7285723,7.50131203 68.7285723,7.50157797 68.7357261,9.11903769 C68.7394355,9.96526538 68.7926916,10.0298893 69.6323365,10.031485 C72.3876115,10.0365379 75.1426216,10.0333466 77.8976316,10.0333466 M77.895247,5.26527103 C81.9530446,5.26553697 86.0108422,5.27191958 90.0683748,5.25807119 C90.588218,5.256229 90.8333021,5.38760439 90.8252882,5.96496464 C90.798063,7.82257006 90.8001826,9.6809733 90.8211142,11.5385787 C90.8272081,12.097589 90.6610809,12.318055 90.0654603,12.3135339 C86.9562044,12.290397 83.8469484,12.3052897 80.7374275,12.3090129 C79.8545949,12.3100767 79.8079627,12.3648608 79.8021337,13.2493841 C79.7894158,15.2388968 79.8638684,17.2347921 79.7321854,19.2165925 C79.584605,21.4390704 78.2836722,22.8474997 76.1107699,23.3748628 C75.4279759,23.5408107 74.7197521,23.6025092 74.0215937,23.7003759 C73.5446733,23.7668614 73.3160165,23.5535759 73.3414522,23.061849 C73.3541701,22.8195757 73.3406574,22.5754409 73.3327087,22.3323699 C73.3160165,21.8289415 73.5353999,21.5797538 74.0531234,21.495982 C75.2642362,21.2999827 75.8598568,20.6816674 75.8940361,19.4455686 C75.9552409,17.2571312 75.930335,15.0668323 75.9510016,12.8773311 C75.9563007,12.3172571 75.595166,12.3103426 75.1932281,12.3106086 C72.2161851,12.3119383 69.2388771,12.3090129 66.2618341,12.3074173 C66.1736039,12.3074173 66.0853736,12.3103426 65.9971433,12.3098107 C65.0149523,12.30396 64.9479185,12.2422615 64.9428843,11.2580098 C64.9344057,9.55491676 64.9346707,7.85182369 64.9279759,6.14873061 C64.9251323,5.3567551 65.0088583,5.26527103 65.7875633,5.26500509 C69.8233696,5.2644732 73.8591758,5.26473915 77.895247,5.26527103" id="Fill-11" fill="#E6413B"></path>
                <path d="M181.433894,8.94229258 L181.436013,8.94229258 C181.436013,8.36732581 181.446082,7.79209309 181.434159,7.21739226 C181.394415,5.30101365 181.768003,5.55764775 179.694724,5.49355571 C179.160838,5.47733324 178.945959,5.66960937 178.957882,6.22755585 C178.987292,7.62002857 178.948079,9.01409694 178.973249,10.4068356 C179.008753,12.3846468 178.536072,12.1971577 180.809658,12.2104834 C181.323937,12.2133801 181.451381,11.9921163 181.439988,11.5296431 C181.418261,10.6674588 181.433894,9.80474274 181.433894,8.94229258 M173.843706,8.83325633 C173.843706,9.36354484 173.832313,9.89436522 173.84556,10.4243878 C173.897227,12.4559193 173.465349,12.1990193 175.778413,12.2022106 C176.207641,12.2027425 176.438682,12.0112642 176.438418,11.5655452 C176.435768,9.75341592 176.432059,7.94102066 176.436563,6.12889134 C176.437623,5.67546009 176.206581,5.48903469 175.781592,5.49296124 C175.429466,5.49648107 175.076545,5.51828832 174.724949,5.5073847 C173.865167,5.48052455 173.847415,5.49063035 173.844501,6.37994066 C173.841851,7.19771255 173.843971,8.01548444 173.843706,8.83325633 M171.353651,8.75799472 C171.353121,7.40807273 171.350472,6.05868263 171.353916,4.70929252 C171.356301,3.81280177 171.416446,3.75748582 172.282586,3.75748582 C173.451571,3.75748582 174.620556,3.74365683 175.789541,3.75562423 C176.268316,3.76067713 176.460939,3.57611332 176.441862,3.08225888 C176.412982,2.3315044 176.450341,1.57809049 176.436828,0.826006291 C176.429144,0.401562734 176.607459,0.223381541 177.026619,0.229851081 C179.388435,0.268591694 178.948344,-0.0289974915 178.965301,2.0679558 C178.978813,3.75828365 178.960267,3.75748582 180.643001,3.75908147 C181.503312,3.7598793 182.364153,3.7800909 183.223935,3.7617409 C183.803128,3.74924162 184.055896,3.95747426 184.050862,4.57632148 C184.02834,7.40780679 184.030195,10.239824 184.047682,13.0713093 C184.051127,13.6212775 183.837572,13.8313718 183.308456,13.8265848 C182.139471,13.8156812 180.969691,13.8494558 179.801501,13.8207341 C179.186539,13.8055754 178.934301,13.9917348 178.950463,14.6552603 C178.991266,16.3578215 178.965301,18.0619783 178.963976,19.7653374 C178.963181,20.6110332 179.023061,20.6655513 179.821638,20.5222085 C181.158075,20.2823288 181.158605,20.2823288 180.838803,18.9467676 C180.741299,18.5398763 180.64565,18.132187 180.538608,17.7276891 C180.419908,17.2803746 180.559804,17.0325166 181.044144,17.0468774 C181.440782,17.0588448 181.845635,17.0415586 182.229821,17.1205434 C182.426683,17.1607006 182.690579,17.3503173 182.746749,17.5287645 C183.270302,19.1901046 183.790675,20.8543702 184.235006,22.5380495 C184.436902,23.3021011 184.278459,23.412733 183.466369,23.412733 C183.267917,23.412733 183.067611,23.3951808 182.871279,23.4145946 C182.214983,23.4797504 181.761644,23.3398648 181.724285,22.5399111 C181.716601,22.3806118 181.344868,22.1154675 181.138468,22.1128081 C180.614915,22.1064255 180.091363,22.255353 179.564631,22.2816813 C177.187712,22.4013552 174.809999,22.5135828 172.431491,22.5992161 C171.636094,22.6276719 171.546539,22.4332683 171.583103,21.4298688 C171.609599,20.7096977 172.044656,20.7828317 172.544098,20.8104897 C173.577955,20.8676673 174.613932,20.8868151 175.649114,20.90091 C176.176906,20.9078245 176.455905,20.6503926 176.451665,20.0834041 C176.438153,18.247074 176.432853,16.410744 176.450076,14.5749458 C176.45564,13.9880116 176.194658,13.8013203 175.64461,13.8114261 C174.47589,13.8324355 173.305581,13.7872254 172.13792,13.8287123 C171.503616,13.8513174 171.337224,13.5843116 171.346763,13.0050897 C171.370344,11.589746 171.354446,10.1736044 171.353651,8.75799472" id="Fill-15" fill="#E6413B"></path>
                <path d="M163.768524,10.3556418 C165.885256,10.3556418 168.002252,10.3660135 170.118984,10.3475838 C170.583186,10.3434084 170.7411,10.5090903 170.74004,10.9643832 C170.731297,13.9501149 170.839399,16.9401017 170.707716,19.9197167 C170.618691,21.9390149 169.122485,23.3743043 167.128163,23.6806696 C167.002044,23.7000834 166.808362,23.6333319 166.728875,23.5373268 C166.442723,23.1913362 166.647004,22.071986 167.058215,21.8799758 C168.032192,21.4252148 168.249986,20.6130277 168.245217,19.6410094 C168.234089,17.4525721 168.229849,15.2636028 168.262969,13.0754314 C168.272242,12.4555204 168.093397,12.1882486 167.44664,12.1935675 C164.93327,12.2151088 162.419899,12.2164385 159.906794,12.1988863 C159.286267,12.1943653 159.313558,12.5826407 159.313823,12.9927234 C159.315678,16.2438653 159.317797,19.4944753 159.322036,22.7456173 C159.323096,23.7609841 159.325746,23.7506124 158.304341,23.7596544 C156.388976,23.7769406 156.618163,23.8591167 156.613394,22.035286 C156.604915,18.4966607 156.611274,14.9580354 156.612069,11.4194101 C156.612069,10.3734599 156.612864,10.363886 157.682225,10.3601628 C159.710992,10.3527164 161.739758,10.3580352 163.768524,10.3580352 L163.768524,10.3556418 Z" id="Fill-21" fill="#E6413B"></path>
                <path d="M77.8518473,3.87226642 C73.5736065,3.87226642 69.2953657,3.87412802 65.0171249,3.87067077 C64.0667286,3.87013889 64.0267203,3.8209396 64.0171819,2.84599594 C64.0158571,2.71329084 64.028045,2.5789901 64.0126776,2.44814659 C63.9374302,1.81866169 64.1952321,1.58649426 64.8374849,1.59154716 C68.1894403,1.61654571 71.5416607,1.60670586 74.8936161,1.61042905 C75.8901148,1.61149281 75.9023027,1.61362035 75.942576,0.632825965 C75.9592682,0.225136759 76.0962504,0.0259461419 76.5328975,0.036317883 C77.392414,0.0562635389 78.2529903,0.0602526701 79.1125068,0.0384454196 C79.6339398,0.0251483157 79.8702803,0.25598604 79.7950329,0.753829611 C79.6885206,1.45884206 80.0107069,1.62239644 80.6532246,1.61814137 C84.0274363,1.59633412 87.401383,1.60776962 90.7755947,1.60856745 C91.7797771,1.60856745 91.7962044,1.62665151 91.7911702,2.66222997 C91.7903753,2.8172742 91.7826916,2.97205249 91.786401,3.12683078 C91.8004437,3.65765117 91.5413169,3.88449976 91.0172344,3.87891497 C89.9587361,3.86774541 88.9002378,3.87918092 87.8417395,3.87918092 C84.5117754,3.8797128 81.1818114,3.87944686 77.8518473,3.87944686 L77.8518473,3.87226642 Z" id="Fill-25" fill="#E6413B"></path>
                <path d="M163.695317,5.43233584 L163.695317,5.42941048 C163.078235,5.42941048 162.461153,5.42435758 161.844071,5.43047425 C160.196576,5.44696266 160.366413,5.19245609 160.342567,6.97586367 C160.335148,7.50668406 160.53095,7.72103337 161.084443,7.70933192 C162.538785,7.67768481 163.994187,7.68672684 165.448794,7.69576887 C167.171802,7.70640656 166.950298,7.76385005 167.009914,6.16208091 C167.03111,5.59429457 166.800069,5.41531555 166.274131,5.427017 C165.41488,5.44669672 164.555098,5.43233584 163.695317,5.43233584 L163.695317,5.43233584 Z M163.684189,9.25817858 C161.786576,9.25817858 159.888962,9.24674308 157.991349,9.2658909 C157.490318,9.27120975 157.277823,9.12786697 157.288951,8.58747266 C157.317567,7.23808256 157.314122,5.88736274 157.282857,4.53797263 C157.26908,3.94970876 157.515224,3.75370944 158.067126,3.75555792 C161.862353,3.76913408 165.657579,3.7736551 169.452806,3.76807032 C169.857128,3.76753843 170.014247,3.93694354 170.015042,4.31803853 C170.018221,5.80066562 170.020341,7.28329271 170.033635,8.7659198 C170.037828,9.24993438 169.748496,9.26881627 169.377293,9.26642279 C167.47968,9.25551916 165.582067,9.26110395 163.684189,9.26110395 L163.684189,9.25817858 Z" id="Fill-27" fill="#E6413B"></path>
                <path d="M85.7410112,13.6012255 C86.269333,13.6012255 86.7979198,13.5932472 87.3259766,13.6038849 C87.7382478,13.6118632 87.9578961,13.8224893 88.0164514,14.2487944 C88.4549532,17.4289298 89.6732198,20.3106782 91.3697316,23.0083946 C91.4542525,23.1426954 91.5536109,23.4022548 91.4966454,23.4631556 C91.3835093,23.5841592 91.1712797,23.6344223 90.9913747,23.6668672 C89.5619384,23.9235013 88.7151397,23.0336591 87.8961614,22.079193 C85.9442323,19.8043245 84.5974621,17.2018153 83.7053561,14.3493205 C83.5553911,13.8700929 83.6367325,13.5653233 84.2220198,13.5778226 C84.7280853,13.5884603 85.2346808,13.5799501 85.7410112,13.5799501 L85.7410112,13.6012255 Z" id="Fill-29" fill="#E6413B"></path>
                <path d="M116.713784,13.5874497 C117.176397,13.5866519 117.640599,13.6116504 118.100828,13.5802692 C118.647431,13.5430374 118.917421,13.778928 118.995318,14.3108121 C119.337906,16.6473792 120.105483,18.8464543 121.185178,20.9372909 C121.52803,21.6010823 121.937652,22.2300353 122.299847,22.8842529 C122.40106,23.067221 122.441598,23.2839638 122.509956,23.485282 C122.291898,23.5469805 122.076224,23.6217102 121.854986,23.668782 C120.436148,23.9706262 119.678109,22.9882362 118.909208,22.0920114 C117.168713,20.0636712 115.864071,17.7776331 115.031845,15.229642 C114.499019,13.5975555 114.505908,13.595162 116.185197,13.5882475 C116.361393,13.5874497 116.537588,13.5879816 116.713784,13.5874497" id="Fill-31" fill="#E6413B"></path>
                <path d="M70.0616443,13.5869444 C70.5470432,13.5869444 71.0329721,13.6047625 71.5173113,13.5818915 C72.0511971,13.5568929 72.2114954,13.8262923 72.0673594,14.282117 C70.9942886,17.679793 69.3849473,20.7548812 66.7549963,23.2302701 C66.0642566,23.8804985 65.2614406,23.5898238 64.4951886,23.621205 C64.468693,23.6222687 64.324822,23.1584657 64.4064284,22.9994324 C64.8693061,22.096559 65.4217389,21.2394277 65.8737534,20.3317674 C66.8010986,18.4685772 67.469582,16.5115094 67.7438112,14.4398206 C67.8333663,13.7619343 68.1605866,13.528969 68.8049591,13.5829553 C69.2212046,13.6177937 69.6424843,13.5896038 70.0616443,13.5896038 L70.0616443,13.5869444 Z" id="Fill-33" fill="#E6413B"></path>
                <path d="M101.01799,13.5975821 C101.458876,13.5975821 101.900028,13.5925292 102.340649,13.5989118 C103.110611,13.6095495 103.195926,13.7095437 102.977603,14.4738612 C102.434443,16.375879 101.665277,18.1890721 100.5363,19.809989 C99.7446124,20.9466255 98.7984554,21.9736938 97.9423833,23.0661838 C97.267276,23.9275702 96.3362214,23.5876963 95.4870382,23.6105673 C95.4557734,23.6113651 95.314552,23.1595295 95.392184,23.001028 C96.0988211,21.5590901 96.9570128,20.1809782 97.5425651,18.6935642 C98.0955277,17.28939 98.4089704,15.7841578 98.752618,14.3057858 C98.8707883,13.7973046 99.0432745,13.5646053 99.5633827,13.5880082 C100.047457,13.6098154 100.533121,13.5925292 101.01799,13.5925292 L101.01799,13.5975821 Z" id="Fill-35" fill="#E6413B"></path>
                <path d="M164.929004,19.6467272 C164.929004,20.1549425 164.915756,20.6634238 164.932448,21.1711072 C164.952585,21.7851674 164.526006,21.8295798 164.132017,21.732245 C163.606345,21.6024652 162.718743,22.255619 162.609316,21.1844043 C162.515787,20.2663722 162.597128,19.3302561 162.596863,18.4018523 C162.596598,17.5811551 162.538573,17.5237116 161.747415,17.5231797 C161.372768,17.5229137 160.996265,17.5011065 160.624003,17.5298282 C160.089057,17.5707833 159.907032,17.3067028 159.933528,16.8179013 C159.941742,16.6633889 159.958434,16.507015 159.943066,16.3543643 C159.885041,15.781525 160.133305,15.5054771 160.704814,15.5828663 C161.334879,15.6682337 161.441391,15.3610706 161.301495,14.8422176 C161.261486,14.69329 161.207965,14.5480857 161.160803,14.4010197 C160.784831,13.2306086 160.971095,12.998973 162.19625,13.0532252 C162.589974,13.0702455 162.802204,13.2061419 162.85705,13.6204797 C162.917195,14.078166 162.987673,14.5448944 163.145322,14.9743908 C163.231167,15.207622 163.505132,15.5232953 163.697225,15.5254228 C163.913164,15.5275503 164.244888,15.2594807 164.32623,15.0360894 C164.47328,14.6305277 164.50057,14.1723095 164.525741,13.7332391 C164.552237,13.2649151 164.757048,13.0784897 165.224165,13.0585441 C166.5969,12.9997709 166.595046,12.9864738 166.318697,14.3113972 C166.278159,14.5055349 166.263056,14.7055234 166.219868,14.8991292 C166.110707,15.3903242 166.296176,15.5823344 166.800122,15.5873873 C167.6501,15.5966953 167.622014,15.6185025 167.617245,16.8694941 C167.614861,17.5327536 167.248692,17.5383384 166.758523,17.5370087 C164.601254,17.5314239 164.953115,17.2380898 164.913636,19.3150974 C164.911782,19.4257293 164.913372,19.5360953 164.913372,19.6467272 L164.929004,19.6467272 Z" id="Fill-37" fill="#E6413B"></path>
                <path d="M163.675392,2.93652263 C161.601848,2.93678857 159.528569,2.93732045 157.455026,2.93652263 C156.725602,2.93599074 156.615381,2.81684869 156.598954,2.02274564 C156.580937,1.14194548 156.673406,1.00418748 157.402034,1.00285777 C161.637087,0.995145453 165.87214,1.00073024 170.106929,0.991416365 C170.567952,0.990358495 170.826813,1.13290345 170.7876,1.63686369 C170.773822,1.8126514 170.779386,1.99136448 170.793429,2.16741813 C170.839266,2.72935375 170.611404,2.95301103 170.027972,2.94609654 C167.910445,2.92109799 165.792654,2.93625668 163.675392,2.93652263" id="Fill-39" fill="#E6413B"></path>
                <path d="M146.06153,20.6193306 C145.687413,20.6193306 145.305081,20.6645407 144.943417,20.5969914 C144.799016,20.5701313 144.573274,20.2674892 144.601094,20.1369116 C144.899699,18.7423114 145.22586,17.3532959 145.590704,15.9749181 C145.639986,15.7879608 145.934881,15.5518042 146.129889,15.5387731 C146.896671,15.4869144 147.669017,15.5151042 148.439508,15.5135086 C148.860523,15.5127108 148.987437,15.7443463 148.889668,16.1195906 C148.55132,17.4181858 148.209262,18.7157172 147.859255,20.0108551 C147.732076,20.4826363 147.41095,20.6884755 146.919722,20.6525733 C146.635159,20.6318298 146.347682,20.6485842 146.06153,20.6485842 L146.06153,20.6193306 Z" id="Fill-43" fill="#E6413B"></path>
                <path d="M132.934827,20.6577858 C131.013632,20.5670995 131.47863,20.9354293 130.69807,18.9637347 C130.345944,18.0741585 130.243141,17.0851199 130.028792,16.1412915 C129.932083,15.7144544 130.110928,15.5128703 130.540686,15.5149812 C131.289451,15.5184551 132.037951,15.5219124 132.786451,15.5197848 C133.173817,15.5184551 133.279269,15.7155182 133.345243,16.0875712 C133.567011,17.3422859 133.819514,18.5932774 134.118119,19.8317697 C134.300409,20.5867792 134.287426,20.6561901 133.4862,20.6577858 C133.244295,20.6583177 133.002125,20.6577858 132.934827,20.6577858" id="Fill-45" fill="#E6413B"></path>
                <text id="JD-Flnance" font-family="FZLTZHK--GBK1-0, Lantinghei SC" font-size="10" font-weight="500" fill="#F92A2F">
                    <tspan x="109.683673" y="39.7429621">JD Flnance</tspan>
                </text>
                <g id="编组-29" transform="translate(0.000000, 1.000000)">
                    <g id="编组-25备份-4">
                        <g id="编组">
                            <mask id="mask-6" fill="white">
                                <use xlink:href="#path-5"></use>
                            </mask>
                            <g id="Clip-2"></g>
                            <path d="M28.8308641,7.0953832 C29.4429557,6.75501543 30.0121771,6.5474741 30.4178565,6.16757466 C30.6306198,5.9687303 30.7123908,5.37891763 30.5690931,5.12591488 C30.4206351,4.86421515 29.9149252,4.65272066 29.5874443,4.67999752 C29.1535817,4.71557603 28.6693069,4.92272204 28.3410321,5.20932672 C28.0377649,5.47300303 27.7047267,5.98098512 27.769826,6.30395895 C27.8301618,6.60202782 28.4025588,6.79770964 28.8308641,7.0953832 M46.1119328,1.9906573 C46.0869252,2.07169725 46.0615206,2.15234187 46.036513,2.2329865 C45.5768489,2.2329865 45.1096427,2.18080468 44.6583145,2.24326474 C43.3833221,2.4187854 42.1321466,2.67218347 41.2751389,3.78025647 C40.9095511,4.25305537 40.8492153,4.73810909 41.4311389,4.99901818 C41.9535206,5.23304573 42.5846656,5.45560909 43.1249099,5.37891763 C44.9254595,5.12433361 46.712513,4.76064215 48.4896427,4.36927851 C48.8202992,4.29654022 49.1946198,3.95142865 49.3272,3.63873306 C49.3998412,3.46677025 49.0719634,2.94969587 48.8199023,2.84968072 C47.9422534,2.50180193 47.0181618,2.26777438 46.1119328,1.9906573 M9.31736794,13.9062964 C10.2366962,18.9568639 7.84112366,21.3568322 3.9712916,22.5589906 C3.5032916,22.7044672 3.0352916,22.9203102 2.55776489,22.9491683 C0.651230534,23.0638102 -0.525319084,21.290419 0.232848855,19.4091063 C0.833429008,17.9191573 1.58921527,16.4908777 2.17629924,14.9957895 C2.79394809,13.421638 3.37666565,11.8237675 3.82362748,10.1954576 C4.37697099,8.17736529 5.75636031,7.4978157 7.58588702,8.4975719 C8.30753588,8.89170275 8.99742901,9.35461873 9.74845191,9.68035978 C10.0175817,9.79737355 10.5641771,9.73135565 10.7463756,9.53251129 C14.3395359,5.60780606 19.0973374,3.81346309 24.018284,2.36502231 C26.3412153,1.68151956 28.705826,1.02529366 31.0982229,0.714969972 C34.5322076,0.269843251 37.9717496,-0.233395041 41.4879023,0.167456198 C43.5012153,0.397135262 45.5502534,0.375392837 47.5008489,0.982994766 C50.3453679,1.86850441 51.608055,2.7057854 51.7791389,4.84049614 C51.8648794,5.91575785 51.9339481,7.03608567 51.7279328,8.08051267 C51.4457038,9.50839697 51.1221924,11.014554 50.4049099,12.2503143 C49.304574,14.1450678 47.2837191,14.7886435 45.1866504,14.9028901 C43.1483298,15.0135788 41.0758718,15.1278253 39.060574,14.887868 C35.4054901,14.4518336 31.8313832,13.6434107 28.9888489,11.0082289 C28.7669557,10.8026642 28.1397802,10.6994865 27.9504366,10.8532647 C27.4443298,11.2651848 27.9409099,11.5585099 28.2481466,11.850649 C30.2447878,13.7509369 32.7483298,14.5415705 35.3344366,15.2899052 C38.400055,16.1773915 41.4982229,16.0390306 44.5979786,15.9568047 C46.2603908,15.9125292 47.7493374,15.1539163 49.0933985,14.1699727 C49.2724214,14.0391229 49.4419176,13.8956229 49.8162382,13.859649 C49.7031084,14.1181862 49.6384061,14.4146738 49.468116,14.6281449 C47.9613069,16.5201311 46.5850931,18.5461298 44.8806046,20.2452014 C42.2897344,22.8278061 39.1812458,24.6778887 35.5626809,25.5550967 C35.3713527,25.6017441 35.1748641,25.6582744 34.9803603,25.6610416 C32.9797496,25.6895044 30.9529405,25.9172069 28.9852763,25.6732964 C26.7572153,25.39697 24.4970015,24.9198226 22.4046962,24.1268171 C18.825429,22.7704851 15.4541618,20.9698171 12.7311084,18.1678116 C12.1347953,17.5542451 11.5237058,16.9542203 10.9784911,16.3003742 C10.2984473,15.4848349 9.72088789,14.5855633 9.4023145,13.4718433 C9.37174962,13.6169245 9.29236031,13.7710981 9.31736794,13.9062964 Z" id="Fill-1" fill="url(#linearGradient-7)" mask="url(#mask-6)"></path>
                        </g>
                        <g id="编组" transform="translate(22.285714, 27.333333)">
                            <mask id="mask-9" fill="white">
                                <use xlink:href="#path-8"></use>
                            </mask>
                            <g id="Clip-4"></g>
                            <path d="M5.41939048,7.99777353 C4.72234286,8.61277353 4.02281905,9.22616569 3.32783492,9.84357745 C2.64605714,10.4485284 2.00018413,11.0964892 1.27218413,11.64195 C1.03900952,11.8168029 0.594533333,11.7247539 0.246628571,11.754901 C0.296977778,11.4550382 0.2652,11.1081461 0.411295238,10.86295 C1.13186667,9.65586176 1.88050159,8.46364608 2.65967619,7.29193039 C3.01088254,6.76415588 3.05875556,6.42007745 2.5016127,5.94656765 C1.58418413,5.16796961 0.754660317,4.27441078 1.28951746,2.62838137 C1.62504127,3.13002843 1.83593016,3.43752843 2.03856508,3.75065588 C2.81113651,4.94447941 4.11980317,4.9404598 4.81354921,3.7474402 C5.43754921,2.67581275 6.04875556,1.59534216 6.72846984,0.557077451 C6.88612063,0.316302941 7.29386667,0.102459804 7.59142222,0.0968323529 C9.26739048,0.0622637255 10.9462476,0.127783333 12.6218032,0.0883911765 C13.2957397,0.0723127451 13.5891683,0.297410784 13.5780254,0.927283333 C13.5099302,4.59236176 13.4538032,8.25824412 13.3440254,11.9225186 C13.334946,12.2292147 12.9622794,12.5258618 12.7584063,12.8269304 C12.4802476,12.5970088 12.0489778,12.4169304 11.9503429,12.1291265 C11.5430095,10.9381167 11.3106603,9.68801863 10.8719619,8.50987157 C10.3746603,7.17576373 9.51459683,7.0479402 8.82332698,8.26748922 C8.08831111,9.56421471 7.60421587,11.0028324 7.08173968,12.4044696 C6.88323175,12.9370676 6.65294603,13.4310775 6.05577143,13.2116069 C5.76193016,13.1034794 5.54567619,12.5379206 5.48789841,12.1516363 C5.42681905,11.7452539 5.62326349,11.3079206 5.65999365,10.8806363 C5.73716825,9.97300882 5.78297778,9.06256765 5.84116825,8.15373431 C5.70085079,8.10188137 5.56012063,8.04962647 5.41939048,7.99777353" id="Fill-3" fill="url(#linearGradient-10)" mask="url(#mask-9)"></path>
                        </g>
                    </g>
                    <circle id="椭圆形备份-21" fill="#1E1D1D" cx="29.5" cy="5.5" r="1.5"></circle>
                    <path d="M27.1668952,9.47410235 C27.3673615,9.28418691 27.6838284,9.29274007 27.8737438,9.49320637 C30.7356073,12.5140622 33.8930126,14.3613598 37.3531775,15.0481736 C38.970789,15.369256 42.9183398,15.3031327 45.420773,14.8452444 C46.50443,14.6469598 47.7929303,14.1637722 49.2808013,13.3931017 C49.397516,13.3326472 49.5270394,13.3226777 49.6444308,13.3552735 C49.4511789,13.8060868 49.2579424,14.2268168 49.0647059,14.6195415 C47.7716525,15.2389057 46.6185872,15.6426742 45.600762,15.828913 C42.9812853,16.3082176 38.9086735,16.3764358 37.1584841,16.0290378 C33.4858807,15.3000567 30.1465771,13.3463362 27.1477911,10.180951 C26.9578757,9.98048472 26.9664289,9.66401779 27.1668952,9.47410235 Z" id="形状结合" fill="#1E1D1D" fill-rule="nonzero"></path>
                    <ellipse id="椭圆形备份-22" fill="#1E1D1D" transform="translate(44.500000, 3.500000) rotate(-3.000000) translate(-44.500000, -3.500000) " cx="44.5" cy="3.5" rx="4.5" ry="1.5"></ellipse>
                    <path d="M5.51076749,10 C3.51076749,15 2.34410082,17.8333333 2.01076749,18.5 C1.51076749,19.5 0.0107674887,21.5 2.01076749,21.5 C4.01076749,21.5 8.51076749,20 8.51076749,16.5 C8.51076749,14.1666667 8.51076749,12.6666667 8.51076749,12 L5.51076749,10 Z" id="路径-21备份" fill="#C2C2C2" filter="url(#filter-11)"></path>
                </g>
            </g>
        </g>
    </g>
</svg>