<?xml version="1.0" encoding="UTF-8"?>
<svg width="185px" height="42px" viewBox="0 0 185 42" version="1.1" xmlns="http://www.w3.org/2000/svg" xmlns:xlink="http://www.w3.org/1999/xlink">
    <!-- Generator: Sketch 57.1 (83088) - https://sketch.com -->
    <title>京东金融</title>
    <desc>Created with Sketch.</desc>
    <defs>
        <polygon id="path-1" points="8.41956485e-06 0.0213471074 51.8630459 0.0213471074 51.8630459 25.7848987 8.41956485e-06 25.7848987"></polygon>
        <polygon id="path-3" points="0.246628571 0.0863642321 13.5783307 0.0863642321 13.5783307 13.2647059 0.246628571 13.2647059"></polygon>
    </defs>
    <g id="页面-1" stroke="none" stroke-width="1" fill="none" fill-rule="evenodd">
        <g id="首页" transform="translate(-715.000000, -2020.000000)">
            <g id="京东金融" transform="translate(715.000000, 2020.000000)">
                <g id="编组-25" transform="translate(0.000000, 1.000000)">
                    <g id="编组">
                        <mask id="mask-2" fill="white">
                            <use xlink:href="#path-1"></use>
                        </mask>
                        <g id="Clip-2"></g>
                        <path d="M28.8308641,7.0953832 C29.4429557,6.75501543 30.0121771,6.5474741 30.4178565,6.16757466 C30.6306198,5.9687303 30.7123908,5.37891763 30.5690931,5.12591488 C30.4206351,4.86421515 29.9149252,4.65272066 29.5874443,4.67999752 C29.1535817,4.71557603 28.6693069,4.92272204 28.3410321,5.20932672 C28.0377649,5.47300303 27.7047267,5.98098512 27.769826,6.30395895 C27.8301618,6.60202782 28.4025588,6.79770964 28.8308641,7.0953832 M46.1119328,1.9906573 C46.0869252,2.07169725 46.0615206,2.15234187 46.036513,2.2329865 C45.5768489,2.2329865 45.1096427,2.18080468 44.6583145,2.24326474 C43.3833221,2.4187854 42.1321466,2.67218347 41.2751389,3.78025647 C40.9095511,4.25305537 40.8492153,4.73810909 41.4311389,4.99901818 C41.9535206,5.23304573 42.5846656,5.45560909 43.1249099,5.37891763 C44.9254595,5.12433361 46.712513,4.76064215 48.4896427,4.36927851 C48.8202992,4.29654022 49.1946198,3.95142865 49.3272,3.63873306 C49.3998412,3.46677025 49.0719634,2.94969587 48.8199023,2.84968072 C47.9422534,2.50180193 47.0181618,2.26777438 46.1119328,1.9906573 M9.4023145,13.4718433 C9.37174962,13.6169245 9.29236031,13.7710981 9.31736794,13.9062964 C10.2366962,18.9568639 7.84112366,21.3568322 3.9712916,22.5589906 C3.5032916,22.7044672 3.0352916,22.9203102 2.55776489,22.9491683 C0.651230534,23.0638102 -0.525319084,21.290419 0.232848855,19.4091063 C0.833429008,17.9191573 1.58921527,16.4908777 2.17629924,14.9957895 C2.79394809,13.421638 3.37666565,11.8237675 3.82362748,10.1954576 C4.37697099,8.17736529 5.75636031,7.4978157 7.58588702,8.4975719 C8.30753588,8.89170275 8.99742901,9.35461873 9.74845191,9.68035978 C10.0175817,9.79737355 10.5641771,9.73135565 10.7463756,9.53251129 C14.3395359,5.60780606 19.0973374,3.81346309 24.018284,2.36502231 C26.3412153,1.68151956 28.705826,1.02529366 31.0982229,0.714969972 C34.5322076,0.269843251 37.9717496,-0.233395041 41.4879023,0.167456198 C43.5012153,0.397135262 45.5502534,0.375392837 47.5008489,0.982994766 C50.3453679,1.86850441 51.608055,2.7057854 51.7791389,4.84049614 C51.8648794,5.91575785 51.9339481,7.03608567 51.7279328,8.08051267 C51.4457038,9.50839697 51.1221924,11.014554 50.4049099,12.2503143 C49.304574,14.1450678 47.2837191,14.7886435 45.1866504,14.9028901 C43.1483298,15.0135788 41.0758718,15.1278253 39.060574,14.887868 C35.4054901,14.4518336 31.8313832,13.6434107 28.9888489,11.0082289 C28.7669557,10.8026642 28.1397802,10.6994865 27.9504366,10.8532647 C27.4443298,11.2651848 27.9409099,11.5585099 28.2481466,11.850649 C30.2447878,13.7509369 32.7483298,14.5415705 35.3344366,15.2899052 C38.400055,16.1773915 41.4982229,16.0390306 44.5979786,15.9568047 C46.2603908,15.9125292 47.7493374,15.1539163 49.0933985,14.1699727 C49.2724214,14.0391229 49.4419176,13.8956229 49.8162382,13.859649 C49.7031084,14.1181862 49.6384061,14.4146738 49.468116,14.6281449 C47.9613069,16.5201311 46.5850931,18.5461298 44.8806046,20.2452014 C42.2897344,22.8278061 39.1812458,24.6778887 35.5626809,25.5550967 C35.3713527,25.6017441 35.1748641,25.6582744 34.9803603,25.6610416 C32.9797496,25.6895044 30.9529405,25.9172069 28.9852763,25.6732964 C26.7572153,25.39697 24.4970015,24.9198226 22.4046962,24.1268171 C18.825429,22.7704851 15.4541618,20.9698171 12.7311084,18.1678116 C11.3910168,16.7889466 9.97629924,15.4784713 9.4023145,13.4718433" id="Fill-1" fill="#B9C4CE" mask="url(#mask-2)"></path>
                    </g>
                    <g id="编组" transform="translate(22.285714, 27.333333)">
                        <mask id="mask-4" fill="white">
                            <use xlink:href="#path-3"></use>
                        </mask>
                        <g id="Clip-4"></g>
                        <path d="M5.41939048,7.99777353 C4.72234286,8.61277353 4.02281905,9.22616569 3.32783492,9.84357745 C2.64605714,10.4485284 2.00018413,11.0964892 1.27218413,11.64195 C1.03900952,11.8168029 0.594533333,11.7247539 0.246628571,11.754901 C0.296977778,11.4550382 0.2652,11.1081461 0.411295238,10.86295 C1.13186667,9.65586176 1.88050159,8.46364608 2.65967619,7.29193039 C3.01088254,6.76415588 3.05875556,6.42007745 2.5016127,5.94656765 C1.58418413,5.16796961 0.754660317,4.27441078 1.28951746,2.62838137 C1.62504127,3.13002843 1.83593016,3.43752843 2.03856508,3.75065588 C2.81113651,4.94447941 4.11980317,4.9404598 4.81354921,3.7474402 C5.43754921,2.67581275 6.04875556,1.59534216 6.72846984,0.557077451 C6.88612063,0.316302941 7.29386667,0.102459804 7.59142222,0.0968323529 C9.26739048,0.0622637255 10.9462476,0.127783333 12.6218032,0.0883911765 C13.2957397,0.0723127451 13.5891683,0.297410784 13.5780254,0.927283333 C13.5099302,4.59236176 13.4538032,8.25824412 13.3440254,11.9225186 C13.334946,12.2292147 12.9622794,12.5258618 12.7584063,12.8269304 C12.4802476,12.5970088 12.0489778,12.4169304 11.9503429,12.1291265 C11.5430095,10.9381167 11.3106603,9.68801863 10.8719619,8.50987157 C10.3746603,7.17576373 9.51459683,7.0479402 8.82332698,8.26748922 C8.08831111,9.56421471 7.60421587,11.0028324 7.08173968,12.4044696 C6.88323175,12.9370676 6.65294603,13.4310775 6.05577143,13.2116069 C5.76193016,13.1034794 5.54567619,12.5379206 5.48789841,12.1516363 C5.42681905,11.7452539 5.62326349,11.3079206 5.65999365,10.8806363 C5.73716825,9.97300882 5.78297778,9.06256765 5.84116825,8.15373431 C5.70085079,8.10188137 5.56012063,8.04962647 5.41939048,7.99777353" id="Fill-3" fill="#B7C4CF" mask="url(#mask-4)"></path>
                    </g>
                </g>
                <g id="编组-23" transform="translate(64.000000, 0.000000)" fill="#B9C4CE">
                    <path d="M68.845563,7.61127908 C68.8521869,7.67829648 68.8590757,7.74531388 68.8656996,7.81259723 L82.5715965,7.81259723 C82.3241279,7.60941748 82.2422565,7.50862543 82.1365392,7.46048992 C79.9429704,6.45522886 77.8469053,5.29226415 76.0425565,3.66177327 C75.6679091,3.323229 75.3817568,3.41019206 75.0041949,3.6942182 C73.8776029,4.54097778 72.7441222,5.38428011 71.5605648,6.14700199 C70.6986636,6.70255499 69.7535664,7.12806232 68.845563,7.61127908 L68.845563,7.61127908 Z M75.4702521,23.9058162 C71.4111297,23.9058162 67.3517424,23.9052843 63.29262,23.9058162 C62.478146,23.9058162 62.4582743,23.8733712 62.4466163,23.0415044 C62.4230352,21.3636758 62.4916587,21.6780194 63.7796087,21.6777534 C66.7357202,21.6777534 69.6918317,21.6649882 72.6476783,21.6971672 C73.3156318,21.7043476 73.5334254,21.4873389 73.5217673,20.8222178 C73.487853,18.9196681 73.4989811,17.0165866 73.517793,15.1137711 C73.523622,14.5236456 73.398298,14.2627564 72.7027891,14.2757876 C70.1006585,14.3236571 67.4969381,14.2776492 64.8940127,14.296531 C64.3264774,14.3005202 64.107094,14.1183499 64.1123932,13.5356708 C64.1282905,11.753061 63.9952827,12.0437357 65.5786584,12.033364 C67.9611406,12.0176734 70.3436229,12.028577 72.7261052,12.0293748 C73.5111691,12.0296408 73.4828188,12.0299067 73.523887,10.8600275 C73.5472031,10.1951723 73.1479148,10.2278832 72.708883,10.228681 C71.1207382,10.2318723 69.5323283,10.2302767 67.9439185,10.228947 C67.0955302,10.2281491 67.0298211,10.1629933 67.0290263,9.3361794 C67.0279664,8.45750677 66.9503344,8.42958285 66.1316211,8.71068363 C64.8844743,9.13831849 63.6232848,9.52872146 62.3554715,9.88960486 C62.2216688,9.92763458 61.8695426,9.68562729 61.8427821,9.53377436 C61.6249884,8.28491036 61.891004,7.9059429 63.0427667,7.44878847 C66.3258336,6.14460851 69.3868676,4.4715669 71.9206396,1.94724469 C71.9521694,1.91612946 71.9969469,1.8929925 72.0160237,1.85602655 C73.1789146,-0.400491981 75.2588174,0.00214432592 77.2126012,0.0718211505 C77.3999249,0.0787356445 77.6309663,0.233247992 77.7568203,0.388558166 C80.5232235,3.81070083 84.1703396,5.92174905 88.1971374,7.47192543 C88.3002052,7.5115508 88.4061875,7.54240008 88.5092553,7.58202545 C89.6210097,8.00966031 89.792966,8.32400385 89.6027278,9.51170117 C89.5309247,9.95928169 89.2389435,9.97444038 88.9170222,9.87577587 C87.6155595,9.47686276 86.3111823,9.08433225 85.0237622,8.64340028 C84.1064853,8.32905674 83.9978534,8.37400096 83.9729476,9.3343178 C83.9504264,10.1837368 83.9014095,10.2324042 83.0548759,10.2313404 C81.4444747,10.2292129 79.8338086,10.214852 78.2236724,10.2339999 C77.962691,10.2371912 77.5077619,10.343568 77.4794116,10.4757412 C77.3848224,10.9132159 77.3999249,11.3919117 77.4786168,11.8360349 C77.4963688,11.9378907 77.9367253,12.0158118 78.1831342,12.0171415 C80.6095991,12.0312364 83.0365939,12.0168755 85.4633238,12.0307045 C87.2239549,12.0405444 86.8739483,11.9456031 86.9484009,13.4681215 C86.9815203,14.1454759 86.6635734,14.3082325 86.0782861,14.3042434 C83.8725294,14.2901484 81.6665076,14.2941376 79.4604859,14.2912122 C79.0193346,14.2904144 78.5776533,14.3042434 78.1372968,14.2842977 C77.5676419,14.2582354 77.3630961,14.5106144 77.3707798,15.0789326 C77.3956856,17.0035555 77.3975403,18.9292421 77.3789934,20.8538649 C77.3728994,21.4926577 77.632821,21.6939759 78.2546722,21.6894549 C81.430962,21.6668498 84.6075167,21.6772215 87.7840714,21.6790831 C88.6287504,21.679615 88.672733,21.730144 88.6751176,22.5867435 C88.6753826,22.7194486 88.6761774,22.8521537 88.6764424,22.9848587 C88.6780321,23.8270973 88.6266307,23.8970401 87.780362,23.8983698 C83.677257,23.9052843 79.573622,23.9015611 75.4702521,23.9015611 L75.4702521,23.9058162 Z" id="Fill-1"></path>
                    <path d="M49.2297747,3.87380889 C46.3613636,3.87380889 43.4926875,3.88205309 40.6242763,3.86662845 C40.0519719,3.86343715 39.7266062,4.01768355 39.4815221,4.60807497 C38.8225771,6.19601512 38.0557951,7.739277 37.3364402,9.30275048 C37.0757237,9.86947305 37.1724326,10.0311658 37.7717625,10.0324955 C39.2939334,10.0356868 40.8163693,10.0343571 42.3385401,10.0295702 C43.0806812,10.0277086 43.1726209,9.91255566 43.1606979,9.18068306 C43.1432108,8.14111548 43.1652021,7.10048413 43.1389715,6.06118248 C43.1267835,5.58488022 43.3437823,5.43515483 43.7743354,5.4394099 C44.7011507,5.44818599 45.627966,5.44845193 46.5545163,5.43994179 C46.9969924,5.43568671 47.1882905,5.61439979 47.1761025,6.07740495 C47.1498719,7.07256021 47.1708034,8.06904517 47.155436,9.06473232 C47.1411284,9.98382814 47.1729231,10.0285064 48.1166955,10.0293042 C51.0733369,10.0322296 54.0302433,10.0324955 56.9868847,10.0338253 C57.8191108,10.0343571 57.8821703,10.099247 57.8808455,10.9484001 C57.8792557,12.3028431 57.8792557,12.3004496 56.5555367,12.3001836 C53.6873905,12.2996518 50.8189794,12.3142786 47.9510982,12.2935351 C47.3369307,12.28928 47.1458976,12.5129373 47.1572907,13.1150302 C47.1890854,14.796316 47.1869657,16.4786656 47.1633847,18.1604833 C47.1477523,19.3013748 46.910087,20.3981199 46.3306287,21.4004556 C45.711957,22.4708725 44.6998259,22.99664 43.5772084,23.3069944 C42.8162554,23.5170886 42.0197983,23.6019242 41.2368541,23.726385 C40.8592921,23.786488 40.6457377,23.6107002 40.6391138,23.2144465 C40.6354045,22.9931827 40.656336,22.7687276 40.6266609,22.5509211 C40.5357811,21.8770238 40.7840446,21.554968 41.4890919,21.4469955 C42.6193933,21.2738672 43.0994931,20.6874649 43.1159204,19.5452437 C43.1471851,17.3323397 43.1379117,15.1194356 43.160168,12.9067975 C43.1654671,12.3743815 42.8636825,12.2900778 42.435249,12.2916735 C39.6775894,12.3004496 36.9196648,12.3028431 34.1620051,12.3057684 C33.6326235,12.3063003 33.1032419,12.2951307 32.5735953,12.298322 C32.1054185,12.3007155 31.9777098,12.1124285 32.1809309,11.6784111 C33.2399591,9.41949905 34.2920984,7.15712979 35.3468873,4.89609024 C35.402793,4.77615036 35.4632029,4.65807208 35.5156642,4.53653655 C35.708287,4.09028574 35.5808433,3.8682241 35.0755726,3.87221323 C33.9725618,3.88152121 32.8679612,3.84561903 31.766805,3.8902973 C31.1370051,3.91556179 30.9716727,3.66291682 30.9732512,3.07678048 C30.9769719,1.61968383 30.9560404,1.61729035 32.3769981,1.6106418 C33.6787258,1.60505702 34.9809834,1.59016426 36.2821812,1.61117368 C36.7532726,1.618886 37.0354504,1.4526722 37.1644839,0.999506903 C37.3661152,0.292366916 37.7897795,-0.0443157552 38.571664,0.0285523743 C39.3156598,0.0979632568 40.0705188,0.0431791886 40.8200786,0.0575400609 C41.3862891,0.0684436861 41.5092286,0.294494453 41.2620249,0.828506146 C40.9170524,1.57234614 40.9334797,1.60319542 41.7172189,1.60346136 C47.1011201,1.60532296 52.4847563,1.60585484 57.8686575,1.60665267 C58.8248829,1.60665267 58.8248829,1.6055889 58.8084556,2.56324632 C58.7859344,3.89215889 58.7859344,3.88710599 57.4381044,3.8852444 C54.7019062,3.88152121 51.965708,3.88418063 49.2297747,3.88418063 L49.2297747,3.87380889 Z" id="Fill-3"></path>
                    <path d="M13.8976316,10.0333466 L13.8976316,10.0354741 C16.4102072,10.0354741 18.9230477,10.0370697 21.4356232,10.0349422 C23.0057511,10.0338784 23.0057511,10.031485 23.0205886,8.46136293 C23.0293322,7.5308316 23.0028366,7.50184391 22.0532351,7.50157797 C16.8296322,7.50104608 11.6060292,7.50131203 6.38242623,7.50131203 C4.72857233,7.50131203 4.72857233,7.50157797 4.73572613,9.11903769 C4.73943551,9.96526538 4.79269162,10.0298893 5.63233645,10.031485 C8.38761148,10.0365379 11.1426216,10.0333466 13.8976316,10.0333466 M13.895247,5.26527103 C17.9530446,5.26553697 22.0108422,5.27191958 26.0683748,5.25807119 C26.588218,5.256229 26.8333021,5.38760439 26.8252882,5.96496464 C26.798063,7.82257006 26.8001826,9.6809733 26.8211142,11.5385787 C26.8272081,12.097589 26.6610809,12.318055 26.0654603,12.3135339 C22.9562044,12.290397 19.8469484,12.3052897 16.7374275,12.3090129 C15.8545949,12.3100767 15.8079627,12.3648608 15.8021337,13.2493841 C15.7894158,15.2388968 15.8638684,17.2347921 15.7321854,19.2165925 C15.584605,21.4390704 14.2836722,22.8474997 12.1107699,23.3748628 C11.4279759,23.5408107 10.7197521,23.6025092 10.0215937,23.7003759 C9.54467332,23.7668614 9.31601649,23.5535759 9.34145224,23.061849 C9.35417012,22.8195757 9.34065738,22.5754409 9.3327087,22.3323699 C9.31601649,21.8289415 9.53539987,21.5797538 10.0531234,21.495982 C11.2642362,21.2999827 11.8598568,20.6816674 11.8940361,19.4455686 C11.9552409,17.2571312 11.930335,15.0668323 11.9510016,12.8773311 C11.9563007,12.3172571 11.595166,12.3103426 11.1932281,12.3106086 C8.2161851,12.3119383 5.23887714,12.3090129 2.26183413,12.3074173 C2.17360386,12.3074173 2.08537359,12.3103426 1.99714332,12.3098107 C1.01495229,12.30396 0.947918478,12.2422615 0.942884318,11.2580098 C0.934405734,9.55491676 0.934670689,7.85182369 0.927975929,6.14873061 C0.925132282,5.3567551 1.0088583,5.26527103 1.78756331,5.26500509 C5.82336956,5.2644732 9.85917581,5.26473915 13.895247,5.26527103" id="Fill-11"></path>
                    <path d="M117.433894,8.94229258 L117.436013,8.94229258 C117.436013,8.36732581 117.446082,7.79209309 117.434159,7.21739226 C117.394415,5.30101365 117.768003,5.55764775 115.694724,5.49355571 C115.160838,5.47733324 114.945959,5.66960937 114.957882,6.22755585 C114.987292,7.62002857 114.948079,9.01409694 114.973249,10.4068356 C115.008753,12.3846468 114.536072,12.1971577 116.809658,12.2104834 C117.323937,12.2133801 117.451381,11.9921163 117.439988,11.5296431 C117.418261,10.6674588 117.433894,9.80474274 117.433894,8.94229258 M109.843706,8.83325633 C109.843706,9.36354484 109.832313,9.89436522 109.84556,10.4243878 C109.897227,12.4559193 109.465349,12.1990193 111.778413,12.2022106 C112.207641,12.2027425 112.438682,12.0112642 112.438418,11.5655452 C112.435768,9.75341592 112.432059,7.94102066 112.436563,6.12889134 C112.437623,5.67546009 112.206581,5.48903469 111.781592,5.49296124 C111.429466,5.49648107 111.076545,5.51828832 110.724949,5.5073847 C109.865167,5.48052455 109.847415,5.49063035 109.844501,6.37994066 C109.841851,7.19771255 109.843971,8.01548444 109.843706,8.83325633 M107.353651,8.75799472 C107.353121,7.40807273 107.350472,6.05868263 107.353916,4.70929252 C107.356301,3.81280177 107.416446,3.75748582 108.282586,3.75748582 C109.451571,3.75748582 110.620556,3.74365683 111.789541,3.75562423 C112.268316,3.76067713 112.460939,3.57611332 112.441862,3.08225888 C112.412982,2.3315044 112.450341,1.57809049 112.436828,0.826006291 C112.429144,0.401562734 112.607459,0.223381541 113.026619,0.229851081 C115.388435,0.268591694 114.948344,-0.0289974915 114.965301,2.0679558 C114.978813,3.75828365 114.960267,3.75748582 116.643001,3.75908147 C117.503312,3.7598793 118.364153,3.7800909 119.223935,3.7617409 C119.803128,3.74924162 120.055896,3.95747426 120.050862,4.57632148 C120.02834,7.40780679 120.030195,10.239824 120.047682,13.0713093 C120.051127,13.6212775 119.837572,13.8313718 119.308456,13.8265848 C118.139471,13.8156812 116.969691,13.8494558 115.801501,13.8207341 C115.186539,13.8055754 114.934301,13.9917348 114.950463,14.6552603 C114.991266,16.3578215 114.965301,18.0619783 114.963976,19.7653374 C114.963181,20.6110332 115.023061,20.6655513 115.821638,20.5222085 C117.158075,20.2823288 117.158605,20.2823288 116.838803,18.9467676 C116.741299,18.5398763 116.64565,18.132187 116.538608,17.7276891 C116.419908,17.2803746 116.559804,17.0325166 117.044144,17.0468774 C117.440782,17.0588448 117.845635,17.0415586 118.229821,17.1205434 C118.426683,17.1607006 118.690579,17.3503173 118.746749,17.5287645 C119.270302,19.1901046 119.790675,20.8543702 120.235006,22.5380495 C120.436902,23.3021011 120.278459,23.412733 119.466369,23.412733 C119.267917,23.412733 119.067611,23.3951808 118.871279,23.4145946 C118.214983,23.4797504 117.761644,23.3398648 117.724285,22.5399111 C117.716601,22.3806118 117.344868,22.1154675 117.138468,22.1128081 C116.614915,22.1064255 116.091363,22.255353 115.564631,22.2816813 C113.187712,22.4013552 110.809999,22.5135828 108.431491,22.5992161 C107.636094,22.6276719 107.546539,22.4332683 107.583103,21.4298688 C107.609599,20.7096977 108.044656,20.7828317 108.544098,20.8104897 C109.577955,20.8676673 110.613932,20.8868151 111.649114,20.90091 C112.176906,20.9078245 112.455905,20.6503926 112.451665,20.0834041 C112.438153,18.247074 112.432853,16.410744 112.450076,14.5749458 C112.45564,13.9880116 112.194658,13.8013203 111.64461,13.8114261 C110.47589,13.8324355 109.305581,13.7872254 108.13792,13.8287123 C107.503616,13.8513174 107.337224,13.5843116 107.346763,13.0050897 C107.370344,11.589746 107.354446,10.1736044 107.353651,8.75799472" id="Fill-15"></path>
                    <path d="M99.7685242,10.3556418 C101.885256,10.3556418 104.002252,10.3660135 106.118984,10.3475838 C106.583186,10.3434084 106.7411,10.5090903 106.74004,10.9643832 C106.731297,13.9501149 106.839399,16.9401017 106.707716,19.9197167 C106.618691,21.9390149 105.122485,23.3743043 103.128163,23.6806696 C103.002044,23.7000834 102.808362,23.6333319 102.728875,23.5373268 C102.442723,23.1913362 102.647004,22.071986 103.058215,21.8799758 C104.032192,21.4252148 104.249986,20.6130277 104.245217,19.6410094 C104.234089,17.4525721 104.229849,15.2636028 104.262969,13.0754314 C104.272242,12.4555204 104.093397,12.1882486 103.44664,12.1935675 C100.93327,12.2151088 98.4198993,12.2164385 95.9067938,12.1988863 C95.2862674,12.1943653 95.3135579,12.5826407 95.3138228,12.9927234 C95.3156775,16.2438653 95.3177972,19.4944753 95.3220365,22.7456173 C95.3230963,23.7609841 95.3257458,23.7506124 94.3043414,23.7596544 C92.3889761,23.7769406 92.6181629,23.8591167 92.6133936,22.035286 C92.6049151,18.4966607 92.611274,14.9580354 92.6120689,11.4194101 C92.6120689,10.3734599 92.6128637,10.363886 93.6822252,10.3601628 C95.7109915,10.3527164 97.7397578,10.3580352 99.7685242,10.3580352 L99.7685242,10.3556418 Z" id="Fill-21"></path>
                    <path d="M13.8518473,3.87226642 C9.57360649,3.87226642 5.29536571,3.87412802 1.01712492,3.87067077 C0.0667285855,3.87013889 0.0267202646,3.8209396 0.0171818569,2.84599594 C0.0158570781,2.71329084 0.0280450434,2.5789901 0.0126776089,2.44814659 C-0.0625698292,1.81866169 0.195232133,1.58649426 0.837484914,1.59154716 C4.18944033,1.61654571 7.5416607,1.60670586 10.8936161,1.61042905 C11.8901148,1.61149281 11.9023027,1.61362035 11.942576,0.632825965 C11.9592682,0.225136759 12.0962504,0.0259461419 12.5328975,0.036317883 C13.392414,0.0562635389 14.2529903,0.0602526701 15.1125068,0.0384454196 C15.6339398,0.0251483157 15.8702803,0.25598604 15.7950329,0.753829611 C15.6885206,1.45884206 16.0107069,1.62239644 16.6532246,1.61814137 C20.0274363,1.59633412 23.401383,1.60776962 26.7755947,1.60856745 C27.7797771,1.60856745 27.7962044,1.62665151 27.7911702,2.66222997 C27.7903753,2.8172742 27.7826916,2.97205249 27.786401,3.12683078 C27.8004437,3.65765117 27.5413169,3.88449976 27.0172344,3.87891497 C25.9587361,3.86774541 24.9002378,3.87918092 23.8417395,3.87918092 C20.5117754,3.8797128 17.1818114,3.87944686 13.8518473,3.87944686 L13.8518473,3.87226642 Z" id="Fill-25"></path>
                    <path d="M99.6953169,5.43233584 L99.6953169,5.42941048 C99.0782349,5.42941048 98.4611529,5.42435758 97.8440709,5.43047425 C96.196576,5.44696266 96.3664126,5.19245609 96.3425666,6.97586367 C96.3351478,7.50668406 96.5309501,7.72103337 97.0844427,7.70933192 C98.5387849,7.67768481 99.994187,7.68672684 101.448794,7.69576887 C103.171802,7.70640656 102.950298,7.76385005 103.009914,6.16208091 C103.03111,5.59429457 102.800069,5.41531555 102.274131,5.427017 C101.41488,5.44669672 100.555098,5.43233584 99.6953169,5.43233584 L99.6953169,5.43233584 Z M99.6841887,9.25817858 C97.7865755,9.25817858 95.8889623,9.24674308 93.9913491,9.2658909 C93.4903178,9.27120975 93.2778232,9.12786697 93.2889514,8.58747266 C93.3175666,7.23808256 93.3141222,5.88736274 93.2828574,4.53797263 C93.2690797,3.94970876 93.5152236,3.75370944 94.0671265,3.75555792 C97.8623529,3.76913408 101.657579,3.7736551 105.452806,3.76807032 C105.857128,3.76753843 106.014247,3.93694354 106.015042,4.31803853 C106.018221,5.80066562 106.020341,7.28329271 106.033635,8.7659198 C106.037828,9.24993438 105.748496,9.26881627 105.377293,9.26642279 C103.47968,9.25551916 101.582067,9.26110395 99.6841887,9.26110395 L99.6841887,9.25817858 Z" id="Fill-27"></path>
                    <path d="M21.7410112,13.6012255 C22.269333,13.6012255 22.7979198,13.5932472 23.3259766,13.6038849 C23.7382478,13.6118632 23.9578961,13.8224893 24.0164514,14.2487944 C24.4549532,17.4289298 25.6732198,20.3106782 27.3697316,23.0083946 C27.4542525,23.1426954 27.5536109,23.4022548 27.4966454,23.4631556 C27.3835093,23.5841592 27.1712797,23.6344223 26.9913747,23.6668672 C25.5619384,23.9235013 24.7151397,23.0336591 23.8961614,22.079193 C21.9442323,19.8043245 20.5974621,17.2018153 19.7053561,14.3493205 C19.5553911,13.8700929 19.6367325,13.5653233 20.2220198,13.5778226 C20.7280853,13.5884603 21.2346808,13.5799501 21.7410112,13.5799501 L21.7410112,13.6012255 Z" id="Fill-29"></path>
                    <path d="M52.7137841,13.5874497 C53.1763968,13.5866519 53.6405993,13.6116504 54.1008275,13.5802692 C54.6474313,13.5430374 54.9174212,13.778928 54.9953182,14.3108121 C55.337906,16.6473792 56.1054829,18.8464543 57.1851776,20.9372909 C57.5280304,21.6010823 57.937652,22.2300353 58.2998465,22.8842529 C58.4010596,23.067221 58.4415979,23.2839638 58.5099564,23.485282 C58.2918979,23.5469805 58.0762239,23.6217102 57.8549858,23.668782 C56.4361477,23.9706262 55.6781092,22.9882362 54.9092076,22.0920114 C53.1687131,20.0636712 51.8640709,17.7776331 51.0318449,15.229642 C50.4990188,13.5975555 50.5059077,13.595162 52.1851973,13.5882475 C52.3613929,13.5874497 52.5375885,13.5879816 52.7137841,13.5874497" id="Fill-31"></path>
                    <path d="M6.06164428,13.5869444 C6.54704325,13.5869444 7.03297213,13.6047625 7.51731127,13.5818915 C8.05119714,13.5568929 8.21149538,13.8262923 8.06735944,14.282117 C6.99428858,17.679793 5.38494725,20.7548812 2.7549963,23.2302701 C2.06425661,23.8804985 1.26144064,23.5898238 0.495188557,23.621205 C0.468692981,23.6222687 0.324821999,23.1584657 0.406428375,22.9994324 C0.869306101,22.096559 1.42173888,21.2394277 1.87375342,20.3317674 C2.8010986,18.4685772 3.46958201,16.5115094 3.74381123,14.4398206 C3.83336627,13.7619343 4.16058665,13.528969 4.80495908,13.5829553 C5.22120459,13.6177937 5.64248426,13.5896038 6.06164428,13.5896038 L6.06164428,13.5869444 Z" id="Fill-33"></path>
                    <path d="M37.0179899,13.5975821 C37.4588763,13.5975821 37.9000276,13.5925292 38.3406491,13.5989118 C39.1106105,13.6095495 39.1959263,13.7095437 38.9776027,14.4738612 C38.4344434,16.375879 37.6652768,18.1890721 36.5363003,19.809989 C35.7446124,20.9466255 34.7984554,21.9736938 33.9423833,23.0661838 C33.267276,23.9275702 32.3362214,23.5876963 31.4870382,23.6105673 C31.4557734,23.6113651 31.314552,23.1595295 31.392184,23.001028 C32.0988211,21.5590901 32.9570128,20.1809782 33.5425651,18.6935642 C34.0955277,17.28939 34.4089704,15.7841578 34.752618,14.3057858 C34.8707883,13.7973046 35.0432745,13.5646053 35.5633827,13.5880082 C36.0474569,13.6098154 36.5331208,13.5925292 37.0179899,13.5925292 L37.0179899,13.5975821 Z" id="Fill-35"></path>
                    <path d="M100.929004,19.6467272 C100.929004,20.1549425 100.915756,20.6634238 100.932448,21.1711072 C100.952585,21.7851674 100.526006,21.8295798 100.132017,21.732245 C99.6063447,21.6024652 98.7187429,22.255619 98.6093162,21.1844043 C98.5157868,20.2663722 98.5971282,19.3302561 98.5968633,18.4018523 C98.5965983,17.5811551 98.538573,17.5237116 97.7474151,17.5231797 C97.3727676,17.5229137 96.9962655,17.5011065 96.6240026,17.5298282 C96.0890569,17.5707833 95.9070323,17.3067028 95.9335279,16.8179013 C95.9417415,16.6633889 95.9584337,16.507015 95.9430663,16.3543643 C95.885041,15.781525 96.1333045,15.5054771 96.7048141,15.5828663 C97.3348789,15.6682337 97.4413912,15.3610706 97.3014945,14.8422176 C97.2614862,14.69329 97.2079651,14.5480857 97.160803,14.4010197 C96.7848308,13.2306086 96.9710947,12.998973 98.1962501,13.0532252 C98.5899744,13.0702455 98.802204,13.2061419 98.8570498,13.6204797 C98.9171948,14.078166 98.987673,14.5448944 99.1453217,14.9743908 C99.2311674,15.207622 99.5051316,15.5232953 99.6972246,15.5254228 C99.9131635,15.5275503 100.244888,15.2594807 100.32623,15.0360894 C100.47328,14.6305277 100.50057,14.1723095 100.525741,13.7332391 C100.552237,13.2649151 100.757048,13.0784897 101.224165,13.0585441 C102.5969,12.9997709 102.595046,12.9864738 102.318697,14.3113972 C102.278159,14.5055349 102.263056,14.7055234 102.219868,14.8991292 C102.110707,15.3903242 102.296176,15.5823344 102.800122,15.5873873 C103.6501,15.5966953 103.622014,15.6185025 103.617245,16.8694941 C103.614861,17.5327536 103.248692,17.5383384 102.758523,17.5370087 C100.601254,17.5314239 100.953115,17.2380898 100.913636,19.3150974 C100.911782,19.4257293 100.913372,19.5360953 100.913372,19.6467272 L100.929004,19.6467272 Z" id="Fill-37"></path>
                    <path d="M99.6753922,2.93652263 C97.6018484,2.93678857 95.5285695,2.93732045 93.4550256,2.93652263 C92.7256024,2.93599074 92.6153808,2.81684869 92.5989536,2.02274564 C92.5809366,1.14194548 92.6734061,1.00418748 93.4020345,1.00285777 C97.6370875,0.995145453 101.87214,1.00073024 106.106929,0.991416365 C106.567952,0.990358495 106.826813,1.13290345 106.7876,1.63686369 C106.773822,1.8126514 106.779386,1.99136448 106.793429,2.16741813 C106.839266,2.72935375 106.611404,2.95301103 106.027972,2.94609654 C103.910445,2.92109799 101.792654,2.93625668 99.6753922,2.93652263" id="Fill-39"></path>
                    <path d="M82.0615302,20.6193306 C81.6874127,20.6193306 81.3050815,20.6645407 80.9434169,20.5969914 C80.799016,20.5701313 80.5732736,20.2674892 80.601094,20.1369116 C80.8996992,18.7423114 81.2258597,17.3532959 81.5907038,15.9749181 C81.6399856,15.7879608 81.9348813,15.5518042 82.1298888,15.5387731 C82.8966708,15.4869144 83.6690168,15.5151042 84.4395082,15.5135086 C84.8605229,15.5127108 84.9874367,15.7443463 84.8896681,16.1195906 C84.5513195,17.4181858 84.2092617,18.7157172 83.8592551,20.0108551 C83.7320763,20.4826363 83.4109499,20.6884755 82.9197219,20.6525733 C82.6351594,20.6318298 82.3476824,20.6485842 82.0615302,20.6485842 L82.0615302,20.6193306 Z" id="Fill-43"></path>
                    <path d="M68.9348266,20.6577858 C67.0136323,20.5670995 67.4786297,20.9354293 66.69807,18.9637347 C66.3459438,18.0741585 66.243141,17.0851199 66.0287917,16.1412915 C65.9320829,15.7144544 66.110928,15.5128703 66.5406863,15.5149812 C67.2894513,15.5184551 68.0379513,15.5219124 68.7864514,15.5197848 C69.1738167,15.5184551 69.2792691,15.7155182 69.3452431,16.0875712 C69.5670111,17.3422859 69.8195139,18.5932774 70.1181191,19.8317697 C70.3004086,20.5867792 70.2874258,20.6561901 69.4861995,20.6577858 C69.2442949,20.6583177 69.0021254,20.6577858 68.9348266,20.6577858" id="Fill-45"></path>
                    <path d="M50.0586735,32.2038996 L51.269611,32.2038996 L51.269611,37.4773371 C51.2956528,39.40443 50.4493071,40.3549414 48.7305485,40.3288996 C47.1159571,40.3549414 46.2175285,39.5216164 46.035236,37.8288996 L47.207111,37.5163996 C47.2591946,38.7664058 47.7539813,39.3783789 48.691486,39.3523371 C49.6289907,39.3783789 50.0847153,38.7403644 50.0586735,37.4382746 L50.0586735,32.2038996 Z M55.644611,40.2117121 L52.9492985,40.2117121 L52.9492985,32.2038996 L55.6055485,32.2038996 C58.2878535,32.2559832 59.6550274,33.5840949 59.707111,36.1882746 C59.7591946,38.9226632 58.4050414,40.2637957 55.644611,40.2117121 Z M55.566486,33.2195246 L54.160236,33.2195246 L54.160236,39.2742121 L55.566486,39.2742121 C57.4675371,39.2742121 58.4180485,38.2455765 58.4180485,36.1882746 C58.3659649,34.2611816 57.4154535,33.2716082 55.566486,33.2195246 Z M69.5117985,33.2195246 L65.175861,33.2195246 L65.175861,35.7195246 L68.9649235,35.7195246 L68.9649235,36.6960871 L65.175861,36.6960871 L65.175861,40.2117121 L63.925861,40.2117121 L63.925861,32.2038996 L69.5117985,32.2038996 L69.5117985,33.2195246 Z M70.7617985,40.1726496 L70.7617985,31.9304621 L71.972736,31.9304621 L71.972736,40.1726496 L70.7617985,40.1726496 Z M78.6524235,40.2117121 L77.4805485,40.2117121 L77.4805485,36.7742121 C77.4805485,35.7325402 77.0378446,35.2247328 76.1524235,35.2507746 C75.2409606,35.3028582 74.7201325,35.836707 74.5899235,36.8523371 L74.5899235,40.2117121 L73.4180485,40.2117121 L73.4180485,34.4304621 L74.5899235,34.4304621 L74.5899235,35.4460871 C75.0586758,34.7169167 75.7227317,34.3262957 76.582111,34.2742121 C77.988368,34.2481703 78.6784653,35.0294124 78.6524235,36.6179621 L78.6524235,40.2117121 Z M85.644611,40.1726496 L84.5117985,40.1726496 C84.3555477,39.9643152 84.2513821,39.6387976 84.1992985,39.1960871 C83.7305461,39.9252574 82.8972211,40.3028578 81.6992985,40.3288996 C80.5013758,40.276816 79.8763821,39.7429671 79.8242985,38.7273371 C79.8242985,37.6856652 80.5404371,37.0736921 81.972736,36.8913996 C83.2227422,36.709107 83.9519016,36.5007757 84.160236,36.2663996 C84.2123196,35.4591039 83.7435743,35.0815035 82.753986,35.1335871 C81.8425231,35.1335871 81.3086743,35.485146 81.1524235,36.1882746 L80.019611,35.9929621 C80.3060707,34.8210812 81.21752,34.2481703 82.753986,34.2742121 C84.55087,34.2221285 85.4102364,34.9903499 85.332111,36.5788996 L85.332111,38.9617121 C85.332111,39.4304644 85.4362766,39.8341062 85.644611,40.1726496 Z M84.238361,37.7507746 L84.238361,37.0085871 C83.9258594,37.2950468 83.3529485,37.4903574 82.519611,37.5945246 C81.4779391,37.7247335 80.9701317,38.0893132 80.9961735,38.6882746 C80.9701317,39.2611941 81.3737735,39.5346289 82.207111,39.5085871 C83.4571172,39.4304617 84.1341938,38.84453 84.238361,37.7507746 Z M91.972736,40.2117121 L90.800861,40.2117121 L90.800861,36.7742121 C90.800861,35.7325402 90.3581571,35.2247328 89.472736,35.2507746 C88.5612731,35.3028582 88.040445,35.836707 87.910236,36.8523371 L87.910236,40.2117121 L86.738361,40.2117121 L86.738361,34.4304621 L87.910236,34.4304621 L87.910236,35.4460871 C88.3789883,34.7169167 89.0430442,34.3262957 89.9024235,34.2742121 C91.3086805,34.2481703 91.9987778,35.0294124 91.972736,36.6179621 L91.972736,40.2117121 Z M98.769611,36.1101496 L97.5586735,36.3445246 C97.2982555,35.6674378 96.8164895,35.3028582 96.113361,35.2507746 C94.9935637,35.3028582 94.4206528,36.0059761 94.394611,37.3601496 C94.4206528,38.714323 94.9935637,39.4044203 96.113361,39.4304621 C96.9727403,39.4044203 97.467527,38.9617164 97.597736,38.1023371 L98.847736,38.2585871 C98.5091926,39.6908859 97.5847227,40.3809832 96.0742985,40.3288996 C94.1732473,40.276816 93.1966946,39.2872425 93.144611,37.3601496 C93.1966946,35.3549312 94.1732473,34.3262957 96.0742985,34.2742121 C97.4284719,34.3262957 98.3269004,34.9382687 98.769611,36.1101496 Z M104.043048,38.4148371 L105.293048,38.6101496 C104.87638,39.7559886 103.925868,40.3288996 102.441486,40.3288996 C100.514393,40.2507742 99.5117989,39.2742121 99.4336735,37.3992121 C99.5117989,35.3939937 100.475331,34.3523374 102.324298,34.2742121 C104.251391,34.3002539 105.227944,35.3419101 105.253986,37.3992121 L105.253986,37.7117121 L100.644611,37.7117121 C100.696695,38.8315093 101.295647,39.4304617 102.441486,39.5085871 C103.300865,39.4825453 103.834714,39.1179656 104.043048,38.4148371 Z M100.644611,36.8913996 L104.082111,36.8913996 C104.030027,35.7716023 103.470137,35.1856707 102.402423,35.1335871 C101.308668,35.1856707 100.722736,35.7716023 100.644611,36.8913996 Z" id="JDFlnance" fill-rule="nonzero"></path>
                </g>
            </g>
        </g>
    </g>
</svg>