<?xml version="1.0" encoding="UTF-8"?>
<svg width="49px" height="53px" viewBox="0 0 49 53" version="1.1" xmlns="http://www.w3.org/2000/svg" xmlns:xlink="http://www.w3.org/1999/xlink">
    <!-- Generator: Sketch 57.1 (83088) - https://sketch.com -->
    <title>区块链核心专利</title>
    <desc>Created with Sketch.</desc>
    <g id="页面-1" stroke="none" stroke-width="1" fill="none" fill-rule="evenodd">
        <g id="新基建" transform="translate(-506.000000, -1646.000000)">
            <g id="区块链核心专利" transform="translate(500.000000, 1643.000000)">
                <rect id="矩形" x="0" y="0" width="61" height="61"></rect>
                <g id="编组-2备份" transform="translate(6.000000, 3.000000)">
                    <g id="编组">
                        <rect id="矩形备份-8" fill="#EFF4FF" x="12.9107143" y="10.2258065" width="36.0892857" height="42.7741935" rx="4"></rect>
                        <path d="M28.8571429,43.2741935 L5.35714286,43.2741935 C4.32479633,43.2741935 3.5,42.4658139 3.5,41.483871 L3.5,5.29032258 C3.5,4.30837966 4.32479633,3.5 5.35714286,3.5 L34.7321429,3.5 C35.7644894,3.5 36.5892857,4.30837966 36.5892857,5.29032258 L36.5892857,25.0322581 C36.5892857,25.8606852 37.2608586,26.5322581 38.0892857,26.5322581 C38.9177128,26.5322581 39.5892857,25.8606852 39.5892857,25.0322581 L39.5892857,5.29032258 C39.5892857,2.63787554 37.4079939,0.5 34.7321429,0.5 L5.35714286,0.5 C2.68129178,0.5 0.5,2.63787554 0.5,5.29032258 L0.5,41.483871 C0.5,44.136318 2.68129178,46.2741935 5.35714286,46.2741935 L28.8571429,46.2741935 C29.68557,46.2741935 30.3571429,45.6026207 30.3571429,44.7741935 C30.3571429,43.9457664 29.68557,43.2741935 28.8571429,43.2741935 Z" id="路径" fill="#3F79FE" fill-rule="nonzero"></path>
                    </g>
                </g>
                <g id="专利预测" transform="translate(37.172414, 31.296875)" fill-rule="nonzero">
                    <rect id="矩形" fill="#000000" opacity="0" x="0" y="0" width="15.3965517" height="15.140625"></rect>
                    <path d="M5.84072135,0.205621889 C6.36724877,-0.00874918142 6.95716645,-0.0547326004 7.51166968,0.0640715215 C7.97884956,0.164056813 8.41983243,0.387919118 8.77607932,0.709475731 C9.2156068,1.1017257 9.52317902,1.64092622 9.64300606,2.22103726 C9.72369929,2.58023153 9.71286473,2.95137167 9.69184244,3.31662071 C9.66370492,3.72834408 9.59869754,4.14154024 9.45380548,4.52904458 C9.33850633,4.84634649 9.15706782,5.1340292 8.95298994,5.40011116 C8.91207733,5.447731 8.90140448,5.51138774 8.87779483,5.56784425 C8.83122238,5.69188492 8.76847895,5.80937989 8.72740464,5.93571156 C8.68374297,6.06777068 8.69878198,6.2094847 8.71527641,6.3449803 C8.7592615,6.65884574 8.85628743,6.96207443 8.96317766,7.25908473 C9.13766263,7.72775553 9.34513643,8.18464412 9.59513992,8.61722275 C7.80242405,8.61731366 6.00970818,8.61722275 4.21699233,8.61722275 C4.38630258,8.27382901 4.55464258,7.92985346 4.70470936,7.57753215 C4.8444267,7.24746615 4.97492659,6.91118176 5.05626666,6.56082414 C5.10963093,6.32141584 5.14375172,6.06646153 5.07470159,5.82656232 C5.03136333,5.68681202 4.95115523,5.562935 4.88291366,5.43496692 C4.70567961,5.19735867 4.53459055,4.95140468 4.41799773,4.67664971 C4.17041988,4.1063572 4.10880841,3.47453529 4.10525079,2.85793207 C4.09975265,2.30564019 4.25111311,1.75040275 4.5484976,1.28615028 C4.85348246,0.800951627 5.31370881,0.419174744 5.84072135,0.205621889 Z M11.7821045,8.37594165 C12.4595072,8.32013971 13.1525958,8.47838156 13.7384708,8.82775733 C14.4331765,9.23735335 14.9734492,9.90795844 15.225555,10.6810034 C15.4833205,11.4591213 15.4488763,12.3321516 15.1275588,13.0858868 C14.8744828,13.6859622 14.4453047,14.2078167 13.9092364,14.5699565 C13.3558652,14.9466605 12.6888119,15.1481038 12.0219203,15.1404126 C11.2211329,15.137958 10.4268139,14.8286746 9.82961927,14.2891468 C9.40642449,13.9103154 9.07977051,13.421844 8.89202531,12.8824798 C8.66272068,12.2292208 8.6400813,11.5042865 8.82523913,10.8369543 C8.98969809,10.2399881 9.32168849,9.69195094 9.77075687,9.27089997 C10.3165278,8.75510026 11.037107,8.43272545 11.7821045,8.37594165 L11.7821045,8.37594165 Z M11.3328744,9.93332294 C10.7861333,10.1619309 10.3508103,10.644184 10.1755167,11.2159493 C9.98647786,11.8106244 10.0860912,12.488757 10.4370016,13.002593 C10.2809516,13.1609985 10.1239313,13.3185858 9.96836635,13.4774822 C9.89705229,13.5499757 9.8629315,13.6566703 9.87732369,13.7578011 C9.89349469,13.8864237 9.99084403,13.9995004 10.1142287,14.0341925 C10.2298512,14.0692118 10.3619682,14.0332106 10.4452488,13.9450076 C10.5948305,13.7926568 10.7463526,13.6421061 10.8948023,13.4886099 C11.0707427,13.616578 11.2626923,13.7239271 11.4691959,13.7926568 C11.938478,13.9535169 12.4662991,13.933389 12.9213507,13.734073 C13.388854,13.5336115 13.7746938,13.1482345 13.9810356,12.6790727 C14.1927139,12.2033653 14.2151916,11.6451823 14.0431322,11.1536016 C13.8767327,10.6672575 13.5211327,10.2522613 13.0719026,10.012362 C12.542141,9.72582483 11.8857605,9.69587834 11.3328744,9.93332294 L11.3328744,9.93332294 Z M1.50042786,10.0305263 C1.77274731,9.84299254 2.10328234,9.74857108 2.43171512,9.75066327 L8.73403474,9.75066327 C8.39120977,10.3306458 8.20184749,11.0019055 8.19165976,11.6774198 C8.17872297,12.3151328 8.32393845,12.9554641 8.61178207,13.5229747 C8.82038784,13.9368254 9.10418869,14.3110748 9.44183894,14.6257584 C7.18614765,14.6265766 4.93045637,14.6259221 2.67476509,14.6260857 C2.5505719,14.6247766 2.42621698,14.6296858 2.3023472,14.6213401 C1.96615233,14.5990848 1.63561732,14.471444 1.37671978,14.2518364 C1.12429064,14.0402472 0.942367006,13.7409459 0.880593834,13.4141528 C0.848251857,13.257711 0.85698419,13.0971781 0.855852224,12.9384454 L0.855852224,11.4982318 C0.857792746,11.2958066 0.843077141,11.0897812 0.89611798,10.8922653 C0.980692254,10.5412531 1.20514559,10.2313151 1.50042786,10.0305263 L1.50042786,10.0305263 Z M12.0406786,10.601637 C12.2955334,10.5846183 12.5550778,10.6504024 12.7707988,10.7891708 C13.0135253,10.9429943 13.1996534,11.1858391 13.2853597,11.4623942 C13.3799599,11.7625137 13.3561886,12.099289 13.2179266,12.3817351 C13.1105513,12.603961 12.9355812,12.7918221 12.7229326,12.9138991 C12.5065648,13.0389216 12.2518717,13.0934144 12.0039705,13.069359 C11.7659335,13.0472673 11.5353352,12.951864 11.3500157,12.799186 C11.1323542,12.6213071 10.9775978,12.3660255 10.9218079,12.088325 C10.8574473,11.7772415 10.9167949,11.4419389 11.0864285,11.1742205 C11.2906681,10.8441545 11.6561325,10.6234014 12.0406786,10.601637 L12.0406786,10.601637 Z" id="形状" fill="#3F79FE"></path>
                </g>
                <path d="M25.6251409,17.7586135 C26.2725581,18.2349291 27.1888986,17.7915165 27.217135,16.9882555 L27.6373138,5.03513051 C27.6571997,4.46942256 27.2039884,4 26.637931,4 L15.2931034,4 C14.7408187,4 14.2931034,4.44771525 14.2931034,5 L14.2931034,16.5409483 C14.2931034,17.3051168 15.115483,17.7869035 15.7820694,17.4132512 L21.1022482,14.431046 L25.6251409,17.7586135 Z M25.6021612,6 L25.2849009,15.0253282 L21.768218,12.4380459 C21.4520498,12.2054358 21.0290347,12.179304 20.6866407,12.3712316 L16.2931034,14.8340115 L16.2931034,6 L25.6021612,6 Z" id="路径-39" fill="#3F79FE" fill-rule="nonzero"></path>
                <path d="M14.4827586,24.4296875 L34.7413793,24.4296875 C35.5698064,24.4296875 36.2413793,23.7581146 36.2413793,22.9296875 C36.2413793,22.1012604 35.5698064,21.4296875 34.7413793,21.4296875 L14.4827586,21.4296875 C13.6543315,21.4296875 12.9827586,22.1012604 12.9827586,22.9296875 C12.9827586,23.7581146 13.6543315,24.4296875 14.4827586,24.4296875 Z" id="路径-40" fill="#3F79FE" fill-rule="nonzero"></path>
                <path d="M14.4827586,30.8046875 L34.7413793,30.8046875 C35.5698064,30.8046875 36.2413793,30.1331146 36.2413793,29.3046875 C36.2413793,28.4762604 35.5698064,27.8046875 34.7413793,27.8046875 L14.4827586,27.8046875 C13.6543315,27.8046875 12.9827586,28.4762604 12.9827586,29.3046875 C12.9827586,30.1331146 13.6543315,30.8046875 14.4827586,30.8046875 Z" id="路径-40备份" fill="#3F79FE" fill-rule="nonzero"></path>
                <path d="M14.4827586,37.1796875 L34.7413793,37.1796875 C35.5698064,37.1796875 36.2413793,36.5081146 36.2413793,35.6796875 C36.2413793,34.8512604 35.5698064,34.1796875 34.7413793,34.1796875 L14.4827586,34.1796875 C13.6543315,34.1796875 12.9827586,34.8512604 12.9827586,35.6796875 C12.9827586,36.5081146 13.6543315,37.1796875 14.4827586,37.1796875 Z" id="路径-40备份-2" fill="#3F79FE" fill-rule="nonzero"></path>
            </g>
        </g>
    </g>
</svg>