<?xml version="1.0" encoding="UTF-8"?>
<svg width="148px" height="36px" viewBox="0 0 148 36" version="1.1" xmlns="http://www.w3.org/2000/svg" xmlns:xlink="http://www.w3.org/1999/xlink">
    <!-- Generator: Sketch 57.1 (83088) - https://sketch.com -->
    <title>华为</title>
    <desc>Created with Sketch.</desc>
    <defs>
        <polygon id="path-1" points="0.0603442444 0.0975188983 3.61404331 0.0975188983 3.61404331 14.3380129 0.0603442444 14.3380129"></polygon>
        <radialGradient cx="50%" cy="0%" fx="50%" fy="0%" r="100%" gradientTransform="translate(0.500000,0.000000),scale(0.763351,1.000000),rotate(90.000000),translate(-0.500000,-0.000000)" id="radialGradient-3">
            <stop stop-color="#FFEECB" offset="0%"></stop>
            <stop stop-color="#D8030E" offset="100%"></stop>
        </radialGradient>
    </defs>
    <g id="页面-1" stroke="none" stroke-width="1" fill="none" fill-rule="evenodd">
        <g id="首页" transform="translate(-352.000000, -3982.000000)">
            <g id="华为" transform="translate(352.000000, 3982.205911)">
                <path d="M115.88457,15.5420872 C115.785011,15.7603414 115.716804,15.8693051 115.684118,15.987744 C114.878473,18.9103244 114.07683,21.8342117 113.27352,24.7574455 C113.237499,24.8884634 113.190304,25.0163773 113.15028,25.1462516 C112.80741,26.2569629 113.112091,26.0842872 111.822492,26.104381 C110.975489,26.1176134 110.127819,26.0893515 109.28115,26.1089552 C108.916434,26.1171234 108.735326,25.9862689 108.613421,25.6500659 C107.6807,23.0785546 106.732471,20.5125976 105.787576,17.9453337 C105.077655,16.016496 104.366399,14.0884751 103.653977,12.1606176 C103.495382,11.7314606 103.536073,11.6618676 104.01419,11.6582735 C104.875201,11.6514123 105.736379,11.6682387 106.597057,11.6504321 C106.964442,11.6429173 107.135877,11.7803064 107.249111,12.1250042 C108.336423,15.4326334 109.440078,18.7351982 110.543566,22.0377631 C110.590928,22.1797263 110.681315,22.3081304 110.854417,22.4270593 C111.049367,21.7528564 111.249152,21.0797971 111.438598,20.4042873 C112.220729,17.615502 113.001692,14.8265533 113.777152,12.0361343 C113.850029,11.7740986 113.987944,11.6491252 114.273614,11.6510855 C115.342915,11.6582735 116.412383,11.6574567 117.481685,11.6505954 C117.770023,11.6486351 117.893763,11.7884746 117.974811,12.0433223 C118.552821,13.8578053 119.142004,15.669021 119.727351,17.4815436 C120.220477,19.0086694 120.711435,20.5364487 121.209231,22.0621043 C121.254424,22.2008003 121.342643,22.3261004 121.410851,22.4576084 C121.445871,22.4494402 121.481059,22.441272 121.51608,22.4332671 C121.777401,21.6059923 122.042059,20.779861 122.299878,19.9512792 C123.083677,17.4317176 123.886487,14.9173836 124.635598,12.3876934 C124.89692,11.5055283 125.031667,11.660724 125.66671,11.6536994 C126.388805,11.6456945 127.111068,11.6592537 127.833163,11.6497786 C128.15969,11.6452044 128.309612,11.7322774 128.188707,12.0807326 C127.724765,13.4168861 127.269328,14.7558167 126.81189,16.0940939 C126.226876,17.8053308 125.645031,19.5177114 125.058182,21.2286216 C124.542209,22.7332033 124.017565,24.2348444 123.506094,25.7408963 C123.417375,26.0016251 123.263617,26.102584 122.985785,26.1016038 C121.902642,26.0978464 120.819333,26.1034008 119.736357,26.1182266 C119.392319,26.1228411 119.22572,25.9911698 119.121825,25.6574173 C118.111559,22.411213 117.083282,19.1703997 116.05834,15.9284429 C116.028322,15.8335284 115.976791,15.7451485 115.88457,15.5420872" id="Fill-1" fill="#030303"></path>
                <path d="M55.4895113,18.908142 C55.4895113,16.7075758 55.4889913,14.5070095 55.4898579,12.30628 C55.4902046,11.6578726 55.4941909,11.6546052 56.19734,11.6529715 C56.9765754,11.6510111 57.7559842,11.6631004 58.534873,11.6475804 C58.8938136,11.6402288 59.0180822,11.7722301 59.0158291,12.1045205 C59.0047368,13.7073235 59.0125361,15.3102897 59.009243,16.9130926 C59.0080298,17.4915785 59.0274414,17.5160837 59.6281598,17.5160837 C61.8358781,17.515757 64.0435963,17.5049747 66.2513146,17.5234353 C66.6766357,17.5270294 66.7612147,17.3654585 66.7587882,17.0181382 C66.7475226,15.415172 66.7522022,13.8122057 66.7530688,12.2092394 C66.7534154,11.6845016 66.7847859,11.6557488 67.3407884,11.6547686 C68.1200238,11.6529715 68.899086,11.6500309 69.6781481,11.6544419 C70.219072,11.6572191 70.2695074,11.7041057 70.2696808,12.2198583 C70.2710673,16.5259106 70.2714139,20.8319629 70.2681209,25.138342 C70.2672543,26.1525302 70.4722889,26.1136486 69.2178169,26.1035198 C68.5541842,26.0981286 67.8895116,26.0783611 67.2270921,26.1045 C66.8528996,26.1193665 66.749949,25.9872018 66.7516822,25.6583421 C66.760868,23.9740186 66.7549752,22.2895317 66.7522022,20.6052082 C66.7515089,20.0687079 66.7405899,20.0626633 66.1670823,20.06299 C64.0026934,20.0638068 61.8383045,20.0638068 59.6739156,20.0633167 C59.0073365,20.0631534 59.0111495,20.0618464 59.0109762,20.7064963 C59.0108029,22.3364183 58.9972841,23.966667 59.0118428,25.596589 C59.0151358,25.9842612 58.8794282,26.1293319 58.4636395,26.1175694 C57.6561533,26.0945345 56.8474539,26.0953514 56.0399677,26.1105446 C55.6363112,26.1182266 55.4811921,25.9934098 55.4842657,25.5915246 C55.5016435,23.3638393 55.492631,21.1359907 55.492631,18.908142 L55.4895113,18.908142 Z" id="Fill-3" fill="#030303"></path>
                <path d="M136.981345,20.0548073 C135.56291,20.0548073 134.144475,20.0535006 132.725867,20.0554607 C132.209572,20.0561141 132.157598,20.1098533 132.204926,20.6016737 C132.309561,21.6857694 132.591803,22.7210261 133.7619,23.1742979 C134.420693,23.4292736 135.173623,23.548186 135.889725,23.5717071 C137.621551,23.6287132 139.356648,23.5950649 141.090195,23.5952283 C141.783407,23.5952283 141.784784,23.5917981 141.78857,24.2673774 C141.790808,24.688471 141.789431,25.1094014 141.788398,25.530495 C141.786849,26.0933689 141.764821,26.1167267 141.151634,26.1160733 C139.24616,26.1142765 137.34017,26.1304473 135.435213,26.0950023 C134.666793,26.0807916 133.881336,26.0265623 133.137011,25.8583208 C130.850167,25.3419993 129.285104,24.0114217 128.655568,21.8523775 C128.009854,19.6373072 128.088503,17.403126 128.966722,15.2486553 C129.705368,13.4365478 131.193159,12.3861005 133.165923,11.9813409 C134.02848,11.8046057 134.920122,11.6985973 135.801955,11.6752395 C137.606062,11.6277072 139.412235,11.6543318 141.217548,11.658252 C141.776868,11.6593954 141.78771,11.6801397 141.787366,12.2186757 C141.786849,12.7212766 141.7557,13.2253476 141.790463,13.7256618 C141.816967,14.1075536 141.64504,14.1872641 141.291894,14.1854673 C139.529607,14.1768102 137.766974,14.1678265 136.004859,14.1893875 C135.155897,14.1998413 134.318466,14.3127101 133.586532,14.7854196 C132.679745,15.3713246 132.336753,16.2357263 132.239862,17.2211639 C132.214735,17.4784263 132.37995,17.5380458 132.619166,17.5372291 C133.679293,17.5331456 134.739763,17.5400059 135.800062,17.5395159 C137.633942,17.5388625 139.467823,17.5413127 141.301704,17.528572 C141.650375,17.5262853 141.800445,17.6375206 141.791152,17.9749836 C141.776524,18.5177665 141.771533,19.0618561 141.792012,19.6043123 C141.804748,19.9385084 141.681009,20.0619944 141.322872,20.0587275 C139.875696,20.0459869 138.428521,20.0535006 136.981345,20.0535006 L136.981345,20.0548073 Z" id="Fill-5" fill="#030303"></path>
                <path d="M96.1023739,14.7916087 L95.9644411,14.7992887 C95.9016978,14.9156324 95.8295772,15.0282178 95.7772344,15.1489734 C95.1317294,16.6380746 94.4892934,18.1283197 93.8454934,19.6180745 C93.6719266,20.0200485 93.7094361,20.0837761 94.1786463,20.0859004 C95.4396486,20.0921097 96.7004804,20.0917829 97.9614827,20.0878612 C98.4260895,20.0863906 98.4673499,20.0164537 98.2891797,19.6161137 C97.8119561,18.5446732 97.3413819,17.4704549 96.8597254,16.4006485 C96.6165955,15.8604347 96.3553927,15.3277374 96.1023739,14.7916087 M102.961674,26.1138763 C102.493487,26.1138763 102.024788,26.1027648 101.557113,26.1176346 C101.243737,26.1276023 101.063862,26.012239 100.943832,25.730367 C100.558506,24.8255987 100.138229,23.9345563 99.7614289,23.0266833 C99.6610056,22.7845185 99.5353487,22.6745476 99.2724409,22.674711 C97.1437749,22.6760182 95.0151089,22.676345 92.8862723,22.6701357 C92.5965964,22.6693186 92.4595161,22.8031466 92.3592634,23.0479259 C91.9921815,23.9456678 91.6000363,24.8337689 91.2344889,25.7318376 C91.1272457,25.995245 90.9756731,26.1205759 90.6704819,26.116981 C89.7482589,26.1057061 88.8256948,26.118615 87.9034718,26.1133861 C87.5106447,26.1110985 87.4647808,26.0259649 87.6371541,25.665659 C89.2190334,22.3588509 90.8022768,19.0523697 92.3834741,15.7452348 C92.9619734,14.5357179 93.5450761,13.3281619 94.1063552,12.1116186 C94.2599738,11.7787645 94.4722436,11.6419953 94.8548409,11.6501655 C95.7340984,11.6696106 96.6145495,11.6650353 97.494148,11.6475511 C97.8441802,11.6405247 98.0347968,11.7754965 98.1778445,12.0738723 C99.7384116,15.3310055 101.308868,18.5837268 102.876596,21.837592 C103.482375,23.0946594 104.088495,24.3515635 104.694785,25.6084675 C104.894438,26.02237 104.838515,26.110935 104.366406,26.1135495 C103.898219,26.1160006 103.430032,26.1140397 102.961674,26.1138763" id="Fill-7" fill="#030303"></path>
                <path d="M72.7463117,16.901562 C72.7463117,15.3322514 72.7454226,13.7627795 72.7468451,12.1934688 C72.7473786,11.7098225 72.7989439,11.6630544 73.3289998,11.6596677 C74.1138596,11.6549909 74.8985416,11.6549909 75.6834013,11.6516043 C76.28636,11.6491852 76.3180104,11.6740207 76.3180104,12.2133049 C76.3187217,14.8557009 76.3100089,17.4980968 76.324056,20.1404928 C76.3267232,20.6607472 76.3729542,21.1868074 76.4711061,21.6989984 C76.6606531,22.6896751 77.3068199,23.3476535 78.3937814,23.5905249 C79.5618248,23.8516197 80.7446266,23.8600057 81.9121366,23.5879446 C83.0239917,23.328785 83.6271281,22.6238773 83.8076068,21.6252984 C83.9002465,21.1116559 83.9548346,20.5868859 83.9578574,20.0667927 C83.9727936,17.4377821 83.9742161,14.8086103 83.9559015,12.1797609 C83.9528787,11.768847 84.0993954,11.6357999 84.5407234,11.6480564 C85.369147,11.6707953 86.198993,11.6606354 87.02795,11.6545071 C87.3702371,11.6519268 87.5437811,11.7553004 87.5418415,12.0976749 C87.5243996,15.1692082 87.5354239,18.2409028 87.5039513,21.3122748 C87.4767461,23.9467686 85.9328093,25.1761237 83.2446557,25.7837861 C81.191289,26.2477576 79.0964922,26.2092143 77.0349462,25.7902369 C75.4956324,25.4775359 74.0855876,24.8726151 73.3227764,23.5403702 C72.9947143,22.967542 72.8453527,22.2611828 72.8156582,21.6082038 C72.7447114,20.0416347 72.7927205,18.4705501 72.7927205,16.901562 L72.7463117,16.901562 Z" id="Fill-9" fill="#030303"></path>
                <g id="编组" transform="translate(144.259091, 11.647291)">
                    <mask id="mask-2" fill="white">
                        <use xlink:href="#path-1"></use>
                    </mask>
                    <g id="Clip-12"></g>
                </g>
                <path d="M144.327353,12.2947364 C144.327353,11.7752298 144.34299,11.7562568 144.89447,11.753041 C145.734132,11.7478958 146.57413,11.7594726 147.413624,11.7450016 C147.761661,11.7390525 147.873142,11.8708988 147.87263,12.1964948 C147.864896,16.6348917 147.864055,21.0732885 147.873142,25.5116854 C147.873975,25.8840708 147.734255,25.9956578 147.3536,25.9845634 C146.514779,25.9602844 145.674108,25.962053 144.83495,25.9808653 C144.449082,25.9897086 144.31777,25.8525563 144.31942,25.4894966 C144.33038,23.2702982 144.324831,21.0510997 144.324831,18.8319013 C144.327185,16.6528999 144.327017,14.4738986 144.327353,12.2947364 Z" id="Fill-11" fill="#030303"></path>
                <path d="M27.531769,30.9506709 C28.5627676,30.9749555 29.5932617,31.0080557 30.623924,31.0421538 C33.3285297,31.1318071 36.0329674,31.2226247 38.7375731,31.3141076 C39.6656736,31.3453782 40.593774,31.3789774 41.5218744,31.4142399 C41.596526,31.4170675 41.6703369,31.4391898 41.803331,31.4631416 C41.5348208,31.8636705 41.3058221,32.2307666 41.0517714,32.580065 C40.3715007,33.5148542 39.5777394,34.3398639 38.5761643,34.9433186 C37.4789209,35.6043243 36.2888675,35.9636027 35.0165965,35.6517291 C34.317831,35.4804065 33.6454626,35.1542283 33.0021814,34.8208978 C31.0378702,33.8024433 29.2092433,32.5672574 27.4090311,31.2916527 C27.3404324,31.2430836 27.3170617,31.1321398 27.2725062,31.0504705 C27.3589271,31.0155406 27.4461888,30.9485086 27.531769,30.9506709 Z M18.3023576,30.949731 C18.3735143,30.9723431 18.4927963,31.0105842 18.4945151,31.0466639 C18.4982963,31.1189894 18.4570461,31.220744 18.3979207,31.2639731 C18.1064188,31.4776245 17.8097606,31.6867868 17.5022742,31.8781586 C16.0963275,32.7535475 14.7046465,33.6527124 13.2694808,34.4812143 C12.5240541,34.9115099 11.7224238,35.2772945 10.9041216,35.5566208 C9.79912994,35.934044 8.68915391,35.7724337 7.63641264,35.2930897 C6.26913805,34.6707572 5.21295925,33.6989342 4.3587349,32.5093032 C4.15024916,32.2190033 3.9570604,31.9185612 3.75321531,31.624936 C3.65077714,31.477292 3.69546493,31.4171038 3.86957545,31.4117833 C5.16208392,31.3727109 6.45459239,31.3361324 7.74675711,31.2917395 C9.95794348,31.2157561 12.168958,31.1296304 14.3803162,31.0591338 C15.0296642,31.0385168 15.6802154,31.0559747 16.3302509,31.0559747 L16.3304228,30.9454081 L16.3304228,30.9454081 L18.146294,30.9455743 L18.146294,30.9455743 C18.1987162,30.9455743 18.2549197,30.9349333 18.3023576,30.949731 Z M46.479885,18.8827586 C46.5848739,19.3706729 46.7042313,19.796961 46.7651346,20.2316303 C46.9687444,21.6814045 46.8239153,23.1019268 46.2899908,24.4654244 C45.5782547,26.2836403 44.3727609,27.6900297 42.6824898,28.6582987 C41.456586,29.3606717 40.1328777,29.717117 38.7169164,29.7184317 C35.4410364,29.7213897 32.1653197,29.7292779 28.8896029,29.734701 C28.7617549,29.7348653 28.6321109,29.7412744 28.5063855,29.7235261 C28.3533925,29.7018337 28.3101234,29.5710221 28.419684,29.4614098 C28.5042629,29.3767767 28.6040268,29.3041401 28.7060766,29.241035 C30.87639,27.8980794 33.0373964,26.5396762 35.2228948,25.2221927 C36.8540587,24.2388047 38.5100411,23.2963365 40.1676563,22.3583054 C41.9359751,21.3576621 43.7186625,20.3823266 45.4964516,19.39861 C45.7990088,19.2311514 46.1089136,19.077004 46.479885,18.8827586 Z M0.419213566,18.8827586 C0.722137424,19.0455026 1.00986607,19.1965632 1.29416354,19.3537123 C2.95566986,20.2725821 4.62060735,21.185528 6.27623165,22.1149293 C7.75833646,22.94675 9.23750026,23.7843301 10.7044099,24.6429732 C12.300397,25.5773111 13.8869076,26.5284335 15.4657389,27.4917329 C16.4071884,28.0661911 17.327724,28.6748765 18.2521809,29.2766507 C18.3587108,29.3462571 18.5580458,29.4135597 18.475044,29.5848604 C18.4379546,29.6612135 18.2500569,29.6937952 18.1302925,29.694618 C16.4240175,29.7059722 14.7175791,29.706795 13.0111407,29.7138708 C11.7669308,29.718972 10.5225575,29.7476044 9.27883776,29.7306553 C8.48460213,29.7197948 7.68464786,29.6942889 6.89890847,29.5878224 C5.63378472,29.4161925 4.48679147,28.9187456 3.44812537,28.1591641 C2.39377388,27.3882284 1.55901768,26.4313466 0.940915766,25.2816074 C0.34519819,24.1733359 0.0550187019,22.9796608 0.00649206447,21.7254299 C-0.0274929206,20.8542807 0.0718478051,19.9969541 0.306965082,19.1565766 C0.326081636,19.0879575 0.353204268,19.0216422 0.378366229,18.9546687 C0.385718749,18.9349223 0.399280066,18.917315 0.419213566,18.8827586 Z M39.4435161,6.92922873 C40.7634337,8.21152813 41.8796485,9.62575939 42.5865557,11.2971681 C42.945197,12.1453481 43.1642899,13.0271226 43.1540874,13.9490148 C43.1172549,15.9017368 42.2310271,17.4695895 40.7368036,18.7830373 C39.4338324,19.9285124 37.9984026,20.9043842 36.5166296,21.825461 C33.9355881,23.4295175 31.2409365,24.8496197 28.5021897,26.196825 C27.7363159,26.5733771 26.9640439,26.9386767 26.1902156,27.3007147 C26.1099796,27.3383862 25.9991363,27.317675 25.9024726,27.3241379 C25.9042018,27.2299379 25.8735945,27.1211634 25.9125021,27.0437003 C26.4074063,26.0583699 26.8945291,25.0687994 27.4193489,24.0973309 C28.0226756,22.9810471 28.6381068,21.8690034 29.2914081,20.7781601 C30.0667926,19.4834666 30.8729574,18.2042657 31.692783,16.9337081 C33.1894274,14.6140557 34.7925921,12.3596354 36.4841201,10.1627824 C37.3226214,9.07356992 38.2102327,8.01844121 39.071041,6.94439519 C39.2002141,6.78327198 39.2987799,6.78865362 39.4435161,6.92922873 Z M6.43063835,6.82364532 C6.4740199,6.89635189 6.50357466,6.96289138 6.54851173,7.01855734 C7.02630147,7.61104464 7.50907936,8.20010074 7.98827727,8.79162565 C8.33627814,9.2212001 8.68239096,9.65207657 9.02333416,10.0865148 C10.6631914,12.1758548 12.2112732,14.3255672 13.6466668,16.5427929 C14.7771797,18.2888865 15.891446,20.0468274 16.9303564,21.8414462 C17.9113671,23.5360934 18.78643,25.2846214 19.7003808,27.0130252 C19.746182,27.0995266 19.7190469,27.2196222 19.7257875,27.3241379 L19.5132262,27.3040619 C19.4788833,27.2986401 19.4460255,27.2903813 19.4160674,27.2765865 C16.2182768,25.8036294 13.0973976,24.2000277 10.0797009,22.4216381 C8.46231219,21.4683381 6.89124327,20.455315 5.44150442,19.2845445 C4.41935903,18.4589679 3.51664253,17.544618 2.98828635,16.3525873 C2.36538949,14.947468 2.30472445,13.5167067 2.77898332,12.0685801 C3.25410637,10.6186684 4.09149129,9.35214598 5.09583469,8.17894115 C5.44375127,7.77272567 5.82796318,7.39393745 6.19817546,7.00476257 C6.24605072,6.95461451 6.30930828,6.91712519 6.43063835,6.82364532 Z M26.6693178,0.948178791 C27.6787676,1.15044929 28.7182335,1.27416658 29.6922098,1.56853952 C31.852094,2.220999 33.2432028,3.59705136 34.0276229,5.47571527 C34.4729524,6.54207117 34.4249267,7.64391312 34.2788484,8.74091606 C34.0243485,10.6511948 33.2179165,12.4121096 32.3354438,14.1491519 C31.3960315,15.9976526 30.3194548,17.7832463 29.1359118,19.5156109 C27.9772912,21.2116829 26.7748289,22.8842051 25.5825539,24.561889 C25.2585621,25.0178847 24.9021894,25.4559762 24.5600061,25.9019714 C24.5290805,25.9424577 24.5027027,25.9919769 24.4594068,26.017301 C24.392098,26.0566583 24.2998668,26.1140812 24.2407442,26.0982738 C24.1814397,26.082305 24.1190427,25.9889122 24.1108565,25.9242308 C24.0426381,25.3945208 23.9709633,24.8649721 23.9305781,24.3334878 C23.7997807,22.6116077 23.6626164,20.8900503 23.5656553,19.1667185 C23.5003476,18.003905 23.4985285,16.8385108 23.4552325,15.1750214 C23.5350935,13.8849421 23.5954895,12.0951546 23.7724934,10.3145612 C23.911295,8.91995933 24.1545162,7.53019645 24.4252067,6.14978898 C24.6878928,4.80986787 25.1012051,3.49801301 25.7009809,2.24083893 C25.8879902,1.84904064 26.1301199,1.47772748 26.3445984,1.09592981 C26.4133625,0.973502929 26.5117789,0.916563943 26.6693178,0.948178791 Z M19.3272374,0.221458058 C19.8565281,1.05795973 20.2345929,1.94721961 20.5414709,2.86180344 C21.1198178,4.58577933 21.477043,6.34774113 21.7132874,8.13129322 C21.9297986,9.76647299 22.0738321,11.4055488 22.0961471,13.0514425 C22.1094255,14.0324205 22.0985446,15.0135608 22.0985446,15.9945388 C22.1302652,15.9953505 22.1619857,15.9961621 22.1937063,15.9971361 C22.0659019,18.0621736 21.9486096,20.127698 21.8056827,22.1920861 C21.7396597,23.1428701 21.6264247,24.0910569 21.5240705,25.0395683 C21.5135585,25.1376174 21.4305687,25.2294978 21.381328,25.3241379 C21.2743633,25.2634254 21.1306987,25.2243032 21.0657822,25.1387537 C20.2098804,24.0137864 19.3462329,22.8927151 18.5231581,21.7492418 C17.7688727,20.7012203 17.0431727,19.6363161 16.3384968,18.5619967 C15.6258908,17.4751776 14.9322802,16.3779692 14.2709434,15.2668002 C13.4784827,13.9356701 12.7620038,12.5715863 12.1735137,11.1583157 C11.7257374,10.0828599 11.3412178,8.98873584 11.1811397,7.85094422 C10.9519033,6.22160843 11.1591935,4.6526605 12.189374,3.22802656 C12.7478033,2.45548407 13.443627,1.80128229 14.3107785,1.29318017 C15.1618854,0.794655692 16.0970886,0.474859787 17.0984993,0.303436196 C17.6724201,0.205387096 18.2502138,0.123733624 18.8213683,0.0148082166 C19.0701533,-0.0325930038 19.2079165,0.0331518396 19.3272374,0.221458058 Z" id="形状结合" fill="url(#radialGradient-3)"></path>
            </g>
        </g>
    </g>
</svg>