<?xml version="1.0" encoding="UTF-8"?>
<svg width="148px" height="36px" viewBox="0 0 148 36" version="1.1" xmlns="http://www.w3.org/2000/svg" xmlns:xlink="http://www.w3.org/1999/xlink">
    <!-- Generator: Sketch 57.1 (83088) - https://sketch.com -->
    <title>华为</title>
    <desc>Created with Sketch.</desc>
    <defs>
        <polygon id="path-1" points="0.0603442444 0.0975188983 3.61404331 0.0975188983 3.61404331 14.3380129 0.0603442444 14.3380129"></polygon>
        <polygon id="path-3" points="0.0285425616 0.145492818 10.9551439 0.145492818 10.9551439 25.3068724 0.0285425616 25.3068724"></polygon>
        <polygon id="path-5" points="0.14686517 0.00874792173 14.67769 0.00874792173 14.67769 4.82364532 0.14686517 4.82364532"></polygon>
    </defs>
    <g id="页面-1" stroke="none" stroke-width="1" fill="none" fill-rule="evenodd">
        <g id="首页" transform="translate(-425.000000, -2297.000000)">
            <g id="华为" transform="translate(425.000000, 2297.000000)">
                <g id="编组-21">
                    <path d="M115.88457,15.7479985 C115.785011,15.9662527 115.716804,16.0752165 115.684118,16.1936553 C114.878473,19.1162357 114.07683,22.040123 113.27352,24.9633568 C113.237499,25.0943747 113.190304,25.2222886 113.15028,25.352163 C112.80741,26.4628742 113.112091,26.2901985 111.822492,26.3102923 C110.975489,26.3235248 110.127819,26.2952628 109.28115,26.3148665 C108.916434,26.3230347 108.735326,26.1921802 108.613421,25.8559773 C107.6807,23.2844659 106.732471,20.7185089 105.787576,18.1512451 C105.077655,16.2224073 104.366399,14.2943864 103.653977,12.3665289 C103.495382,11.9373719 103.536073,11.8677789 104.01419,11.8641849 C104.875201,11.8573236 105.736379,11.8741501 106.597057,11.8563434 C106.964442,11.8488287 107.135877,11.9862177 107.249111,12.3309156 C108.336423,15.6385447 109.440078,18.9411096 110.543566,22.2436744 C110.590928,22.3856377 110.681315,22.5140417 110.854417,22.6329706 C111.049367,21.9587678 111.249152,21.2857084 111.438598,20.6101987 C112.220729,17.8214133 113.001692,15.0324646 113.777152,12.2420456 C113.850029,11.9800099 113.987944,11.8550365 114.273614,11.8569969 C115.342915,11.8641849 116.412383,11.8633681 117.481685,11.8565068 C117.770023,11.8545464 117.893763,11.9943859 117.974811,12.2492336 C118.552821,14.0637166 119.142004,15.8749323 119.727351,17.6874549 C120.220477,19.2145808 120.711435,20.7423601 121.209231,22.2680156 C121.254424,22.4067116 121.342643,22.5320117 121.410851,22.6635197 C121.445871,22.6553515 121.481059,22.6471833 121.51608,22.6391785 C121.777401,21.8119036 122.042059,20.9857723 122.299878,20.1571905 C123.083677,17.6376289 123.886487,15.1232949 124.635598,12.5936047 C124.89692,11.7114396 125.031667,11.8666353 125.66671,11.8596107 C126.388805,11.8516059 127.111068,11.8651651 127.833163,11.85569 C128.15969,11.8511158 128.309612,11.9381887 128.188707,12.286644 C127.724765,13.6227974 127.269328,14.961728 126.81189,16.3000052 C126.226876,18.0112422 125.645031,19.7236227 125.058182,21.434533 C124.542209,22.9391146 124.017565,24.4407557 123.506094,25.9468076 C123.417375,26.2075364 123.263617,26.3084953 122.985785,26.3075151 C121.902642,26.3037577 120.819333,26.3093121 119.736357,26.3241379 C119.392319,26.3287524 119.22572,26.1970811 119.121825,25.8633286 C118.111559,22.6171243 117.083282,19.376311 116.05834,16.1343542 C116.028322,16.0394398 115.976791,15.9510599 115.88457,15.7479985" id="Fill-1" fill="#B9C4CE"></path>
                    <path d="M55.4895113,19.1140533 C55.4895113,16.9134871 55.4889913,14.7129209 55.4898579,12.5121913 C55.4902046,11.8637839 55.4941909,11.8605166 56.19734,11.8588829 C56.9765754,11.8569225 57.7559842,11.8690117 58.534873,11.8534917 C58.8938136,11.8461402 59.0180822,11.9781415 59.0158291,12.3104319 C59.0047368,13.9132348 59.0125361,15.5162011 59.009243,17.119004 C59.0080298,17.6974899 59.0274414,17.7219951 59.6281598,17.7219951 C61.8358781,17.7216683 64.0435963,17.710886 66.2513146,17.7293466 C66.6766357,17.7329407 66.7612147,17.5713698 66.7587882,17.2240496 C66.7475226,15.6210833 66.7522022,14.018117 66.7530688,12.4151507 C66.7534154,11.8904129 66.7847859,11.8616601 67.3407884,11.8606799 C68.1200238,11.8588829 68.899086,11.8559423 69.6781481,11.8603532 C70.219072,11.8631304 70.2695074,11.910017 70.2696808,12.4257696 C70.2710673,16.7318219 70.2714139,21.0378742 70.2681209,25.3442533 C70.2672543,26.3584415 70.4722889,26.3195599 69.2178169,26.3094311 C68.5541842,26.30404 67.8895116,26.2842724 67.2270921,26.3104113 C66.8528996,26.3252778 66.749949,26.1931131 66.7516822,25.8642535 C66.760868,24.1799299 66.7549752,22.4954431 66.7522022,20.8111195 C66.7515089,20.2746192 66.7405899,20.2685746 66.1670823,20.2689013 C64.0026934,20.2697182 61.8383045,20.2697182 59.6739156,20.2692281 C59.0073365,20.2690647 59.0111495,20.2677578 59.0109762,20.9124077 C59.0108029,22.5423297 58.9972841,24.1725784 59.0118428,25.8025004 C59.0151358,26.1901725 58.8794282,26.3352432 58.4636395,26.3234807 C57.6561533,26.3004459 56.8474539,26.3012627 56.0399677,26.3164559 C55.6363112,26.3241379 55.4811921,26.1993211 55.4842657,25.797436 C55.5016435,23.5697507 55.492631,21.341902 55.492631,19.1140533 L55.4895113,19.1140533 Z" id="Fill-3" fill="#B9C4CE"></path>
                    <path d="M136.981345,20.2607187 C135.56291,20.2607187 134.144475,20.2594119 132.725867,20.261372 C132.209572,20.2620254 132.157598,20.3157647 132.204926,20.8075851 C132.309561,21.8916807 132.591803,22.9269374 133.7619,23.3802093 C134.420693,23.6351849 135.173623,23.7540973 135.889725,23.7776185 C137.621551,23.8346245 139.356648,23.8009762 141.090195,23.8011396 C141.783407,23.8011396 141.784784,23.7977094 141.78857,24.4732887 C141.790808,24.8943824 141.789431,25.3153127 141.788398,25.7364064 C141.786849,26.2992802 141.764821,26.322638 141.151634,26.3219846 C139.24616,26.3201879 137.34017,26.3363586 135.435213,26.3009136 C134.666793,26.2867029 133.881336,26.2324736 133.137011,26.0642322 C130.850167,25.5479106 129.285104,24.217333 128.655568,22.0582888 C128.009854,19.8432185 128.088503,17.6090373 128.966722,15.4545666 C129.705368,13.6424592 131.193159,12.5920118 133.165923,12.1872522 C134.02848,12.010517 134.920122,11.9045086 135.801955,11.8811508 C137.606062,11.8336185 139.412235,11.8602431 141.217548,11.8641633 C141.776868,11.8653067 141.78771,11.886051 141.787366,12.424587 C141.786849,12.927188 141.7557,13.431259 141.790463,13.9315731 C141.816967,14.3134649 141.64504,14.3931754 141.291894,14.3913786 C139.529607,14.3827216 137.766974,14.3737378 136.004859,14.3952988 C135.155897,14.4057527 134.318466,14.5186215 133.586532,14.9913309 C132.679745,15.5772359 132.336753,16.4416376 132.239862,17.4270752 C132.214735,17.6843376 132.37995,17.7439572 132.619166,17.7431405 C133.679293,17.7390569 134.739763,17.7459173 135.800062,17.7454272 C137.633942,17.7447739 139.467823,17.747224 141.301704,17.7344834 C141.650375,17.7321966 141.800445,17.843432 141.791152,18.1808949 C141.776524,18.7236778 141.771533,19.2677674 141.792012,19.8102236 C141.804748,20.1444197 141.681009,20.2679057 141.322872,20.2646389 C139.875696,20.2518982 138.428521,20.2594119 136.981345,20.2594119 L136.981345,20.2607187 Z" id="Fill-5" fill="#B9C4CE"></path>
                    <path d="M96.1023739,14.99752 L95.9644411,15.0052 C95.9016978,15.1215437 95.8295772,15.2341291 95.7772344,15.3548847 C95.1317294,16.8439859 94.4892934,18.334231 93.8454934,19.8239859 C93.6719266,20.2259599 93.7094361,20.2896875 94.1786463,20.2918117 C95.4396486,20.2980211 96.7004804,20.2976943 97.9614827,20.2937726 C98.4260895,20.2923019 98.4673499,20.222365 98.2891797,19.822025 C97.8119561,18.7505846 97.3413819,17.6763662 96.8597254,16.6065598 C96.6165955,16.066346 96.3553927,15.5336488 96.1023739,14.99752 M102.961674,26.3197877 C102.493487,26.3197877 102.024788,26.3086762 101.557113,26.3235459 C101.243737,26.3335136 101.063862,26.2181503 100.943832,25.9362783 C100.558506,25.03151 100.138229,24.1404676 99.7614289,23.2325947 C99.6610056,22.9904298 99.5353487,22.8804589 99.2724409,22.8806223 C97.1437749,22.8819295 95.0151089,22.8822563 92.8862723,22.876047 C92.5965964,22.87523 92.4595161,23.0090579 92.3592634,23.2538372 C91.9921815,24.1515791 91.6000363,25.0396802 91.2344889,25.9377489 C91.1272457,26.2011563 90.9756731,26.3264872 90.6704819,26.3228923 C89.7482589,26.3116174 88.8256948,26.3245264 87.9034718,26.3192974 C87.5106447,26.3170098 87.4647808,26.2318763 87.6371541,25.8715703 C89.2190334,22.5647622 90.8022768,19.258281 92.3834741,15.9511461 C92.9619734,14.7416292 93.5450761,13.5340732 94.1063552,12.31753 C94.2599738,11.9846759 94.4722436,11.8479067 94.8548409,11.8560769 C95.7340984,11.875522 96.6145495,11.8709466 97.494148,11.8534624 C97.8441802,11.846436 98.0347968,11.9814078 98.1778445,12.2797836 C99.7384116,15.5369168 101.308868,18.7896381 102.876596,22.0435033 C103.482375,23.3005707 104.088495,24.5574748 104.694785,25.8143789 C104.894438,26.2282814 104.838515,26.3168464 104.366406,26.3194608 C103.898219,26.3219119 103.430032,26.3199511 102.961674,26.3197877" id="Fill-7" fill="#B9C4CE"></path>
                    <path d="M72.7463117,17.1074734 C72.7463117,15.5381627 72.7454226,13.9686908 72.7468451,12.3993801 C72.7473786,11.9157338 72.7989439,11.8689657 73.3289998,11.8655791 C74.1138596,11.8609023 74.8985416,11.8609023 75.6834013,11.8575156 C76.28636,11.8550966 76.3180104,11.879932 76.3180104,12.4192163 C76.3187217,15.0616122 76.3100089,17.7040081 76.324056,20.3464041 C76.3267232,20.8666586 76.3729542,21.3927187 76.4711061,21.9049097 C76.6606531,22.8955864 77.3068199,23.5535648 78.3937814,23.7964362 C79.5618248,24.0575311 80.7446266,24.0659171 81.9121366,23.7938559 C83.0239917,23.5346963 83.6271281,22.8297886 83.8076068,21.8312097 C83.9002465,21.3175673 83.9548346,20.7927973 83.9578574,20.2727041 C83.9727936,17.6436935 83.9742161,15.0145216 83.9559015,12.3856723 C83.9528787,11.9747583 84.0993954,11.8417112 84.5407234,11.8539677 C85.369147,11.8767066 86.198993,11.8665467 87.02795,11.8604185 C87.3702371,11.8578381 87.5437811,11.9612117 87.5418415,12.3035862 C87.5243996,15.3751195 87.5354239,18.4468141 87.5039513,21.5181862 C87.4767461,24.1526799 85.9328093,25.3820351 83.2446557,25.9896974 C81.191289,26.4536689 79.0964922,26.4151256 77.0349462,25.9961482 C75.4956324,25.6834472 74.0855876,25.0785264 73.3227764,23.7462815 C72.9947143,23.1734533 72.8453527,22.4670942 72.8156582,21.8141151 C72.7447114,20.2475461 72.7927205,18.6764615 72.7927205,17.1074734 L72.7463117,17.1074734 Z" id="Fill-9" fill="#B9C4CE"></path>
                    <g id="编组" transform="translate(144.259091, 11.853202)">
                        <mask id="mask-2" fill="white">
                            <use xlink:href="#path-1"></use>
                        </mask>
                        <g id="Clip-12"></g>
                        <path d="M0.0680943261,7.18461068 C0.0680943261,5.0056093 0.067926192,2.82660792 0.0682624603,0.647445754 C0.0682624603,0.127939153 0.0838989352,0.108966148 0.63537891,0.105750384 C1.4750408,0.100605163 2.31503895,0.112181911 3.15453271,0.0977109754 C3.50257038,0.0917618128 3.61404708,0.223608118 3.61353891,0.549204177 C3.60580474,4.98760102 3.60496407,9.42599787 3.61404708,13.8643947 C3.61488398,14.2367801 3.47516451,14.3483671 3.09450882,14.3372727 C2.2556876,14.3129937 1.41501691,14.3147624 0.575859425,14.3335746 C0.189991577,14.342418 0.0586788144,14.2052657 0.0603442444,13.842206 C0.0712888748,11.6230075 0.0657404482,9.4038091 0.0657404482,7.18461068 L0.0680943261,7.18461068 Z" id="Fill-11" fill="#B7C4CF" mask="url(#mask-2)"></path>
                    </g>
                    <g id="编组" transform="translate(23.426690, 1.000000)">
                        <mask id="mask-4" fill="white">
                            <use xlink:href="#path-3"></use>
                        </mask>
                        <g id="Clip-14"></g>
                        <path d="M0.0285425616,14.3809327 C0.108403521,13.0908534 0.168799509,11.3010659 0.345803412,9.52047255 C0.484605034,8.12587066 0.727826225,6.73610778 0.998516676,5.35570031 C1.26120284,4.0157792 1.67451514,2.70392434 2.27429096,1.44675026 C2.46130022,1.05495197 2.70342992,0.683638814 2.91790844,0.301841142 C2.98667255,0.179414259 3.0850889,0.122475273 3.24262783,0.154090121 C4.25207764,0.356360624 5.29154352,0.480077909 6.26551978,0.77445085 C8.425404,1.42691033 9.81651278,2.80296269 10.600933,4.6816266 C11.0462624,5.7479825 10.9982367,6.84982445 10.8521584,7.94682739 C10.5976585,9.85710615 9.79122651,11.6180209 8.90875381,13.3550632 C7.96934152,15.203564 6.89276485,16.9891576 5.70922179,18.7215222 C4.55060118,20.4175943 3.34813889,22.0901165 2.15586388,23.7678003 C1.83187216,24.2237961 1.47549945,24.6618875 1.13331615,25.1078827 C1.1023905,25.1483691 1.07601273,25.1978882 1.03271681,25.2232124 C0.965408032,25.2625696 0.87317681,25.3199925 0.814054232,25.3041851 C0.754749738,25.2882164 0.692352679,25.1948235 0.684166475,25.1301421 C0.615948116,24.6004321 0.54427336,24.0708834 0.503888091,23.5393991 C0.373090756,21.8175191 0.235926375,20.0959616 0.138965346,18.3726298 C0.0736576367,17.2098164 0.0718384805,16.0444221 0.0285425616,14.3809327" id="Fill-13" fill="#B4C4D0" mask="url(#mask-4)"></path>
                    </g>
                    <path d="M22.1937063,16.2030475 C22.0659019,18.2680849 21.9486096,20.3336093 21.8056827,22.3979974 C21.7396597,23.3487815 21.6264247,24.2969682 21.5240705,25.2454796 C21.5135585,25.3435287 21.4305687,25.4354092 21.381328,25.5300493 C21.2743633,25.4693367 21.1306987,25.4302145 21.0657822,25.344665 C20.2098804,24.2196977 19.3462329,23.0986264 18.5231581,21.9551531 C17.7688727,20.9071316 17.0431727,19.8422275 16.3384968,18.767908 C15.6258908,17.681089 14.9322802,16.5838806 14.2709434,15.4727116 C13.4784827,14.1415814 12.7620038,12.7774976 12.1735137,11.364227 C11.7257374,10.2887712 11.3412178,9.19464717 11.1811397,8.05685555 C10.9519033,6.42751976 11.1591935,4.85857183 12.189374,3.43393789 C12.7478033,2.6613954 13.443627,2.00719362 14.3107785,1.4990915 C15.1618854,1.00056702 16.0970886,0.680771118 17.0984993,0.509347526 C17.6724201,0.411298426 18.2502138,0.329644954 18.8213683,0.220719547 C19.0701533,0.173318326 19.2079165,0.23906317 19.3272374,0.427369388 C19.8565281,1.26387106 20.2345929,2.15313094 20.5414709,3.06771477 C21.1198178,4.79169066 21.477043,6.55365246 21.7132874,8.33720455 C21.9297986,9.97238432 22.0738321,11.6114601 22.0961471,13.2573538 C22.1094255,14.2383318 22.0985446,15.2194722 22.0985446,16.2004502 C22.1302652,16.2012618 22.1619857,16.2020735 22.1937063,16.2030475" id="Fill-15" fill="#B4C4D0"></path>
                    <path d="M43.1540874,14.1549261 C43.1172549,16.1076481 42.2310271,17.6755009 40.7368036,18.9889486 C39.4338324,20.1344237 37.9984026,21.1102955 36.5166296,22.0313723 C33.9355881,23.6354289 31.2409365,25.055531 28.5021897,26.4027363 C27.7363159,26.7792885 26.9640439,27.144588 26.1902156,27.506626 C26.1099796,27.5442975 25.9991363,27.5235864 25.9024726,27.5300493 C25.9042018,27.4358492 25.8735945,27.3270748 25.9125021,27.2496117 C26.4074063,26.2642813 26.8945291,25.2747108 27.4193489,24.3032422 C28.0226756,23.1869584 28.6381068,22.0749147 29.2914081,20.9840714 C30.0667926,19.6893779 30.8729574,18.4101771 31.692783,17.1396194 C33.1894274,14.819967 34.7925921,12.5655467 36.4841201,10.3686937 C37.3226214,9.27948125 38.2102327,8.22435254 39.071041,7.15030652 C39.2002141,6.98918331 39.2987799,6.99456495 39.4435161,7.13514006 C40.7634337,8.41743946 41.8796485,9.83167072 42.5865557,11.5030794 C42.945197,12.3512594 43.1642899,13.2330339 43.1540874,14.1549261" id="Fill-17" fill="#B7C4CF"></path>
                    <path d="M6.43063835,7.02955665 C6.4740199,7.10226322 6.50357466,7.16880271 6.54851173,7.22446867 C7.3732797,8.24722934 8.21291148,9.25976564 9.02333416,10.2924261 C10.6631914,12.3817661 12.2112732,14.5314785 13.6466668,16.7487042 C14.7771797,18.4947978 15.891446,20.2527387 16.9303564,22.0473575 C17.9113671,23.7420047 18.78643,25.4905327 19.7003808,27.2189366 C19.746182,27.3054379 19.7190469,27.4255336 19.7257875,27.5300493 C19.6219138,27.515443 19.5059416,27.5238822 19.4160674,27.4824979 C16.2182768,26.0095407 13.0973976,24.405939 10.0797009,22.6275494 C8.46231219,21.6742495 6.89124327,20.6612263 5.44150442,19.4904558 C4.41935903,18.6648793 3.51664253,17.7505293 2.98828635,16.5584986 C2.36538949,15.1533793 2.30472445,13.722618 2.77898332,12.2744915 C3.25410637,10.8245797 4.09149129,9.55805731 5.09583469,8.38485248 C5.44375127,7.978637 5.82796318,7.59984878 6.19817546,7.2106739 C6.24605072,7.16052584 6.30930828,7.12303652 6.43063835,7.02955665" id="Fill-19" fill="#B4C4D0"></path>
                    <path d="M0.419213566,19.08867 C0.722137424,19.2514139 1.00986607,19.4024745 1.29416354,19.5596236 C2.95566986,20.4784935 4.62060735,21.3914393 6.27623165,22.3208406 C7.75833646,23.1526613 9.23750026,23.9902415 10.7044099,24.8488845 C12.300397,25.7832224 13.8869076,26.7343448 15.4657389,27.6976442 C16.4071884,28.2721024 17.327724,28.8807879 18.2521809,29.482562 C18.3587108,29.5521684 18.5580458,29.619471 18.475044,29.7907718 C18.4379546,29.8671248 18.2500569,29.8997065 18.1302925,29.9005293 C16.4240175,29.9118835 14.7175791,29.9127063 13.0111407,29.9197821 C11.7669308,29.9248833 10.5225575,29.9535157 9.27883776,29.9365666 C8.48460213,29.9257061 7.68464786,29.9002002 6.89890847,29.7937337 C5.63378472,29.6221039 4.48679147,29.124657 3.44812537,28.3650755 C2.39377388,27.5941397 1.55901768,26.6372579 0.940915766,25.4875188 C0.34519819,24.3792472 0.0550187019,23.1855722 0.00649206447,21.9313412 C-0.0274929206,21.060192 0.0718478051,20.2028654 0.306965082,19.3624879 C0.326081636,19.2938689 0.353204268,19.2275536 0.378366229,19.1605801 C0.385718749,19.1408336 0.399280066,19.1232263 0.419213566,19.08867" id="Fill-21" fill="#B4C4D0"></path>
                    <path d="M46.479885,19.08867 C46.5848739,19.5765842 46.7042313,20.0028723 46.7651346,20.4375417 C46.9687444,21.8873158 46.8239153,23.3078381 46.2899908,24.6713357 C45.5782547,26.4895517 44.3727609,27.895941 42.6824898,28.8642101 C41.456586,29.5665831 40.1328777,29.9230283 38.7169164,29.924343 C35.4410364,29.9273011 32.1653197,29.9351892 28.8896029,29.9406123 C28.7617549,29.9407766 28.6321109,29.9471858 28.5063855,29.9294374 C28.3533925,29.9077451 28.3101234,29.7769334 28.419684,29.6673212 C28.5042629,29.582688 28.6040268,29.5100514 28.7060766,29.4469463 C30.87639,28.1039907 33.0373964,26.7455875 35.2228948,25.428104 C36.8540587,24.4447161 38.5100411,23.5022478 40.1676563,22.5642167 C41.9359751,21.5635734 43.7186625,20.588238 45.4964516,19.6045213 C45.7990088,19.4370627 46.1089136,19.2829154 46.479885,19.08867" id="Fill-23" fill="#B7C4CF"></path>
                    <g id="编组" transform="translate(27.125641, 31.147783)">
                        <mask id="mask-6" fill="white">
                            <use xlink:href="#path-5"></use>
                        </mask>
                        <g id="Clip-26"></g>
                        <path d="M14.67769,0.521269727 C14.4091797,0.921798621 14.180181,1.28889466 13.9261304,1.63819312 C13.2458596,2.57298231 12.4520984,3.397992 11.4505233,4.00144666 C10.3532799,4.6624524 9.16322649,5.02173081 7.89095546,4.70985719 C7.19218998,4.53853462 6.51982156,4.21235639 5.87654034,3.87902587 C3.9122292,2.86057137 2.08360231,1.62538551 0.283390091,0.349780819 C0.214791362,0.3012117 0.191420717,0.190267858 0.14686517,0.108598553 C0.233286117,0.0736687073 0.320547735,0.00663667063 0.406128012,0.00879899439 C1.43712655,0.0330835536 2.46762068,0.0661837404 3.49828295,0.100281923 C6.20288871,0.189935193 8.90732633,0.280752791 11.6119321,0.372235719 C12.5400325,0.403506248 13.468133,0.437105432 14.3962334,0.472367943 C14.470885,0.475195597 14.5446959,0.497317833 14.67769,0.521269727" id="Fill-25" fill="#B1C4D1" mask="url(#mask-6)"></path>
                    </g>
                    <path d="M16.3304228,31.1513194 C16.9357705,31.1513194 17.5409463,31.1513194 18.146294,31.1514856 C18.1987162,31.1514856 18.2549197,31.1408446 18.3023576,31.1556423 C18.3735143,31.1782544 18.4927963,31.2164955 18.4945151,31.2525752 C18.4982963,31.3249008 18.4570461,31.4266554 18.3979207,31.4698845 C18.1064188,31.6835359 17.8097606,31.8926981 17.5022742,32.0840699 C16.0963275,32.9594588 14.7046465,33.8586237 13.2694808,34.6871257 C12.5240541,35.1174213 11.7224238,35.4832058 10.9041216,35.7625322 C9.79912994,36.1399553 8.68915391,35.9783451 7.63641264,35.4990011 C6.26913805,34.8766686 5.21295925,33.9048456 4.3587349,32.7152145 C4.15024916,32.4249146 3.9570604,32.1244725 3.75321531,31.8308473 C3.65077714,31.6832033 3.69546493,31.6230152 3.86957545,31.6176947 C5.16208392,31.5786222 6.45459239,31.5420438 7.74675711,31.4976508 C9.95794348,31.4216674 12.168958,31.3355418 14.3803162,31.2650451 C15.0296642,31.2444282 15.6802154,31.2618861 16.3302509,31.2618861 C16.3304228,31.2249751 16.3304228,31.1882304 16.3304228,31.1513194" id="Fill-27" fill="#B4C4D0"></path>
                </g>
            </g>
        </g>
    </g>
</svg>