<?xml version="1.0" encoding="UTF-8"?>
<svg width="156px" height="46px" viewBox="0 0 156 46" version="1.1" xmlns="http://www.w3.org/2000/svg" xmlns:xlink="http://www.w3.org/1999/xlink">
    <!-- Generator: Sketch 57.1 (83088) - https://sketch.com -->
    <title>国网电商</title>
    <desc>Created with Sketch.</desc>
    <defs>
        <linearGradient x1="50%" y1="0%" x2="50%" y2="100%" id="linearGradient-1">
            <stop stop-color="#4EBCB6" offset="0%"></stop>
            <stop stop-color="#004848" offset="100%"></stop>
        </linearGradient>
    </defs>
    <g id="页面-1" stroke="none" stroke-width="1" fill="none" fill-rule="evenodd">
        <g id="首页" transform="translate(-982.000000, -3705.000000)">
            <g id="国网电商" transform="translate(982.000000, 3705.000000)">
                <path d="M16.9309908,8.20070771 C20.4802899,8.06177687 24.0300987,7.91507004 27.5804171,7.85078861 C31.4369994,7.78028639 35.2966393,7.85856459 39.1501642,7.7362225 C40.0745617,7.70719218 41.0677539,7.28573406 41.8795319,6.79118172 C43.745653,5.65381504 44.8428018,3.94465463 45.2428305,1.71865073 C45.5093464,0.235512139 45.501193,0.00845352088 44.2547341,0.00741672354 C36.6062874,0.00275113551 28.9578407,-0.0179848113 21.3104132,0.0400758398 C17.7366536,0.293054391 8.04576744,1.96955569 2.31643928,12.4842359 C1.86698029,13.3484065 1.46644201,14.2296842 1.13673683,15.1363635 C0.897229202,15.9264031 -0.309991149,20.2275569 0.0752594144,25.3856236 C0.0783169586,25.4234667 0.0854512283,25.4613098 0.0864704097,25.4986345 C0.087489591,25.5541032 0.0930950887,25.6080167 0.0951334514,25.6629669 C0.150169246,26.3037077 0.233232529,26.9579268 0.343304119,27.6183667 C0.550707531,28.6235417 0.850856449,29.6059072 1.12654501,30.6084902 C1.87819129,33.3430432 3.18834896,35.7976609 4.9821082,37.8417069 C7.21819216,40.3880812 9.70091801,42.7099888 12.9745286,44.0433102 C15.5423561,45.0878835 18.0648301,45.9473885 20.8675789,45.9867868 C24.0560878,46.0313691 27.2323666,46.0282587 30.2527107,44.8722297 C33.2108846,43.7405654 35.6472377,41.7084426 38.0489387,39.7001661 C39.1730957,38.7597909 40.1301071,37.5534772 40.9653262,36.329538 C41.1671241,36.0324955 41.3566919,35.7302691 41.5447308,35.4275243 C45.0609066,29.6354559 45.0094379,23.2026468 44.4804828,19.2011275 C44.2058134,17.8978732 43.922481,16.5966926 43.6804254,15.2882543 C43.5346825,14.5023619 43.1749114,14.1996171 42.4247939,14.2001355 C35.6844379,14.2079115 28.9445913,14.2063563 22.2042353,14.2027275 C21.4663479,14.2022091 20.8033704,14.3914246 20.7748334,15.2498928 C20.7177592,16.9953412 20.7580169,18.7438999 20.7580169,20.5805864 C21.3929669,20.6090983 21.8480314,20.646423 22.3030958,20.6479782 C23.4506941,20.651607 24.5982923,20.649015 25.7464002,20.6479782 L25.7494577,20.6479782 L28.9578407,20.6479782 C30.6471339,20.6479782 32.0158945,22.040397 32.0158945,23.7588886 C32.0158945,25.3918444 30.7780987,26.7282762 29.2044826,26.8563207 L22.2985095,26.8563207 C21.7802558,26.8563207 21.2574157,26.8558023 20.7223455,26.8558023 C20.7223455,28.4929053 20.7203072,29.9496055 20.7228551,31.4063058 C20.7264222,32.9739434 21.0153602,33.2704674 22.5466802,33.272541 C25.4289252,33.2761698 28.3116797,33.2632098 31.1939247,33.2818722 C31.2861606,33.282909 31.3768677,33.2891298 31.4660461,33.3000161 C32.9632236,33.3560032 34.1612713,34.6058624 34.1612713,36.142396 C34.1612713,37.715736 32.9076782,38.9904783 31.36158,38.9904783 L31.1862808,38.9904783 C31.1679355,38.9909967 31.1490807,38.9941071 31.1307354,38.9941071 C26.467471,38.9992911 21.8042066,38.9531536 17.1419613,39.0210639 C15.6432551,39.043355 14.1506639,37.4103992 14.1501544,35.9930972 C14.1470968,27.6893873 14.1425105,19.385159 14.159327,11.0814491 C14.1618749,9.55580183 15.4210735,8.25928676 16.9309908,8.20070771" id="Fill-22" fill="url(#linearGradient-1)"></path>
                <path d="M92.1414459,21.2271536 C91.3037593,23.4301482 90.3148956,25.3322235 89.1733017,26.9344014 L87.4994817,24.881611 C88.6664444,23.1297398 89.6299393,21.0769495 90.3910019,18.7738188 C89.3762517,17.4224921 88.3107641,16.0956886 87.2452764,14.8189531 L87.2452764,29.8378378 L84.6328125,29.8378378 L84.6328125,7.45945946 L105.484375,7.45945946 L105.484375,27.0345375 C105.484375,28.7869195 104.596986,29.6631105 102.846542,29.6631105 L100.309667,29.6631105 L99.6500793,27.1346736 L101.984005,27.2598437 C102.567486,27.2598437 102.871911,26.9844694 102.871911,26.4337208 L102.871911,23.6048755 L101.222942,25.2320874 C100.563354,24.081033 99.9037669,22.9545016 99.1934418,21.8530044 C98.2801666,24.055488 97.2151967,25.9330402 95.9969788,27.5352181 L94.3231588,25.4824277 C95.5915964,23.6804885 96.6570841,21.6276981 97.5196217,19.2750103 C96.5048716,17.7974917 95.4393839,16.3710629 94.3485275,14.9691573 L95.97161,13.4170475 C96.7073039,14.2682045 97.5196217,15.2695656 98.3816416,16.4706881 C98.8129105,14.8439871 99.168073,13.1166391 99.4471293,11.2896659 L101.933267,11.7152444 C101.501998,14.4184086 100.918517,16.8962666 100.208192,19.0992612 C101.07073,20.3759967 101.958636,21.7779023 102.871911,23.279944 L102.871911,9.96286236 L87.2452764,9.96286236 L87.2452764,14.5435788 L88.7420329,13.1166391 C89.5030955,13.9177281 90.3148956,14.8690212 91.1774333,15.9705184 C91.5325958,14.4684767 91.8370209,12.8668097 92.0658574,11.2140529 L94.50074,11.6396314 C94.1202087,14.1430343 93.6382024,16.3960969 93.0547211,18.4488873 C93.9172587,19.5999418 94.8051651,20.8766772 95.7179225,22.2785829 L93.9679962,24.00542 C93.3591461,23.0541269 92.750296,22.1283787 92.1414459,21.2271536" id="Fill-3" fill="#0B635B"></path>
                <path d="M126.53377,15.5276352 L121.915323,15.5276352 C123.693548,16.8217366 125.249496,18.0899455 126.53377,19.3084411 L126.53377,15.5276352 Z M116.532258,24.7375561 L121.397177,24.7375561 L121.397177,22.5558639 L116.532258,22.5558639 L116.532258,24.7375561 Z M120.952621,13.1931779 C121.347278,12.4070852 121.693044,11.5945822 122.03881,10.7831148 L115.716734,10.7831148 C116.013105,11.5443509 116.309476,12.3304437 116.605847,13.1931779 L120.952621,13.1931779 Z M116.235383,15.5276352 L117.890121,17.0495895 C116.926915,18.2168182 115.840222,19.2830666 114.605847,20.2214065 L123.619456,20.2214065 C122.606855,19.2064251 121.397177,18.166587 119.964718,17.1008565 L121.545363,15.5276352 L116.235383,15.5276352 Z M111.370464,15.5276352 L111.370464,19.1561939 C113.198085,18.1158379 114.728831,16.8978602 115.96371,15.5276352 L111.370464,15.5276352 Z M112.802923,21.4901333 L111.370464,19.587561 L111.370464,29.7870888 L108.876512,29.7870888 L108.876512,13.1931779 L113.96371,13.1931779 C113.642641,12.3304437 113.296371,11.5443509 112.901714,10.7831148 L107.9375,10.7831148 L107.9375,8.24566125 L117.519657,8.24566125 C117.322077,7.68742146 117.099798,7.1545562 116.87752,6.67244002 L119.693044,6.21621622 C119.94002,6.82468723 120.161794,7.51031755 120.359879,8.24566125 L130.015625,8.24566125 L130.015625,10.7831148 L124.854335,10.7831148 C124.508065,11.6458491 124.138105,12.4573164 123.742944,13.1931779 L129.027722,13.1931779 L129.027722,26.767519 C129.027722,28.7974819 128.163306,29.8378378 126.483871,29.8378378 L123.965222,29.8378378 L123.323085,27.4526315 L125.694052,27.5546474 C126.236895,27.5546474 126.53377,27.097388 126.53377,26.2092792 L126.53377,19.6129355 L124.730847,21.4393843 C124.459173,21.1095153 124.1875,20.8050209 123.891129,20.5010443 L123.891129,27.0720134 L114.037802,27.0720134 L114.037802,20.6527737 C113.617944,20.9572681 113.198085,21.236388 112.802923,21.4901333 L112.802923,21.4901333 Z" id="Fill-4" fill="#0B635B"></path>
                <path d="M141.77063,23.6566942 L143.329358,23.6566942 C143.77471,23.605394 144.046869,23.220643 144.170577,22.5542646 C144.269544,21.8611892 144.343769,20.2201081 144.368511,17.655101 L142.512881,17.655101 C142.463398,19.8604836 142.215981,21.8611892 141.77063,23.6566942 L141.77063,23.6566942 Z M139.099028,29.8121878 L137.218657,28.0679829 C139.024803,25.5029758 139.964988,21.9124893 140.06345,17.3473001 L140.06345,9.9862532 L147.188563,9.9862532 C147.139584,8.83252347 147.139584,7.62644666 147.139584,6.37011664 L149.514285,6.37011664 L149.563769,9.9862532 L152.235875,9.9862532 C151.741041,8.85765007 151.196723,7.8572973 150.602921,7.01084495 L152.483293,6.21621622 C153.101331,7.13909531 153.646154,8.13944808 154.091,9.21675107 L152.384326,9.9862532 L154.882735,9.9862532 L154.882735,12.42301 L149.662736,12.42301 C149.811186,15.4491949 150.033862,17.7571778 150.330762,19.3987824 C150.355504,19.5788563 150.380246,19.7584068 150.429224,19.9123073 C151.122498,18.2450526 151.691052,16.3982475 152.111662,14.3980654 L154.190472,15.2952945 C153.447715,18.4502532 152.458551,21.1173371 151.246206,23.3232432 C151.443635,23.964495 151.642074,24.5031465 151.864245,24.9130242 C152.408563,26.0421508 152.780193,26.6064523 153.027106,26.6064523 C153.225545,26.6064523 153.422973,25.5029758 153.646154,23.2975932 L155.773438,24.5287966 C155.253861,28.0679829 154.487373,29.8378378 153.472962,29.8378378 C152.581755,29.8378378 151.642074,29.0683357 150.677147,27.5293314 C150.330762,26.9906799 150.008615,26.3750782 149.712219,25.6825263 C148.376166,27.4267312 146.867425,28.7605349 145.184988,29.7352376 L143.651001,27.6581053 C145.704564,26.5808023 147.411239,24.9904979 148.796775,22.9384922 C148.574605,22.14334 148.376166,21.2968876 148.178232,20.3740085 C147.733386,18.2707027 147.436485,15.6287454 147.288035,12.42301 L142.538128,12.42301 L142.538128,15.4235448 L146.668987,15.4235448 C146.668987,20.2452347 146.446816,23.1693428 146.050948,24.2209957 C145.654576,25.2469986 144.961808,25.7851266 143.92316,25.8369502 L142.265464,25.8369502 L141.696909,23.9131949 C141.103108,26.1704011 140.237147,28.1449331 139.099028,29.8121878 L139.099028,29.8121878 Z M134.719742,12.6789872 L134.719742,6.47271693 L137.243398,6.47271693 L137.243398,12.6789872 L139.148511,12.6789872 L139.148511,15.1926942 L137.243398,15.1926942 L137.243398,21.9124893 C137.8372,21.6046885 138.381518,21.2712376 138.925836,20.91266 L138.925836,23.5027937 C137.094948,24.6308734 135.165093,25.5804495 133.112035,26.3750782 L132.46875,23.8105946 C133.211002,23.605394 133.97749,23.3745434 134.719742,23.0923926 L134.719742,15.1926942 L132.790392,15.1926942 L132.790392,12.6789872 L134.719742,12.6789872 Z" id="Fill-5" fill="#0B635B"></path>
                <polygon id="Fill-6" fill="#0B635B" points="64.9903861 34.8108108 65.9788944 39.404151 66.9578103 34.8108108 67.965024 34.8108108 68.9434602 39.404151 69.9319685 34.8108108 71.140625 34.8108108 69.471528 41.027027 68.4542421 41.027027 67.4657338 36.481772 66.4681125 41.027027 65.4513063 41.027027 63.78125 34.8108108"></polygon>
                <polygon id="Fill-7" fill="#0B635B" points="72.3497611 34.8108108 73.3382694 39.404151 74.3171853 34.8108108 75.324399 34.8108108 76.3028352 39.404151 77.2913435 34.8108108 78.5 34.8108108 76.830903 41.027027 75.8136171 41.027027 74.8251088 36.481772 73.8274875 41.027027 72.8106813 41.027027 71.140625 34.8108108"></polygon>
                <polygon id="Fill-8" fill="#0B635B" points="79.7091361 34.8108108 80.6976444 39.404151 81.6765603 34.8108108 82.683774 34.8108108 83.6622102 39.404151 84.6507185 34.8108108 85.859375 34.8108108 84.190278 41.027027 83.1729921 41.027027 82.1844838 36.481772 81.1868625 41.027027 80.1700563 41.027027 78.5 34.8108108"></polygon>
                <path d="M88.1324792,38.7226137 C88.2500199,38.8413571 88.3125,38.9917654 88.3125,39.1659224 C88.3125,39.3404751 88.2500199,39.4829672 88.1324792,39.609231 C88.0079095,39.720454 87.8669388,39.7837838 87.6951185,39.7837838 C87.5232982,39.7837838 87.374908,39.720454 87.2655678,39.609231 C87.1406076,39.4829672 87.0859375,39.3404751 87.0859375,39.1659224 C87.0859375,38.9917654 87.1406076,38.8413571 87.2655678,38.7226137 C87.374908,38.5959541 87.5232982,38.5405405 87.6951185,38.5405405 C87.8669388,38.5405405 88.0079095,38.5959541 88.1324792,38.7226137" id="Fill-9" fill="#0B635B"></path>
                <path d="M91.5226563,36.2362869 C91.2686596,36.4763371 91.0993284,36.8298552 91.0146628,37.2968411 L94.2319552,37.2968411 C94.1116091,36.3394914 93.5673303,35.871365 92.5991188,35.871365 C92.1401104,35.871365 91.7887482,35.9859733 91.5226563,36.2362869 M94.9219798,35.7915384 C95.4178782,36.3851066 95.671875,37.2175847 95.671875,38.2781389 L90.9904726,38.2781389 C91.038853,38.8255217 91.1960891,39.2474627 91.4621809,39.5325579 C91.7282728,39.8176531 92.1153155,39.9664728 92.6118187,39.9664728 C93.0351466,39.9664728 93.373809,39.8752423 93.6399008,39.6927814 C93.8455173,39.5445319 94.0269435,39.3050519 94.1962747,38.9743414 L95.5751143,38.9743414 C95.4299733,39.5217243 95.1396913,39.9892804 94.7042683,40.3542023 C94.1478944,40.7989508 93.4578698,41.027027 92.623309,41.027027 C91.6919875,41.027027 90.9541874,40.7533356 90.4093038,40.2167864 C89.8287398,39.65857 89.5390625,38.8939446 89.5390625,37.913217 C89.5390625,37.0345535 89.8045496,36.3047098 90.3609235,35.7117117 C90.8937119,35.1073098 91.6315121,34.8108108 92.5634383,34.8108108 C93.5915205,34.8108108 94.377701,35.1301175 94.9219798,35.7915384" id="Fill-10" fill="#0B635B"></path>
                <path d="M100.398795,36.6810355 L99.2273503,36.6810355 C99.1429598,36.3845364 99.0163742,36.1678641 98.8475933,36.053826 C98.6682635,35.9283841 98.3939946,35.871365 98.0247863,35.871365 C97.7077947,35.871365 97.4651721,35.9169803 97.3074675,36.0196146 C97.1170615,36.122819 97.0326711,36.2819022 97.0326711,36.5099783 C97.0326711,36.6930095 97.1698056,36.8634964 97.4651721,37.0009123 C97.6445019,37.0801688 98.0036887,37.1942069 98.5522267,37.3424564 C99.1640575,37.5021097 99.628205,37.6851408 99.924099,37.9018132 C100.3566,38.1983122 100.578125,38.6202532 100.578125,39.1448284 C100.578125,40.3992473 99.7547906,41.027027 98.1197256,41.027027 C96.60017,41.027027 95.7879119,40.3308245 95.671875,38.9509636 L96.8427925,38.9509636 C96.9060854,39.3278595 97.0326711,39.5901471 97.2120008,39.7498004 C97.3913305,39.8860759 97.6766757,39.9664728 98.0775304,39.9664728 C98.9214349,39.9664728 99.3433872,39.7150188 99.3433872,39.2360588 C99.3433872,38.9623674 99.1851551,38.7456951 98.8686909,38.5860417 C98.69991,38.4948113 98.3412505,38.392177 97.7927126,38.2553313 C97.1487079,38.0951078 96.6956367,37.9246208 96.4313891,37.7415897 C96.0094368,37.4564945 95.7979332,37.0573612 95.7979332,36.5441898 C95.7979332,35.9968069 95.998888,35.574866 96.4208403,35.278367 C96.8322437,34.9584901 97.3707603,34.8108108 98.0458839,34.8108108 C99.4805217,34.8108108 100.27221,35.4266165 100.398795,36.6810355" id="Fill-11" fill="#0B635B"></path>
                <path d="M102.447341,36.1859651 C102.154837,36.4770562 102.007669,36.8885988 102.007669,37.4306304 C102.007669,37.9229758 102.117587,38.3044055 102.350247,38.5854589 C102.618325,38.9167005 103.045784,39.08734 103.656439,39.08734 C104.194426,39.08734 104.609672,38.9367757 104.902787,38.6557223 C105.183688,38.3545936 105.330856,37.9530887 105.330856,37.4306304 C105.330856,36.8991383 105.183688,36.4875957 104.902787,36.1859651 C104.609672,35.8848365 104.194426,35.7342721 103.669263,35.7342721 C103.144099,35.7342721 102.740456,35.8848365 102.447341,36.1859651 M105.318032,35.5837078 L105.318032,34.9513375 L106.710938,34.9513375 L106.710938,39.8105508 C106.710938,41.4466833 105.721065,42.2702703 103.742541,42.2702703 C102.850374,42.2702703 102.179264,42.1297435 101.714555,41.8682635 C101.250457,41.5877119 100.957342,41.1656299 100.835211,40.5834477 L102.228116,40.5834477 C102.301395,40.8745388 102.447341,41.0752913 102.680001,41.1957427 C102.899226,41.3061566 103.253406,41.3663823 103.742541,41.3663823 C104.792869,41.3663823 105.318032,40.9046517 105.318032,39.9811904 L105.318032,39.2178291 C104.853934,39.750325 104.231066,40.0213409 103.449427,40.0213409 C102.593899,40.0213409 101.898362,39.7804379 101.372588,39.3182054 C100.835211,38.846939 100.578125,38.2140669 100.578125,37.4306304 C100.578125,36.6476958 100.835211,36.0153256 101.372588,35.5335197 C101.898362,35.0512119 102.593899,34.8108108 103.449427,34.8108108 C104.231066,34.8108108 104.853934,35.0617514 105.318032,35.5837078" id="Fill-12" fill="#0B635B"></path>
                <path d="M111.857205,35.3239822 C112.369209,35.6889041 112.693895,36.2362869 112.818774,36.9775345 L111.407016,36.9775345 C111.320225,36.6012088 111.14477,36.3275174 110.895636,36.1444863 C110.632766,35.9625955 110.283104,35.871365 109.858515,35.871365 C109.334023,35.871365 108.921922,36.0424222 108.621588,36.4073441 C108.322502,36.7614323 108.172647,37.2626297 108.172647,37.9018132 C108.172647,38.5518303 108.30939,39.0650017 108.609724,39.4299236 C108.884458,39.7834417 109.296559,39.9664728 109.846027,39.9664728 C110.795733,39.9664728 111.320225,39.5325579 111.431992,38.6772722 L112.84375,38.6772722 C112.693895,39.4755388 112.356722,40.0685369 111.844093,40.4568366 C111.345201,40.8331623 110.670854,41.027027 109.833539,41.027027 C108.834507,41.027027 108.060256,40.7299578 107.510164,40.1369597 C106.973808,39.5667693 106.710938,38.8255217 106.710938,37.913217 C106.710938,37.0231497 106.973808,36.293306 107.4983,35.7345193 C108.060256,35.1187137 108.846994,34.8108108 109.858515,34.8108108 C110.69583,34.8108108 111.357689,34.9812978 111.857205,35.3239822" id="Fill-13" fill="#0B635B"></path>
                <path d="M117.990018,35.3239822 C118.502022,35.6889041 118.826708,36.2362869 118.951587,36.9775345 L117.540453,36.9775345 C117.453038,36.6012088 117.277582,36.3275174 117.028449,36.1444863 C116.765578,35.9625955 116.415917,35.871365 115.991328,35.871365 C115.466835,35.871365 115.054734,36.0424222 114.7544,36.4073441 C114.455315,36.7614323 114.30546,37.2626297 114.30546,37.9018132 C114.30546,38.5518303 114.442202,39.0650017 114.742537,39.4299236 C115.017271,39.7834417 115.429372,39.9664728 115.97884,39.9664728 C116.928545,39.9664728 117.453038,39.5325579 117.564804,38.6772722 L118.976562,38.6772722 C118.826708,39.4755388 118.489534,40.0685369 117.976905,40.4568366 C117.478013,40.8331623 116.803666,41.027027 115.966352,41.027027 C114.967319,41.027027 114.193069,40.7299578 113.642976,40.1369597 C113.106621,39.5667693 112.84375,38.8255217 112.84375,37.913217 C112.84375,37.0231497 113.106621,36.293306 113.631113,35.7345193 C114.193069,35.1187137 114.979807,34.8108108 115.991328,34.8108108 C116.828642,34.8108108 117.490501,34.9812978 117.990018,35.3239822" id="Fill-14" fill="#0B635B"></path>
                <path d="M120.023104,38.7226137 C120.140645,38.8413571 120.203125,38.9917654 120.203125,39.1659224 C120.203125,39.3404751 120.140645,39.4829672 120.023104,39.609231 C119.898535,39.720454 119.757564,39.7837838 119.585743,39.7837838 C119.413923,39.7837838 119.265923,39.720454 119.156193,39.609231 C119.031233,39.4829672 118.976563,39.3404751 118.976563,39.1659224 C118.976563,38.9917654 119.031233,38.8413571 119.156193,38.7226137 C119.265923,38.5959541 119.413923,38.5405405 119.585743,38.5405405 C119.757564,38.5405405 119.898535,38.5959541 120.023104,38.7226137" id="Fill-15" fill="#0B635B"></path>
                <path d="M126.575955,35.3239822 C127.087959,35.6889041 127.412645,36.2362869 127.537524,36.9775345 L126.125766,36.9775345 C126.038975,36.6012088 125.86352,36.3275174 125.614386,36.1444863 C125.351516,35.9625955 125.001854,35.871365 124.577265,35.871365 C124.052773,35.871365 123.640672,36.0424222 123.340338,36.4073441 C123.041252,36.7614323 122.891397,37.2626297 122.891397,37.9018132 C122.891397,38.5518303 123.02814,39.0650017 123.328474,39.4299236 C123.603208,39.7834417 124.015309,39.9664728 124.564777,39.9664728 C125.514483,39.9664728 126.038975,39.5325579 126.150742,38.6772722 L127.5625,38.6772722 C127.412645,39.4755388 127.075472,40.0685369 126.562843,40.4568366 C126.063951,40.8331623 125.389604,41.027027 124.552289,41.027027 C123.553257,41.027027 122.779006,40.7299578 122.228914,40.1369597 C121.692558,39.5667693 121.429688,38.8255217 121.429688,37.913217 C121.429688,37.0231497 121.692558,36.293306 122.21705,35.7345193 C122.779006,35.1187137 123.565744,34.8108108 124.577265,34.8108108 C125.41458,34.8108108 126.076439,34.9812978 126.575955,35.3239822" id="Fill-16" fill="#0B635B"></path>
                <path d="M130.105267,36.5099783 C129.845852,36.8749002 129.716145,37.3538602 129.716145,37.9240506 C129.716145,38.4942411 129.845852,38.9623674 130.105267,39.3272893 C130.412439,39.7498004 130.836347,39.9664728 131.402344,39.9664728 C131.957139,39.9664728 132.393428,39.7498004 132.70001,39.3272893 C132.959425,38.9509636 133.100924,38.4834075 133.100924,37.9240506 C133.100924,37.3538602 132.959425,36.8749002 132.70001,36.5099783 C132.393428,36.0766336 131.957139,35.871365 131.402344,35.871365 C130.836347,35.871365 130.412439,36.0766336 130.105267,36.5099783 M133.631546,35.6889041 C134.186341,36.2704983 134.46875,37.0117459 134.46875,37.9240506 C134.46875,38.8255217 134.186341,39.5667693 133.643338,40.1369597 C133.077341,40.7299578 132.322678,41.027027 131.402344,41.027027 C130.470807,41.027027 129.727936,40.7299578 129.16135,40.1369597 C128.607734,39.5667693 128.335938,38.8255217 128.335938,37.9240506 C128.335938,37.0117459 128.607734,36.2704983 129.173731,35.6889041 C129.727936,35.095906 130.470807,34.8108108 131.402344,34.8108108 C132.322678,34.8108108 133.065549,35.095906 133.631546,35.6889041" id="Fill-17" fill="#0B635B"></path>
                <path d="M140.601563,37.2921474 L140.601563,41.027027 L139.388566,41.027027 L139.388566,37.4091915 C139.388566,36.414316 138.973062,35.9227305 138.143117,35.9227305 C137.845188,35.9227305 137.579181,36.0397747 137.355734,36.273863 C137.100366,36.5313602 136.951402,36.9059016 136.908841,37.3857827 L136.908841,41.027027 L135.695312,41.027027 L135.695312,34.9746727 L136.908841,34.9746727 L136.908841,35.6769377 C137.121647,35.3960317 137.366374,35.1736478 137.632382,35.0331947 C137.90903,34.8810373 138.206959,34.8108108 138.536809,34.8108108 C139.909942,34.8108108 140.601563,35.63012 140.601563,37.2921474" id="Fill-18" fill="#0B635B"></path>
                <path d="M142.874667,38.7226137 C142.992207,38.8413571 143.054687,38.9917654 143.054687,39.1659224 C143.054687,39.3404751 142.992207,39.4829672 142.874667,39.609231 C142.750097,39.720454 142.609126,39.7837838 142.437306,39.7837838 C142.265486,39.7837838 142.117095,39.720454 142.007755,39.609231 C141.882795,39.4829672 141.828125,39.3404751 141.828125,39.1659224 C141.828125,38.9917654 141.882795,38.8413571 142.007755,38.7226137 C142.117095,38.5959541 142.265486,38.5405405 142.437306,38.5405405 C142.609126,38.5405405 142.750097,38.5959541 142.874667,38.7226137" id="Fill-19" fill="#00655B"></path>
                <path d="M148.200955,35.3239822 C148.712959,35.6889041 149.037645,36.2362869 149.162524,36.9775345 L147.75139,36.9775345 C147.663975,36.6012088 147.48852,36.3275174 147.239386,36.1444863 C146.976516,35.9625955 146.626854,35.871365 146.202265,35.871365 C145.677773,35.871365 145.265672,36.0424222 144.965338,36.4073441 C144.666252,36.7614323 144.516397,37.2626297 144.516397,37.9018132 C144.516397,38.5518303 144.65314,39.0650017 144.953474,39.4299236 C145.228208,39.7834417 145.640309,39.9664728 146.189777,39.9664728 C147.139483,39.9664728 147.663975,39.5325579 147.775742,38.6772722 L149.1875,38.6772722 C149.037645,39.4755388 148.700472,40.0685369 148.187843,40.4568366 C147.688951,40.8331623 147.014604,41.027027 146.177289,41.027027 C145.178257,41.027027 144.404006,40.7299578 143.853914,40.1369597 C143.317558,39.5667693 143.054687,38.8255217 143.054687,37.913217 C143.054687,37.0231497 143.317558,36.293306 143.84205,35.7345193 C144.404006,35.1187137 145.190744,34.8108108 146.202265,34.8108108 C147.03958,34.8108108 147.701439,34.9812978 148.200955,35.3239822" id="Fill-20" fill="#00655B"></path>
                <path d="M155.320313,37.2921474 L155.320313,41.027027 L154.107316,41.027027 L154.107316,37.4091915 C154.107316,36.414316 153.691812,35.9227305 152.861867,35.9227305 C152.563938,35.9227305 152.297931,36.0397747 152.074484,36.273863 C151.819116,36.5313602 151.670152,36.9059016 151.627591,37.3857827 L151.627591,41.027027 L150.414062,41.027027 L150.414062,34.9746727 L151.627591,34.9746727 L151.627591,35.6769377 C151.840397,35.3960317 152.085124,35.1736478 152.351132,35.0331947 C152.62778,34.8810373 152.925709,34.8108108 153.255559,34.8108108 C154.628692,34.8108108 155.320313,35.63012 155.320313,37.2921474" id="Fill-21" fill="#00655B"></path>
                <path d="M63.3,11.325 L75.675,11.325 L75.675,13.675 L70.825,13.675 L70.825,16.525 L74.9,16.525 L74.9,18.825 L70.825,18.825 L70.825,22.1 L73.1,22.1 C72.7,21.175 72.25,20.375 71.75,19.675 L73.825,19 C74.375,19.775 74.875,20.625 75.275,21.55 L74.05,22.1 L76.4,22.1 L76.4,24.45 L62.625,24.45 L62.625,22.1 L68.175,22.1 L68.175,18.825 L64.1,18.825 L64.1,16.525 L68.175,16.525 L68.175,13.675 L63.3,13.675 L63.3,11.325 Z M80.1,7.35 L80.1,29.575 L77.45,29.575 L77.45,28.65 L61.55,28.65 L61.55,29.575 L58.9,29.575 L58.9,7.35 L80.1,7.35 Z M61.55,26.2 L77.45,26.2 L77.45,9.8 L61.55,9.8 L61.55,26.2 Z" id="国" fill="#00655B" fill-rule="nonzero"></path>
            </g>
        </g>
    </g>
</svg>