<?xml version="1.0" encoding="UTF-8"?>
<svg width="196px" height="53px" viewBox="0 0 196 53" version="1.1" xmlns="http://www.w3.org/2000/svg" xmlns:xlink="http://www.w3.org/1999/xlink">
    <!-- Generator: Sketch 57.1 (83088) - https://sketch.com -->
    <title>国盾通付商城</title>
    <desc>Created with Sketch.</desc>
    <g id="页面-1" stroke="none" stroke-width="1" fill="none" fill-rule="evenodd">
        <g id="首页" transform="translate(-1051.000000, -2291.000000)">
            <g id="国盾通付商城" transform="translate(1045.000000, 2291.000000)">
                <path d="M12.6264217,9.41365362 C18.9474802,14.7672356 28.2627243,16.2729305 40.572154,13.9307384 C47.1098512,12.6867699 51.7706536,10.3573858 54.5545611,6.94258608 C47.5617674,7.58616783 42.0692468,7.23876096 38.0769993,5.90036547 C35.5746698,5.06146293 38.3929109,5.44863706 40.073123,5.39846716 C40.7400691,5.37855264 41.4054437,5.21125321 42.0692468,4.89656885 C33.7520645,-1.79540858 25.4348823,-1.62810914 17.1177001,5.39846716 C15.4833447,6.77921403 14.6225454,7.40606039 13.0046789,8.88178388 C12.5847008,9.26486342 12.4586151,9.44215333 12.6264217,9.41365362 Z" id="路径" fill="#B4C4D0"></path>
                <path d="M-2.9279998,30.3780488 C3.40533354,35.7113821 12.7386669,37.2113821 25.0720002,34.8780488 C31.622393,33.6387853 36.2922461,31.3182115 39.0815597,27.9163274 C32.0751867,28.557475 26.5720002,28.2113821 22.5720002,26.8780488 C20.0648114,26.0423192 22.8885252,26.4280289 24.5720002,26.3780488 C25.2402414,26.3582096 25.9069081,26.1915429 26.5720002,25.8780488 C18.2386669,19.2113821 9.90533354,19.3780488 1.5720002,26.3780488 C-0.0655289973,27.7535733 -0.927999798,28.3780488 -2.54900804,29.8481907 C-2.9698017,30.2298213 -3.09613229,30.4064407 -2.9279998,30.3780488 Z" id="路径备份-3" fill="#B4C4D0" transform="translate(18.040780, 28.471633) rotate(-122.000000) translate(-18.040780, -28.471633) "></path>
                <path d="M23.8601033,35.0229768 C30.1934366,40.3563101 39.5267699,41.8563101 51.8601033,39.5229768 C58.4104961,38.2837133 63.0803492,35.9631395 65.8696628,32.5612554 C58.8632898,33.202403 53.3601033,32.8563101 49.3601033,31.5229768 C46.8529145,30.6872472 49.6766283,31.0729569 51.3601033,31.0229768 C52.0283445,31.0031376 52.6950112,30.8364709 53.3601033,30.5229768 C45.0267699,23.8563101 36.6934366,24.0229768 28.3601033,31.0229768 C26.7225741,32.3985013 25.8601033,33.0229768 24.239095,34.4931187 C23.8183014,34.8747493 23.6919708,35.0513687 23.8601033,35.0229768 Z" id="路径备份-4" fill="#B4C4D0" transform="translate(44.828883, 33.116561) rotate(-245.000000) translate(-44.828883, -33.116561) "></path>
                <path d="M72.5945611,16.76 L82.4945611,16.76 L82.4945611,18.06 L78.2945611,18.06 L78.2945611,20.94 L81.8745611,20.94 L81.8745611,22.22 L78.2945611,22.22 L78.2945611,25.4 L83.0745611,25.4 L83.0745611,26.72 L72.0545611,26.72 L72.0545611,25.4 L76.8145611,25.4 L76.8145611,22.22 L73.2345611,22.22 L73.2345611,20.94 L76.8145611,20.94 L76.8145611,18.06 L72.5945611,18.06 L72.5945611,16.76 Z M85.7745611,13.58 L85.7745611,30.96 L84.3145611,30.96 L84.3145611,30.1 L70.7945611,30.1 L70.7945611,30.96 L69.3345611,30.96 L69.3345611,13.58 L85.7745611,13.58 Z M70.7945611,28.74 L84.3145611,28.74 L84.3145611,14.94 L70.7945611,14.94 L70.7945611,28.74 Z M80.6545611,22.64 C81.1545611,23.32 81.5945611,24.06 81.9545611,24.84 L80.8345611,25.36 C80.4345611,24.46 79.9945611,23.68 79.5145611,23.02 L80.6545611,22.64 Z M108.074561,12.82 L108.774561,14.08 C106.954561,14.36 105.074561,14.6 103.114561,14.76 L103.194561,14.78 C103.154561,15.5 103.094561,16.22 103.034561,16.9 L109.594561,16.9 L109.594561,18.18 L102.914561,18.18 C102.854561,18.82 102.774561,19.42 102.694561,20 L107.954561,20 L107.954561,30.9 L106.594561,30.9 L106.594561,29.86 L97.9745611,29.86 L97.9745611,30.9 L96.6145611,30.9 L96.6145611,20 L101.334561,20 C101.414561,19.4 101.494561,18.78 101.554561,18.18 L95.0145611,18.18 L95.0145611,21.96 C94.9145611,25.7 94.0545611,28.68 92.4145611,30.9 L91.3945611,29.84 C92.7545611,27.92 93.4945611,25.3 93.6145611,21.96 L93.6145611,13.96 C98.9745611,13.9 103.794561,13.52 108.074561,12.82 Z M101.654561,16.9 C101.694561,16.22 101.754561,15.54 101.794561,14.88 C99.6345611,15.04 97.3745611,15.12 95.0145611,15.16 L95.0145611,16.9 L101.654561,16.9 Z M97.9745611,28.62 L106.594561,28.62 L106.594561,26.82 L97.9745611,26.82 L97.9745611,28.62 Z M97.9745611,25.72 L106.594561,25.72 L106.594561,24.04 L97.9745611,24.04 L97.9745611,25.72 Z M97.9745611,22.92 L106.594561,22.92 L106.594561,21.24 L97.9745611,21.24 L97.9745611,22.92 Z M116.074561,12.98 C117.454561,14.02 118.614561,15.06 119.554561,16.1 L118.534561,17.1 C117.694561,16.1 116.554561,15.04 115.094561,13.92 L116.074561,12.98 Z M127.774561,30.64 C126.674561,30.64 125.474561,30.62 124.194561,30.6 C122.894561,30.58 121.834561,30.46 121.034561,30.24 C120.234561,30 119.514561,29.5 118.894561,28.78 C118.614561,28.44 118.354561,28.28 118.114561,28.28 C117.634561,28.28 116.834561,29.2 115.734561,31.04 L114.654561,30.06 C115.714561,28.38 116.654561,27.36 117.474561,27 L117.474561,20.92 L114.634561,20.92 L114.634561,19.6 L118.814561,19.6 L118.814561,27.08 C118.974561,27.2 119.134561,27.34 119.314561,27.54 C119.794561,28.12 120.314561,28.54 120.874561,28.8 C121.514561,29.08 122.414561,29.24 123.614561,29.28 C124.674561,29.3 125.994561,29.32 127.574561,29.32 C128.494561,29.32 129.454561,29.3 130.434561,29.28 C131.394561,29.26 132.134561,29.24 132.654561,29.2 L132.314561,30.64 L127.774561,30.64 Z M124.194561,14.9 C125.034561,15.4 125.814561,15.9 126.494561,16.4 C127.534561,15.86 128.494561,15.26 129.374561,14.58 L120.494561,14.58 L120.494561,13.36 L131.314561,13.36 L131.314561,14.4 C130.114561,15.44 128.814561,16.34 127.414561,17.1 L127.734561,17.36 L131.694561,17.36 L131.694561,26.3 C131.694561,27.32 131.134561,27.84 130.014561,27.84 L128.354561,27.84 L128.034561,26.62 L129.614561,26.68 C130.094561,26.68 130.334561,26.44 130.334561,26 L130.334561,24.5 L126.974561,24.5 L126.974561,27.94 L125.634561,27.94 L125.634561,24.5 L122.294561,24.5 L122.294561,28 L120.934561,28 L120.934561,17.36 L125.934561,17.36 C125.174561,16.82 124.294561,16.28 123.314561,15.76 L124.194561,14.9 Z M122.294561,21.56 L122.294561,23.32 L125.634561,23.32 L125.634561,21.56 L122.294561,21.56 Z M126.974561,21.56 L126.974561,23.32 L130.334561,23.32 L130.334561,21.56 L126.974561,21.56 Z M130.334561,20.36 L130.334561,18.56 L126.974561,18.56 L126.974561,20.36 L130.334561,20.36 Z M125.634561,20.36 L125.634561,18.56 L122.294561,18.56 L122.294561,20.36 L125.634561,20.36 Z M141.854561,12.48 L143.194561,13.12 C142.754561,14.52 142.194561,15.82 141.554561,17.06 L141.554561,31.04 L140.114561,31.04 L140.114561,19.44 C139.394561,20.5 138.574561,21.5 137.674561,22.46 L137.234561,20.96 C139.354561,18.5 140.894561,15.68 141.854561,12.48 Z M143.614561,17 L151.274561,17 L151.274561,12.7 L152.714561,12.7 L152.714561,17 L155.594561,17 L155.594561,18.4 L152.714561,18.4 L152.714561,28.84 C152.714561,30.2 152.074561,30.88 150.834561,30.88 L147.934561,30.88 L147.614561,29.46 C148.554561,29.52 149.454561,29.56 150.334561,29.56 C150.954561,29.56 151.274561,29.2 151.274561,28.48 L151.274561,18.4 L143.614561,18.4 L143.614561,17 Z M145.454561,20.58 C146.974561,22.38 148.154561,23.96 148.974561,25.3 L147.754561,26.16 C146.894561,24.7 145.734561,23.08 144.274561,21.3 L145.454561,20.58 Z M165.834561,23.64 L173.254561,23.64 L173.254561,28.56 L165.834561,28.56 L165.834561,23.64 Z M171.874561,27.28 L171.874561,24.94 L167.214561,24.94 L167.214561,27.28 L171.874561,27.28 Z M171.494561,19.74 C173.134561,20.9 174.514561,22.04 175.634561,23.18 L174.554561,24.24 C173.574561,23.12 172.234561,21.92 170.514561,20.66 L171.494561,19.74 Z M169.674561,12.46 C169.914561,13.02 170.154561,13.62 170.374561,14.3 L178.414561,14.3 L178.414561,15.7 L174.094561,15.7 C173.734561,16.6 173.334561,17.4 172.934561,18.12 L177.374561,18.12 L177.374561,28.92 C177.374561,30.24 176.774561,30.9 175.614561,30.9 L173.574561,30.9 L173.214561,29.58 L175.154561,29.64 C175.714561,29.64 175.994561,29.28 175.994561,28.6 L175.994561,19.4 L163.074561,19.4 L163.074561,30.86 L161.694561,30.86 L161.694561,18.12 L165.914561,18.12 C165.614561,17.26 165.254561,16.46 164.854561,15.7 L160.694561,15.7 L160.694561,14.3 L168.834561,14.3 C168.594561,13.72 168.354561,13.2 168.094561,12.72 L169.674561,12.46 Z M167.414561,18.12 L171.374561,18.12 C171.794561,17.32 172.174561,16.52 172.514561,15.7 L166.454561,15.7 C166.794561,16.42 167.114561,17.24 167.414561,18.12 Z M167.474561,19.76 L168.494561,20.66 C167.354561,22.04 165.934561,23.24 164.254561,24.26 L163.334561,23.06 C164.974561,22.14 166.354561,21.04 167.474561,19.76 Z M183.434561,17.82 L185.234561,17.82 L185.234561,12.76 L186.634561,12.76 L186.634561,17.82 L188.414561,17.82 L188.414561,19.18 L186.634561,19.18 L186.634561,25.26 C187.194561,24.98 187.734561,24.68 188.274561,24.36 L188.274561,25.76 C186.834561,26.6 185.274561,27.32 183.594561,27.88 L183.234561,26.52 C183.914561,26.34 184.594561,26.12 185.234561,25.88 L185.234561,19.18 L183.434561,19.18 L183.434561,17.82 Z M190.894561,21.12 L190.894561,21.16 C190.814561,25.16 189.894561,28.38 188.134561,30.78 L187.074561,29.84 C188.614561,27.76 189.414561,24.88 189.494561,21.16 L189.494561,15.72 L195.294561,15.72 C195.254561,14.76 195.254561,13.74 195.254561,12.68 L196.574561,12.68 C196.574561,13.76 196.594561,14.78 196.634561,15.72 L201.134561,15.72 L201.134561,17.02 L196.674561,17.02 C196.794561,19.5 196.974561,21.48 197.254561,22.92 C197.314561,23.32 197.394561,23.68 197.474561,24.04 C198.214561,22.54 198.794561,20.82 199.234561,18.88 L200.414561,19.38 C199.814561,21.9 198.994561,24.06 197.954561,25.82 C198.154561,26.5 198.394561,27.06 198.634561,27.52 C199.114561,28.46 199.514561,28.94 199.794561,28.94 C200.074561,28.92 200.314561,27.94 200.534561,26.02 L201.734561,26.68 C201.334561,29.36 200.774561,30.7 200.054561,30.7 C199.374561,30.7 198.674561,30.1 197.934561,28.9 C197.614561,28.4 197.334561,27.82 197.074561,27.14 C195.934561,28.7 194.594561,29.88 193.074561,30.7 L192.214561,29.6 C193.954561,28.7 195.414561,27.38 196.574561,25.62 C196.354561,24.94 196.174561,24.2 196.014561,23.4 C195.674561,21.7 195.454561,19.58 195.334561,17.02 L190.894561,17.02 L190.894561,19.9 L194.354561,19.9 C194.354561,23.5 194.194561,25.7 193.914561,26.5 C193.634561,27.26 193.114561,27.66 192.374561,27.7 L191.014561,27.7 L190.654561,26.52 L192.034561,26.52 C192.474561,26.48 192.734561,26.14 192.854561,25.52 C192.974561,24.88 193.034561,23.42 193.054561,21.12 L190.894561,21.12 Z M198.974561,12.52 C199.514561,13.3 199.974561,14.12 200.374561,15 L199.314561,15.46 C198.874561,14.5 198.414561,13.66 197.914561,12.94 L198.974561,12.52 Z" fill="#B9C4CE" fill-rule="nonzero"></path>
                <path d="M71.0229611,36.3024 C71.8417611,36.3024 72.4949611,36.4956 72.9825611,36.9004 C73.4425611,37.2776 73.7277611,37.8204 73.8473611,38.538 L73.0929611,38.538 C72.9917611,38.0412 72.7709611,37.664 72.4305611,37.3972 C72.0717611,37.112 71.6025611,36.974 71.0229611,36.974 C70.3053611,36.974 69.7441611,37.2224 69.3209611,37.7284 C68.8977611,38.2252 68.6953611,38.8968 68.6953611,39.7432 C68.6953611,40.5712 68.8977611,41.2244 69.3025611,41.7028 C69.7349611,42.2088 70.3789611,42.4664 71.2345611,42.4664 C71.5933611,42.4664 71.9337611,42.4112 72.2649611,42.3192 C72.5869611,42.2272 72.8629611,42.0984 73.0929611,41.9512 L73.0929611,40.2768 L71.0321611,40.2768 L71.0321611,39.6236 L73.8381611,39.6236 L73.8381611,42.31 C73.5253611,42.5676 73.1389611,42.7608 72.6881611,42.908 C72.2097611,43.0552 71.7037611,43.1288 71.1609611,43.1288 C70.1213611,43.1288 69.3117611,42.7976 68.7413611,42.1352 C68.2077611,41.5188 67.9409611,40.7184 67.9409611,39.7432 C67.9409611,38.768 68.1985611,37.9676 68.7321611,37.3328 C69.2933611,36.6428 70.0569611,36.3024 71.0229611,36.3024 Z M76.4785611,36.4312 L77.2329611,36.4312 L77.2329611,40.4884 C77.2329611,41.1324 77.3709611,41.62 77.6653611,41.9512 C77.9689611,42.2916 78.4473611,42.4664 79.1005611,42.4664 C79.7445611,42.4664 80.2229611,42.2916 80.5357611,41.9512 C80.8209611,41.62 80.9681611,41.1324 80.9681611,40.4884 L80.9681611,36.4312 L81.7225611,36.4312 L81.7225611,40.4792 C81.7225611,41.3348 81.5017611,41.988 81.0693611,42.4388 C80.6185611,42.8988 79.9653611,43.1288 79.1005611,43.1288 C78.2357611,43.1288 77.5825611,42.8988 77.1409611,42.448 C76.6993611,41.988 76.4785611,41.3348 76.4785611,40.4792 L76.4785611,36.4312 Z M87.2977611,36.3024 C88.2729611,36.3024 89.0549611,36.6244 89.6253611,37.2868 C90.1589611,37.9124 90.4349611,38.722 90.4349611,39.7248 C90.4349611,40.7184 90.1589611,41.5188 89.6253611,42.1444 C89.0549611,42.7976 88.2729611,43.1288 87.2885611,43.1288 C86.3041611,43.1288 85.5313611,42.7976 84.9609611,42.1444 C84.4181611,41.5188 84.1513611,40.7092 84.1513611,39.7248 C84.1513611,38.7312 84.4181611,37.9216 84.9609611,37.296 C85.5313611,36.6336 86.3041611,36.3024 87.2977611,36.3024 Z M87.2977611,36.974 C86.5433611,36.974 85.9453611,37.2316 85.5129611,37.756 C85.1081611,38.2528 84.9057611,38.906 84.9057611,39.7248 C84.9057611,40.5344 85.1081611,41.1876 85.5129611,41.6844 C85.9361611,42.1996 86.5341611,42.4572 87.2885611,42.4572 C88.0429611,42.4572 88.6409611,42.1996 89.0641611,41.7028 C89.4689611,41.206 89.6805611,40.5528 89.6805611,39.7248 C89.6805611,38.8876 89.4689611,38.2252 89.0641611,37.7284 C88.6409611,37.2224 88.0521611,36.974 87.2977611,36.974 Z M92.8637611,36.4312 L95.2189611,36.4312 C96.2585611,36.4312 97.0405611,36.7256 97.5741611,37.3328 C98.0617611,37.8848 98.3101611,38.6852 98.3101611,39.7156 C98.3101611,40.7276 98.0433611,41.528 97.5189611,42.0984 C96.9669611,42.6964 96.1757611,43 95.1453611,43 L92.8637611,43 L92.8637611,36.4312 Z M93.6181611,37.0844 L93.6181611,42.3468 L95.0165611,42.3468 C95.8721611,42.3468 96.5161611,42.1168 96.9485611,41.666 C97.3533611,41.2244 97.5649611,40.5712 97.5649611,39.7156 C97.5649611,38.8324 97.3717611,38.1792 96.9945611,37.756 C96.5897611,37.3052 95.9641611,37.0844 95.0993611,37.0844 L93.6181611,37.0844 Z M100.738961,36.4312 L101.493361,36.4312 L101.493361,40.4884 C101.493361,41.1324 101.631361,41.62 101.925761,41.9512 C102.229361,42.2916 102.707761,42.4664 103.360961,42.4664 C104.004961,42.4664 104.483361,42.2916 104.796161,41.9512 C105.081361,41.62 105.228561,41.1324 105.228561,40.4884 L105.228561,36.4312 L105.982961,36.4312 L105.982961,40.4792 C105.982961,41.3348 105.762161,41.988 105.329761,42.4388 C104.878961,42.8988 104.225761,43.1288 103.360961,43.1288 C102.496161,43.1288 101.842961,42.8988 101.401361,42.448 C100.959761,41.988 100.738961,41.3348 100.738961,40.4792 L100.738961,36.4312 Z M108.687761,36.4312 L109.478961,36.4312 L113.195761,41.7764 L113.223361,41.7764 L113.223361,36.4312 L113.977761,36.4312 L113.977761,43 L113.204961,43 L109.469761,37.5996 L109.442161,37.5996 L109.442161,43 L108.687761,43 L108.687761,36.4312 Z M120.620161,36.4312 L126.002161,36.4312 L126.002161,37.0844 L123.683761,37.0844 L123.683761,43 L122.938561,43 L122.938561,37.0844 L120.620161,37.0844 L120.620161,36.4312 Z M131.071361,36.3024 C132.046561,36.3024 132.828561,36.6244 133.398961,37.2868 C133.932561,37.9124 134.208561,38.722 134.208561,39.7248 C134.208561,40.7184 133.932561,41.5188 133.398961,42.1444 C132.828561,42.7976 132.046561,43.1288 131.062161,43.1288 C130.077761,43.1288 129.304961,42.7976 128.734561,42.1444 C128.191761,41.5188 127.924961,40.7092 127.924961,39.7248 C127.924961,38.7312 128.191761,37.9216 128.734561,37.296 C129.304961,36.6336 130.077761,36.3024 131.071361,36.3024 Z M131.071361,36.974 C130.316961,36.974 129.718961,37.2316 129.286561,37.756 C128.881761,38.2528 128.679361,38.906 128.679361,39.7248 C128.679361,40.5344 128.881761,41.1876 129.286561,41.6844 C129.709761,42.1996 130.307761,42.4572 131.062161,42.4572 C131.816561,42.4572 132.414561,42.1996 132.837761,41.7028 C133.242561,41.206 133.454161,40.5528 133.454161,39.7248 C133.454161,38.8876 133.242561,38.2252 132.837761,37.7284 C132.414561,37.2224 131.825761,36.974 131.071361,36.974 Z M136.637361,36.4312 L137.428561,36.4312 L141.145361,41.7764 L141.172961,41.7764 L141.172961,36.4312 L141.927361,36.4312 L141.927361,43 L141.154561,43 L137.419361,37.5996 L137.391761,37.5996 L137.391761,43 L136.637361,43 L136.637361,36.4312 Z M147.438161,36.3024 C148.256961,36.3024 148.910161,36.4956 149.397761,36.9004 C149.857761,37.2776 150.142961,37.8204 150.262561,38.538 L149.508161,38.538 C149.406961,38.0412 149.186161,37.664 148.845761,37.3972 C148.486961,37.112 148.017761,36.974 147.438161,36.974 C146.720561,36.974 146.159361,37.2224 145.736161,37.7284 C145.312961,38.2252 145.110561,38.8968 145.110561,39.7432 C145.110561,40.5712 145.312961,41.2244 145.717761,41.7028 C146.150161,42.2088 146.794161,42.4664 147.649761,42.4664 C148.008561,42.4664 148.348961,42.4112 148.680161,42.3192 C149.002161,42.2272 149.278161,42.0984 149.508161,41.9512 L149.508161,40.2768 L147.447361,40.2768 L147.447361,39.6236 L150.253361,39.6236 L150.253361,42.31 C149.940561,42.5676 149.554161,42.7608 149.103361,42.908 C148.624961,43.0552 148.118961,43.1288 147.576161,43.1288 C146.536561,43.1288 145.726961,42.7976 145.156561,42.1352 C144.622961,41.5188 144.356161,40.7184 144.356161,39.7432 C144.356161,38.768 144.613761,37.9676 145.147361,37.3328 C145.708561,36.6428 146.472161,36.3024 147.438161,36.3024 Z M152.893761,36.4312 L157.291361,36.4312 L157.291361,37.0844 L153.648161,37.0844 L153.648161,39.2924 L157.098161,39.2924 L157.098161,39.9456 L153.648161,39.9456 L153.648161,43 L152.893761,43 L152.893761,36.4312 Z M159.582161,36.4312 L160.336561,36.4312 L160.336561,40.4884 C160.336561,41.1324 160.474561,41.62 160.768961,41.9512 C161.072561,42.2916 161.550961,42.4664 162.204161,42.4664 C162.848161,42.4664 163.326561,42.2916 163.639361,41.9512 C163.924561,41.62 164.071761,41.1324 164.071761,40.4884 L164.071761,36.4312 L164.826161,36.4312 L164.826161,40.4792 C164.826161,41.3348 164.605361,41.988 164.172961,42.4388 C163.722161,42.8988 163.068961,43.1288 162.204161,43.1288 C161.339361,43.1288 160.686161,42.8988 160.244561,42.448 C159.802961,41.988 159.582161,41.3348 159.582161,40.4792 L159.582161,36.4312 Z M171.974561,36.4312 L172.912961,36.4312 L175.360161,42.034 L175.387761,42.034 L177.825761,36.4312 L178.764161,36.4312 L178.764161,43 L178.009761,43 L178.009761,37.7744 L177.982161,37.7744 L175.709761,43 L175.028961,43 L172.756561,37.7744 L172.728961,37.7744 L172.728961,43 L171.974561,43 L171.974561,36.4312 Z M183.391761,36.4312 L184.265761,36.4312 L186.850961,43 L186.032161,43 L185.332961,41.16 L182.315361,41.16 L181.616161,43 L180.806561,43 L183.391761,36.4312 Z M182.554561,40.5252 L185.093761,40.5252 L183.851761,37.2408 L183.814961,37.2408 L182.554561,40.5252 Z M188.893361,36.4312 L189.638561,36.4312 L189.638561,42.3468 L193.438161,42.3468 L193.438161,43 L188.893361,43 L188.893361,36.4312 Z M195.682961,36.4312 L196.428161,36.4312 L196.428161,42.3468 L200.227761,42.3468 L200.227761,43 L195.682961,43 L195.682961,36.4312 Z" id="GUODUNTONGFUMALL" fill="#B9C4CE" fill-rule="nonzero"></path>
            </g>
        </g>
    </g>
</svg>