<?xml version="1.0" encoding="UTF-8"?>
<svg width="197px" height="53px" viewBox="0 0 197 53" version="1.1" xmlns="http://www.w3.org/2000/svg" xmlns:xlink="http://www.w3.org/1999/xlink">
    <!-- Generator: Sketch 57.1 (83088) - https://sketch.com -->
    <title>国盾通付商城</title>
    <desc>Created with Sketch.</desc>
    <defs>
        <linearGradient x1="-1.11022302e-14%" y1="50%" x2="100%" y2="50%" id="linearGradient-1">
            <stop stop-color="#278CCA" offset="0%"></stop>
            <stop stop-color="#9CD5FF" offset="100%"></stop>
        </linearGradient>
        <linearGradient x1="100%" y1="50%" x2="-2.22044605e-14%" y2="50%" id="linearGradient-2">
            <stop stop-color="#75DE2F" offset="0%"></stop>
            <stop stop-color="#009C3E" offset="100%"></stop>
        </linearGradient>
        <linearGradient x1="-1.11022302e-14%" y1="50%" x2="100%" y2="50%" id="linearGradient-3">
            <stop stop-color="#CC4913" offset="0%"></stop>
            <stop stop-color="#FFD82D" offset="100%"></stop>
        </linearGradient>
    </defs>
    <g id="页面-1" stroke="none" stroke-width="1" fill="none" fill-rule="evenodd">
        <g id="首页" transform="translate(-978.000000, -3977.000000)">
            <g id="国盾通付商城" transform="translate(972.445439, 3977.000000)">
                <path d="M12.6264217,9.41365362 C18.9474802,14.7672356 28.2627243,16.2729305 40.572154,13.9307384 C47.1098512,12.6867699 51.7706536,10.3573858 54.5545611,6.94258608 C47.5617674,7.58616783 42.0692468,7.23876096 38.0769993,5.90036547 C35.5746698,5.06146293 38.3929109,5.44863706 40.073123,5.39846716 C40.7400691,5.37855264 41.4054437,5.21125321 42.0692468,4.89656885 C33.7520645,-1.79540858 25.4348823,-1.62810914 17.1177001,5.39846716 C15.4833447,6.77921403 14.6225454,7.40606039 13.0046789,8.88178388 C12.5847008,9.26486342 12.4586151,9.44215333 12.6264217,9.41365362 Z" id="路径备份-5" fill="url(#linearGradient-1)"></path>
                <path d="M-2.9279998,30.3780488 C3.40533354,35.7113821 12.7386669,37.2113821 25.0720002,34.8780488 C31.622393,33.6387853 36.2922461,31.3182115 39.0815597,27.9163274 C32.0751867,28.557475 26.5720002,28.2113821 22.5720002,26.8780488 C20.0648114,26.0423192 22.8885252,26.4280289 24.5720002,26.3780488 C25.2402414,26.3582096 25.9069081,26.1915429 26.5720002,25.8780488 C18.2386669,19.2113821 9.90533354,19.3780488 1.5720002,26.3780488 C-0.0655289973,27.7535733 -0.927999798,28.3780488 -2.54900804,29.8481907 C-2.9698017,30.2298213 -3.09613229,30.4064407 -2.9279998,30.3780488 Z" id="路径备份-6" fill="url(#linearGradient-2)" transform="translate(18.040780, 28.471633) rotate(-122.000000) translate(-18.040780, -28.471633) "></path>
                <path d="M23.8601033,35.0229768 C30.1934366,40.3563101 39.5267699,41.8563101 51.8601033,39.5229768 C58.4104961,38.2837133 63.0803492,35.9631395 65.8696628,32.5612554 C58.8632898,33.202403 53.3601033,32.8563101 49.3601033,31.5229768 C46.8529145,30.6872472 49.6766283,31.0729569 51.3601033,31.0229768 C52.0283445,31.0031376 52.6950112,30.8364709 53.3601033,30.5229768 C45.0267699,23.8563101 36.6934366,24.0229768 28.3601033,31.0229768 C26.7225741,32.3985013 25.8601033,33.0229768 24.239095,34.4931187 C23.8183014,34.8747493 23.6919708,35.0513687 23.8601033,35.0229768 Z" id="路径备份-7" fill="url(#linearGradient-3)" transform="translate(44.828883, 33.116561) rotate(-245.000000) translate(-44.828883, -33.116561) "></path>
                <text id="国盾通付商城备份" font-family="PingFangSC-Regular, PingFang SC" font-size="20" font-weight="normal" letter-spacing="3" fill="#737582">
                    <tspan x="67.5545611" y="29">国盾通付商城</tspan>
                </text>
                <text id="GUODUN-TONGFU-MALL备份" font-family="PingFangSC-Regular, PingFang SC" font-size="9.2" font-weight="normal" letter-spacing="1.38" fill="#737582">
                    <tspan x="67.5545611" y="43">GUODUN TONGFU MALL</tspan>
                </text>
            </g>
        </g>
    </g>
</svg>