<?xml version="1.0" encoding="UTF-8"?>
<svg width="122px" height="34px" viewBox="0 0 122 34" version="1.1" xmlns="http://www.w3.org/2000/svg" xmlns:xlink="http://www.w3.org/1999/xlink">
    <!-- Generator: Sketch 57.1 (83088) - https://sketch.com -->
    <title>小米</title>
    <desc>Created with Sketch.</desc>
    <defs>
        <polygon id="path-1" points="7.62030056e-05 0.27431068 36.7030343 0.27431068 36.7030343 34 7.62030056e-05 34"></polygon>
        <polygon id="path-3" points="0.0236210272 0.161281403 29.4602192 0.161281403 29.4602192 28.9041203 0.0236210272 28.9041203"></polygon>
    </defs>
    <g id="页面-1" stroke="none" stroke-width="1" fill="none" fill-rule="evenodd">
        <g id="首页" transform="translate(-1415.000000, -2025.000000)">
            <g id="小米" transform="translate(1415.000000, 2025.000000)">
                <g id="编组-2">
                    <g id="编组">
                        <mask id="mask-2" fill="white">
                            <use xlink:href="#path-1"></use>
                        </mask>
                        <g id="Clip-2"></g>
                        <path d="M0.0184784284,17.1171515 C0.0181513765,11.825035 0.034503968,6.53291845 7.62030056e-05,1.24047184 C-0.00506930335,0.47035534 0.223866977,0.272627184 0.960714748,0.274267449 C10.3222463,0.296724272 19.6841049,0.301015534 29.0456365,0.28781165 C32.4571141,0.282860194 34.8707566,1.83233592 36.2466637,4.94680194 C36.5567088,5.64858835 36.6721581,6.49066602 36.6751016,7.26903495 C36.7081338,15.6320447 36.7048633,23.9957146 36.6999575,32.3590544 C36.6989763,33.9834621 36.6764098,33.9920447 35.0862838,33.9811515 C33.5082587,33.9702583 31.9305607,33.918433 30.3528626,33.9247049 C29.6369462,33.9273456 29.3972172,33.5955981 29.3995066,32.9208796 C29.4089911,30.3708796 29.3932926,27.8208796 29.3923114,25.2705495 C29.3910032,20.7736369 29.3949278,16.2763942 29.3929655,11.7794816 C29.3916573,9.2360835 27.5840419,7.16340388 25.0722838,6.98647184 C23.3389091,6.86367573 21.5921253,6.91847184 19.8512284,6.91418058 C16.2588911,6.90493786 12.6665538,6.90889903 9.07454358,6.90757864 C7.960278,6.90724854 7.81801045,7.06767573 7.82193507,8.19858835 C7.85136974,16.313035 7.87753388,24.4274816 7.89879225,32.5422583 C7.90238982,33.9101806 7.80394722,33.989734 6.46368883,33.986433 C4.58608428,33.9814816 2.70815267,33.9639864 0.830875172,33.9996369 C0.191161794,34.0115204 0.000817629573,33.8144524 0.00408814787,33.1585495 C0.0299252424,27.8113068 0.0184784284,22.4643942 0.0184784284,17.1171515" id="Fill-1" fill="#BBC4CD" mask="url(#mask-2)"></path>
                    </g>
                    <g id="编组" transform="translate(92.392142, 2.428571)">
                        <mask id="mask-4" fill="white">
                            <use xlink:href="#path-3"></use>
                        </mask>
                        <g id="Clip-4"></g>
                        <path d="M12.560133,17.9257067 C11.6507506,18.9754971 10.9548246,19.9339733 10.1045732,20.730221 C7.92517455,22.7721638 5.67624829,24.7399543 3.45883689,26.7417448 C3.00333348,27.1529829 2.68786,27.0334971 2.33242439,26.5769257 C1.73721594,25.813059 1.08872463,25.0899924 0.451279771,24.3598019 C-0.154325336,23.6658781 -0.139380145,23.6085638 0.641668501,23.11864 C4.06119304,20.9727543 7.22794893,18.5208686 9.90736166,15.4854781 C10.0750077,15.2957257 10.2179617,15.0852495 10.4869751,14.7352114 C10.0165265,14.708659 9.73386749,14.6791924 9.45120845,14.6788686 C6.72013735,14.674659 3.98906626,14.6587924 1.25864495,14.6872876 C0.636470174,14.6940876 0.35868457,14.5331543 0.404169932,13.8787352 C0.44705613,13.2631733 0.453229144,12.6391924 0.405144618,12.0239543 C0.346013647,11.2659162 0.599756989,10.9978019 1.404523,11.0084876 C4.72852829,11.0518781 8.05350825,11.0285638 11.3778384,11.0262971 C12.6306353,11.0256495 12.6264116,11.0220876 12.6264116,9.77768762 C12.6267365,6.89902095 12.6511037,4.0206781 12.6208884,1.14233524 C12.612766,0.395954286 12.8752815,0.123630476 13.6108448,0.165401905 C14.3925433,0.20944 15.1797649,0.212030476 15.9621131,0.172525714 C16.5878618,0.140792381 16.7447863,0.41344 16.7418622,0.98431619 C16.7259423,3.99704 16.7672041,7.01041143 16.720744,10.0228114 C16.708398,10.8148495 16.9449219,11.04864 17.7230464,11.0415162 C21.182858,11.009459 24.6433194,11.0424876 28.1034559,11.0123733 C28.8016562,11.0065448 29.097311,11.206659 29.0472771,11.9238971 C29.0024416,12.5663352 29.0076399,13.2165448 29.0482518,13.8596305 C29.0891886,14.5066019 28.8172512,14.6898781 28.1934519,14.6846971 C25.3278741,14.6607352 22.4619714,14.674659 19.5957438,14.6778971 C19.3627937,14.678221 19.1298437,14.698621 18.6486736,14.7216114 C21.6074964,18.5357638 25.2687431,21.1158781 29.4605441,23.1503733 C28.3809166,24.3870019 27.3942091,25.5507733 26.3522694,26.6633829 C26.2463535,26.7767162 25.7541369,26.6688876 25.5374317,26.5228495 C22.4021906,24.4077257 19.7179045,21.8149829 17.4127713,18.8288114 C17.2678679,18.6416495 17.115492,18.4603162 16.8087907,18.0808114 C16.7746766,18.5318781 16.7405626,18.7689067 16.7402377,19.006259 C16.736339,21.9924305 16.7213938,24.9786019 16.7493348,27.9644495 C16.7555078,28.6370019 16.605731,28.9569257 15.8526234,28.897021 C15.0735241,28.8342019 14.2830535,28.8474781 13.5020048,28.8989638 C12.8051041,28.9442971 12.618939,28.6506019 12.6228378,28.0052495 C12.6423315,24.9653257 12.6290108,21.9254019 12.6231627,18.8854781 C12.6225129,18.6338781 12.5913229,18.3816305 12.560133,17.9257067" id="Fill-3" fill="#BBC4CD" mask="url(#mask-4)"></path>
                    </g>
                    <path d="M44.3486245,17.6737269 C44.3486245,12.6268721 44.3472306,7.58001734 44.34967,2.53316257 C44.3500185,1.38331582 44.486971,1.23695994 45.7439375,1.22597517 C47.7159844,1.20852877 49.6883798,1.21046726 51.6604267,1.23275988 C52.7870617,1.24568313 52.9654833,1.41788553 52.9661803,2.47242326 C52.9721044,12.3780994 52.9755892,22.2840987 52.9626955,32.1894518 C52.9602561,34 52.9236658,34 50.9979667,34 C49.228735,34 47.4595033,34 45.6906201,33.9993538 C44.3688364,33.9987077 44.357685,33.9987077 44.3566396,32.8139681 C44.3524578,27.7671134 44.3552457,22.7202586 44.3552457,17.6737269 L44.3486245,17.6737269 Z" id="Fill-5" fill="#BBC4CD"></path>
                    <path d="M23.3960134,22.3949131 C23.3960134,25.4099285 23.400933,28.4252711 23.3935536,31.4399595 C23.3907424,32.6111569 23.261428,32.7570658 21.981988,32.7750591 C19.9660179,32.8025397 17.949345,32.766226 15.9330235,32.7825835 C15.0998589,32.7894537 14.8008193,32.4286071 14.8053874,31.6846677 C14.8226059,29.1319154 14.8060902,26.5785087 14.8039818,24.0251021 C14.8011707,20.4127105 14.8183892,16.7999918 14.782898,13.1879274 C14.7755186,12.4168346 15.0295793,12.1309054 15.8803138,12.1469357 C18.0125966,12.1878295 20.1469878,12.1789964 22.2796221,12.1433371 C23.1103268,12.1295968 23.4139347,12.4093101 23.4058525,13.1872731 C23.3742267,16.2562683 23.3932022,19.3259178 23.3932022,22.3949131 L23.3960134,22.3949131 Z" id="Fill-7" fill="#BBC4CD"></path>
                    <path d="M65.2904468,26.8578692 C66.5150277,26.9395658 67.5633762,27.0252803 68.6133998,27.0731599 C69.0831296,27.0942537 69.565256,27.089901 70.0256046,27.0078696 C70.8052488,26.8689183 71.3433273,26.4242744 71.4572418,25.5939152 C71.5322914,25.0454763 71.6364897,24.4940241 71.6374948,23.9439111 C71.6502264,17.1018183 71.6602777,10.2600602 71.6277785,3.41796741 C71.6240931,2.63883602 71.8388554,2.38470592 72.605098,2.43459444 C73.493296,2.49251869 74.3881949,2.45066591 75.2800785,2.45602306 C76.3646115,2.46305433 76.3689671,2.46472844 76.3703072,3.58671783 C76.3733226,5.75636606 76.3693021,7.92534464 76.3699722,10.0949929 C76.3716474,15.1012553 76.3900748,20.1075177 76.3622662,25.1137801 C76.3569055,26.0810816 76.2865466,27.0758385 76.0486663,28.0083185 C75.4408989,30.3879003 74.357706,31.341474 71.8971528,31.488461 C70.256784,31.5868988 68.6090443,31.5718318 66.964655,31.5688184 C66.7462072,31.5681487 66.3776602,31.3803134 66.3327645,31.211563 C65.9642176,29.8230551 65.6553083,28.4191454 65.2904468,26.8578692" id="Fill-9" fill="#BBC4CD"></path>
                    <path d="M89.9283513,23.6948295 C89.7944246,23.8117057 89.6690829,23.9985188 89.4908574,24.0646751 C88.2202706,24.5347004 86.936978,24.9744828 85.6629573,25.4360023 C85.0266337,25.6669196 84.9325416,25.2258771 84.7986149,24.862017 C84.1149019,23.005543 83.4669026,21.138043 82.7605251,19.2891297 C81.9315531,17.1188855 81.0751089,14.9574622 80.1860416,12.8073799 C79.9703853,12.2863197 80.0335712,12.0601278 80.6417358,11.9022976 C81.6272991,11.646493 82.5970658,11.3346129 83.5585909,11.0079264 C84.1083772,10.8214284 84.3975216,10.961932 84.6100873,11.4477088 C85.9040254,14.405529 87.2216581,17.3545282 88.5183434,20.3114033 C88.932486,21.2558644 89.3054204,22.2151318 89.6982721,23.1671536 C89.7583674,23.3130127 89.8243006,23.4569815 89.9283513,23.6948295" id="Fill-11" fill="#BBC4CD"></path>
                    <path d="M60.3628659,24.0022525 C61.7673841,19.3253257 63.1200882,14.8354083 64.4591056,10.3410947 C64.618784,9.80610566 64.8977324,9.62146343 65.4240194,9.75707064 C66.4469388,10.0208453 67.475398,10.2629768 68.5035313,10.5057847 C69.0161316,10.6265124 69.0496966,10.9761828 68.9258644,11.405662 C68.1369228,14.1418164 67.3714441,16.8850724 66.547308,19.6097289 C65.9972323,21.4257156 65.3754641,23.2190448 64.7497855,25.0089923 C64.6741827,25.2244083 64.3092035,25.5409378 64.1840678,25.4956227 C62.8652545,25.0218429 61.5676232,24.4834721 60.3628659,24.0022525" id="Fill-13" fill="#BBC4CD"></path>
                    <path d="M102.247304,10.7598106 C102.105874,10.9141753 101.993286,11.0780813 101.842822,11.1942808 C100.983472,11.8601278 100.108485,12.5065514 99.2536522,13.1775097 C98.8595953,13.4865799 98.602103,13.3720843 98.3202863,13.0224635 C96.8389241,11.1830357 95.3533919,9.34667481 93.8459678,7.5276927 C93.4623356,7.06425777 93.6068926,6.78790061 94.0436912,6.50915813 C94.8648169,5.98506775 95.6630081,5.4248567 96.5060259,4.93756849 C96.7037493,4.82307281 97.1697373,4.82886574 97.2948348,4.96755546 C98.8985145,6.74428321 100.46397,8.55440553 102.033943,10.3604387 C102.122206,10.4616447 102.164253,10.601016 102.247304,10.7598106" id="Fill-15" fill="#BBC4CD"></path>
                    <path d="M119.493837,7.19947813 C119.355627,7.39031408 119.251624,7.55831788 119.12378,7.70587496 C117.601402,9.46769973 116.065548,11.217938 114.558026,12.9913493 C114.140979,13.4820703 113.811695,13.4575342 113.354221,13.0462146 C112.656608,12.4185006 111.920987,11.8299762 111.178456,11.2537198 C110.798725,10.9592872 110.77212,10.7309656 111.088274,10.3540646 C112.547768,8.61370885 113.965798,6.8389345 115.441531,5.11255069 C115.608074,4.91796617 116.145018,4.78438101 116.339548,4.90024569 C117.318763,5.48263612 118.244767,6.1529474 119.180101,6.80519743 C119.307254,6.89414061 119.382232,7.05532883 119.493837,7.19947813" id="Fill-17" fill="#BBC4CD"></path>
                </g>
            </g>
        </g>
    </g>
</svg>