<?xml version="1.0" encoding="UTF-8"?>
<svg width="64px" height="51px" viewBox="0 0 64 51" version="1.1" xmlns="http://www.w3.org/2000/svg" xmlns:xlink="http://www.w3.org/1999/xlink">
    <!-- Generator: Sketch 57.1 (83088) - https://sketch.com -->
    <title>性能扩展性强</title>
    <desc>Created with Sketch.</desc>
    <g id="页面-1" stroke="none" stroke-width="1" fill="none" fill-rule="evenodd">
        <g id="新基建" transform="translate(-1462.000000, -1645.000000)">
            <g id="性能扩展性强" transform="translate(1460.000000, 1636.000000)">
                <g id="编组-11">
                    <rect id="矩形备份-18" x="0" y="0" width="68" height="68"></rect>
                    <rect id="矩形备份-9" fill="#EFF4FF" x="12.5263158" y="19.6842105" width="52.7894737" height="39.3684211" rx="4"></rect>
                    <path d="M8.47368421,9.23684211 L48.7894737,9.23684211 C51.8270398,9.23684211 54.2894737,11.699276 54.2894737,14.7368421 L54.2894737,46.1052632 C54.2894737,49.1428293 51.8270398,51.6052632 48.7894737,51.6052632 L8.47368421,51.6052632 C5.43611809,51.6052632 2.97368421,49.1428293 2.97368421,46.1052632 L2.97368421,14.7368421 C2.97368421,11.699276 5.43611809,9.23684211 8.47368421,9.23684211 Z M8.47368421,12.2368421 C7.09297234,12.2368421 5.97368421,13.3561302 5.97368421,14.7368421 L5.97368421,46.1052632 C5.97368421,47.485975 7.09297234,48.6052632 8.47368421,48.6052632 L48.7894737,48.6052632 C50.1701856,48.6052632 51.2894737,47.485975 51.2894737,46.1052632 L51.2894737,14.7368421 C51.2894737,13.3561302 50.1701856,12.2368421 48.7894737,12.2368421 L8.47368421,12.2368421 Z" id="矩形" fill="#3F79FE" fill-rule="nonzero"></path>
                    <polygon id="路径" fill="#3F79FE" fill-rule="nonzero" points="17 41.1578947 17 26.8421053 13.4210526 28.3333333 13.4210526 41.1578947"></polygon>
                    <polygon id="路径备份" fill="#3F79FE" fill-rule="nonzero" points="25.0526316 41.1578947 25.0526316 27.5877193 21.4736842 26.8421053 21.4736842 41.1578947"></polygon>
                    <polygon id="路径备份-2" fill="#3F79FE" fill-rule="nonzero" points="34 41.1578947 34 31.1879699 30.4210526 30.4210526 30.4210526 41.1578947"></polygon>
                    <polygon id="路径备份-3" fill="#3F79FE" fill-rule="nonzero" points="42.0526316 41.1578947 42.0526316 28.6315789 38.4736842 30.1973684 38.4736842 41.1578947"></polygon>
                    <path d="M35.124677,28.6684708 C35.4652439,28.8013198 35.8511615,28.7377481 36.131122,28.5026803 L43.5904018,22.2395224 C44.0133625,21.8843849 44.0683441,21.2536116 43.7132066,20.8306509 C43.3580691,20.4076901 42.7272958,20.3527085 42.3043351,20.707846 L35.2991284,26.589743 L20.9423591,20.989424 C20.6877915,20.8901217 20.4036765,20.899316 20.1560619,21.0148695 L13.4455356,24.1464484 C12.9450645,24.3800016 12.7286847,24.9750459 12.9622379,25.475517 C13.1957911,25.9759882 13.7908354,26.1923679 14.2913065,25.9588147 L20.6141276,23.0081649 L35.124677,28.6684708 Z" id="路径-35" fill="#3F79FE" fill-rule="nonzero"></path>
                    <path d="M41.9665008,25.305324 C41.8589842,25.8470422 42.2109742,26.373351 42.7526924,26.4808676 C43.2944106,26.5883842 43.8207194,26.2363942 43.928236,25.694676 L44.8229729,21.1865788 C44.9322309,20.6360866 44.5671635,20.1034944 44.0143185,20.0068431 L39.0932659,19.1465193 C38.5492324,19.0514085 38.0311037,19.4153323 37.9359929,19.9593657 C37.8408822,20.5033992 38.204806,21.0215279 38.7488394,21.1166386 L42.6620615,21.8007684 L41.9665008,25.305324 Z" id="形状" fill="#3F79FE" fill-rule="nonzero"></path>
                </g>
            </g>
        </g>
    </g>
</svg>