<?xml version="1.0" encoding="UTF-8"?>
<svg width="57px" height="51px" viewBox="0 0 57 51" version="1.1" xmlns="http://www.w3.org/2000/svg" xmlns:xlink="http://www.w3.org/1999/xlink">
    <!-- Generator: Sketch 57.1 (83088) - https://sketch.com -->
    <title>技术自主研发</title>
    <desc>Created with Sketch.</desc>
    <g id="页面-1" stroke="none" stroke-width="1" fill="none" fill-rule="evenodd">
        <g id="新基建" transform="translate(-832.000000, -1649.000000)">
            <g id="技术自主研发" transform="translate(830.000000, 1643.000000)">
                <rect id="矩形备份-16" x="0" y="0" width="61" height="61"></rect>
                <g id="编组-4" transform="translate(2.000000, 5.000000)">
                    <rect id="矩形备份-10" fill="#EFF4FF" x="13.8428571" y="10.4" width="43.1571429" height="41.6" rx="20.8"></rect>
                    <g id="技术市场" fill-rule="nonzero">
                        <rect id="矩形" fill="#000000" opacity="0" x="0.814285714" y="0" width="48.8571429" height="48"></rect>
                        <path d="M49.6714286,32.7600498 C48.3630184,34.7699057 47.1890682,36.8798668 45.7198783,38.7694936 C42.0119771,43.5368666 37.1640745,46.0493031 30.8830286,45.8966239 C24.8825846,45.7509017 18.8738917,45.8438632 12.8703961,45.9356575 C11.0169938,45.9638121 10.3819803,45.3507141 10.4265142,43.5119803 C10.5394701,38.8360282 10.5078577,34.1547999 10.4419628,29.4772136 C10.4199342,27.923481 10.9823298,27.3415258 12.5842156,27.3616496 C17.6195039,27.425476 22.6561273,27.3848083 27.6923216,27.3848083 C33.0645705,27.3848083 34.2310348,28.206241 35.8407879,33.4175975 C36.7755232,32.1383607 37.6484165,31.0908039 38.3594333,29.9462703 C41.8669796,24.2964396 46.059795,24.2002564 49.6714286,29.7200062 C49.6714286,30.733572 49.6714286,31.7465307 49.6714286,32.7600498 L49.6714286,32.7600498 Z M12.8548521,43.6474773 C13.7011395,43.6474773 14.3987103,43.6481309 15.0963765,43.6474773 C20.0061211,43.6454229 24.9280721,43.4293374 29.8235125,43.6884252 C38.2801878,44.1357239 43.311614,39.6731024 46.87118,32.8849946 C47.8157853,31.0833334 47.2958257,29.3567044 45.687503,28.4375944 C44.1013518,27.5301103 42.3253833,28.0058437 41.1755119,29.6913847 C40.2449248,31.0569997 39.4468428,32.5168837 38.436724,33.8216605 C36.69623,36.0696399 34.4116021,37.2287411 31.4173402,37.1221458 C27.9334913,36.997808 24.4399632,37.1453979 20.9543502,37.0453393 C20.2866276,37.0260093 19.1247407,36.4641779 19.0742943,36.0500297 C18.9161846,34.7455797 20.124608,34.8985391 20.9970722,34.8921891 C24.2270683,34.8695907 27.4575888,34.8892476 30.6875848,34.8795359 C32.8280735,34.8732326 33.6868056,33.6748643 32.920765,31.7088979 C32.3011524,30.11926 30.9623696,29.6474486 29.3480867,29.6500633 C24.1794828,29.6574404 19.0113079,29.6519776 13.8430377,29.659775 C13.5388339,29.660522 13.2350592,29.7379822 12.8544707,29.7899025 C12.8544707,34.3661229 12.8544707,38.8365885 12.8544707,43.6473372 L12.8548521,43.6474773 Z M41.7200272,4.08937127 C41.7229358,6.22197748 42.3664365,9.11284368 41.2319184,10.2710578 C40.1335424,11.3925262 37.1382791,10.8195356 34.9745222,10.8359241 C28.71026,10.8829885 22.4449489,10.807396 16.1812112,10.882008 C14.519772,10.9020384 13.802509,10.4381178 13.9515593,8.7351611 C14.1591617,6.36307734 14.2291572,3.97918078 14.3581339,1.6 C23.2834166,1.6 32.2087946,1.6 41.1340773,1.6 C41.3404877,2.42979042 41.7184538,3.25920732 41.7200272,4.08937127 Z M27.7468685,4.06182365 C24.0284775,4.06182365 20.4724875,4.06182365 16.8629042,4.06182365 C16.8629042,5.44415401 16.8629042,6.67651326 16.8629042,8.03475113 C20.5215988,8.03475113 24.0780179,8.03475113 27.7468685,8.03475113 C27.7468685,6.69920503 27.7468685,5.46605204 27.7468685,4.06182365 Z M0,26.3000856 C2.94529369,26.3000856 5.89053971,26.3000856 8.84932708,26.3000856 C8.93911012,26.4989421 9.07867196,26.664508 9.07900573,26.8298871 C9.09545562,33.4419702 9.10084355,40.0545202 9.09736285,46.6670702 C9.09726749,46.8448691 8.98526518,47.0223412 8.92542571,47.2 C5.95042685,47.2 2.97509422,47.2 0.000143042546,47.2 C0.000143042546,40.2334397 0.000143042546,33.2666459 0.000143042546,26.3000856 L0,26.3000856 Z M6.91243565,30.3048563 C5.89859777,29.5176479 5.25090112,28.6492908 4.77080266,28.7307197 C4.10498729,28.8435716 3.56514472,29.6692999 2.97127976,30.1898566 C3.53405681,30.7391282 4.02602781,31.5904898 4.68264077,31.737426 C5.16111809,31.844675 5.8566863,31.0233823 6.91243565,30.304903 L6.91243565,30.3048563 Z M27.7862529,21.9859411 C23.8418547,21.985661 19.8964552,21.9403241 15.953249,22.0086796 C14.4265082,22.0350599 13.8717416,21.4809792 13.9486985,20.0003178 C14.0440602,18.1691013 14.0254646,16.3269124 13.9541341,14.4933146 C13.902162,13.1558542 14.4858232,12.7212087 15.7958545,12.7264848 C23.8140567,12.7576276 31.8328311,12.7650982 39.850938,12.7198097 C41.2961445,12.7117305 41.8189173,13.2490492 41.7683756,14.6231153 C41.7017178,16.4570399 41.6975696,18.2972678 41.7694723,20.1309122 C41.8248774,21.5436384 41.2166605,22.024181 39.8136515,22.0052712 C35.8050749,21.9507362 31.7955924,21.9859411 27.7863006,21.9859411 L27.7862529,21.9859411 Z M27.7514459,15.0187271 C23.9956254,15.0187271 20.4846461,15.0187271 16.8976636,15.0187271 C16.8976636,16.4170258 16.8976636,17.6958892 16.8976636,18.9841841 C20.5945982,18.9841841 24.1514941,18.9841841 27.7514459,18.9841841 C27.7514459,17.5989589 27.7514459,16.3676735 27.7514459,15.0187271 Z M39.4311081,23.961806 C38.4562732,25.0751502 37.4680399,26.2035755 36.2932791,27.5457051 C33.8276548,24.3047039 30.2154491,24.3376677 26.5479336,24.4029415 C22.5102716,24.4749389 18.4704641,24.4193767 14.4318008,24.4193767 C14.4299889,24.2668843 14.4283201,24.1142518 14.4266513,23.9618527 C22.7392351,23.9618527 31.0518665,23.9618527 39.4311081,23.9618527 L39.4311081,23.961806 Z" id="形状" fill="#3F79FE"></path>
                    </g>
                </g>
            </g>
        </g>
    </g>
</svg>