<?xml version="1.0" encoding="UTF-8"?>
<svg width="52px" height="57px" viewBox="0 0 52 57" version="1.1" xmlns="http://www.w3.org/2000/svg" xmlns:xlink="http://www.w3.org/1999/xlink">
    <!-- Generator: Sketch 57.1 (83088) - https://sketch.com -->
    <title>搭建技术成本低</title>
    <desc>Created with Sketch.</desc>
    <g id="页面-1" stroke="none" stroke-width="1" fill="none" fill-rule="evenodd">
        <g id="新基建" transform="translate(-1145.000000, -1642.000000)">
            <g id="搭建技术成本低" transform="translate(1137.000000, 1637.000000)">
                <rect id="矩形备份-17" x="0" y="0" width="68" height="68"></rect>
                <rect id="矩形备份-8" fill="#EFF4FF" x="21.6071429" y="15.8709677" width="38.3928571" height="46.1290323" rx="4"></rect>
                <path d="M38.5714286,51.6290323 L13.5714286,51.6290323 C12.4252446,51.6290323 11.5,50.709757 11.5,49.5806452 L11.5,10.5483871 C11.5,9.41927527 12.4252446,8.5 13.5714286,8.5 L44.8214286,8.5 C45.9676126,8.5 46.8928571,9.41927527 46.8928571,10.5483871 L46.8928571,31.8387097 C46.8928571,32.6671368 47.56443,33.3387097 48.3928571,33.3387097 C49.2212843,33.3387097 49.8928571,32.6671368 49.8928571,31.8387097 L49.8928571,10.5483871 C49.8928571,7.75805876 47.6201357,5.5 44.8214286,5.5 L13.5714286,5.5 C10.7727215,5.5 8.5,7.75805876 8.5,10.5483871 L8.5,49.5806452 C8.5,52.3709735 10.7727215,54.6290323 13.5714286,54.6290323 L38.5714286,54.6290323 C39.3998557,54.6290323 40.0714286,53.9574594 40.0714286,53.1290323 C40.0714286,52.3006051 39.3998557,51.6290323 38.5714286,51.6290323 Z" id="路径" fill="#3F79FE" fill-rule="nonzero"></path>
                <path d="M23.4737675,20.5874273 L23.6970546,20.7697906 L29.1931069,26.1903852 L34.6955388,20.7697906 C35.2401286,20.2323648 36.0966602,20.1556119 36.7306412,20.5874273 L36.9539283,20.7697906 C37.4981412,21.3073914 37.5746594,22.1516093 37.1357478,22.7757879 L36.9507385,22.9958817 L33.3558163,26.5362468 L36.976257,26.5362468 C37.8571003,26.5362468 38.5711648,27.2400992 38.5711648,28.108345 C38.5711648,28.9765909 37.8571003,29.6804433 36.976257,29.6804433 L30.7880147,29.6804433 L30.7880147,33.7238798 L36.976257,33.7238798 C37.5461255,33.7237869 38.072746,34.0234069 38.3577075,34.5098539 C38.6426689,34.9963009 38.6426689,35.5956552 38.3577075,36.0821022 C38.072746,36.5685492 37.5461255,36.8681691 36.976257,36.8680762 L30.7880147,36.8680762 L30.7880147,40.9115128 C30.7881089,41.4732313 30.4841418,41.9923203 29.9906369,42.2732064 C29.497132,42.5540925 28.8890817,42.5540925 28.3955768,42.2732064 C27.9020719,41.9923203 27.5981048,41.4732313 27.5981991,40.9115128 L27.5981991,36.8680762 L21.4163364,36.8680762 C20.5355961,36.8679327 19.8216923,36.1641224 19.8216923,35.295978 C19.8216923,34.4278337 20.5355961,33.7240234 21.4163364,33.7238798 L27.5981991,33.7238798 L27.5981991,29.6804433 L21.4163364,29.6804433 C20.5354931,29.6804433 19.8214286,28.9765909 19.8214286,28.108345 C19.8214286,27.2400992 20.5354931,26.5362468 21.4163364,26.5362468 L25.0335873,26.5362468 L21.4386651,22.9927375 C20.8529411,22.4179644 20.8097108,21.4973657 21.3390644,20.8717168 C21.8684179,20.246068 22.7949553,20.1226762 23.4737675,20.5874273 Z" id="路径" fill="#3F79FE" fill-rule="nonzero"></path>
                <rect id="矩形" fill="#000000" fill-rule="nonzero" opacity="0" x="38.5714286" y="36.2741935" width="18.75" height="18.6290323"></rect>
                <path d="M45.1226442,46.6207937 L45.1226442,38.9376305 C45.1226442,37.957334 45.9228888,37.1612903 46.9083585,37.1612903 L49.8827507,37.1612903 C50.8682204,37.1612903 51.668465,37.957334 51.668465,38.9376305 L51.668465,46.6207937 L56.4285714,46.6207937 L48.391958,54.9032258 L40.3571429,46.6207937 L45.1226442,46.6207937 Z" id="路径" fill="#3F79FE" fill-rule="nonzero"></path>
                <g id="下降" transform="translate(38.000000, 37.000000)"></g>
            </g>
        </g>
    </g>
</svg>