<?xml version="1.0" encoding="UTF-8"?>
<svg width="131px" height="33px" viewBox="0 0 131 33" version="1.1" xmlns="http://www.w3.org/2000/svg" xmlns:xlink="http://www.w3.org/1999/xlink">
    <!-- Generator: Sketch 57.1 (83088) - https://sketch.com -->
    <title>海平线</title>
    <desc>Created with Sketch.</desc>
    <g id="页面-1" stroke="none" stroke-width="1" fill="none" fill-rule="evenodd">
        <g id="首页" transform="translate(-1409.000000, -2169.000000)">
            <g id="海平线" transform="translate(1409.000000, 2169.000000)">
                <path d="M23.216,16.391 L13.6326531,31 L2,31 L11.583,16.391 L23.216,16.391 Z M32,3 L24.015,15.173 L12.382,15.173 L20.3673469,3 L32,3 Z" id="形状结合" fill="#BBC4CD"></path>
                <path d="M24.052,17.043 L32,28 L20.3076923,28 L12.36,17.043 L24.052,17.043 Z M11.6923077,0 L23.17,15.826 L11.478,15.826 L-4.97379915e-14,0 L11.6923077,0 Z" id="形状结合" fill="#BBC4CD"></path>
                <rect id="矩形" fill="#B9C4CE" x="70" y="1" width="28" height="1"></rect>
                <polygon id="矩形" fill="#B9C4CE" transform="translate(83.500000, 12.000000) rotate(-90.000000) translate(-83.500000, -12.000000) " points="72 9 95 9 95 15 72 15"></polygon>
                <rect id="矩形备份-12" fill="#B9C4CE" x="70" y="14" width="28" height="1"></rect>
                <polygon id="路径-4" fill="#B9C4CE" points="91 11 91.6363636 4 98 4 95.4545455 11"></polygon>
                <polygon id="路径-4备份-3" fill="#B9C4CE" transform="translate(75.500000, 7.500000) scale(-1, 1) translate(-75.500000, -7.500000) " points="72 11 72.6363636 4 79 4 76.4545455 11"></polygon>
                <polygon id="路径-5" fill="#B9C4CE" points="105.8125 1 110.875 1 109.1875 8.6 111.4375 8.6 109.1875 18.7333333 112 18.7333333 112 20 103.5625 20 105.8125 11.1333333 103 11.1333333"></polygon>
                <polygon id="矩形" fill="#B9C4CE" transform="translate(107.162011, 22.247475) rotate(-2.000000) translate(-107.162011, -22.247475) " points="102.242073 21.632853 112.081914 21.633139 112.08195 22.8620965 102.242109 22.8618105"></polygon>
                <polygon id="路径-6" fill="#B9C4CE" points="115 1 121.521739 24 130 24 130 22.7567568 127.391304 22.7567568 122.826087 1"></polygon>
                <polygon id="矩形" fill="#B9C4CE" transform="translate(122.534685, 6.512331) rotate(-5.000000) translate(-122.534685, -6.512331) " points="114.682242 5.60821341 130.529403 5.6093602 130.529492 6.83832421 114.539878 7.41644863"></polygon>
                <polygon id="矩形备份-20" fill="#B9C4CE" transform="translate(122.229283, 13.030303) rotate(-5.000000) translate(-122.229283, -13.030303) " points="114.571152 12.3603034 130.101635 11.2517433 129.940969 13.0881628 114.356931 14.8088628"></polygon>
                <polygon id="矩形备份-21" fill="#B9C4CE" transform="translate(122.229283, 19.789562) rotate(-5.000000) translate(-122.229283, -19.789562) " points="114.517597 19.7317025 130.262301 16.174583 130.101635 18.0110026 114.196265 23.4045415"></polygon>
                <polygon id="路径-13" fill="#B9C4CE" points="126 1 126.571429 3 130 3 130 1"></polygon>
                <polygon id="路径-14" fill="#B9C4CE" points="40 1 41.25 5 45 5 45 1"></polygon>
                <polygon id="路径-15" fill="#B9C4CE" points="43.5555556 6 40 6 40.5925926 10 44 10 44 6"></polygon>
                <polyline id="路径-16" fill="#B9C4CE" points="41.5714286 14 41.5714286 20.6 41 23 45 23 45 14"></polyline>
                <path d="M47,4 L48.2666667,0 L52.7,0 L52.7,1.14285714 L66,1.14285714 L66,2.28571429 L54.6,2.28571429 L52.7,2.28571429 C52.2777778,3.04761905 52.0666667,3.61904762 52.0666667,4" id="路径-17" fill="#B9C4CE"></path>
                <path d="M37.652832,32 L37.652832,26.9414062 L38.3706055,26.9414062 L38.3706055,29.0742188 L40.7768555,29.0742188 L40.7768555,26.9414062 L41.4946289,26.9414062 L41.4946289,32 L40.7768555,32 L40.7768555,29.6108398 L38.3706055,29.6108398 L38.3706055,32 L37.652832,32 Z M47.3603516,30.0654297 L46.4990234,27.8847656 L45.6342773,30.0654297 L47.3603516,30.0654297 Z M48.1191406,32 L47.5688477,30.5986328 L45.4257812,30.5986328 L44.8686523,32 L44.2021484,32 L46.2084961,26.9414062 L46.9194336,26.9414062 L48.8950195,32 L48.1191406,32 Z M51.6230469,32 L51.6230469,26.9414062 L52.3408203,26.9414062 L52.3408203,32 L51.6230469,32 Z M55.6430664,32 L55.6430664,26.9414062 L57.0205078,26.9414062 C57.6311879,26.9414062 58.0698229,27.0445139 58.3364258,27.2507324 C58.6030287,27.4569509 58.7363281,27.7958961 58.7363281,28.2675781 C58.7363281,28.8053412 58.5540383,29.2268865 58.1894531,29.5322266 C57.824868,29.8375666 57.3190137,29.9902344 56.671875,29.9902344 L56.3540039,29.9902344 L56.3540039,32 L55.6430664,32 Z M56.3540039,29.4467773 L56.6445312,29.4467773 C57.0706402,29.4467773 57.3999012,29.3487966 57.6323242,29.152832 C57.8647473,28.9568675 57.980957,28.6800148 57.980957,28.3222656 C57.980957,28.0192042 57.8898121,27.802735 57.7075195,27.6728516 C57.525227,27.5429681 57.2210308,27.4780273 56.7949219,27.4780273 L56.3540039,27.4780273 L56.3540039,29.4467773 Z M61.5087891,32 L61.5087891,26.9414062 L62.2265625,26.9414062 L62.2265625,32 L61.5087891,32 Z M65.5288086,32 L65.5288086,26.9414062 L66.2329102,26.9414062 L68.7792969,30.8481445 L68.7792969,26.9414062 L69.3945312,26.9414062 L69.3945312,32 L68.6938477,32 L66.144043,28.0932617 L66.144043,32 L65.5288086,32 Z M76.5009766,31.8632812 C75.8880178,32.0387379 75.3536807,32.1264648 74.8979492,32.1264648 C74.0935832,32.1264648 73.476646,31.8974632 73.0471191,31.4394531 C72.6175923,30.981443 72.402832,30.3251996 72.402832,29.4707031 C72.402832,28.6321573 72.6204405,27.9799014 73.0556641,27.513916 C73.4908876,27.0479306 74.1015586,26.8149414 74.8876953,26.8149414 C75.4026718,26.8149414 75.9381483,26.8912753 76.4941406,27.0439453 L76.4941406,27.7070312 C75.7968715,27.4700509 75.2625344,27.3515625 74.8911133,27.3515625 C74.3442355,27.3515625 73.919842,27.5372703 73.6179199,27.9086914 C73.3159978,28.2801125 73.1650391,28.8030565 73.1650391,29.4775391 C73.1650391,30.1451856 73.3268213,30.664142 73.6503906,31.0344238 C73.97396,31.4047056 74.4274059,31.5898438 75.0107422,31.5898438 C75.2500012,31.5898438 75.5086249,31.5476892 75.7866211,31.4633789 L75.7866211,29.815918 L76.5009766,29.815918 L76.5009766,31.8632812 Z M82.5606445,32 L84.2388672,29.4604492 L82.6426758,26.9414062 L83.490332,26.9414062 L84.7071289,28.8486328 L85.9854492,26.9414062 L86.662207,26.9414062 L85.0455078,29.3852539 L86.7032227,32 L85.8555664,32 L84.5704102,29.9936523 L83.2408203,32 L82.5606445,32 Z M89.524793,31.951 C89.524793,31.8716663 89.5527927,31.801667 89.608793,31.741 C89.6647932,31.680333 89.7347925,31.65 89.818793,31.65 C89.9027934,31.65 89.975126,31.680333 90.035793,31.741 C90.0964599,31.801667 90.126793,31.8739996 90.126793,31.958 C90.126793,32.0373337 90.0987932,32.107333 90.042793,32.168 C89.9867927,32.228667 89.9167934,32.259 89.832793,32.259 C89.7487925,32.259 89.6764599,32.228667 89.615793,32.168 C89.555126,32.107333 89.524793,32.0350004 89.524793,31.951 Z M96.1716172,32.1264648 C95.3854804,32.1264648 94.7782274,31.8957543 94.3498398,31.4343262 C93.9214523,30.9728981 93.7072617,30.3195029 93.7072617,29.4741211 C93.7072617,28.6310179 93.9254399,27.9770531 94.3618027,27.512207 C94.7981656,27.047361 95.4128242,26.8149414 96.2057969,26.8149414 C96.6592497,26.8149414 97.1901688,26.8889967 97.7985703,27.0371094 L97.7985703,27.7104492 C97.1058585,27.4711902 96.5715214,27.3515625 96.195543,27.3515625 C95.6463866,27.3515625 95.2214234,27.5372703 94.9206406,27.9086914 C94.6198579,28.2801125 94.4694688,28.8041958 94.4694688,29.480957 C94.4694688,30.125817 94.6301117,30.6345196 94.9514023,31.0070801 C95.272693,31.3796405 95.7113279,31.565918 96.2673203,31.565918 C96.7458383,31.565918 97.2585285,31.4189468 97.8054063,31.125 L97.8054063,31.7402344 C97.3063803,31.9977226 96.7617894,32.1264648 96.1716172,32.1264648 Z M102.884996,32.1264648 C102.18317,32.1264648 101.618641,31.8832218 101.191393,31.3967285 C100.764144,30.9102352 100.550523,30.2670938 100.550523,29.4672852 C100.550523,28.6629192 100.765284,28.0197778 101.194811,27.5378418 C101.624337,27.0559058 102.197981,26.8149414 102.915758,26.8149414 C103.631256,26.8149414 104.20433,27.0553361 104.634996,27.5361328 C105.065662,28.0169295 105.280992,28.6583619 105.280992,29.4604492 C105.280992,30.2784872 105.065662,30.9273251 104.634996,31.4069824 C104.20433,31.8866398 103.621002,32.1264648 102.884996,32.1264648 Z M102.89525,31.5898438 C103.412505,31.5898438 103.812404,31.4035663 104.094957,31.0310059 C104.377511,30.6584454 104.518785,30.1326531 104.518785,29.4536133 C104.518785,28.7950813 104.376941,28.2801125 104.093248,27.9086914 C103.809555,27.5372703 103.417062,27.3515625 102.915758,27.3515625 C102.412175,27.3515625 102.019112,27.5378399 101.736559,27.9104004 C101.454005,28.2829608 101.31273,28.8007779 101.31273,29.4638672 C101.31273,30.1246778 101.452866,30.6442038 101.733141,31.0224609 C102.013415,31.400718 102.400781,31.5898438 102.89525,31.5898438 Z M108.285875,32 L108.285875,26.9414062 L109.280504,26.9414062 L110.681871,30.8549805 L112.124254,26.9414062 L113.012926,26.9414062 L113.012926,32 L112.343004,32 L112.343004,27.8847656 L110.948473,31.6616211 L110.254625,31.6616211 L108.901109,27.8745117 L108.901109,32 L108.285875,32 Z" id="HAIPINGX.COM" fill="#B9C4CE" fill-rule="nonzero"></path>
                <path d="M65.5,7 C65.7761424,7 66,7.22385763 66,7.5 L66,21 C66,22.1045695 65.1045695,23 64,23 L48,23 L48,7 L65.5,7 Z M61.6428571,15.6153846 L51.8571429,15.6153846 L51.8571429,21.7692308 L61.6428571,21.7692308 C61.888317,21.7692308 62.0924655,21.5923556 62.1348015,21.3591064 L62.1428571,21.2692308 L62.1428571,16.1153846 C62.1428571,15.8392422 61.9189995,15.6153846 61.6428571,15.6153846 Z M58.9285714,16.5384615 L58.9285714,21.4615385 L55.0714286,21.4615385 L54.4285714,16.5384615 L58.9285714,16.5384615 Z M61.6428571,8.23076923 L51.8571429,8.23076923 L51.8571429,14.3846154 L61.6428571,14.3846154 C61.888317,14.3846154 62.0924655,14.2077402 62.1348015,13.974491 L62.1428571,13.8846154 L62.1428571,8.73076923 C62.1428571,8.45462686 61.9189995,8.23076923 61.6428571,8.23076923 Z M58.9285714,8.84615385 L58.9285714,13.7692308 L55.0714286,13.7692308 L54.4285714,8.84615385 L58.9285714,8.84615385 Z" id="形状结合" fill="#B9C4CE"></path>
            </g>
        </g>
    </g>
</svg>