<?xml version="1.0" encoding="UTF-8"?>
<svg width="131px" height="33px" viewBox="0 0 131 33" version="1.1" xmlns="http://www.w3.org/2000/svg" xmlns:xlink="http://www.w3.org/1999/xlink">
    <!-- Generator: Sketch 57.1 (83088) - https://sketch.com -->
    <title>海平线</title>
    <desc>Created with Sketch.</desc>
    <g id="页面-1" stroke="none" stroke-width="1" fill="none" fill-rule="evenodd">
        <g id="首页" transform="translate(-1333.000000, -3845.000000)">
            <g id="海平线" transform="translate(1333.000000, 3845.000000)">
                <path d="M23.216,16.391 L13.6326531,31 L2,31 L11.583,16.391 L23.216,16.391 Z M32,3 L24.015,15.173 L12.382,15.173 L20.3673469,3 L32,3 Z" id="形状结合备份" fill="#1696D2"></path>
                <path d="M23.453,16.217 L32,28 L20.3076923,28 L11.761,16.217 L23.453,16.217 Z M11.6923077,0 L22.571,15 L10.879,15 L-4.97379915e-14,0 L11.6923077,0 Z" id="形状结合备份-2" fill="#00AFED"></path>
                <rect id="矩形备份-42" fill="#5F6C73" x="70" y="1" width="28" height="1"></rect>
                <polygon id="矩形备份-43" fill="#5F6C73" transform="translate(83.500000, 12.000000) rotate(-90.000000) translate(-83.500000, -12.000000) " points="72 9 95 9 95 15 72 15"></polygon>
                <rect id="矩形备份-44" fill="#5F6C73" x="70" y="14" width="28" height="1"></rect>
                <polygon id="路径-4备份-4" fill="#5F6C73" points="91 11 91.6363636 4 98 4 95.4545455 11"></polygon>
                <polygon id="路径-4备份-5" fill="#5F6C73" transform="translate(75.500000, 7.500000) scale(-1, 1) translate(-75.500000, -7.500000) " points="72 11 72.6363636 4 79 4 76.4545455 11"></polygon>
                <polygon id="路径-5备份" fill="#5F6C73" points="105.8125 1 110.875 1 109.1875 8.6 111.4375 8.6 109.1875 18.7333333 112 18.7333333 112 20 103.5625 20 105.8125 11.1333333 103 11.1333333"></polygon>
                <polygon id="矩形备份-45" fill="#5C6C74" transform="translate(107.162011, 22.247475) rotate(-2.000000) translate(-107.162011, -22.247475) " points="102.242073 21.632853 112.081914 21.633139 112.08195 22.8620965 102.242109 22.8618105"></polygon>
                <polygon id="路径-6备份" fill="#5F6C73" points="115 1 121.521739 24 130 24 130 22.7567568 127.391304 22.7567568 122.826087 1"></polygon>
                <polygon id="矩形备份-46" fill="#5F6C73" transform="translate(122.534685, 6.512331) rotate(-5.000000) translate(-122.534685, -6.512331) " points="114.682242 5.60821341 130.529403 5.6093602 130.529492 6.83832421 114.539878 7.41644863"></polygon>
                <polygon id="矩形备份-47" fill="#5F6C73" transform="translate(122.229283, 13.030303) rotate(-5.000000) translate(-122.229283, -13.030303) " points="114.571152 12.3603034 130.101635 11.2517433 129.940969 13.0881628 114.356931 14.8088628"></polygon>
                <polygon id="矩形备份-48" fill="#5F6C73" transform="translate(122.229283, 19.789562) rotate(-5.000000) translate(-122.229283, -19.789562) " points="114.517597 19.7317025 130.262301 16.174583 130.101635 18.0110026 114.196265 23.4045415"></polygon>
                <polygon id="路径-13备份" fill="#5F6C73" points="126 1 126.571429 3 130 3 130 1"></polygon>
                <polygon id="路径-14备份" fill="#5F6C73" points="40 1 41.25 5 45 5 45 1"></polygon>
                <polygon id="路径-15备份" fill="#5F6C73" points="43.5555556 6 40 6 40.5925926 10 44 10 44 6"></polygon>
                <polyline id="路径-16备份" fill="#5F6C73" points="41.5714286 14 41.5714286 20.6 41 23 45 23 45 14"></polyline>
                <path d="M47,4 L48.2666667,0 L52.7,0 L52.7,1.14285714 L66,1.14285714 L66,2.28571429 L54.6,2.28571429 L52.7,2.28571429 C52.2777778,3.04761905 52.0666667,3.61904762 52.0666667,4" id="路径-17备份" fill="#5F6C73"></path>
                <text id="HAIPING-X.COM备份" font-family="LucidaGrande, Lucida Grande" font-size="7" font-weight="normal" letter-spacing="2" fill="#5C6C74">
                    <tspan x="37" y="32">HAIPING</tspan>
                    <tspan x="79.105957" y="32" font-family="AlBayan, Al Bayan"> </tspan>
                    <tspan x="82.505957" y="32">X</tspan>
                    <tspan x="88.887793" y="32" font-family="AlBayan, Al Bayan">.</tspan>
                    <tspan x="93.351793" y="32">COM</tspan>
                </text>
                <path d="M65.5,7 C65.7761424,7 66,7.22385763 66,7.5 L66,21 C66,22.1045695 65.1045695,23 64,23 L48,23 L48,7 L65.5,7 Z M61.6428571,15.6153846 L51.8571429,15.6153846 L51.8571429,21.7692308 L61.6428571,21.7692308 C61.888317,21.7692308 62.0924655,21.5923556 62.1348015,21.3591064 L62.1428571,21.2692308 L62.1428571,16.1153846 C62.1428571,15.8392422 61.9189995,15.6153846 61.6428571,15.6153846 Z M58.9285714,16.5384615 L58.9285714,21.4615385 L55.0714286,21.4615385 L54.4285714,16.5384615 L58.9285714,16.5384615 Z M61.6428571,8.23076923 L51.8571429,8.23076923 L51.8571429,14.3846154 L61.6428571,14.3846154 C61.888317,14.3846154 62.0924655,14.2077402 62.1348015,13.974491 L62.1428571,13.8846154 L62.1428571,8.73076923 C62.1428571,8.45462686 61.9189995,8.23076923 61.6428571,8.23076923 Z M58.9285714,8.84615385 L58.9285714,13.7692308 L55.0714286,13.7692308 L54.4285714,8.84615385 L58.9285714,8.84615385 Z" id="形状结合备份-3" fill="#5F6C73"></path>
            </g>
        </g>
    </g>
</svg>