<?xml version="1.0" encoding="UTF-8"?>
<svg width="39px" height="32px" viewBox="0 0 39 32" version="1.1" xmlns="http://www.w3.org/2000/svg" xmlns:xlink="http://www.w3.org/1999/xlink">
    <!-- Generator: Sketch 57.1 (83088) - https://sketch.com -->
    <title>编组 4</title>
    <desc>Created with Sketch.</desc>
    <defs>
        <linearGradient x1="50%" y1="0%" x2="50%" y2="100%" id="linearGradient-1">
            <stop stop-color="#C7E5FD" offset="0%"></stop>
            <stop stop-color="#D8D8D8" stop-opacity="0" offset="100%"></stop>
        </linearGradient>
        <linearGradient x1="50%" y1="0%" x2="50%" y2="100%" id="linearGradient-2">
            <stop stop-color="#C8E7FF" offset="0%"></stop>
            <stop stop-color="#D8D8D8" stop-opacity="0" offset="100%"></stop>
        </linearGradient>
    </defs>
    <g id="页面-1" stroke="none" stroke-width="1" fill="none" fill-rule="evenodd">
        <g id="区块链培训" transform="translate(-115.000000, -1590.000000)">
            <g id="编组-4" transform="translate(115.000000, 1590.000000)">
                <circle id="椭圆形" fill="url(#linearGradient-1)" cx="28.5" cy="26.5" r="5.5"></circle>
                <rect id="矩形" fill="url(#linearGradient-2)" x="0" y="0" width="21" height="20"></rect>
                <path d="M21,31.25 C30.4763673,31.25 38.25,24.9339234 38.25,17 C38.25,9.06607657 30.4763673,2.75 21,2.75 C11.5236327,2.75 3.75,9.06607657 3.75,17 C3.75,24.9339234 11.5236327,31.25 21,31.25 Z M21,28.75 C12.8032553,28.75 6.25,23.4254801 6.25,17 C6.25,10.5745199 12.8032553,5.25 21,5.25 C29.1967447,5.25 35.75,10.5745199 35.75,17 C35.75,23.4254801 29.1967447,28.75 21,28.75 Z" id="椭圆形" fill="#3F79FE" fill-rule="nonzero"></path>
            </g>
        </g>
    </g>
</svg>