<?xml version="1.0" encoding="UTF-8"?>
<svg width="176px" height="45px" viewBox="0 0 176 45" version="1.1" xmlns="http://www.w3.org/2000/svg" xmlns:xlink="http://www.w3.org/1999/xlink">
    <!-- Generator: Sketch 57.1 (83088) - https://sketch.com -->
    <title>美的</title>
    <desc>Created with Sketch.</desc>
    <g id="页面-1" stroke="none" stroke-width="1" fill="none" fill-rule="evenodd">
        <g id="首页" transform="translate(-985.000000, -3838.000000)">
            <g id="美的" transform="translate(985.000000, 3838.000000)">
                <path d="M22.1538462,36.5128948 C21.8923332,37.2810964 21.7240804,37.8912788 21.4649711,38.4610045 C21.3909399,38.6228313 21.0453006,38.7599082 20.8323406,38.7494371 C17.3547956,38.5761871 14.6050641,36.9864763 12.3076923,34.4962466 C13.1143443,33.6195259 13.5306498,33.543848 14.4228704,34.1197612 C16.7202422,35.6028567 19.1685608,36.6247457 22.1538462,36.5128948" id="Fill-19" fill="#00A2EE"></path>
                <path d="M34.4484265,32.4970893 C32.0022654,32.4966215 31.9949603,32.4966215 32.0043525,30.3146294 C32.0116576,28.5719363 31.7930268,28.7759132 33.6939152,28.7628138 C34.5491324,28.7571997 35.4085239,28.7239833 36.256436,28.793691 C36.4928078,28.8133402 36.8664109,29.1450367 36.8841518,29.3541598 C36.9572027,30.1962666 36.9008492,31.0458587 36.9222427,31.8926438 C36.9347657,32.3712411 36.6665646,32.5101887 36.1891248,32.4994285 C35.6088921,32.4872647 35.0286593,32.4966215 34.4484265,32.4970893" id="Fill-31" fill="#FEFEFE"></path>
                <g id="编组" transform="translate(0.000000, 18.750000)" fill="#00A2EE">
                    <path d="M0.915589267,3.94647368 C0.855224329,3.69331579 0.81117424,3.577 0.801929159,3.45910526 C0.693707335,2.01278947 0.705671556,2.00805263 2.18379678,2.01963158 C3.4443907,2.02910526 4.70498462,2.02173684 6.18909195,2.02173684 C5.59468766,1.40489474 5.16669481,0.962263158 4.52878426,0.300157895 C5.70726011,0.300157895 6.58554275,0.240684211 7.44696673,0.331736842 C7.75259821,0.363842105 8.0506161,0.732263158 8.29425116,0.996473684 C8.9626161,1.71963158 9.71201145,2.19910526 10.7811778,2.04015789 C11.154244,1.98436842 11.5496072,1.98963158 11.9248487,2.03857895 C13.2659292,2.21436842 14.2578719,1.70594737 15.0279327,0.672789474 C15.1584515,0.497 15.406981,0.305947368 15.6109166,0.294894737 C16.4255714,0.251736842 17.2434891,0.277 18.3795463,0.277 C17.8215785,0.931210526 17.4414426,1.37805263 16.9378576,1.96857895 L22.509922,1.96857895 L22.509922,3.94647368 L20.8186161,3.94647368 C18.4948379,3.947 16.1710597,3.93015789 13.8483692,3.97331579 C13.5960329,3.97805263 13.2061081,4.29068421 13.1321474,4.53226316 C12.9760687,5.04278947 13.3409775,5.21436842 13.8461939,5.21173684 C16.0421725,5.20068421 18.2386948,5.23173684 20.4346733,5.19226316 C21.2047342,5.17805263 21.563117,5.29805263 21.559854,6.17752632 C21.5565911,7.107 21.0937932,7.12489474 20.3759399,7.11384211 C18.2756751,7.08173684 16.1748665,7.10384211 14.074058,7.09436842 C13.5334927,7.09226316 13.0658004,7.06963158 13.0788522,7.83068421 C13.0919041,8.60173684 13.5998397,8.54436842 14.1153889,8.54489474 C16.2798254,8.54647368 18.4442619,8.56489474 20.6081546,8.53436842 C21.3058862,8.52436842 21.5625732,8.73068421 21.5462583,9.43121053 C21.5310311,10.0927895 21.4353174,10.4438421 20.6125052,10.4217368 C18.6090419,10.3680526 16.6017717,10.3691053 14.5983084,10.4233158 C14.0544801,10.4375263 13.117464,9.96226316 13.0967986,11.1017368 C13.0745016,12.3406842 14.0892852,11.8006842 14.6369202,11.8127895 C17.1814927,11.8706842 19.7287843,11.8364737 22.2749882,11.8354211 L23.209829,11.8354211 C23.2353889,12.1612105 23.2397395,12.427 23.279439,12.6880526 C23.3979936,13.4738421 23.1190097,13.7564737 22.2429023,13.7401579 C19.2839327,13.6864737 16.3233317,13.7396316 13.3638182,13.7059474 C12.6921903,13.6985789 12.2370061,13.8612105 11.854151,14.4143684 C9.69243363,17.5322632 6.58771807,19.0933158 2.77711342,19.4627895 C2.14627263,19.5243684 1.51760716,19.6112105 0.887854025,19.6848947 C0.417986404,19.7396316 0.153685868,19.5859474 0.192297674,19.0806842 C0.223839714,18.6643684 0.0884264758,18.1980526 0.805735957,18.1827895 C2.59003649,18.1448947 4.23239785,17.5948947 5.78013309,16.7748947 C7.0559542,16.0991053 7.98970733,15.0875263 8.91149624,13.7185789 L7.2424873,13.7185789 C5.14167871,13.7191053 3.04087013,13.6943684 0.941149195,13.7348947 C0.227102683,13.7485789 -0.0317595707,13.5322632 0.00304543828,12.8417368 C0.0334998211,12.2375263 0.0193602862,11.7996316 0.90199356,11.8185789 C3.54282361,11.8743684 6.18474132,11.8285789 8.82665903,11.8464737 C9.44879857,11.8506842 9.90017603,11.7580526 9.88929946,11.0243684 C9.87896673,10.2901579 9.32589338,10.4075263 8.86798998,10.4054211 C6.92652308,10.397 4.98451234,10.3901579 3.04358927,10.4096316 C2.39099535,10.4159474 1.8781653,10.4575263 1.89611163,9.53805263 C1.91242648,8.71489474 2.17672701,8.49963158 3.00824043,8.52542105 C4.97961789,8.58594737 6.95425832,8.53910526 8.92726726,8.54910526 C9.49883077,8.55173684 9.91866619,8.48594737 9.90615814,7.76489474 C9.89365009,7.04752632 9.42541395,7.09594737 8.93542469,7.09647368 C6.86615814,7.09963158 4.79689159,7.07068421 2.72925653,7.11647368 C1.97768587,7.13278947 1.88523506,6.78331579 1.9167771,6.21331579 C1.94614383,5.69963158 1.79985403,5.17015789 2.69336386,5.19121053 C4.79254097,5.24173684 6.89443721,5.20489474 8.99470197,5.21121053 C9.47598998,5.21278947 9.89528157,5.19436842 9.89908837,4.56226316 C9.903439,3.89594737 9.43520286,3.94647368 8.98110626,3.94647368 C6.31036565,3.94647368 3.64016887,3.94647368 0.915589267,3.94647368" id="Fill-3"></path>
                </g>
                <path d="M34.5039576,33.9328008 C35.055827,33.9328008 35.6076963,33.9215831 36.1595656,33.9360058 C36.6136667,33.9482918 36.8687574,33.7896424 36.8568465,33.2426492 C36.8364988,32.2763301 36.8900976,31.3062719 36.8206177,30.3447604 C36.803744,30.105985 36.4484037,29.7272563 36.2235864,29.704821 C35.4171227,29.6252292 34.5997407,29.6631555 33.786329,29.6695656 C31.9783614,29.6845225 32.186305,29.451623 32.179357,31.4414176 C32.1704239,33.9328008 32.1773719,33.9328008 34.5039576,33.9328008 M34.4984985,27.6824572 C36.9888584,27.6819077 36.9888584,27.6819077 36.85238,25.1696918 C36.7873666,23.9736783 35.6717171,23.0287262 34.3957674,23.0890877 C32.8667122,23.1612011 32.175883,23.8230415 32.176379,25.213494 C32.1773719,27.682976 32.1773719,27.682976 34.4984985,27.6824572 M32.1049142,37.3408249 C31.9505695,37.3792853 31.8413867,37.4225533 31.7297225,37.4316343 C29.5594666,37.6089797 29.5594666,37.6084456 29.5589703,35.2810536 C29.5574815,31.0760433 29.5738589,26.871033 29.5386226,22.6660227 C29.5316746,21.882925 29.748055,21.5640237 30.4701502,21.6831442 C30.5267268,21.6927594 30.5857847,21.6863493 30.6443464,21.6868835 C32.7297375,21.6997036 32.9664656,21.506333 33.548112,19.3108817 C33.5942666,19.1362071 33.634962,18.9593958 33.6860794,18.75 L36.2846295,18.75 C36.0290425,19.6735852 35.8017439,20.4951434 35.5610455,21.3637088 C36.158573,21.4753509 36.7779372,21.565092 37.3853904,21.7098529 C38.5883861,21.997238 39.3779762,23.0725284 39.3779762,24.3988801 C39.3779762,28.2609513 39.3571322,32.1235566 39.3844279,35.9856278 C39.3903833,36.7628496 39.2583714,37.2259777 38.4290785,37.2233068 C37.9501632,37.2217043 37.4707515,37.3493716 36.9327782,37.4273609 C36.9000234,37.084956 36.9436965,36.8034468 36.838484,36.6196912 C36.6900946,36.3606173 36.4394705,35.9995163 36.2186236,35.9872303 C35.0900706,35.9247321 33.9570512,35.9439623 32.8265131,35.9701368 C32.241889,35.9840253 32.2423853,36.0182124 32.1049142,37.3408249" id="Fill-13" fill="#09A1E8"></path>
                <path d="M45.5384615,30.110335 C44.8021958,30.5376921 44.2049816,30.915561 43.5738293,31.2268287 C43.4319497,31.2966673 43.0690018,31.1986157 42.980386,31.0663385 C42.2115963,29.9202443 41.4847578,28.7468622 40.7400076,27.5850428 C40.3666898,27.0022831 40.9228957,26.8334678 41.219853,26.5721509 C41.5064405,26.3205467 41.8396926,26.0527548 42.2125391,26.459299 C43.2928982,27.6373062 44.3657156,28.8217885 45.5384615,30.110335" id="Fill-21" fill="#09A1E8"></path>
                <path d="M34.4205578,27.5 C32.0010358,27.5004232 32.0010358,27.5004232 32,25.4853317 C31.9989665,24.3509712 32.7190808,23.8114636 34.3129545,23.7521962 C35.6429932,23.7033877 36.8064538,24.4742997 36.8742232,25.449597 C37.0164871,27.4995517 37.0164871,27.4995517 34.4205578,27.5" id="Fill-29" fill="#FEFEFE"></path>
                <path d="M95.8982705,34.1196228 C96.8076703,32.5640369 97.757654,31.1986324 98.4465124,29.7096912 C100.192688,25.9374902 100.641247,21.9192996 100.341674,17.7965364 C100.230068,16.2620818 100.228466,16.2620818 101.739682,16.2609981 C102.520923,16.2599145 103.302697,16.2712928 104.083937,16.2507034 C104.650509,16.2360741 104.913771,16.4609324 105.008823,17.0553168 C105.813025,22.0926844 106.650869,27.1246336 107.466285,32.1603757 C107.753042,33.9321506 107.987467,35.7131367 108.281167,37.483828 C108.398112,38.189287 108.127909,38.3751337 107.479635,38.3550861 C106.324061,38.3198673 105.166352,38.3177 104.011313,38.3561698 C103.451682,38.3751337 103.194829,38.1210168 103.119535,37.6192848 C102.843992,35.7792396 102.587138,33.9364853 102.310527,32.0964401 C102.116686,30.8063495 101.90095,29.518968 101.669195,28.0668711 C97.1537015,40.0184956 89.3236783,46.8308891 76.3795494,44.5693023 C65.9073006,42.7395519 60.2618662,34.3618196 59.0769231,27.5754338 C59.2050828,27.8040849 59.3417864,28.0273177 59.4598002,28.2613871 C63.0092896,35.3045989 68.663268,39.6056233 76.2695457,41.1606674 C81.3030176,42.1901391 86.1971158,41.4960584 90.8279527,39.1602413 C91.3074835,38.9185864 91.6796806,38.6704296 91.5782209,38.0272807 C91.0645141,34.7573535 90.5673613,31.4841753 90.0605965,28.2126226 C90.0536545,28.1665673 89.9949147,28.1286394 89.9164169,28.0332778 C88.2658268,32.2914979 85.6059792,35.5592577 81.3553495,37.2665553 C79.5936877,37.9736398 77.7545961,38.3632135 75.6549132,38.2217966 C77.0267559,37.5667275 78.2533509,37.0747484 79.3886322,36.4202212 C82.0196439,34.903105 84.0082551,32.6783625 85.1953342,29.9101673 C86.9335001,25.8556743 88.1771831,21.623462 88.4420464,17.1642241 C88.4826303,16.4761035 88.7619117,16.2225284 89.435818,16.2523289 C90.3713838,16.2945914 91.3106875,16.2777948 92.2478553,16.2599145 C92.8971977,16.2474524 93.190363,16.5254098 93.2811428,17.1934828 C94.031945,22.6935707 94.8094471,28.1904077 95.5826772,33.6877866 C95.5901532,33.7387183 95.6494271,33.7831482 95.8982705,34.1196228" id="Fill-1" fill="#09A1E8"></path>
                <path d="M100.905595,13.2371027 C99.3430757,11.7304817 97.9131723,10.0773085 96.2196406,8.77185861 C91.7192417,5.30219575 86.5926585,3.79881939 80.9281236,4.45100352 C73.9796703,5.25136216 68.5504225,8.60800141 64.9018695,14.6382711 C62.3302894,18.8888245 61.2420869,23.5027839 62.4281474,28.4839348 C62.441516,28.5390947 62.4094314,28.6050702 62.1944646,28.75 C61.7907335,27.6743829 61.2864706,26.6247233 61.000383,25.5182816 C59.6752893,20.3911193 60.2367697,15.4921673 62.8104888,10.8289966 C65.4291263,6.08579012 69.3498636,2.94654559 74.3743108,1.18575658 C78.2030722,-0.155925705 82.1173925,-0.363586325 86.0841177,0.586028386 C91.0663202,1.77953617 95.1886557,4.35095869 98.2693113,8.47605039 C99.3104564,9.87018861 100.038242,11.5022713 100.899178,13.0316052 C100.94891,13.1197529 100.905595,13.2603564 100.905595,13.2371027" id="Fill-5" fill="#09A1E8"></path>
                <path d="M130.214005,30.7876045 C130.214005,29.9990967 130.121523,29.1981224 130.235922,28.4257171 C130.405383,27.2767189 129.782603,26.7567609 128.819833,26.4154897 C128.555753,26.3214713 128.289,26.2175836 128.014763,26.1739507 C125.576567,25.7874884 123.448958,26.2118698 122.777532,28.7082918 C122.374997,30.2037555 122.356287,31.7797323 123.045888,33.2513019 C123.246889,33.6787999 123.529679,34.1057784 123.878756,34.4273109 C125.28255,35.721752 127.629335,35.8240814 129.504624,34.6392419 C129.846752,34.4231554 130.137026,33.914625 130.18193,33.513099 C130.282965,32.6139507 130.21347,31.6971416 130.214005,30.7876045 M130.211332,23.7533668 C130.211332,21.9135152 130.264789,20.2476756 130.189414,18.5880692 C130.149856,17.7096985 130.491984,17.4577708 131.318971,17.5055591 C132.004296,17.5450364 132.694433,17.5112729 133.382431,17.5024425 C133.914867,17.4956898 134.155426,17.6904793 134.15383,18.2571868 C134.137785,24.8047106 134.13832,31.3522343 134.15383,37.8992386 C134.154892,38.4545185 133.958168,38.6654106 133.397399,38.6456719 C132.71047,38.6222972 132.019265,38.6046363 131.334474,38.6503469 C130.537957,38.7033296 130.039199,38.5282788 130.201175,37.6187418 C130.220954,37.5075819 130.172308,37.3849944 130.133818,37.1200807 C129.846752,37.2946121 129.630783,37.4260301 129.415884,37.5584869 C126.915142,39.098103 124.291448,39.098103 121.749544,37.8327505 C119.381377,36.6536248 118.404174,34.498474 118.203708,32.0051687 C118.051354,30.1071399 118.206916,28.2543024 119.253079,26.5593742 C120.461218,24.6021295 122.286792,23.6146767 124.548579,23.197048 C126.439905,22.8479853 128.257995,23.0360221 130.211332,23.7533668" id="Fill-7" fill="#09A1E8"></path>
                <path d="M144.702382,29.0308261 L144.702382,29.0118527 C145.808208,29.0118527 146.914576,29.007516 148.020403,29.013479 C148.702203,29.0172737 148.826216,28.6687062 148.643717,28.0908322 C148.085929,26.3263108 146.776484,25.386859 144.878924,25.3987851 C142.899051,25.4107113 141.456927,26.4358142 140.936506,28.1580521 C140.747508,28.7814621 140.904555,29.0487152 141.5739,29.036247 C142.616366,29.0161895 143.659374,29.0308261 144.702382,29.0308261 L144.702382,29.0308261 Z M140.866106,31.2501657 C140.855275,33.1550899 141.968683,34.7548142 143.839166,35.2584211 C146.361122,35.9371248 148.790474,35.8650261 150.721068,33.6765859 C150.904108,33.4689633 151.511717,33.5226308 151.86751,33.631592 C152.024557,33.6792964 152.188643,34.2235604 152.104705,34.4517827 C151.336258,36.5377668 149.928252,37.9282422 147.704685,38.4773851 C144.725127,39.213551 140.033758,38.5315947 138.012727,35.535974 C135.158806,31.3054595 136.563563,23.7020257 143.271631,22.6460234 C145.720479,22.2600513 147.927799,22.5945243 149.853519,24.1888276 C151.889171,25.8752872 152.424214,28.2306929 152.612128,30.7086122 C152.662492,31.3715952 152.117702,31.2431185 151.734832,31.2442027 C148.505082,31.2528762 145.275874,31.2496236 142.046665,31.2501657 L140.866106,31.2501657 Z" id="Fill-9" fill="#09A1E8"></path>
                <path d="M166.297167,33.2484803 C166.297167,32.9359988 166.263789,32.6197655 166.303627,32.3121079 C166.417759,31.4175427 166.017221,30.927649 165.136469,30.8713701 C164.137817,30.8075875 163.114939,30.6650145 162.139974,30.8091955 C160.888833,30.9935756 160.103908,31.829718 159.855726,33.1139471 C159.674299,34.0540714 160.04092,34.8146394 160.735939,35.3420524 C161.773891,36.1294199 163.000807,36.2007064 164.239028,35.8791131 C166.274556,35.3495562 166.346157,35.8276582 166.297167,33.2484803 M166.25679,37.4608159 C164.814532,38.5252896 163.311977,38.8222274 161.700675,38.7359332 C159.395969,38.6126558 157.203241,37.2930515 156.637966,35.5784234 C155.546716,32.2686928 157.18709,28.9686101 161.152089,28.5248114 C162.816151,28.3388233 164.518974,28.493724 166.195417,28.493724 C166.546426,27.1414244 165.864866,25.8636272 164.583576,25.4262604 C162.106058,24.5799341 160.099063,25.0993072 158.538366,27.1071211 C158.015621,27.779787 157.502029,27.5042888 157.084264,27.208959 C156.889379,27.0722818 156.858692,26.4339192 157.000819,26.1407334 C158.497989,23.0550461 161.759356,22.1229616 164.824222,22.630543 C165.791649,22.7908036 166.778458,23.1386603 167.628523,23.6221222 C169.101468,24.4598726 169.797564,25.8689871 169.816945,27.5348401 C169.855706,30.9458726 169.814791,34.357441 169.846016,37.7684735 C169.852476,38.4657949 169.633365,38.745581 168.928117,38.6801904 C168.459208,38.6367753 167.978994,38.6255195 167.5117,38.6732225 C166.708471,38.7552288 166.121124,38.6244475 166.25679,37.4608159" id="Fill-11" fill="#09A1E8"></path>
                <path d="M39.4624386,25.925933 C39.2617603,24.7447532 39.4182782,23.9292023 40.2975734,23.228548 C41.4669856,22.2959529 42.0852313,20.9907492 42.2920585,19.5695752 C42.3910002,18.8930814 42.6593166,18.7271793 43.2865062,18.7524136 C44.0327611,18.78248 44.7818111,18.7593933 45.7617249,18.7593933 C45.4296833,19.7145382 45.1451562,20.5349212 44.7969039,21.5367764 C45.6683731,21.5367764 46.3995353,21.5324812 47.1306975,21.5373133 C50.0570231,21.555031 51.6730704,23.0970075 51.6876042,25.9049939 C51.698225,27.9736692 51.6881632,30.0428813 51.6836912,32.1120935 C51.6758653,35.7270405 49.1017049,39.564264 43.4905384,38.598918 C43.2557616,38.5586505 42.8829136,38.1344996 42.926515,37.9814831 C43.000302,37.7226973 43.3217227,37.424181 43.6006599,37.3474043 C44.0277302,37.2303601 44.5162896,37.3366663 44.9623656,37.2620372 C46.8003329,36.9533198 47.9423545,35.6481162 48.0496811,33.6803781 C48.1771314,31.3330518 48.203963,28.9803565 48.357127,26.6346408 C48.5270607,24.0355085 46.421336,22.5708456 43.6096038,23.4572673 C42.4379556,23.8266544 41.4172353,24.6416685 40.3372618,25.2693044 C40.0700634,25.4244685 39.8408765,25.6386916 39.4624386,25.925933" id="Fill-15" fill="#09A1E8"></path>
                <path d="M112,22.5 L115.626395,22.5 C115.644467,22.8274666 115.676093,23.1351864 115.676594,23.4423578 C115.679104,28.1733449 115.661033,32.9043321 115.692156,37.6353192 C115.69818,38.4509689 115.527001,38.7559461 114.724314,38.75 C112.000502,38.7296171 112,38.7619798 112,35.8038101 C112,31.7765745 112,27.7482417 112,23.7204576 L112,22.5 Z" id="Fill-17" fill="#09A1E8"></path>
                <path d="M113.817228,18.75 C112.008905,18.75 112.008905,18.75 112.0094,16.6794558 C112.0094,16.4200128 112.028722,16.1583476 112.006923,15.9016823 C111.952921,15.2755746 112.215995,14.9972428 112.756015,15 C113.509566,15.0027983 114.263612,15.0105761 115.017658,15.0116872 C115.4794,15.0116872 115.721666,15.2366859 115.689463,15.7811274 C115.672618,16.0716814 115.678068,16.3644575 115.677077,16.6561226 C115.672618,18.75 115.672618,18.75 113.817228,18.75" id="Fill-23" fill="#09A1E8"></path>
                <path d="M130.414301,29.4024573 C130.413792,30.2475392 130.479866,31.0993779 130.383805,31.9348072 C130.341111,32.3078788 130.065126,32.7803718 129.739839,32.9811451 C127.95686,34.0820199 125.725596,33.9869422 124.390903,32.7842328 C124.059009,32.485486 123.790139,32.0887656 123.599033,31.6915626 C122.943377,30.324277 122.961166,28.8599832 123.343886,27.4704967 C123.982262,25.1509858 126.005139,24.7566786 128.323316,25.1157539 C128.584054,25.1562947 128.837676,25.2528203 129.088757,25.340176 C130.004134,25.6572627 130.596258,26.1403735 130.435139,27.207947 C130.326372,27.9256151 130.414301,28.6698277 130.414301,29.4024573" id="Fill-25" fill="#FEFEFE"></path>
                <path d="M173.538462,16.7808983 C172.469477,16.7808983 171.599654,17.664313 171.599654,18.75 C171.599654,19.835687 172.469477,20.7191017 173.538462,20.7191017 C174.607446,20.7191017 175.477269,19.835687 175.477269,18.75 C175.477269,17.664313 174.607446,16.7808983 173.538462,16.7808983 M173.538462,21.25 C172.18093,21.25 171.076923,20.1287428 171.076923,18.75 C171.076923,17.3712572 172.18093,16.25 173.538462,16.25 C174.895993,16.25 176,17.3712572 176,18.75 C176,20.1287428 174.895993,21.25 173.538462,21.25" id="Fill-33" fill="#BBC4CD"></path>
                <path d="M173.758424,18.5724044 L174.056815,18.5724044 C174.206739,18.5748439 174.317268,18.5445941 174.38913,18.481655 C174.460627,18.4196916 174.49601,18.3191842 174.49601,18.1815964 C174.49601,18.0440086 174.461356,17.9435012 174.391318,17.88105 C174.321645,17.8185988 174.212576,17.7868852 174.06484,17.7868852 L173.758424,17.7868852 L173.758424,18.5724044 Z M174.769231,20 L174.493822,20 L173.835028,18.8592896 L173.758424,18.8592896 L173.758424,20 L173.538462,20 L173.538462,17.5 L173.921481,17.5 C174.126123,17.5 174.266563,17.5121975 174.343167,17.5356167 C174.419406,17.5600117 174.485796,17.6005074 174.541973,17.6571038 C174.598514,17.7141881 174.642652,17.787861 174.675117,17.8776347 C174.707583,17.9674083 174.723633,18.0669399 174.723633,18.1762295 C174.723633,18.383587 174.67074,18.5494731 174.565318,18.6733997 C174.459532,18.7973263 174.307419,18.8592896 174.108249,18.8592896 L174.769231,20 Z" id="Fill-35" fill="#BBC4CD"></path>
            </g>
        </g>
    </g>
</svg>