<?xml version="1.0" encoding="UTF-8"?>
<svg width="17px" height="17px" viewBox="0 0 17 17" version="1.1" xmlns="http://www.w3.org/2000/svg" xmlns:xlink="http://www.w3.org/1999/xlink">
    <!-- Generator: Sketch 57.1 (83088) - https://sketch.com -->
    <title>选项框(确定)</title>
    <desc>Created with Sketch.</desc>
    <g id="页面-1" stroke="none" stroke-width="1" fill="none" fill-rule="evenodd">
        <g id="区块链培训" transform="translate(-831.000000, -3978.000000)" fill-rule="nonzero">
            <g id="选项框(确定)" transform="translate(830.000000, 3977.000000)">
                <rect id="矩形" fill="#735648" opacity="0" x="0" y="0" width="20" height="20"></rect>
                <path d="M16.8664905,1 L2.13350947,1 C1.50748181,1 1,1.50750126 1,2.13350947 L1,16.8664905 C1,17.4925182 1.50750126,18 2.13350947,18 L16.8664905,18 C17.4925182,18 18,17.4924987 18,16.8664905 L18,2.13350947 C18,1.50748181 17.4924987,1 16.8664905,1 Z M16.7857115,16.2933053 C16.7857115,16.5652497 16.5652497,16.7857115 16.2933053,16.7857115 L2.70669466,16.7857115 C2.43475031,16.7857115 2.21428848,16.5652497 2.21428848,16.2933053 L2.21428848,2.70669466 C2.21428848,2.43475031 2.43475031,2.21428848 2.70669466,2.21428848 L16.2933053,2.21428848 C16.5652497,2.21428848 16.7857115,2.43475031 16.7857115,2.70669466 L16.7857115,16.2933053 Z M15.4112832,5.2550414 L15.2434501,5.08720833 C15.051158,4.8949162 14.7616319,4.872633 14.59681,5.03747426 L8.02622009,11.6080642 L4.34535468,7.92721821 C4.19117905,7.77304258 3.91031752,7.80395153 3.71800596,7.99626309 L3.55017289,8.16409616 C3.35788075,8.35638829 3.32695239,8.63726924 3.48112802,8.79144487 L7.74147309,13.0517511 C7.82619586,13.1364739 7.94919056,13.1649738 8.07469139,13.1418358 C8.17081803,13.1369984 8.26142729,13.1012521 8.33023905,13.0324403 L15.4610173,5.90166208 C15.6258391,5.73684024 15.6035753,5.44733354 15.4112832,5.2550414 Z" id="形状" fill="#1F3470"></path>
            </g>
        </g>
    </g>
</svg>