<?xml version="1.0" encoding="UTF-8"?>
<svg width="104px" height="48px" viewBox="0 0 104 48" version="1.1" xmlns="http://www.w3.org/2000/svg" xmlns:xlink="http://www.w3.org/1999/xlink">
    <!-- Generator: Sketch 57.1 (83088) - https://sketch.com -->
    <title>金储</title>
    <desc>Created with Sketch.</desc>
    <g id="页面-1" stroke="none" stroke-width="1" fill="none" fill-rule="evenodd">
        <g id="首页" transform="translate(-360.000000, -3845.000000)">
            <g id="金储" transform="translate(360.000000, 3845.000000)">
                <text id="金储备份" font-family="FZLTZHK--GBK1-0, Lantinghei SC" font-size="20" font-weight="500" letter-spacing="4" fill="#EF883F">
                    <tspan x="60" y="23">金储</tspan>
                </text>
                <text id="JINCHU备份" font-family="FZLTZHK--GBK1-0, Lantinghei SC" font-size="10" font-weight="500" fill="#EF883F">
                    <tspan x="60" y="40">JINCHU</tspan>
                </text>
                <polygon id="路径-18备份" fill="#DBB765" points="7 6 16.92 0 29.94 0 38 6"></polygon>
                <path d="M38,9 C38.5522847,9 39,9.44771525 39,10 L39,15.111 L24.5714286,15.1111111 C24.0585927,15.1111111 23.6359214,15.4971513 23.5781563,15.99449 L23.5714286,16.1111111 L23.5714286,16.5555556 C23.5714286,17.1078403 24.0191438,17.5555556 24.5714286,17.5555556 L24.5714286,17.5555556 L39,17.555 L39,19 C39,19.5522847 38.5522847,20 38,20 L22,20 C21.4477153,20 21,19.5522847 21,19 L21,10 C21,9.44771525 21.4477153,9 22,9 L38,9 Z" id="形状结合备份-4" fill="#DBB765"></path>
                <rect id="矩形备份-49" fill="#EA7B2A" x="0" y="9" width="18" height="11" rx="1"></rect>
                <path d="M38,22 C38.5522847,22 39,22.4477153 39,23 L39,41 C39,41.5522847 38.5522847,42 38,42 L22,42 C21.4477153,42 21,41.5522847 21,41 L21,23 C21,22.4477153 21.4477153,22 22,22 L38,22 Z M24.5714286,31.0902598 C24.0191438,31.0902598 23.5714286,31.5379751 23.5714286,32.0902598 L23.5714286,32.0902598 L23.5714286,34.5 L39,34.5 L39,32 L27.7792208,32 L24.8561968,31.1316634 C24.7637666,31.1042054 24.667851,31.0902598 24.5714286,31.0902598 Z" id="形状结合备份-5" fill="#DBB765"></path>
                <path d="M2,44 L38,44 C38.5522847,44 39,44.4477153 39,45 L39,47 C39,47.5522847 38.5522847,48 38,48 L3,48 C1.8954305,48 1,47.1045695 1,46 L1,45 C1,44.4477153 1.44771525,44 2,44 Z" id="矩形备份-50" fill="#DBB765"></path>
                <path d="M15.4285714,34.5 L15.4285714,32.0902598 C15.4285714,31.5379751 14.9808562,31.0902598 14.4285714,31.0902598 C14.332149,31.0902598 14.2362334,31.1042054 14.1438032,31.1316634 L11.2207792,32 L0,32 L0,23 C-6.76353751e-17,22.4477153 0.44771525,22 1,22 L17,22 C17.5522847,22 18,22.4477153 18,23 L18,41 C18,41.5522847 17.5522847,42 17,42 L1,42 C0.44771525,42 6.76353751e-17,41.5522847 0,41 L0,34.5 L15.4285714,34.5 Z" id="形状结合备份-6" fill="#DBB765"></path>
                <polygon id="路径-19备份" fill="#DBB765" points="1 0 1 7 13 0"></polygon>
                <g id="编组-22备份-2" transform="translate(4.000000, 9.000000)" fill="#E1B755" fill-rule="nonzero">
                    <path d="M5.28140249,2.58020726 C5.04542171,2.48103321 4.82910923,2.38805893 4.63245858,2.30128164 L4.63245858,2.65458742 L3.45256054,2.65458742 L3.45256054,3.15665354 L5.12408276,3.15665354 L5.12408276,3.60293453 L3.45256054,3.60293453 L3.45256054,4.64425684 L5.41905727,4.64425684 L5.41905727,5.05334775 L0.935444738,5.05334775 L0.935444738,4.64425684 L2.90194146,4.64425684 L2.90194146,3.60293453 L1.23041925,3.60293453 L1.23041925,3.15665354 L2.90194146,3.15665354 L2.90194146,2.65458742 L1.68271349,2.65458742 L1.68271349,2.33847172 C1.49917288,2.42524901 1.29597025,2.51822329 1.07309951,2.61739734 C1.04687942,2.58020707 1.0141048,2.53062079 0.974774672,2.46863701 C0.883004366,2.33227269 0.817455131,2.23310013 0.778125,2.17111635 C1.86625863,1.77442015 2.61351991,1.29095391 3.01993126,0.720703125 L3.62954525,0.776488249 L3.51155544,0.92524858 C4.02284715,1.48310261 4.7045592,1.87359457 5.55671204,2.09673618 C5.53049195,2.14632321 5.48460748,2.22690091 5.41905727,2.33847172 C5.35350705,2.45004253 5.30762258,2.53062023 5.28140249,2.58020726 Z M3.21658094,1.27855436 C2.88882984,1.62566354 2.46275981,1.94177608 1.93835807,2.22690147 L4.45547387,2.22690147 C3.97040225,1.96656959 3.55744207,1.65045705 3.21658094,1.27855436 Z M4.2588242,4.58847172 L3.86552485,4.34673618 C3.8786349,4.33433943 3.89174475,4.31574457 3.90485479,4.29095106 C4.16705566,4.01822242 4.35714845,3.81367901 4.47513884,3.6773147 L4.90776812,3.90045519 C4.73733755,4.08640653 4.52102507,4.31574308 4.2588242,4.58847172 Z M2.0366829,4.58847172 C1.93180255,4.46450416 1.73515485,4.24136589 1.44673389,3.91905023 L1.84003323,3.6773147 C1.98424371,3.82607577 2.16778157,4.02442089 2.39065231,4.27235602 C2.36443223,4.24756251 2.384097,4.27235602 2.44964721,4.34673618 L2.0366829,4.58847172 Z M9.19866397,1.68764527 L9.19866397,1.29714941 L9.76894802,1.29714941 L9.76894802,0.776488249 L10.2212423,0.776488249 L10.2212423,1.29714941 L10.7915263,1.29714941 L10.7915263,1.68764527 L10.2212423,1.68764527 L10.2212423,2.20830643 L10.398227,2.20830643 C10.699758,1.88599077 10.9554,1.53268852 11.1651607,1.14838908 L11.55846,1.35293453 C11.3618104,1.66285343 11.1651617,1.94797455 10.968511,2.20830643 L11.578125,2.20830643 L11.578125,2.5988023 L10.5948766,2.5988023 C10.4637762,2.72276986 10.3195679,2.85293385 10.1622474,2.98929817 L11.2831505,2.98929817 L11.2831505,5.20210808 L10.8308562,5.20210808 L10.8308562,4.94177751 L9.86727285,4.94177751 L9.86727285,5.20210808 L9.39531364,5.20210808 L9.39531364,3.50995932 C9.27732324,3.58433986 9.1527797,3.65871928 9.02167926,3.73309982 C9.00856922,3.69590955 8.98234952,3.64012498 8.94301939,3.56574445 C8.90368926,3.45417364 8.87091464,3.37359593 8.84469456,3.32400891 C9.277326,3.11326405 9.65751156,2.87153093 9.98526265,2.5988023 L9.00201429,2.5988023 L9.00201429,2.20830643 L9.76894802,2.20830643 L9.76894802,1.68764527 L9.19866397,1.68764527 Z M7.29116214,5.22070312 L7.29116214,2.84053784 C7.19939184,3.05128269 7.08140322,3.24962782 6.93719273,3.43557916 C6.91097265,3.24962782 6.86508818,3.03268784 6.79953796,2.78475271 C7.11417901,2.28888246 7.37637595,1.61326939 7.58613665,0.757893208 L8.07776083,0.832273373 C7.99910057,1.17938255 7.8942218,1.52028823 7.76312136,1.85500065 L7.76312136,5.22070312 L7.29116214,5.22070312 Z M8.39240031,5.03475271 L8.11709077,4.68144693 C8.20886107,4.60706639 8.25474554,4.50169554 8.25474554,4.36533122 L8.25474554,2.67318246 L7.9204411,2.67318246 L7.9204411,2.20830643 L8.70703979,2.20830643 L8.70703979,4.27235602 C8.75947996,4.23516575 8.83158412,4.18557947 8.92335442,4.12359569 C9.01512473,4.04921515 9.08067397,3.99962887 9.1200041,3.97483536 C9.13311414,4.14838994 9.15933383,4.30334707 9.19866397,4.43971139 C9.00201331,4.57607571 8.81847545,4.70004141 8.64804488,4.81161222 C8.56938462,4.873596 8.48417062,4.94797542 8.39240031,5.03475271 Z M8.54972005,1.92938081 C8.49727987,1.80541325 8.40551094,1.61326641 8.27441051,1.35293453 L8.1564207,1.07400891 L8.56938501,0.943843621 C8.7135955,1.2041755 8.85124889,1.47690005 8.98234933,1.76202544 L8.54972005,1.92938081 Z M9.86727285,3.37979403 L9.86727285,3.80747998 L10.8308562,3.80747998 L10.8308562,3.37979403 L9.86727285,3.37979403 Z M9.86727285,4.16078577 L9.86727285,4.58847172 L10.8308562,4.58847172 L10.8308562,4.16078577 L9.86727285,4.16078577 Z" id="金储"></path>
                    <path d="M1.81099408,6.37769135 L2.12185759,6.37769135 L2.12185759,7.81716144 C2.12854286,8.34319265 1.91127484,8.6026501 1.47004701,8.59554157 C1.05556025,8.6026501 0.824921891,8.37518055 0.778125,7.91312611 L1.07896065,7.82782418 C1.09233119,8.16903361 1.21934942,8.33608156 1.46001915,8.32897303 C1.70068888,8.33608156 1.81767935,8.16192519 1.81099408,7.8064987 L1.81099408,6.37769135 Z M2.57311107,8.56355334 L2.57311107,6.37769135 L2.88397458,6.37769135 L2.88397458,8.56355334 L2.57311107,8.56355334 Z M3.36531163,6.37769135 L3.73634227,6.37769135 L4.77923921,8.16903191 L4.78926706,8.16903191 L4.78926706,6.37769135 L5.09010272,6.37769135 L5.09010272,8.56355334 L4.72909993,8.56355334 L3.66614728,6.76155004 L3.66614728,8.56355334 L3.36531163,8.56355334 L3.36531163,6.37769135 Z M7.28620299,6.99613035 L6.97533948,7.08143228 C6.89511624,6.79709109 6.71461665,6.6478142 6.43383531,6.63359714 C6.03940436,6.66203126 5.82882151,6.94281398 5.80208043,7.47595372 C5.82213624,8.00909345 6.02937651,8.29343038 6.42380745,8.32897303 C6.74469882,8.3218645 6.93857035,8.1370455 7.00542305,7.77451048 L7.31628656,7.87047515 C7.21600751,8.35385518 6.91851745,8.59554157 6.42380745,8.59554157 C5.81544786,8.55999892 5.49455971,8.19036091 5.46113336,7.48661646 C5.49455971,6.76865494 5.81879045,6.3883543 6.43383531,6.34570313 C6.8616926,6.35992018 7.14581232,6.57672709 7.28620299,6.99613035 Z M9.39205258,8.56355334 L9.07116121,8.56355334 L9.07116121,7.59324387 L7.978125,7.59324387 L7.978125,8.56355334 L7.66726149,8.56355334 L7.66726149,6.37769135 L7.978125,6.37769135 L7.978125,7.30534985 L9.07116121,7.30534985 L9.07116121,6.37769135 L9.39205258,6.37769135 L9.39205258,8.56355334 Z M9.8332782,7.64655758 L9.8332782,6.37769135 L10.1541696,6.37769135 L10.1541696,7.64655758 C10.1541696,8.10861202 10.3380117,8.33608156 10.7057016,8.32897303 C11.0733915,8.32897303 11.2572336,8.09794928 11.2572336,7.63589484 L11.2572336,6.37769135 L11.578125,6.37769135 L11.578125,7.63589484 C11.578125,8.27566252 11.2839775,8.59554157 10.6956737,8.59554157 C10.1207405,8.59554157 9.8332782,8.27921673 9.8332782,7.64655758 Z" id="JINCHU"></path>
                </g>
            </g>
        </g>
    </g>
</svg>