<?xml version="1.0" encoding="UTF-8"?>
<svg width="132px" height="31px" viewBox="0 0 132 31" version="1.1" xmlns="http://www.w3.org/2000/svg" xmlns:xlink="http://www.w3.org/1999/xlink">
    <!-- Generator: Sketch 57.1 (83088) - https://sketch.com -->
    <title>阿里云</title>
    <desc>Created with Sketch.</desc>
    <defs>
        <polygon id="path-1" points="2.90533921e-05 0.0193246753 22.0297334 0.0193246753 22.0297334 30.998996 2.90533921e-05 30.998996"></polygon>
    </defs>
    <g id="页面-1" stroke="none" stroke-width="1" fill="none" fill-rule="evenodd">
        <g id="首页" transform="translate(-668.000000, -3984.000000)">
            <g id="阿里云" transform="translate(668.000000, 3984.000000)">
                <g id="编组" transform="translate(0.000000, 0.000000)">
                    <mask id="mask-2" fill="white">
                        <use xlink:href="#path-1"></use>
                    </mask>
                    <g id="Clip-2"></g>
                    <path d="M0.0205246222,15.5798149 C0.0205246222,13.1209513 0.00143195039,10.6616851 0.0267504935,8.20302273 C0.0460506944,6.32289286 0.672373343,4.63017208 1.89700222,3.16512013 C3.62032338,1.10382143 5.87450383,0.0518344156 8.60309568,0.0337175325 C12.8707229,0.00533441558 17.1387652,0.0270746753 21.4068074,0.0288863636 C22.0991243,0.0290876623 22.1099158,0.0604902597 21.9320634,0.713704545 C21.5946212,1.95410714 21.2837427,3.2009513 20.9344713,4.43773052 C20.8937957,4.58186039 20.6987184,4.75497727 20.5451469,4.78919805 C18.3833168,5.27251623 16.2179588,5.74275 14.0494879,6.19808766 C12.4699843,6.52962662 10.8763688,6.80097727 9.30454384,7.16250974 C8.1330424,7.4318474 7.36954305,8.35238636 7.36643012,9.46395779 C7.36331718,10.6516201 7.36144942,11.8392825 7.35958166,13.0267435 C7.35522355,15.7533344 7.35314826,18.4799253 7.3462998,21.2065162 C7.34235675,22.744237 8.12681653,23.618276 9.67124765,23.904724 C10.970587,24.1460812 12.2512487,24.4804383 13.5451923,24.7515877 C14.8069689,25.0160942 16.0768391,25.2443669 17.3396533,25.5044448 C18.4482734,25.7329188 19.5537806,25.9766916 20.6555523,26.2345552 C20.7678255,26.260724 20.8981538,26.4141136 20.9301132,26.5314708 C21.3001375,27.8841981 21.6539745,29.2411526 22.0088492,30.5977045 C22.0818994,30.8771071 21.9625702,31.0115747 21.6624832,30.9946656 C21.5763587,30.9900357 21.4898191,30.9952695 21.403487,30.9952695 C17.1701021,30.9956721 12.9367171,31.0053344 8.7033322,30.9918474 C6.82623202,30.9858084 5.09149676,30.4920227 3.57196912,29.3981656 C1.15508589,27.6579383 0.0157514543,25.2961006 0.00454488602,22.4046461 C-0.00437886278,20.1297695 0.00267712464,17.8548929 0.00267712464,15.5798149 L0.0205246222,15.5798149 Z" id="Fill-1" fill="#353C40" mask="url(#mask-2)"></path>
                </g>
                <path d="M27.1401869,30.9565922 C27.2685217,30.3950163 27.3705206,29.8948753 27.4984374,29.4007771 C27.7206196,28.5439105 27.9785432,27.6955039 28.181496,26.8346088 C28.2722082,26.4500864 28.41601,26.2498689 28.8605834,26.1604357 C30.9810332,25.7342181 33.0887332,25.2501912 35.2056297,24.806651 C36.7788802,24.4769165 38.3604912,24.1838415 39.9358318,23.8627683 C41.1161354,23.622467 41.9695407,22.6227894 41.9718398,21.4577409 C41.9802004,17.4576203 41.9808274,13.4577011 41.974139,9.4577819 C41.9722578,8.33523433 40.9911448,7.29990426 39.8578694,7.11177229 C38.8675598,6.94740861 37.8881189,6.72301995 36.9049158,6.52018388 C35.2463875,6.17775954 33.5882773,5.83372379 31.9310031,5.48586094 C30.8152849,5.2516024 29.6972675,5.02479663 28.591164,4.75347569 C28.4308501,4.71419761 28.2659378,4.46221358 28.2143113,4.27972154 C27.8826056,3.10601175 27.5791169,1.92525204 27.2714479,0.745499464 C27.0873063,0.0384939067 27.1182404,0.0074742897 27.8660935,0.00727286362 C32.1293576,0.0062657332 36.3924128,0.00968997663 40.6554679,4.4408921e-14 C44.8194503,-0.00904264923 48.4450119,2.84556782 49.1924469,6.80822318 C49.3584043,7.6886566 49.3337406,8.60856953 49.3362488,9.51015268 C49.3492076,13.8784802 49.3477445,18.2466062 49.339175,22.6147323 C49.3318595,26.3918743 46.8333028,29.6356399 43.0967546,30.6590859 C42.3202666,30.8717918 41.4865087,30.9757277 40.6782505,30.9813676 C36.38029,31.0119844 32.0823294,30.9960717 27.7841599,30.9942589 C27.5993913,30.9940574 27.4144136,30.9733106 27.1401869,30.9565922" id="Fill-3" fill="#363C40"></path>
                <path d="M102.10272,10.5113246 L101.371295,10.5113246 C99.8274686,10.5117282 98.2832346,10.5191946 96.7396126,10.5070868 C96.3555428,10.5040599 96.1797233,10.6245326 96.1903296,11.0265117 C96.2095025,11.7630699 96.2070549,12.5006371 96.1905335,13.2375989 C96.1827828,13.5846894 96.329639,13.7301848 96.6684282,13.7261489 C96.990696,13.7219112 97.3131677,13.7267543 97.6354356,13.7269561 C99.0266943,13.7273597 100.417953,13.7376513 101.809212,13.7247363 C103.020979,13.7130321 103.520495,13.2486977 103.542931,12.1593988 C103.589843,9.89887138 103.554557,7.6365278 103.563736,5.37478961 C103.565163,5.03940338 103.459712,4.89188994 103.097875,4.89368955 C100.960097,4.90359415 98.8223193,4.900769 96.6847455,4.89390791 C96.3394294,4.89289892 96.1903296,5.0315333 96.1950208,5.37277164 C96.2044033,6.05948605 96.1962446,6.74660404 96.1980803,7.43331845 C96.199916,8.07321601 96.2325507,8.10166935 96.8966672,8.10025677 C98.2709966,8.09702802 99.6453261,8.08673639 101.019248,8.10288013 C101.210977,8.10530169 101.533448,8.20196234 101.569754,8.32142603 C101.776577,9.00329732 101.915071,9.70555007 102.10272,10.5113246 L102.10272,10.5113246 Z M86.3856374,9.26522952 L86.387881,9.26522952 C86.387881,10.5896217 86.3956318,11.9138121 86.3827818,13.2380025 C86.3793144,13.6050708 86.5129128,13.7392657 86.8898437,13.7372477 C88.9947828,13.7261489 91.0999259,13.7259471 93.2046611,13.7405164 C93.6329917,13.7435034 93.7749527,13.5743977 93.7635306,13.1712078 C93.7441537,12.4842916 93.7325276,11.7955592 93.7643464,11.1098538 C93.7861709,10.6382547 93.6021927,10.5014365 93.1428591,10.5070868 C91.5474295,10.5264593 89.951184,10.4992168 88.3557543,10.5200018 C87.9021318,10.5258539 87.8291116,10.3496854 87.9327268,9.97595774 C88.048784,9.55743124 88.2254194,9.13870295 88.2431646,8.71472794 C88.2672327,8.1359748 88.5780783,8.08471842 89.0388397,8.08956154 C90.4307103,8.10449451 91.8229888,8.08835076 93.2148594,8.10066037 C93.6013768,8.10388911 93.7725051,7.97211582 93.7614909,7.573769 C93.7427259,6.8870546 93.7388506,6.19872582 93.7645504,5.512415 C93.7814797,5.06039024 93.6203458,4.88765221 93.1489781,4.89142403 C91.0781015,4.90884087 89.0068169,4.90742829 86.9359403,4.89188994 C86.5151564,4.88886299 86.3713597,5.02709377 86.3780906,5.44360231 C86.3986913,6.71714172 86.3856374,7.99128652 86.3856374,9.26522952 L86.3856374,9.26522952 Z M83.8878505,2.54095758 C84.1536268,2.51916353 84.3692199,2.48586706 84.584813,2.48586706 C91.5482453,2.48566526 98.5118816,2.49393893 105.47511,2.48000743 C105.974625,2.47880417 106.096597,2.62349246 106.093397,3.10033822 C106.072733,6.13576522 106.119646,9.17199941 106.066002,12.2064174 C106.041934,13.5564378 105.724358,14.8874893 104.377972,15.5875223 C103.772394,15.9029307 103.037705,16.0930232 102.35258,16.1202658 C100.52116,16.1927108 98.6848456,16.1622395 96.8509786,16.1372167 C96.3306589,16.1301538 96.1607544,16.3024883 96.1897177,16.805164 C96.2264317,17.440622 96.218681,18.0803178 96.1907375,18.7163812 C96.1721765,19.1367239 96.329843,19.2654702 96.7481792,19.2626451 C99.0238387,19.2473085 101.299702,19.2640576 103.575566,19.2479139 C103.998797,19.2446852 104.267829,19.2793942 104.321065,19.7937742 C104.372261,20.2879744 104.531355,20.7749101 104.676987,21.2551864 C104.788965,21.6244745 104.678415,21.7306196 104.300464,21.728198 C102.534314,21.717301 100.768164,21.7265836 99.0018103,21.729207 C98.237546,21.7304178 97.4724659,21.7538262 96.7094255,21.72618 C96.2923131,21.7112471 96.1782955,21.8712719 96.1911454,22.254484 C96.2133778,22.924651 96.2152135,23.5966343 96.1917573,24.2665996 C96.1758479,24.7178171 96.3329025,24.8838959 96.8099812,24.8804653 C99.5102999,24.8621018 102.210823,24.8889408 104.911141,24.8580659 C105.423506,24.852012 105.600958,25.0499746 105.688051,25.4840395 C105.801865,26.0506848 105.943214,26.6116798 106.086603,27.2348282 C105.867134,27.2517792 105.688459,27.2776091 105.509784,27.2776091 C98.478431,27.2800049 91.4470777,27.2804343 84.4157244,27.2796271 C83.856039,27.2796271 83.8297273,27.2332139 83.9669971,26.7036991 C84.072244,26.2984912 84.1615815,25.8888438 84.245208,25.4787927 C84.331486,25.0552213 84.5017984,24.8433347 85.0196706,24.8501958 C87.6857228,24.8855102 90.352387,24.8705773 93.0188472,24.8725952 C93.7357911,24.8732006 93.7551679,24.8542317 93.7582274,24.1354317 C93.760879,23.5149066 93.7419101,22.8937761 93.766998,22.27426 C93.7837233,21.8597695 93.6336036,21.7181082 93.2083325,21.7209333 C90.728706,21.7368753 88.2488756,21.7294088 85.7692492,21.7304178 C85.1791727,21.7306196 85.1757053,21.7308213 85.300941,21.1563059 C85.4041483,20.6838997 85.5350951,20.2167402 85.6197414,19.741307 C85.6892941,19.3502249 85.8920373,19.2450887 86.2826341,19.2483175 C88.524435,19.2662774 90.7664399,19.256793 93.0084449,19.2576001 C93.7502727,19.2578019 93.7525164,19.2590127 93.7570036,18.5498989 C93.761083,17.9630739 93.7612869,17.3760471 93.7578195,16.7890203 C93.7543521,16.1783832 93.7253888,16.1485173 93.0830968,16.1481137 C90.2469361,16.1462976 87.4105714,16.1473065 84.5742067,16.1475083 C83.887042,16.1477101 83.8878505,16.1483155 83.8878505,15.4511077 C83.8878505,11.3756201 83.8878505,7.30053618 83.8878505,3.22525042 L83.8878505,2.54095758 Z" id="Fill-5" fill="#363C40"></path>
                <path d="M126.578144,18.6695876 C127.352549,18.6695876 128.094891,18.6522245 128.834783,18.68888 C128.943224,18.6942389 129.096186,18.9433246 129.133354,19.1038799 C129.556091,20.9297939 129.960652,22.7599951 130.369298,24.5893388 C130.454253,24.9698269 130.486316,25.3728227 130.629271,25.7271589 C131.045881,26.7584423 130.380734,28.2945423 128.967731,28.4495242 C128.62995,28.4866084 128.289514,28.5179049 127.950507,28.5181192 C122.559285,28.521549 117.168266,28.5194054 111.777248,28.518548 L111.012033,28.518548 C111.199303,27.6486772 111.363088,26.8761257 111.531979,26.1050746 C111.872823,24.5492536 112.213055,22.9930038 112.560026,21.4386833 C112.903116,19.9019402 113.254785,18.3671264 113.601756,16.8312408 C113.691204,16.4351044 113.794131,16.0415405 113.863158,15.64176 C113.963022,15.0629895 113.891136,14.97746 113.340353,14.9753164 C112.320066,14.9708149 111.299575,14.9783175 110.279085,14.9731728 C109.783032,14.9706005 109.721358,14.859348 109.856552,14.368036 C109.982556,13.9093068 110.100187,13.4456472 110.18065,12.9764143 C110.24886,12.5785632 110.410398,12.3993586 110.821086,12.4 C117.521568,12.4105053 124.22205,12.4107197 130.922531,12.4038602 C131.286453,12.4036458 131.459836,12.4938912 131.523962,12.9146788 C131.623621,13.5704044 131.817631,14.2100531 132,14.9751021 L131.149216,14.9751021 C126.506258,14.9755308 121.863505,14.9873206 117.221159,14.96074 C116.684672,14.957739 116.494542,15.2042524 116.397129,15.6599806 C115.898422,17.9967132 115.405025,20.3349463 114.905296,22.6712502 C114.709857,23.5857078 114.511763,24.4993078 114.296719,25.4086207 C114.202981,25.8054001 114.304683,25.9668128 114.708632,25.9659553 C119.011154,25.9586671 123.314084,25.9575953 127.616607,25.965741 C128.072836,25.9665984 128.126954,25.7363764 128.038527,25.3531016 C127.557791,23.2690988 127.079098,21.1844529 126.60408,19.099164 C126.577736,18.9844817 126.588559,18.8605819 126.578144,18.6695876" id="Fill-7" fill="#363C40"></path>
                <path d="M60.4241453,25.6261632 C60.4241453,24.8029339 60.4023415,24.0975688 60.4392245,23.3954383 C60.4485981,23.2175302 60.6030585,22.9824085 60.7607792,22.8863786 C62.3652918,21.9111188 62.8333596,19.7553984 62.5660087,18.1172288 C62.3972843,17.0841488 62.1105749,16.0890765 61.5055714,15.211464 C61.3627261,15.0042415 61.2325148,14.7600222 61.0328168,14.6247717 C60.3801302,14.1824275 60.4942434,13.6106956 60.6554282,12.9906454 C60.9541602,11.8419252 61.2288469,10.6869378 61.5041449,9.53255692 C61.732575,8.57407709 61.9334957,7.60933004 62.1749673,6.65428706 C62.2731862,6.26551745 62.1704843,6.12824519 61.7690505,6.13815143 C61.0908923,6.15472923 60.4115114,6.15634658 59.7337606,6.13572541 C59.3692098,6.12460616 59.2436853,6.27522153 59.2703797,6.6132469 C59.2836249,6.7802379 59.2722136,6.94904842 59.2722136,7.11705026 C59.2713985,14.0374728 59.2707872,20.9578953 59.2699721,27.87852 L59.2699721,28.52 L56.7488862,28.52 L56.7488862,27.9062171 C56.7484786,20.0620877 56.7478673,12.2177561 56.7476636,4.37342448 C56.7476636,3.72284694 56.7492937,3.72042092 57.4248029,3.72 C59.8674361,3.71961225 62.310273,3.72 64.7529061,3.72264477 C64.9344683,3.72284694 65.1158267,3.74245727 65.3831776,3.75822639 C65.2201588,4.49796014 65.0767022,5.18108678 64.9187777,5.86077655 C64.5741967,7.34347874 64.2241138,8.8251701 63.8730121,10.3064571 C63.6690348,11.1668853 63.4383631,12.0220572 63.2643406,12.8883483 C63.218084,13.1192245 63.2588387,13.4364265 63.3910877,13.6224213 C64.8765966,15.7110219 65.32877,18.0452569 64.9403777,20.5143381 C64.6041514,22.6516612 63.4617971,24.3074195 61.4452544,25.2788381 C61.151413,25.4203559 60.8233376,25.4927321 60.4241453,25.6261632" id="Fill-9" fill="#363C40"></path>
                <path d="M67.2030733,6.09313527 C67.0002531,5.27231204 66.8160807,4.52684573 66.6168224,3.72 L80.1869159,3.72 C80.0023244,4.45756598 79.8273711,5.1655564 79.6446653,5.87172367 C79.6295795,5.93107737 79.5673506,6.02081693 79.520836,6.02466581 C78.8708896,6.07814491 79.0160904,6.54547936 79.0158809,6.92570769 C79.0131571,12.1279686 79.0284524,17.330027 79.0079189,22.5318828 C78.9970236,25.2761306 77.6269399,27.372552 74.8576486,28.2434106 C74.2556834,28.4328158 73.5940035,28.4565167 72.956,28.5193142 C72.8359422,28.5310634 72.615941,28.3894653 72.5805313,28.2778479 C72.3969875,27.7011244 72.2473866,27.1136645 72.1084716,26.5247867 C72.0345093,26.2112046 72.2614248,26.1767673 72.5162072,26.1654233 C73.8469002,26.1064747 74.9714206,25.5988284 75.7110437,24.5304617 C76.0634647,24.0213974 76.3746093,23.3650629 76.3806855,22.7723362 C76.435162,17.3687183 76.4146285,11.9644927 76.4284572,6.56067229 C76.4297143,6.11075906 76.179332,6.09009668 75.8279587,6.09090697 C73.2107824,6.09718671 70.5938157,6.09354041 67.9766394,6.09313527 L67.2030733,6.09313527 Z" id="Fill-11" fill="#363C40"></path>
                <path d="M70.3886998,15.4459883 C70.3886998,16.9840362 70.3855928,18.5220841 70.3897355,20.060132 C70.3926353,21.1126597 70.3971923,21.1126597 71.436801,21.0254278 C72.3082164,20.9520253 72.6539241,20.627565 72.6961796,19.7356717 C72.7369851,18.8712246 72.7231071,18.0037987 72.7241428,17.1378622 C72.7272498,14.9455748 72.7179287,12.7532875 72.7318068,10.5612128 C72.7344995,10.1363295 72.6203683,9.93633434 72.1725432,9.97569509 C71.7789874,10.0101623 71.3765248,10.0225025 70.9850404,9.9778227 C70.472175,9.91910071 70.376686,10.1603715 70.3820715,10.6195093 C70.4007136,12.2281938 70.3893212,13.837091 70.3886998,15.4459883 M75.2511853,7.44362869 L75.2511853,8.66636507 C75.2515996,12.4820174 75.2536709,16.2976698 75.2509782,20.1133222 C75.2505639,20.8622402 75.1225547,21.5788186 74.7283775,22.2322071 C74.2231761,23.0698464 73.4646491,23.4836661 72.5426928,23.5177079 C71.1484696,23.5694088 69.7517608,23.5379202 68.3562948,23.5598345 C67.9722671,23.5657918 67.8498506,23.4113275 67.8504696,23.027507 C67.858136,18.0108198 67.8564789,12.9939199 67.8506791,7.9772328 C67.8502648,7.6444749 67.9161337,7.43873519 68.2976757,7.44000585 C70.5879633,7.44703286 72.8784581,7.44362869 75.2511853,7.44362869" id="Fill-13" fill="#363C40"></path>
                <path d="M111.028037,4.94650244 C111.217761,4.12304358 111.372063,3.40149185 111.563008,2.68978226 C111.586825,2.60079293 111.799348,2.52082556 111.930241,2.51077838 C112.284038,2.48330241 112.641092,2.49314455 112.996721,2.49314455 C118.146323,2.49252942 123.296127,2.50032111 128.445729,2.48 C128.906805,2.47797126 129.128081,2.6208873 129.216021,3.04963543 C129.321265,3.56388713 129.454804,4.07321776 129.531752,4.5913653 C129.546816,4.69224721 129.381113,4.8767873 129.259788,4.92702321 C129.114239,4.9873063 128.926551,4.94650244 128.757184,4.94650244 C123.082384,4.94670749 117.407583,4.94650244 111.732782,4.94650244 L111.028037,4.94650244 Z" id="Fill-15" fill="#363C40"></path>
                <path d="M24.6517082,16.1091548 C23.2035169,16.1091548 21.7549108,16.0905792 20.3073417,16.1196735 C19.8291047,16.129297 19.7442829,15.9265323 19.7384761,15.4641572 C19.7322544,14.9749259 19.9091565,14.8795862 20.3158446,14.8816004 C23.2294404,14.8956999 26.1430363,14.8981617 29.0566321,14.8800338 C29.5047978,14.8771244 29.6057959,15.0619849 29.6074766,15.5022036 C29.6093215,15.952941 29.4911102,16.1243734 29.0477144,16.1163165 C27.5827247,16.0901316 26.1171128,16.1064692 24.6517082,16.1064692 L24.6517082,16.1091548 Z" id="Fill-17" fill="#363C40"></path>
            </g>
        </g>
    </g>
</svg>