<?xml version="1.0" encoding="UTF-8"?>
<svg width="46px" height="43px" viewBox="0 0 46 43" version="1.1" xmlns="http://www.w3.org/2000/svg" xmlns:xlink="http://www.w3.org/1999/xlink">
    <title>位图备份</title>
    <defs>
        <rect id="path-1" x="0" y="0" width="46" height="43"></rect>
        <polygon id="path-3" points="0 -1.63301959e-16 12.4399345 12 16 8.59386373 7.49448415 -1.63301959e-16"></polygon>
        <path d="M4.64424351,0.0249572274 C4.67951146,0.0277825739 4.7145427,0.0306079204 4.74910055,0.0336687124 L4.74910055,0.0336687124 C4.79265291,0.0376712866 4.83549517,0.042615643 4.87833744,0.0473245538 L4.87833744,0.0473245538 C4.91431547,0.0510916825 4.9507669,0.0550942567 4.98627154,0.0593322764 L4.98627154,0.0593322764 C5.02745692,0.0645120784 5.06816891,0.0696918803 5.1086442,0.0753425733 L5.1086442,0.0753425733 C5.14414884,0.0802869296 5.17989017,0.085231286 5.21492142,0.0904110879 L5.21492142,0.0904110879 C5.25421322,0.096532672 5.29303162,0.102418811 5.33161333,0.109011286 L5.33161333,0.109011286 C5.36688127,0.114661979 5.40191252,0.121019008 5.43623367,0.127376038 L5.43623367,0.127376038 C5.47315849,0.133968513 5.50984662,0.140560988 5.54582465,0.147624354 L5.54582465,0.147624354 C5.58156599,0.154923166 5.61707063,0.162457424 5.65210187,0.170227126 L5.65210187,0.170227126 C5.68547624,0.177290493 5.71932399,0.184353859 5.75198826,0.191888116 L5.75198826,0.191888116 C5.79199015,0.201305938 5.83128195,0.211430096 5.87057375,0.221554255 L5.87057375,0.221554255 C5.89661049,0.22814673 5.92406741,0.234503759 5.94963075,0.241567126 L5.94963075,0.241567126 C6.01235561,0.25875465 6.0731869,0.276648511 6.13283469,0.295248709 L6.13283469,0.295248709 C6.15721454,0.302547521 6.18017421,0.31102356 6.20408067,0.318793263 L6.20408067,0.318793263 C6.24147889,0.331036431 6.27887711,0.343515045 6.31509184,0.35646455 L6.31509184,0.35646455 C6.34041848,0.365646926 6.36479833,0.375064748 6.38941488,0.384482569 L6.38941488,0.384482569 C6.42302594,0.397196628 6.4564003,0.410146133 6.48882787,0.423331084 L6.48882787,0.423331084 C6.51320773,0.433455242 6.53687749,0.4435794 6.56078394,0.453703558 L6.56078394,0.453703558 C6.59273812,0.467594845 6.6244556,0.481957023 6.65546298,0.496554647 L6.65546298,0.496554647 C6.67771255,0.506914251 6.69972543,0.517273855 6.72150161,0.528104349 L6.72150161,0.528104349 C6.75321909,0.543879201 6.78398977,0.559654052 6.81428707,0.575899794 L6.81428707,0.575899794 C6.83416966,0.586259398 6.85428896,0.596854448 6.87346147,0.607684942 L6.87346147,0.607684942 C6.90636243,0.62628514 6.93807991,0.645356229 6.96979739,0.664662764 L6.96979739,0.664662764 C6.98518273,0.67384514 7.00127817,0.683027516 7.01619012,0.692680783 L7.01619012,0.692680783 C7.06210945,0.72187603 7.10708199,0.751777614 7.15016095,0.783091871 L7.15016095,0.783091871 C7.22756107,0.838657019 7.29951714,0.897518404 7.36626586,0.95896969 L7.36626586,0.95896969 C7.53408445,1.11342197 7.66971218,1.28623899 7.7752793,1.48095246 L7.7752793,1.48095246 C7.81741148,1.55888493 7.854573,1.64034909 7.88723727,1.72534493 L7.88723727,1.72534493 C7.91966484,1.81057621 7.94759515,1.89910374 7.97055482,1.99139839 L7.97055482,1.99139839 C8.02807233,2.22284136 8.05623935,2.47806432 8.05623935,2.76012808 L8.05623935,2.76012808 C8.05623935,3.32237204 7.95469608,3.78996688 7.74356183,4.18174826 L7.74356183,4.18174826 C7.57929369,4.48617935 7.34875024,4.74446311 7.0476709,4.96531102 L7.0476709,4.96531102 C6.75014202,5.18356904 6.39036167,5.36133042 5.96998674,5.49835973 L5.96998674,5.49835973 C5.26912517,5.7267419 4.40020829,5.84187477 3.37104715,5.84187477 L3.37104715,5.84187477 L-2.89065832e-16,5.84187477 L-2.89065832e-16,10.3132211 L3.37104715,10.3132211 C5.29989585,10.3132211 6.72386859,10.6103533 7.6079341,11.1940228 L7.6079341,11.1940228 C7.63539102,11.2109749 7.66190116,11.2283979 7.6874645,11.2465272 L7.6874645,11.2465272 C7.74711229,11.2886719 7.80912706,11.3352901 7.87208862,11.3875591 L7.87208862,11.3875591 C7.93505018,11.439828 7.99895853,11.497983 8.06215679,11.5632014 L8.06215679,11.5632014 C8.44134634,11.9538056 8.79757622,12.596101 8.79757622,13.7556703 L8.79757622,13.7556703 L8.79757622,13.7563767 C8.79757622,13.8552638 8.79355236,13.9503838 8.78787162,14.0438557 L8.78787162,14.0438557 C8.78692482,14.0631622 8.78574134,14.0819978 8.78432115,14.1010689 L8.78432115,14.1010689 C8.77722022,14.1952471 8.76798902,14.2875418 8.75497065,14.3767757 L8.75497065,14.3767757 C8.75497065,14.3777174 8.75473395,14.3788947 8.75449725,14.3800719 L8.75449725,14.3800719 C8.74076879,14.472602 8.72348987,14.5618358 8.70337057,14.6489507 L8.70337057,14.6489507 C8.70195039,14.6553077 8.7007669,14.6614293 8.69934671,14.6677863 L8.69934671,14.6677863 C8.67828063,14.7567848 8.65390078,14.8431933 8.62573376,14.9270119 L8.62573376,14.9270119 L14.9282806,15 C14.9394054,14.9159459 14.94911,14.8309501 14.9578678,14.7457188 L14.9578678,14.7457188 C14.967099,14.651776 14.9756201,14.5573624 14.9817743,14.4617715 L14.9817743,14.4617715 C14.9850881,14.4142115 14.9867449,14.3659452 14.9891119,14.3176788 L14.9891119,14.3176788 C14.9950294,14.1886547 15,14.0589242 15,13.9273101 L15,13.9273101 C15,12.5174622 14.6714637,11.2806668 14.020782,10.2322278 L14.020782,10.2322278 C13.7249101,9.75568601 13.362526,9.31822819 12.9341034,8.92079612 L12.9341034,8.92079612 C12.818595,8.81390384 12.6985893,8.71030781 12.574323,8.6104789 L12.574323,8.6104789 C12.3255539,8.41058563 12.0590324,8.22458365 11.7749953,8.05294385 L11.7749953,8.05294385 C11.6329767,7.96700623 11.4864609,7.88483574 11.3359212,7.80596148 L11.3359212,7.80596148 C13.7381651,1.13084494 7.97339519,0.118193662 4.2712081,7.84191183e-17 L4.2712081,7.84191183e-17 C4.39902481,0.00612158408 4.52281765,0.0148330691 4.64424351,0.0249572274" id="path-5"></path>
    </defs>
    <g id="页面-1" stroke="none" stroke-width="1" fill="none" fill-rule="evenodd">
        <g id="头部" transform="translate(-150.000000, -148.000000)">
            <g id="位图备份" transform="translate(150.000000, 148.000000)">
                <mask id="mask-2" fill="white">
                    <use xlink:href="#path-1"></use>
                </mask>
                <g id="蒙版"></g>
                <g id="区块链浏览器" mask="url(#mask-2)">
                    <g transform="translate(7.000000, 0.000000)">
                        <polygon id="Fill-1" fill="#F3EB4B" fill-rule="nonzero" points="24.6195595 0 15.999884 8.87591687 7.49432119 0 0 0 13.0482645 13 18.9515036 13 32 0"></polygon>
                        <g id="编组" stroke-width="1" fill="none" fill-rule="evenodd">
                            <g id="Fill-2-Clipped">
                                <mask id="mask-4" fill="white">
                                    <use xlink:href="#path-3"></use>
                                </mask>
                                <g id="path-1"></g>
                                <polygon id="Fill-2" mask="url(#mask-4)" points="0 -1.63301959e-16 12.4399345 12 16 8.59386373 7.49448415 -1.63301959e-16"></polygon>
                            </g>
                        </g>
                        <g id="编组" stroke-width="1" fill="none" fill-rule="evenodd" transform="translate(5.000000, 13.000000)">
                            <path d="M9.54274201,20.1334793 L9.54274201,12.7269485 L9.54274201,10.8317399 L9.54274201,5.52884468 L9.54274201,-9.47102896e-16 L3.11927993e-16,-9.47102896e-16 L3.11927993e-16,1.86039398 L1.03415668,1.92979274 C1.89254493,1.98789403 2.47739077,2.21107675 2.78846941,2.5993409 C3.09909852,2.98783562 3.25441308,3.96426002 3.25441308,5.52884468 L3.25441308,20.1334793 C3.25441308,21.6867664 3.09909852,22.6574268 2.78846941,23.045691 C2.47739077,23.4341857 1.8983889,23.6573684 1.05101426,23.7150086 L3.11927993e-16,23.8021605 L3.11927993e-16,25.6450319 L9.54274201,25.6450319 L9.54274201,20.1334793 Z" id="Fill-4" fill="#F3EB4B" fill-rule="nonzero"></path>
                            <polygon id="Fill-6" fill="#F3EB4B" fill-rule="nonzero" points="8.52330762 30 14 30 14 25.6449397 8.52330762 25.6449397"></polygon>
                        </g>
                        <polygon id="Fill-8" fill="none" points="8 34 14 34 14 22 8 22"></polygon>
                        <polygon id="Fill-10" fill="none" points="13 41 19 41 19 38 13 38"></polygon>
                        <path d="M26.9649635,25.309137 C26.5100648,24.8841759 25.9845181,24.5150815 25.3906549,24.2023213 C25.7877295,23.9505704 26.1423686,23.6740418 26.454106,23.3729693 C27.6362365,22.2313246 28.2356955,20.7446619 28.2356955,18.9541217 C28.2356955,16.6949087 27.2447577,14.8648644 25.3703698,13.6612754 C23.6291172,12.5434734 21.2639236,12 18.139322,12 L14,12 L14,16.4389503 L17.8506676,16.4389503 C19.3969969,16.4389503 20.5467179,16.70496 21.2674211,17.2297333 C21.8762066,17.6731608 22.1599646,18.2968111 22.1599646,19.1925487 C22.1599646,20.1852934 21.8442634,20.8809393 21.166462,21.3821036 C20.3853699,21.959471 19.1668661,22.2523622 17.5447593,22.2523622 L14.2243017,22.2523622 L14.2243017,26.6915463 L17.5447593,26.6915463 C19.5019197,26.6915463 20.9328338,27.0033714 21.7969316,27.6181392 C22.2665195,27.9524045 22.8904606,28.5741848 22.8904606,30.1092341 C22.8904606,31.2326462 22.5260286,32.0166503 21.7435375,32.5764863 C20.8463308,33.2181356 19.4338364,33.5437521 17.5447593,33.5437521 L14,33.5437521 L14,38 L17.5447593,38 C21.180918,38 23.8916575,37.4020624 25.8315639,36.1722932 C27.9043726,34.8579058 29,32.8200559 29,30.2794056 C29,28.2434257 28.3154369,26.571164 26.9649635,25.309137" id="Fill-12" fill="#F3EB4B" fill-rule="nonzero"></path>
                        <g id="编组" stroke-width="1" fill="none" fill-rule="evenodd" transform="translate(14.000000, 17.000000)">
                            <g id="Fill-14-Clipped" transform="translate(0.000000, -0.000000)">
                                <mask id="mask-6" fill="white">
                                    <use xlink:href="#path-5"></use>
                                </mask>
                                <g id="path-3"></g>
                                <path d="M4.64424351,0.0249572274 C4.67951146,0.0277825739 4.7145427,0.0306079204 4.74910055,0.0336687124 L4.74910055,0.0336687124 C4.79265291,0.0376712866 4.83549517,0.042615643 4.87833744,0.0473245538 L4.87833744,0.0473245538 C4.91431547,0.0510916825 4.9507669,0.0550942567 4.98627154,0.0593322764 L4.98627154,0.0593322764 C5.02745692,0.0645120784 5.06816891,0.0696918803 5.1086442,0.0753425733 L5.1086442,0.0753425733 C5.14414884,0.0802869296 5.17989017,0.085231286 5.21492142,0.0904110879 L5.21492142,0.0904110879 C5.25421322,0.096532672 5.29303162,0.102418811 5.33161333,0.109011286 L5.33161333,0.109011286 C5.36688127,0.114661979 5.40191252,0.121019008 5.43623367,0.127376038 L5.43623367,0.127376038 C5.47315849,0.133968513 5.50984662,0.140560988 5.54582465,0.147624354 L5.54582465,0.147624354 C5.58156599,0.154923166 5.61707063,0.162457424 5.65210187,0.170227126 L5.65210187,0.170227126 C5.68547624,0.177290493 5.71932399,0.184353859 5.75198826,0.191888116 L5.75198826,0.191888116 C5.79199015,0.201305938 5.83128195,0.211430096 5.87057375,0.221554255 L5.87057375,0.221554255 C5.89661049,0.22814673 5.92406741,0.234503759 5.94963075,0.241567126 L5.94963075,0.241567126 C6.01235561,0.25875465 6.0731869,0.276648511 6.13283469,0.295248709 L6.13283469,0.295248709 C6.15721454,0.302547521 6.18017421,0.31102356 6.20408067,0.318793263 L6.20408067,0.318793263 C6.24147889,0.331036431 6.27887711,0.343515045 6.31509184,0.35646455 L6.31509184,0.35646455 C6.34041848,0.365646926 6.36479833,0.375064748 6.38941488,0.384482569 L6.38941488,0.384482569 C6.42302594,0.397196628 6.4564003,0.410146133 6.48882787,0.423331084 L6.48882787,0.423331084 C6.51320773,0.433455242 6.53687749,0.4435794 6.56078394,0.453703558 L6.56078394,0.453703558 C6.59273812,0.467594845 6.6244556,0.481957023 6.65546298,0.496554647 L6.65546298,0.496554647 C6.67771255,0.506914251 6.69972543,0.517273855 6.72150161,0.528104349 L6.72150161,0.528104349 C6.75321909,0.543879201 6.78398977,0.559654052 6.81428707,0.575899794 L6.81428707,0.575899794 C6.83416966,0.586259398 6.85428896,0.596854448 6.87346147,0.607684942 L6.87346147,0.607684942 C6.90636243,0.62628514 6.93807991,0.645356229 6.96979739,0.664662764 L6.96979739,0.664662764 C6.98518273,0.67384514 7.00127817,0.683027516 7.01619012,0.692680783 L7.01619012,0.692680783 C7.06210945,0.72187603 7.10708199,0.751777614 7.15016095,0.783091871 L7.15016095,0.783091871 C7.22756107,0.838657019 7.29951714,0.897518404 7.36626586,0.95896969 L7.36626586,0.95896969 C7.53408445,1.11342197 7.66971218,1.28623899 7.7752793,1.48095246 L7.7752793,1.48095246 C7.81741148,1.55888493 7.854573,1.64034909 7.88723727,1.72534493 L7.88723727,1.72534493 C7.91966484,1.81057621 7.94759515,1.89910374 7.97055482,1.99139839 L7.97055482,1.99139839 C8.02807233,2.22284136 8.05623935,2.47806432 8.05623935,2.76012808 L8.05623935,2.76012808 C8.05623935,3.32237204 7.95469608,3.78996688 7.74356183,4.18174826 L7.74356183,4.18174826 C7.57929369,4.48617935 7.34875024,4.74446311 7.0476709,4.96531102 L7.0476709,4.96531102 C6.75014202,5.18356904 6.39036167,5.36133042 5.96998674,5.49835973 L5.96998674,5.49835973 C5.26912517,5.7267419 4.40020829,5.84187477 3.37104715,5.84187477 L3.37104715,5.84187477 L-2.89065832e-16,5.84187477 L-2.89065832e-16,10.3132211 L3.37104715,10.3132211 C5.29989585,10.3132211 6.72386859,10.6103533 7.6079341,11.1940228 L7.6079341,11.1940228 C7.63539102,11.2109749 7.66190116,11.2283979 7.6874645,11.2465272 L7.6874645,11.2465272 C7.74711229,11.2886719 7.80912706,11.3352901 7.87208862,11.3875591 L7.87208862,11.3875591 C7.93505018,11.439828 7.99895853,11.497983 8.06215679,11.5632014 L8.06215679,11.5632014 C8.44134634,11.9538056 8.79757622,12.596101 8.79757622,13.7556703 L8.79757622,13.7556703 L8.79757622,13.7563767 C8.79757622,13.8552638 8.79355236,13.9503838 8.78787162,14.0438557 L8.78787162,14.0438557 C8.78692482,14.0631622 8.78574134,14.0819978 8.78432115,14.1010689 L8.78432115,14.1010689 C8.77722022,14.1952471 8.76798902,14.2875418 8.75497065,14.3767757 L8.75497065,14.3767757 C8.75497065,14.3777174 8.75473395,14.3788947 8.75449725,14.3800719 L8.75449725,14.3800719 C8.74076879,14.472602 8.72348987,14.5618358 8.70337057,14.6489507 L8.70337057,14.6489507 C8.70195039,14.6553077 8.7007669,14.6614293 8.69934671,14.6677863 L8.69934671,14.6677863 C8.67828063,14.7567848 8.65390078,14.8431933 8.62573376,14.9270119 L8.62573376,14.9270119 L14.9282806,15 C14.9394054,14.9159459 14.94911,14.8309501 14.9578678,14.7457188 L14.9578678,14.7457188 C14.967099,14.651776 14.9756201,14.5573624 14.9817743,14.4617715 L14.9817743,14.4617715 C14.9850881,14.4142115 14.9867449,14.3659452 14.9891119,14.3176788 L14.9891119,14.3176788 C14.9950294,14.1886547 15,14.0589242 15,13.9273101 L15,13.9273101 C15,12.5174622 14.6714637,11.2806668 14.020782,10.2322278 L14.020782,10.2322278 C13.7249101,9.75568601 13.362526,9.31822819 12.9341034,8.92079612 L12.9341034,8.92079612 C12.818595,8.81390384 12.6985893,8.71030781 12.574323,8.6104789 L12.574323,8.6104789 C12.3255539,8.41058563 12.0590324,8.22458365 11.7749953,8.05294385 L11.7749953,8.05294385 C11.6329767,7.96700623 11.4864609,7.88483574 11.3359212,7.80596148 L11.3359212,7.80596148 C13.7381651,1.13084494 7.97339519,0.118193662 4.2712081,7.84191183e-17 L4.2712081,7.84191183e-17 C4.39902481,0.00612158408 4.52281765,0.0148330691 4.64424351,0.0249572274" id="Fill-14" mask="url(#mask-6)"></path>
                            </g>
                        </g>
                    </g>
                </g>
            </g>
        </g>
    </g>
</svg>