<?xml version="1.0" encoding="UTF-8"?>
<svg width="46px" height="43px" viewBox="0 0 46 43" version="1.1" xmlns="http://www.w3.org/2000/svg" xmlns:xlink="http://www.w3.org/1999/xlink">
    <title>位图备份</title>
    <defs>
        <rect id="path-1" x="0" y="0" width="46" height="43"></rect>
        <linearGradient x1="65.5492287%" y1="-4.42347159e-08%" x2="50.4181524%" y2="97.310784%" id="linearGradient-3">
            <stop stop-color="#0E88CA" offset="0%"></stop>
            <stop stop-color="#3EBBFF" offset="100%"></stop>
        </linearGradient>
        <linearGradient x1="64.7618348%" y1="0%" x2="50.3969776%" y2="97.310784%" id="linearGradient-4">
            <stop stop-color="#1FAEFB" offset="0%"></stop>
            <stop stop-color="#4BBEFD" offset="100%"></stop>
        </linearGradient>
        <linearGradient x1="59.2007182%" y1="0%" x2="50.2474272%" y2="97.310784%" id="linearGradient-5">
            <stop stop-color="#1FAEFB" offset="0%"></stop>
            <stop stop-color="#4BBEFD" offset="100%"></stop>
        </linearGradient>
    </defs>
    <g id="页面-1" stroke="none" stroke-width="1" fill="none" fill-rule="evenodd">
        <g id="头部" transform="translate(-150.000000, -332.000000)">
            <g id="位图备份" transform="translate(150.000000, 332.000000)">
                <mask id="mask-2" fill="white">
                    <use xlink:href="#path-1"></use>
                </mask>
                <g id="蒙版"></g>
                <g id="chat-33" mask="url(#mask-2)" fill-rule="nonzero">
                    <g transform="translate(2.000000, 0.000000)">
                        <path d="M6,40.4267638 C6,42.4046806 8.1380103,43.6408634 9.84839409,42.651966 L9.84839409,42.651966 L18,37.9385231 L6,31 L6,40.4267638 Z" id="Fill-1" fill="url(#linearGradient-3)"></path>
                        <path d="M31.6267078,26.2885607 C29.2510927,30.1757284 24.8975388,32.775917 19.9229188,32.7620733 C12.424503,32.7413077 6.38589094,26.8249437 6.3860152,19.4999215 C6.3860152,12.1755066 12.4642831,6.23789118 19.9622016,6.23789118 C25.1715239,6.23789118 29.6948889,9.10414619 31.9711782,13.3100836 C32.6884623,14.6353151 34.2560451,15.2891268 35.7251721,14.8563287 L35.7254208,14.8563287 C37.6454299,14.2906796 38.5667111,12.1541338 37.6317556,10.4209986 C34.2598987,4.17141403 27.5163094,-0.072411344 19.7644201,0.000936033034 C8.74298344,0.105249591 -0.0576075471,8.83856558 0,19.6053281 C0.0586247968,30.3264306 8.97358334,39 19.9622016,39 C27.2603496,39 33.642935,35.1737932 37.1243113,29.4631418 C38.1513825,27.7783381 37.3470795,25.5960109 35.4577756,24.9335773 C34.0132624,24.4270676 32.4134827,25.0013386 31.6267078,26.2885607" id="Fill-8" fill="url(#linearGradient-4)"></path>
                        <path d="M30.1104398,19.9106212 C29.7834997,19.5911006 29.3968351,19.3389026 28.9540501,19.1558876 C29.2498409,18.9804303 29.5161554,18.7677654 29.7509345,18.5191718 C30.2551172,17.9852422 30.514095,17.3093422 30.520917,16.5097268 C30.527739,15.5761639 30.1301334,14.7481777 29.3391701,14.0486741 C28.5518109,13.3527749 27.4462643,13 26.0532935,13 C24.6377974,13 23.4906753,13.3516122 22.6437203,14.0450696 C21.9151845,14.641322 21.5618574,15.3024552 21.4740727,15.9611467 C21.3819117,16.6526273 21.9270263,17.0740039 22.4919634,17.1693485 C23.0679701,17.2666697 23.7430885,16.8658736 23.8860926,16.3378741 C24.1439119,15.3853584 25.2874299,15.1496714 25.9468449,15.1496714 C26.5926159,15.1496714 27.0711841,15.2964089 27.4099661,15.5982559 C27.7468175,15.898475 27.9106737,16.2481106 27.9106737,16.6671616 C27.9106737,17.1380708 27.7329161,17.5123564 27.3676184,17.8112965 C26.9879045,18.121864 26.5029005,18.2729038 25.8846748,18.2729038 L25.7417994,18.2729038 C25.0919094,18.2729038 24.5652013,18.7486965 24.5652013,19.3357632 C24.5652013,19.9227137 25.0919094,20.3985064 25.7417994,20.3985064 L25.9557263,20.3985064 C26.7321447,20.3985064 27.3425186,20.5608247 27.7696003,20.8808104 C28.1749288,21.184634 28.3719938,21.59136 28.3719938,22.1243594 C28.3719938,22.6353831 28.1665621,23.036528 27.7442431,23.3510488 C27.2930915,23.6870803 26.7166987,23.8503287 25.9823707,23.8503287 C25.2727562,23.8503287 24.6869671,23.69801 24.241479,23.3977909 C23.8177441,23.1123384 23.5670042,22.5955012 23.5273595,22.1664505 C23.469437,21.5382229 22.9616502,21.0249899 22.2637489,21.0249899 C21.5658477,21.0249899 21.001168,21.5360137 21,22.1664505 C20.9980789,23.2177989 21.5744717,24.3400742 22.5074094,25.0130674 C23.4151187,25.6679218 24.5903009,26 26,26 C27.3833219,26 28.5680291,25.6394348 29.5211754,24.9281876 C30.5025104,24.1961273 31,23.266285 31,22.1644739 C31,21.2457941 30.700734,20.4874559 30.1104398,19.9106212" id="Fill-1" fill="url(#linearGradient-5)"></path>
                        <path d="M21.1104398,19.9106212 C20.7834997,19.5911006 20.3968351,19.3389026 19.9540501,19.1558876 C20.2498409,18.9804303 20.5160267,18.7677654 20.7509345,18.5191718 C21.2551172,17.9852422 21.514095,17.3093422 21.520917,16.5097268 C21.527739,15.5761639 21.1301334,14.7481777 20.3391701,14.0486741 C19.5518109,13.3527749 18.4462643,13 17.0532935,13 C15.6377974,13 14.4906753,13.3516122 13.6437203,14.0450696 C12.9151845,14.641322 12.5618574,15.3024552 12.4740727,15.9611467 C12.3819117,16.6526273 12.9270263,17.0740039 13.4919634,17.1693485 C14.0679701,17.2666697 14.7430885,16.8658736 14.8860926,16.3378741 C15.1439119,15.3853584 16.2874299,15.1496714 16.9468449,15.1496714 C17.5926159,15.1496714 18.0711841,15.2964089 18.4099661,15.5982559 C18.7468175,15.898475 18.9106737,16.2481106 18.9106737,16.6671616 C18.9106737,17.1380708 18.7329161,17.5123564 18.3676184,17.8112965 C17.9879045,18.121864 17.5029005,18.2729038 16.8846748,18.2729038 L16.7417994,18.2729038 C16.0919094,18.2729038 15.5652013,18.7486965 15.5652013,19.3357632 C15.5652013,19.9227137 16.0919094,20.3985064 16.7417994,20.3985064 L16.9557263,20.3985064 C17.7321447,20.3985064 18.3425186,20.5608247 18.7696003,20.8808104 C19.1749288,21.184634 19.3719938,21.59136 19.3719938,22.1243594 C19.3719938,22.6353831 19.1665621,23.036528 18.7442431,23.3510488 C18.2930915,23.6870803 17.7166987,23.8503287 16.9822419,23.8503287 C16.2727562,23.8503287 15.6869671,23.69801 15.241479,23.3977909 C14.8177441,23.1123384 14.5670042,22.5955012 14.5273595,22.1664505 C14.469437,21.5382229 13.9615214,21.0249899 13.2637489,21.0249899 C12.5658477,21.0249899 12.001168,21.5360137 12,22.1664505 C11.9980789,23.2177989 12.5744717,24.3400742 13.5074094,25.0130674 C14.4151187,25.6679218 15.5903009,26 17,26 C18.3833219,26 19.5680291,25.6394348 20.5211754,24.9281876 C21.5025104,24.1961273 22,23.266285 22,22.1644739 C22,21.2457941 21.700734,20.4874559 21.1104398,19.9106212" id="Fill-4" fill="url(#linearGradient-5)"></path>
                    </g>
                </g>
            </g>
        </g>
    </g>
</svg>